<svg width="24" height="24" viewBox="0 0 24 24" fill="none" xmlns="http://www.w3.org/2000/svg">
<path opacity="0.402367" d="M23.7611 3.72323C22.8789 4.12743 21.9477 4.38006 20.9675 4.53164C21.9477 3.92533 22.7319 2.96535 23.075 1.80326C22.1438 2.35904 21.1146 2.76325 19.9874 3.01587C19.1052 2.05589 17.8309 1.44958 16.4587 1.44958C13.8121 1.44958 11.6557 3.6727 11.6557 6.40108C11.6557 6.80528 11.7047 7.15896 11.8027 7.51264C7.83295 7.31053 4.25524 5.34004 1.85377 2.30852C1.46169 3.0664 1.21664 3.87481 1.21664 4.78426C1.21664 6.50213 2.04981 8.01789 3.37307 8.92735C2.58891 8.87682 1.85377 8.67472 1.16763 8.32104V8.37157C1.16763 10.7968 2.83396 12.8178 5.0394 13.2725C4.64732 13.3736 4.20623 13.4241 3.76515 13.4241C3.47109 13.4241 3.12802 13.3736 2.83396 13.3231C3.47109 15.2936 5.23544 16.7588 7.34285 16.7588C5.67652 18.0725 3.61812 18.8809 1.36367 18.8809C0.971595 18.8809 0.579518 18.8809 0.23645 18.8303C2.39288 20.245 4.89237 21.0535 7.63691 21.0535C16.5077 21.0535 21.3596 13.4746 21.3596 6.90633C21.3596 6.70423 21.3596 6.4516 21.3596 6.2495C22.2908 5.59267 23.124 4.73374 23.7611 3.72323Z" fill="#0B162B" fill-opacity="0.7"/>
</svg>
