<svg width="24" height="24" viewBox="0 0 24 24" fill="none" xmlns="http://www.w3.org/2000/svg">
<path opacity="0.402367" fill-rule="evenodd" clip-rule="evenodd" d="M1 0H23C23.55 0 24 0.45 24 1V23C24 23.55 23.55 24 23 24H1C0.45 24 0 23.55 0 23V1C0 0.45 0.45 0 1 0ZM3.5462 20.45H7.0962V9H3.5462V20.45ZM5.35055 7.45056C4.20058 7.45056 3.30061 6.55056 3.30061 5.40056C3.30061 4.25056 4.20058 3.35056 5.35055 3.35056C6.50051 3.35056 7.40048 4.25056 7.40048 5.40056C7.40048 6.50056 6.50051 7.45056 5.35055 7.45056ZM16.8995 20.4489H20.3995V14.1489C20.3995 11.0489 19.7495 8.69888 16.1495 8.69888C14.4495 8.69888 13.2495 9.64888 12.7995 10.5489H12.7495V8.99888H9.34952V20.4489H12.8995V14.7989C12.8995 13.2989 13.1995 11.8489 15.0495 11.8489C16.8995 11.8489 16.8995 13.5489 16.8995 14.8989V20.4489Z" fill="#0B162B" fill-opacity="0.7"/>
</svg>
