<svg width="24" height="24" viewBox="0 0 24 24" fill="none" xmlns="http://www.w3.org/2000/svg">
<path opacity="0.402367" fill-rule="evenodd" clip-rule="evenodd" d="M7.0525 0.072C8.3325 0.014 8.741 0 12 0C15.259 0 15.6675 0.014 16.9475 0.072C18.8985 0.161 20.611 0.639 21.986 2.014C23.3615 3.3895 23.839 5.1025 23.928 7.0525C23.986 8.3325 24 8.741 24 12C24 15.259 23.986 15.6675 23.928 16.9475C23.839 18.8985 23.361 20.611 21.986 21.986C20.6105 23.3615 18.897 23.839 16.9475 23.928C15.6675 23.986 15.259 24 12 24C8.741 24 8.3325 23.986 7.0525 23.928C5.1015 23.839 3.389 23.361 2.014 21.986C0.6385 20.6105 0.161 18.8975 0.072 16.9475C0.014 15.6675 0 15.259 0 12C0 8.741 0.014 8.3325 0.072 7.0525C0.161 5.1015 0.639 3.389 2.014 2.014C3.3895 0.6385 5.1025 0.161 7.0525 0.072ZM16.8473 2.23034C15.5818 2.17234 15.2023 2.16034 11.9983 2.16034C8.79433 2.16034 8.41483 2.17284 7.14932 2.23034C5.78382 2.29284 4.51632 2.56634 3.54132 3.54134C2.56632 4.51634 2.29282 5.78384 2.23032 7.14934C2.17232 8.41484 2.16032 8.79434 2.16032 11.9983C2.16032 15.2023 2.17282 15.5818 2.23032 16.8473C2.29282 18.2128 2.56632 19.4803 3.54132 20.4553C4.51632 21.4303 5.78382 21.7038 7.14932 21.7663C8.41432 21.8243 8.79383 21.8363 11.9983 21.8363C15.2028 21.8363 15.5823 21.8238 16.8473 21.7663C18.2128 21.7038 19.4803 21.4303 20.4553 20.4553C21.4303 19.4803 21.7038 18.2128 21.7663 16.8473C21.8243 15.5818 21.8363 15.2023 21.8363 11.9983C21.8363 8.79434 21.8238 8.41484 21.7663 7.14934C21.7038 5.78384 21.4303 4.51634 20.4553 3.54134C19.4803 2.56634 18.2128 2.29284 16.8473 2.23034Z" fill="#0B162B" fill-opacity="0.7"/>
<path opacity="0.402367" fill-rule="evenodd" clip-rule="evenodd" d="M6.54309 12.5472C6.54309 9.23371 9.22907 6.54724 12.5431 6.54724C15.8571 6.54724 18.5431 9.23322 18.5431 12.5472C18.5431 15.8613 15.8571 18.5472 12.5431 18.5472C9.22907 18.5472 6.54309 15.8608 6.54309 12.5472ZM8.64958 12.5447C8.64958 14.6956 10.3935 16.4395 12.5444 16.4395C14.6953 16.4395 16.4393 14.6956 16.4393 12.5447C16.4393 10.3938 14.6953 8.64984 12.5444 8.64984C10.3935 8.64984 8.64958 10.3938 8.64958 12.5447Z" fill="#0B162B" fill-opacity="0.7"/>
<circle opacity="0.402367" cx="18.3831" cy="5.61676" r="1.25433" fill="#0B162B" fill-opacity="0.7"/>
</svg>
