<svg width="731" height="872" viewBox="0 0 731 872" fill="none" xmlns="http://www.w3.org/2000/svg">
    <g clip-path="url(#clip0)">
    <path fill-rule="evenodd" clip-rule="evenodd" d="M731.001 820.181C710.738 816.494 689.918 809.772 668.436 802.835C625.589 788.999 580.104 774.311 531.132 781.164C488.578 787.118 444.276 806.95 400.615 826.496C320.371 862.417 242.29 897.371 181.196 843.427C120.113 789.492 138.088 713.453 156.839 634.137C170.686 575.564 184.955 515.203 168.121 460.637C156.324 422.399 119.312 394.027 83.0646 366.243C41.1719 334.131 0.302176 302.803 0.567693 257.933C0.859047 208.698 44.6541 181.951 89.8707 154.336C120.326 135.736 151.426 116.743 170.313 90.2184C189.975 62.6056 203.994 31.2524 217.159 0H718.141C722.513 4.71153 726.797 9.49393 731.001 14.3405V820.181Z" fill="#FFBF75"/>
    <path fill-rule="evenodd" clip-rule="evenodd" d="M731.001 169.242V498.316C723.537 500.922 715.921 503.404 708.291 505.89C669.006 518.692 629.358 531.612 608.368 562.058C585.215 595.641 589.606 646.158 593.757 693.916C599.972 765.426 593.757 807.38 526.529 822.719C456.086 826.695 411.207 759.092 411.207 701.715C389.037 654.524 395.316 625.986 351.948 607.957C312.276 591.464 267.619 607.088 223.46 622.537C176.735 638.885 130.567 655.037 91.4496 632.741C19.104 591.506 -13.7621 488.717 16.4615 416.736C34.9056 372.81 84.8023 356.44 136.136 339.598C170.739 328.245 205.995 316.678 232.711 296.313C253.252 280.655 266.203 258.903 279.026 237.366C294.641 211.141 310.066 185.235 338.771 171.042C397.867 141.823 467.105 141.883 534.424 147.135C551.747 148.487 569.742 149.19 587.919 149.9C637.576 151.841 688.596 153.835 731.001 169.242Z" fill="#FFA370"/>
    <path fill-rule="evenodd" clip-rule="evenodd" d="M730.999 499.376C688.771 531.187 637.231 552.528 584.088 551.246C536.247 550.092 499.057 520.563 461.57 490.797C446.473 478.811 431.329 466.786 415.421 456.56C401.732 447.761 385.885 440.267 370.027 432.769C331.419 414.513 292.746 396.226 284.985 358.98C278.464 327.686 300.963 302.592 324.154 276.727C341.229 257.683 358.679 238.221 365.2 215.558C371.001 195.394 366.728 174.178 362.507 153.215C357.467 128.19 352.501 103.526 364.834 81.4483C385.926 43.6932 424.343 19.0338 465.471 0H730.999V499.376Z" fill="#EE9F85"/>
    </g>
    <defs>
    <clipPath id="clip0">
    <rect width="730.435" height="871.249" fill="white" transform="translate(0.566406)"/>
    </clipPath>
    </defs>
    </svg>
