<svg width="420" height="708" viewBox="0 0 420 708" fill="none" xmlns="http://www.w3.org/2000/svg">
    <path d="M40.3993 478.625L56.9961 478.11L55.1492 418.801L38.5525 419.316L40.3993 478.625Z" fill="#906254"/>
    <path d="M61.3027 476.714C61.9601 480.538 62.647 484.363 63.3635 488.188C64.3496 496.562 65.9075 502.545 67.2584 503.47C67.8275 503.888 68.5244 504.097 69.2304 504.06C69.7508 503.957 70.2363 503.724 70.6405 503.381C72.6125 501.728 69.7727 492.33 68.767 488.699C67.611 484.511 66.7186 480.255 66.0949 475.956" fill="#906254"/>
    <path d="M52.7637 489.211L53.4145 500.665C53.4145 508.931 54.1934 514.983 55.2978 516.104C55.7514 516.608 56.3704 516.932 57.043 517.02C57.5158 517.012 57.9769 516.872 58.3742 516.616C60.297 515.347 58.7489 505.792 58.2361 502.092C57.6328 497.852 57.2772 493.581 57.1712 489.299" fill="#906254"/>
    <path d="M54.6652 494.028C56.9515 493.795 58.5586 491.196 58.2549 488.222C57.9512 485.249 55.8516 483.027 53.5654 483.259C51.2791 483.492 49.672 486.091 49.9757 489.064C50.2794 492.038 52.379 494.26 54.6652 494.028Z" fill="#FFA370"/>
    <path d="M64.6923 485.133C66.8197 484.692 68.0781 482.096 67.503 479.334C66.9279 476.573 64.7372 474.692 62.6098 475.133C60.4824 475.574 59.224 478.17 59.7991 480.932C60.3741 483.694 62.5649 485.575 64.6923 485.133Z" fill="#FFA370"/>
    <path d="M41.0886 487.302L39.8758 498.707C38.5742 506.874 38.3178 512.956 39.2348 514.245C39.5988 514.813 40.1551 515.232 40.8026 515.425C41.2712 515.498 41.7508 515.433 42.1831 515.238C44.2833 514.254 44.3129 504.601 44.4016 500.881C44.4883 496.602 44.8175 492.331 45.3877 488.089" fill="#906254"/>
    <path d="M47.755 488.578C48.0384 485.603 46.4136 483.014 44.1258 482.797C41.838 482.58 39.7537 484.817 39.4702 487.792C39.1868 490.768 40.8116 493.356 43.0994 493.573C45.3872 493.79 47.4715 491.554 47.755 488.578Z" fill="#FFA370"/>
    <path d="M30.8644 480.207L27.4133 488.68C24.4059 494.712 23.0649 499.268 24.0214 500.311C24.5155 500.805 25.142 501.147 25.8258 501.295C26.4196 501.397 27.0266 501.397 27.6204 501.295C30.4602 500.763 32.1068 493.482 32.8266 490.687C33.6854 487.426 34.8338 484.248 36.258 481.191" fill="#906254"/>
    <path d="M37.7507 481.48C38.807 478.683 37.92 475.76 35.7695 474.951C33.6191 474.142 31.0196 475.754 29.9633 478.551C28.907 481.348 29.7941 484.271 31.9445 485.08C34.0949 485.889 36.6945 484.277 37.7507 481.48Z" fill="#FFA370"/>
    <path d="M32.4816 469.688C34.6509 464.974 42.8152 464.433 46.286 464.207C47.4693 464.128 62.1907 463.321 65.0896 470.327C67.89 477.087 59.3016 490.254 48.7905 490.264C37.8949 490.283 29.5038 476.153 32.4816 469.688Z" fill="#906254"/>
    <path d="M31.7775 347.554L55.0957 346.831L52.4923 263.228L29.1741 263.952L31.7775 347.554Z" fill="#906254"/>
    <path d="M45.8905 464.305C56.2537 463.055 60.4739 469.343 65.7492 468.162C78.6267 465.269 79.2381 420.2 79.031 402.636C78.8042 383.939 78.1041 326.757 60.681 322.929C55.4944 321.778 52.8716 326.275 40.3095 326.737C27.925 327.19 24.3358 323.057 19.4353 324.828C14.5347 326.6 7.36624 334.669 9.75244 381.066C11.6062 417.15 18.8141 468.192 32.4312 469.215C36.3457 469.5 37.8839 465.259 45.8905 464.305Z" fill="white"/>
    <path d="M64.0927 225.235C45.3582 219.272 26.5447 238.47 20.2144 244.916C17.2563 247.917 -1.58679 267.706 0.138767 294.57C0.464158 299.49 1.40089 314.044 8.81584 316.72C17.9268 320.007 26.2587 301.547 42.0845 302.353C54.262 302.964 56.6088 314.26 65.2858 313.316C79.5636 311.761 94.2061 278.874 85.7953 252.02C84.3557 247.494 78.8832 229.958 64.0927 225.235Z" fill="white"/>
    <path d="M52.5865 224.438C48.2131 225.189 44.003 226.691 40.1428 228.875C29.5923 236.649 12.5339 252.158 5.28659 277.241C2.42521 287.282 1.40308 297.756 2.26933 308.159C3.25536 311.347 4.80343 314.22 7.08116 315.815C4.40934 303.14 4.85936 290.008 8.39258 277.546C14.3088 257.147 26.93 244.895 33.8026 238.421C39.4999 233.049 45.8035 228.356 52.5865 224.438V224.438Z" fill="#FFA370"/>
    <path d="M23.3407 324.474C17.6049 330.727 14.0582 338.669 13.2339 347.107C11.1237 366.345 15.0876 399.034 16.9019 415.92C18.874 434.341 19.0219 440.462 22.9068 450.893C25.3016 457.293 28.3828 463.417 32.0966 469.156L32.4023 469.205C33.1363 469.255 33.8725 469.147 34.5617 468.89C32.4312 465.586 30.4858 462.166 28.7343 458.647C21.2306 443.552 20.0966 432.157 17.385 391.585C15.1665 358.384 14.6833 347.53 21.3883 334.137C22.9467 331.02 24.7571 328.035 26.8016 325.212C25.6632 324.9 24.5076 324.653 23.3407 324.474V324.474Z" fill="#FFA370"/>
    <path d="M367.492 324.438L352.875 332.299L381.081 384.534L395.699 376.673L367.492 324.438Z" fill="#906254"/>
    <path d="M251.72 530.667C323.965 510.415 358.855 409.882 329.649 306.121C300.444 202.36 218.202 134.663 145.957 154.915C73.7124 175.167 38.8223 275.7 68.028 379.461C97.2337 483.222 179.475 550.919 251.72 530.667Z" fill="#F9F6F4"/>
    <path d="M333.955 455.381C345.916 430.667 344.982 405.509 331.87 399.189C318.757 392.869 298.431 407.779 286.471 432.493C274.51 457.206 275.444 482.364 288.557 488.684C301.669 495.005 321.995 480.094 333.955 455.381Z" fill="#906254"/>
    <path d="M376.281 386.183C377.517 389.902 378.743 393.615 379.959 397.322C383.065 405.194 384.593 411.236 383.844 412.702C383.532 413.356 383.002 413.881 382.345 414.188C381.837 414.346 381.297 414.369 380.777 414.257C378.253 413.726 376.241 404.062 375.393 400.372C374.408 396.116 373.156 391.926 371.646 387.826" fill="#906254"/>
    <path d="M389.217 392.215C390.86 395.692 392.503 399.172 394.147 402.655C398.091 409.986 400.319 415.694 399.876 417.209C399.718 417.872 399.326 418.456 398.771 418.853C398.35 419.073 397.875 419.168 397.401 419.128C395.083 418.921 391.869 409.721 390.558 406.208C389.059 402.175 387.328 398.232 385.371 394.399" fill="#906254"/>
    <path d="M389.821 397.396C391.953 396.512 392.744 393.545 391.588 390.77C390.431 387.995 387.766 386.462 385.634 387.347C383.502 388.232 382.711 391.199 383.867 393.974C385.023 396.749 387.689 398.281 389.821 397.396Z" fill="#FFA370"/>
    <path d="M378.765 393.89C380.862 393.258 381.893 390.538 381.069 387.815C380.244 385.091 377.877 383.396 375.78 384.028C373.684 384.66 372.653 387.38 373.477 390.104C374.301 392.827 376.669 394.522 378.765 393.89Z" fill="#FFA370"/>
    <path d="M398.623 384.943C400.812 388.111 402.995 391.283 405.171 394.458C410.239 401.061 413.384 406.326 413.187 407.9C413.136 408.575 412.846 409.21 412.369 409.691C411.989 409.98 411.533 410.152 411.057 410.183C408.74 410.351 404.066 401.799 402.183 398.542C400.045 394.803 397.695 391.189 395.143 387.718" fill="#906254"/>
    <path d="M399.883 391.444C401.801 390.161 401.996 387.097 400.319 384.6C398.642 382.104 395.728 381.121 393.81 382.404C391.893 383.687 391.697 386.751 393.374 389.247C395.051 391.744 397.966 392.727 399.883 391.444Z" fill="#FFA370"/>
    <path d="M404.274 373.804L411.383 379.649C416.944 383.585 420.257 386.941 419.971 388.308C419.784 388.996 419.396 389.613 418.857 390.08C418.377 390.449 417.837 390.732 417.26 390.916C414.489 391.792 409.549 386.143 407.567 384.028C405.24 381.544 402.696 379.272 399.965 377.238" fill="#906254"/>
    <path d="M405.66 378.649C407.174 376.908 406.557 373.901 404.282 371.931C402.008 369.961 398.937 369.775 397.424 371.516C395.91 373.256 396.527 376.264 398.802 378.233C401.076 380.203 404.147 380.389 405.66 378.649Z" fill="#FFA370"/>
    <path d="M397.806 365.253C393.625 362.113 386.141 365.538 382.946 367.004C381.862 367.506 368.452 373.814 369.24 381.4C370.01 388.722 383.913 396.259 393.231 391.241C402.894 386.055 403.535 369.553 397.806 365.253Z" fill="#906254"/>
    <path d="M296.547 185.663L276.01 196.708L315.77 270.339L336.307 259.294L296.547 185.663Z" fill="#906254"/>
    <path d="M382.759 367.378C373.165 371.491 372.672 379.039 367.515 380.652C354.913 384.588 331.741 345.906 323.094 330.605C313.904 314.339 285.763 264.497 298.916 252.453C302.861 248.871 307.357 251.469 318.46 245.565C329.395 239.759 330.43 234.386 335.557 233.471C340.685 232.556 350.939 235.941 372.188 277.28C388.724 309.428 408.129 357.193 396.889 364.859C393.625 367.102 390.164 364.199 382.759 367.378Z" fill="white"/>
    <path d="M246.281 170.404C259.208 155.644 285.288 162.375 294.035 164.638C298.117 165.691 324.503 172.914 336.927 196.816C339.205 201.195 345.929 214.145 340.96 220.255C334.856 227.764 318.173 216.25 305.029 225.097C294.922 231.897 298.758 242.809 290.84 246.441C277.804 252.463 248.253 231.857 241.538 204.521C240.424 199.916 236.056 182.046 246.281 170.404Z" fill="white"/>
    <path d="M315.531 418.892C303.008 429.027 298.335 441.889 295.17 450.981C289.378 467.889 287.994 485.989 291.147 503.578C292.833 512.778 300.208 527.676 314.88 557.079C329.671 586.708 333.033 591.589 335.695 597.572C337.007 600.524 337.766 602.797 338.101 603.722C342.696 616.397 348.031 631.088 355.682 640.909C356.668 642.149 372.642 662.331 382.7 658.621C397.352 653.258 416.156 616.308 412.478 566.644C412.478 566.644 414.065 504.05 375.442 440.108C362.535 418.744 351.659 408.52 339.462 408.225C328.961 407.999 320.156 415.123 315.531 418.892Z" fill="white"/>
    <path d="M205.756 514.29C213.004 501.686 199.543 480.394 175.691 466.734C151.839 453.074 126.627 452.218 119.379 464.822C112.131 477.426 125.592 498.718 149.444 512.378C173.297 526.038 198.508 526.894 205.756 514.29Z" fill="#906254"/>
    <path d="M144.069 471.813C160.131 473.112 171.274 481.102 179.034 486.82C193.377 497.511 204.758 511.67 212.105 527.962C215.921 536.513 218.258 552.956 222.794 585.498C227.349 618.276 227.329 624.2 228.513 630.636C229.104 633.824 229.765 636.126 230.011 637.071C233.384 650.119 237.298 665.254 236.539 677.672C236.44 679.247 234.656 704.91 224.273 707.538C209.147 711.365 172.723 691.468 147.658 648.407C147.658 648.407 110.938 597.641 106.639 523.101C105.21 498.195 108.394 483.621 118.294 476.507C126.784 470.416 138.044 471.351 144.069 471.813Z" fill="white"/>
    <path d="M163.264 221.263C201.951 209.199 228.942 185.461 223.55 168.244C218.159 151.027 182.427 146.85 143.741 158.915C105.055 170.98 78.0638 194.718 83.4551 211.935C88.8463 229.152 124.578 233.328 163.264 221.263Z" fill="#906254"/>
    <path d="M126.488 215.503C186.118 215.503 234.458 167.261 234.458 107.751C234.458 48.2419 186.118 0 126.488 0C66.8576 0 18.5176 48.2419 18.5176 107.751C18.5176 167.261 66.8576 215.503 126.488 215.503Z" fill="white"/>
    <path d="M206.731 78.1224L207.648 48.7195L152.835 45.5903C151.625 59.1437 150.409 72.7004 149.186 86.2603L142.383 92.3121L180.158 132.175L222.172 93.6799L206.731 78.1224Z" fill="#906254"/>
    <path d="M152.87 45.5931L1.89453 92.9834L29.1866 179.578L180.163 132.187L152.87 45.5931Z" fill="#A17162"/>
    <path d="M228.459 111.662C242.308 107.386 247.925 85.822 241.004 63.497C234.084 41.1719 217.247 26.5398 203.398 30.8155C189.549 35.0911 183.932 56.6552 190.853 78.9803C197.774 101.305 214.611 115.937 228.459 111.662Z" fill="#FFA370"/>
    <path d="M230.703 110.967C244.229 106.791 249.715 85.7288 242.955 63.9229C236.195 42.117 219.75 27.8251 206.224 32.0011C192.698 36.1772 187.212 57.2397 193.972 79.0456C200.731 100.852 217.176 115.143 230.703 110.967Z" fill="#F9F6F4"/>
    <path d="M257.139 162.985C261.313 161.444 265.724 160.639 270.174 160.604C283.199 162.04 305.77 166.911 324.623 184.998C332.145 192.251 338.292 200.802 342.766 210.238C343.495 213.505 343.623 216.752 342.46 219.271C338.399 206.963 331.409 195.821 322.089 186.798C306.756 172.087 289.648 167.826 280.448 165.661C272.809 163.871 264.986 162.973 257.139 162.985Z" fill="#FFA370"/>
    <path d="M331.762 235.183C336.28 236.619 340.506 238.845 344.245 241.756C347.146 244.038 349.712 246.714 351.867 249.707C363.364 265.294 376.37 295.553 383.282 311.081C390.815 328.007 393.773 333.37 395.656 344.342C396.802 351.077 397.215 357.916 396.889 364.74C396.814 364.811 396.731 364.874 396.642 364.927C396.033 365.345 395.34 365.624 394.611 365.744C394.798 361.809 394.761 357.867 394.503 353.936C393.428 337.158 388.675 326.698 370.631 290.289C355.84 260.463 350.831 250.829 338.299 242.593C335.388 240.675 332.325 239 329.139 237.584C329.965 236.733 330.841 235.931 331.762 235.183V235.183Z" fill="#FFA370"/>
    <path d="M218.476 707.921C209.958 699.907 201.871 691.449 194.249 682.582C176.934 662.498 147.906 628.795 133.815 577.626C122.18 535.43 125.178 497.722 130.078 471.96C128.04 472.268 126.038 472.779 124.103 473.486C120.473 492.834 119.353 512.569 120.77 532.203C127.071 618.03 181.145 678.44 211.939 706.73C214.074 707.339 216.263 707.738 218.476 707.921V707.921Z" fill="#FFA370"/>
    <path d="M389.187 655.227C391.696 643.806 393.595 632.26 394.876 620.638C397.775 594.325 402.646 550.162 385.351 499.976C371.083 458.647 347.271 429.126 328.645 410.665C330.504 409.775 332.446 409.067 334.442 408.55C348.386 422.479 360.479 438.138 370.423 455.144C413.808 529.536 403.326 609.853 393.91 650.562C392.495 652.27 390.913 653.833 389.187 655.227V655.227Z" fill="#FFA370"/>
    <path d="M175.628 365.197C198.002 359.936 210.866 333.341 204.362 305.798C197.858 278.254 174.449 260.191 152.075 265.452C129.702 270.714 116.837 297.308 123.341 324.852C129.845 352.396 153.255 370.459 175.628 365.197Z" fill="white" stroke="#FFA370" stroke-width="5.77" stroke-miterlimit="10"/>
    <path d="M176.5 299.647C175.095 307.296 173.232 314.854 170.919 322.28L173.877 334.787C174.764 338.575 173.472 341.134 170.159 341.911C166.846 342.689 164.49 340.996 163.592 337.198L160.634 324.632C153.407 316.848 148.388 310.934 145.607 306.919C144.825 305.933 144.23 304.812 143.852 303.613C143.583 302.223 143.862 300.783 144.632 299.595C145.402 298.406 146.603 297.561 147.984 297.236C150.133 296.725 151.829 297.945 153.703 300.946C155.166 303.229 156.749 305.433 158.445 307.549C160.023 309.703 161.719 311.77 163.523 313.738C164.036 311.997 164.647 309.399 165.318 306.004C165.988 302.609 166.412 299.992 166.59 297.915C166.925 294.392 167.901 292.552 170.051 292.011C171.42 291.719 172.848 291.958 174.046 292.68C175.244 293.403 176.122 294.553 176.5 295.898C176.728 297.137 176.728 298.408 176.5 299.647Z" fill="#FFA370"/>
    <path d="M62.5159 72.5835L105.755 60.2241L101.447 162.105L56.2506 173.984L62.5159 72.5835Z" fill="white" fill-opacity="0.1"/>
    <path d="M114.532 53.5538L118.92 50.4985L114.063 156.397L109.221 158.369L114.532 53.5538Z" fill="white" fill-opacity="0.1"/>
    </svg>
