<svg width="755" height="918" viewBox="0 0 755 918" fill="none" xmlns="http://www.w3.org/2000/svg">
    <g clip-path="url(#clip0)">
    <path fill-rule="evenodd" clip-rule="evenodd" d="M754.999 717.003C726.582 719.443 698.045 725.012 670.919 738.786C632.917 758.084 597.746 790.964 563.084 823.368C499.381 882.923 437.394 940.873 362.698 909.953C288.015 879.037 280.378 801.911 272.411 721.46C266.527 662.05 260.465 600.827 227.09 555.061C203.702 522.99 159.838 508.3 116.881 493.915C67.2333 477.288 18.7981 461.068 4.58927 418.889C-11.0021 372.606 21.4648 333.402 54.9856 292.927C77.5632 265.665 100.619 237.825 109.79 206.856C120.552 170.517 123.058 132.03 125.512 94.3463C127.641 61.6505 129.73 29.5591 137.139 0H679.644C703.321 17.2064 726.47 35.3813 749.722 53.6374C751.48 55.0181 753.239 56.3993 754.999 57.7805V717.003Z" fill="#FFA370"/>
    <path fill-rule="evenodd" clip-rule="evenodd" d="M754.999 305.864V598.697C748.261 601.015 741.384 603.224 734.495 605.437C699.026 616.828 663.229 628.326 644.277 655.419C623.374 685.303 627.338 730.256 631.086 772.754C635.933 827.717 640.418 878.574 590.278 887.42C539.645 896.352 517.102 849.058 493.018 798.528C473.001 756.534 451.92 712.306 412.764 696.263C376.946 681.586 336.627 695.489 296.757 709.237C254.57 723.784 212.886 738.158 177.569 718.318C112.25 681.623 82.5762 590.155 109.864 526.102C126.517 487.013 171.567 472.445 217.915 457.458C249.157 447.356 280.988 437.063 305.109 418.941C323.654 405.007 335.348 385.651 346.926 366.486C361.024 343.149 374.95 320.096 400.867 307.466C454.223 281.465 516.736 281.519 577.516 286.192C593.157 287.395 609.404 288.02 625.815 288.653C670.649 290.379 716.713 292.154 754.999 305.864Z" fill="#FFBF75"/>
    <path fill-rule="evenodd" clip-rule="evenodd" d="M754.998 491.828C712.77 523.158 661.23 544.176 608.087 542.914C560.246 541.777 523.056 512.694 485.569 483.379C470.472 471.573 455.328 459.73 439.42 449.659C425.731 440.993 409.884 433.613 394.026 426.227C355.418 408.247 316.745 390.237 308.984 353.553C302.463 322.733 324.962 298.018 348.153 272.544C365.228 253.788 382.678 234.62 389.199 212.3C395 192.441 390.727 171.545 386.506 150.899C381.466 126.252 376.5 101.961 388.833 80.2172C409.925 43.0327 448.342 18.7461 489.47 0H754.998V491.828Z" fill="#F1987C"/>
    </g>
    <defs>
    <clipPath id="clip0">
    <rect width="754" height="918" fill="white" transform="translate(0.566406)"/>
    </clipPath>
    </defs>
    </svg>
