<svg width="135" height="63" viewBox="0 0 135 63" fill="none" xmlns="http://www.w3.org/2000/svg">
<path d="M83.68 49.432C84.744 49.432 85.62 49.692 86.308 50.212C86.996 50.732 87.424 51.436 87.592 52.324H85.42C85.276 52.02 85.056 51.78 84.76 51.604C84.464 51.42 84.108 51.328 83.692 51.328C83.044 51.328 82.524 51.548 82.132 51.988C81.74 52.42 81.544 53.008 81.544 53.752C81.544 54.56 81.748 55.18 82.156 55.612C82.572 56.044 83.16 56.26 83.92 56.26C84.408 56.26 84.836 56.128 85.204 55.864C85.572 55.592 85.832 55.208 85.984 54.712H83.392V53.236H87.7V55.264C87.54 55.76 87.284 56.22 86.932 56.644C86.58 57.068 86.128 57.412 85.576 57.676C85.032 57.94 84.408 58.072 83.704 58.072C82.848 58.072 82.1 57.892 81.46 57.532C80.82 57.164 80.324 56.652 79.972 55.996C79.628 55.34 79.456 54.592 79.456 53.752C79.456 52.912 79.628 52.164 79.972 51.508C80.324 50.852 80.816 50.344 81.448 49.984C82.088 49.616 82.832 49.432 83.68 49.432ZM96.2046 58L94.3686 54.796H93.9006V58H91.8486V49.516H95.3526C96.0246 49.516 96.5926 49.632 97.0566 49.864C97.5206 50.096 97.8686 50.416 98.1006 50.824C98.3326 51.224 98.4486 51.684 98.4486 52.204C98.4486 52.82 98.2766 53.344 97.9326 53.776C97.5966 54.208 97.1046 54.504 96.4566 54.664L98.4726 58H96.2046ZM93.9006 53.392H95.1726C95.5806 53.392 95.8806 53.304 96.0726 53.128C96.2646 52.944 96.3606 52.676 96.3606 52.324C96.3606 51.988 96.2606 51.724 96.0606 51.532C95.8686 51.34 95.5726 51.244 95.1726 51.244H93.9006V53.392ZM106.51 49.384C107.31 49.384 108.034 49.572 108.682 49.948C109.338 50.316 109.854 50.832 110.23 51.496C110.606 52.152 110.794 52.896 110.794 53.728C110.794 54.56 110.602 55.308 110.218 55.972C109.842 56.636 109.326 57.156 108.67 57.532C108.022 57.9 107.302 58.084 106.51 58.084C105.718 58.084 104.994 57.9 104.338 57.532C103.69 57.156 103.174 56.636 102.79 55.972C102.414 55.308 102.226 54.56 102.226 53.728C102.226 52.896 102.414 52.152 102.79 51.496C103.174 50.832 103.69 50.316 104.338 49.948C104.994 49.572 105.718 49.384 106.51 49.384ZM106.51 51.292C105.838 51.292 105.302 51.512 104.902 51.952C104.51 52.384 104.314 52.976 104.314 53.728C104.314 54.472 104.51 55.064 104.902 55.504C105.302 55.944 105.838 56.164 106.51 56.164C107.174 56.164 107.706 55.944 108.106 55.504C108.506 55.064 108.706 54.472 108.706 53.728C108.706 52.984 108.506 52.392 108.106 51.952C107.714 51.512 107.182 51.292 106.51 51.292ZM128.365 55.024V58H126.313V49.516H129.637C130.645 49.516 131.413 49.768 131.941 50.272C132.469 50.768 132.733 51.44 132.733 52.288C132.733 52.816 132.613 53.288 132.373 53.704C132.141 54.112 131.793 54.436 131.329 54.676C130.865 54.908 130.301 55.024 129.637 55.024H128.365ZM129.409 53.38C130.233 53.38 130.645 53.016 130.645 52.288C130.645 51.544 130.233 51.172 129.409 51.172H128.365V53.38H129.409Z" fill="#2E2E2E"/>
<path d="M116.938 49.516V54.412C116.938 54.972 117.062 55.4 117.31 55.696C117.566 55.992 117.934 56.14 118.414 56.14C118.894 56.14 119.258 55.992 119.506 55.696C119.762 55.4 119.89 54.972 119.89 54.412V49.516H121.942V54.412C121.942 55.212 121.786 55.888 121.474 56.44C121.162 56.984 120.734 57.396 120.19 57.676C119.654 57.948 119.046 58.084 118.366 58.084C117.686 58.084 117.086 57.948 116.566 57.676C116.046 57.404 115.638 56.992 115.342 56.44C115.046 55.888 114.898 55.212 114.898 54.412V49.516H116.938Z" fill="#EC641D"/>
<path d="M30.0818 2.81676C29.597 2.04955 28.6276 1.53809 27.6582 1.53809C26.758 1.53809 25.9271 1.98562 25.3731 2.68889L15.1942 15.4117L5.15383 2.75282C4.59987 1.98562 3.76894 1.60202 2.79952 1.60202C1.76086 1.60202 0.652951 2.17742 0.237486 3.00856C-0.17798 3.77576 -0.0394914 4.67083 0.583707 5.43804L12.4245 20.0149V30.7557C12.4245 32.2901 13.5324 33.3131 15.1942 33.3131C16.5791 33.3131 17.964 32.3541 17.964 30.7557V20.0149L29.8048 5.3741L29.874 5.31017C30.428 4.47903 30.4972 3.58396 30.0818 2.81676Z" fill="#2E2E2E"/>
<path d="M98.1494 14.1016C98.0825 15.091 97.8819 16.2124 97.5475 17.136C96.4106 19.7746 93.6688 21.4237 90.5257 21.4237C86.7138 21.2258 83.7045 18.7851 83.7045 15.3549V11.7268C83.7045 7.50502 87.5832 5.59203 90.8601 5.52606C92.5319 5.65799 93.9363 6.18572 95.0732 7.04326C97.1463 8.82433 98.2163 11.1331 98.1494 14.1016ZM95.4075 1.43621C93.9363 0.842522 92.2644 0.512695 90.6594 0.512695C88.5195 0.512695 85.577 1.17235 83.6376 2.82148C83.437 1.56814 82.5008 0.776557 81.1633 0.776557C79.5583 0.776557 78.4883 1.832 78.4883 3.34921V31.0546C78.4883 32.5059 79.6251 33.5613 81.1633 33.5613C82.7014 33.5613 83.8382 32.5059 83.8382 31.0546V24.3922C85.5101 25.7115 88.1851 26.4371 90.7263 26.4371C98.0825 26.4371 103.366 21.3577 103.566 14.1675C103.633 8.29661 100.624 3.5471 95.4075 1.43621ZM121.087 25.6455V29.2076C120.887 33.0336 118.279 35.4084 114.266 35.4084C112.661 35.2764 111.19 34.7487 110.053 33.8912C107.98 32.1761 106.977 29.8013 107.044 26.8988C107.111 25.7774 107.311 24.656 107.646 23.8644C108.716 21.2918 111.457 19.5767 114.534 19.5767H114.601C118.68 19.7086 121.087 22.0174 121.087 25.6455ZM123.695 14.6952C122.425 14.6952 121.422 15.4209 121.154 16.6082C119.549 15.2889 117.342 14.5633 114.734 14.4973H114.266C112.461 14.4973 110.856 14.8272 109.451 15.4209C104.837 17.2019 101.827 21.6216 101.694 26.8329C101.56 31.6483 103.566 35.8701 107.311 38.3768C109.251 39.7621 111.859 40.4877 114.534 40.4877C116.674 40.4877 119.215 39.6301 121.087 38.047C121.288 39.3003 122.291 40.1579 123.695 40.1579C125.3 40.1579 126.37 39.1024 126.37 37.5852V17.2679C126.37 15.7507 125.3 14.6952 123.695 14.6952ZM132.389 4.60255C130.851 4.60255 129.714 5.65799 129.714 7.10923V34.4848C129.714 35.9361 130.851 36.9915 132.389 36.9915C133.86 36.9915 134.997 35.8701 134.997 34.4848V7.10923C135.064 5.72396 133.86 4.60255 132.389 4.60255Z" fill="#EC641D"/>
<path d="M72.4847 11.9836C70.8479 11.9836 69.825 12.9475 69.825 14.4897V24.8355C69.825 29.3337 65.7332 32.2896 61.9142 32.2896C58.7772 32.2896 55.572 30.0405 55.572 26.2492V14.4255C55.572 12.9475 54.4808 11.9194 52.8441 11.9194C51.2074 11.9194 50.1845 12.8833 50.1845 14.4255V26.185C50.1845 33.3178 56.0493 37.0448 61.9142 37.0448C65.1877 37.0448 67.9837 36.0167 69.9614 34.2816C69.9614 35.0528 70.3024 35.6954 70.8479 36.1452C71.3253 36.5307 72.0073 36.7878 72.6892 36.7878C73.985 36.7878 75.3489 35.9524 75.3489 34.3459V14.4255C75.2125 12.9475 74.1214 11.9836 72.4847 11.9836ZM33.8855 35.4383C29.1118 35.4383 25.1564 31.7755 25.1564 27.2131C25.1564 22.715 29.0436 18.9879 33.8855 18.9879C38.6593 18.9879 42.6147 22.6507 42.6147 27.2131C42.5465 31.7755 38.6593 35.4383 33.8855 35.4383ZM42.6147 16.8031C39.7504 14.6825 35.795 13.7186 32.8626 14.0399C29.9301 14.3612 28.9754 12.819 29.9983 10.7627L23.9289 17.9598L22.9741 19.1164C18.1322 24.8998 19.0869 33.1892 25.0882 37.6874C31.0895 42.1856 39.8868 41.1574 44.7287 35.3741C49.5707 29.5907 48.6841 21.3012 42.6147 16.8031Z" fill="#2E2E2E"/>
</svg>
