<svg width="76" height="30" viewBox="0 0 76 30" fill="none" xmlns="http://www.w3.org/2000/svg">
<path fill-rule="evenodd" clip-rule="evenodd" d="M63.3792 29.74V15.4601H55.0434V29.74H63.3792ZM63.3792 14.2799H55.0434V0H63.3792V14.2799ZM74.0965 15.4707C75.1928 17.0305 75.8782 18.9063 75.8782 20.8137C75.8782 25.7244 71.863 29.74 66.9515 29.74H64.5704V15.4601L74.0965 15.4707ZM64.5704 14.2799L73.0327 14.301C72.2739 13.5949 71.2409 12.9099 70.2395 12.5412C72.3055 11.3399 73.6435 9.10556 73.6435 6.69198C73.6435 3.03532 70.609 0 66.9515 0H64.5704V14.2799ZM40.1629 29.74H31.8478V15.4601H40.1629V29.74ZM40.1629 14.2799H31.8478V0H40.1629V14.2799ZM41.3536 29.74V15.4601L50.8806 15.4707C51.976 17.0305 52.6615 18.9063 52.6615 20.8137C52.6615 25.7244 48.6463 29.74 43.7356 29.74H41.3536ZM41.3536 14.2799V0H43.7356C47.3922 0 50.4377 3.03492 50.4377 6.69198C50.4377 9.10556 49.0888 11.3395 47.0228 12.5412C48.0241 12.9099 49.0571 13.5949 49.816 14.301L41.3536 14.2799ZM14.2904 14.2799H5.41686L10.4123 0.000405352H14.2904V14.2799ZM24.3442 14.2799L19.3386 0H15.4816V14.2795H24.3442V14.2799ZM29.7611 29.74H22.3208L20.2447 23.7963H15.4812V15.4601H24.766L29.7611 29.74ZM0 29.74H7.44068L9.52736 23.7963H14.2908V15.4601H5.00601L0 29.74Z" fill="#5C606D"/>
</svg>
