<svg width="104" height="83" viewBox="0 0 104 83" fill="none" xmlns="http://www.w3.org/2000/svg">
<g clip-path="url(#clip0)">
<path d="M73.7129 4.91726C73.3067 6.44589 71.7351 7.35451 70.2064 6.9483C68.6776 6.54209 67.7689 4.9707 68.1751 3.44208C68.5921 1.90276 70.1636 1.00483 71.6924 1.41103C73.2212 1.81724 74.1299 3.38863 73.7129 4.91726Z" fill="#5C606D"/>
<path d="M69.9818 15.1578C69.7038 16.1734 68.6668 16.7827 67.6405 16.5047C66.6249 16.2375 66.0262 15.1899 66.2935 14.1744C66.5714 13.1589 67.6191 12.5495 68.6348 12.8168C69.6504 13.0947 70.2598 14.1423 69.9818 15.1578Z" fill="#5C606D"/>
<path d="M67.2022 23.1963C67.0205 23.9018 66.3042 24.3081 65.5986 24.1263C64.9037 23.9339 64.4974 23.2177 64.6792 22.5229C64.8716 21.828 65.5879 21.4111 66.2828 21.5929C66.9777 21.7853 67.3946 22.5015 67.2022 23.1963Z" fill="#5C606D"/>
<path d="M65.064 29.4612C64.9357 29.9209 64.4653 30.1988 64.0056 30.0706C63.5459 29.953 63.2786 29.4826 63.4069 29.023C63.5245 28.5633 63.9949 28.2854 64.4546 28.4137C64.9143 28.5312 65.1922 29.0016 65.064 29.4612Z" fill="#5C606D"/>
<path d="M82.7466 9.47133C81.9555 10.8396 80.2022 11.31 78.8338 10.5189C77.4654 9.72789 76.995 7.97478 77.7861 6.60649C78.5772 5.23821 80.3305 4.76786 81.6989 5.5589C83.0674 6.34994 83.5485 8.10305 82.7466 9.47133Z" fill="#5C606D"/>
<path d="M76.4924 18.3966C75.9686 19.3052 74.8033 19.6152 73.8839 19.0914C72.9751 18.5676 72.6651 17.4024 73.189 16.4831C73.7128 15.5745 74.8781 15.2645 75.7975 15.7883C76.7062 16.3121 77.0163 17.4773 76.4924 18.3966Z" fill="#5C606D"/>
<path d="M71.7352 25.4417C71.3717 26.0724 70.5699 26.2862 69.9392 25.9227C69.3191 25.5593 69.1053 24.7575 69.4688 24.1375C69.8216 23.5068 70.6234 23.293 71.2541 23.6565C71.8742 24.0199 72.088 24.811 71.7352 25.4417Z" fill="#5C606D"/>
<path d="M68.0361 30.9364C67.8009 31.3533 67.2771 31.4923 66.8601 31.2571C66.4539 31.0112 66.3042 30.4874 66.5501 30.0812C66.7853 29.6643 67.3091 29.5254 67.7261 29.7605C68.1323 30.0064 68.282 30.5302 68.0361 30.9364Z" fill="#5C606D"/>
<path d="M90.7114 16.6224C89.3644 17.9693 87.1727 17.9693 85.8257 16.6224C84.4787 15.2755 84.4787 13.0841 85.8257 11.7372C87.1727 10.3903 89.3644 10.3903 90.7114 11.7372C92.0691 13.0841 92.0691 15.2755 90.7114 16.6224Z" fill="#5C606D"/>
<path d="M82.1908 23.4533C81.3035 24.3298 79.8816 24.3298 78.9943 23.4533C78.1176 22.566 78.1176 21.1443 78.9943 20.257C79.8816 19.3805 81.3035 19.3805 82.1908 20.257C83.0675 21.1443 83.0675 22.566 82.1908 23.4533Z" fill="#5C606D"/>
<path d="M75.5198 28.7764C75.0066 29.2895 74.1834 29.2895 73.6703 28.7764C73.1571 28.2633 73.1571 27.4402 73.6703 26.9271C74.1834 26.4247 75.0066 26.4247 75.5198 26.9271C76.0329 27.4402 76.0329 28.2633 75.5198 28.7764Z" fill="#5C606D"/>
<path d="M70.5271 33.1383C70.1957 33.4696 69.6505 33.4696 69.3191 33.1383C68.977 32.7962 68.977 32.251 69.3191 31.9196C69.6505 31.5776 70.1957 31.5776 70.5271 31.9196C70.8692 32.251 70.8692 32.7962 70.5271 33.1383Z" fill="#5C606D"/>
<path d="M96.3667 25.5698C94.4958 26.6495 92.101 26.0081 91.0213 24.1374C89.9308 22.2667 90.5829 19.8722 92.4538 18.7818C94.3247 17.7022 96.7195 18.3542 97.7992 20.2249C98.8897 22.0956 98.2482 24.4901 96.3667 25.5698Z" fill="#5C606D"/>
<path d="M86.2211 29.7172C85.0665 30.3907 83.5698 29.9845 82.8963 28.8193C82.2334 27.6648 82.629 26.1789 83.7943 25.5055C84.9489 24.832 86.4456 25.2276 87.1191 26.3927C87.782 27.5579 87.3864 29.0438 86.2211 29.7172Z" fill="#5C606D"/>
<path d="M78.652 33.5763C77.7005 34.1322 76.4818 33.8008 75.9258 32.8494C75.3806 31.8981 75.7013 30.6687 76.6635 30.1236C77.615 29.5677 78.8337 29.8991 79.3896 30.8505C79.9456 31.8018 79.6141 33.0312 78.652 33.5763Z" fill="#5C606D"/>
<path d="M72.3659 35.8957C71.9596 36.1416 71.4251 35.9919 71.1899 35.5857C70.9547 35.1688 71.0937 34.645 71.5106 34.4098C71.9168 34.1747 72.4407 34.3136 72.6866 34.7198C72.9218 35.1367 72.7828 35.6605 72.3659 35.8957Z" fill="#5C606D"/>
<path d="M99.3494 35.5213C97.1257 36.1199 94.8379 34.7944 94.2499 32.5709C93.6512 30.3581 94.9662 28.0706 97.1899 27.4719C99.4136 26.8733 101.701 28.1988 102.3 30.4223C102.888 32.6457 101.573 34.9227 99.3494 35.5213Z" fill="#5C606D"/>
<path d="M88.4663 36.8472C87.0551 37.2214 85.6225 36.3876 85.2376 34.9872C84.8742 33.5869 85.6973 32.1438 87.1085 31.7696C88.509 31.3955 89.9416 32.2293 90.3265 33.6296C90.7006 35.03 89.8667 36.4731 88.4663 36.8472Z" fill="#5C606D"/>
<path d="M80.1273 38.5257C79.0154 38.825 77.8608 38.1622 77.5615 37.0505C77.2621 35.9281 77.925 34.7843 79.0475 34.485C80.1594 34.1857 81.314 34.8484 81.6133 35.9602C81.902 37.0826 81.2391 38.2264 80.1273 38.5257Z" fill="#5C606D"/>
<path d="M73.5419 39.4666C72.847 39.6483 72.1414 39.2421 71.9489 38.5473C71.7672 37.8524 72.1735 37.1469 72.8684 36.9652C73.5633 36.7835 74.2689 37.1897 74.4613 37.8845C74.643 38.5686 74.2261 39.2848 73.5419 39.4666Z" fill="#5C606D"/>
<path d="M99.5847 45.9122C97.1472 45.9122 95.1801 43.9346 95.1801 41.4974C95.1801 39.0601 97.1472 37.0825 99.5847 37.0825C102.022 37.0825 104 39.0601 104 41.4974C104 43.9346 102.022 45.9122 99.5847 45.9122Z" fill="#5C606D"/>
<path d="M88.7336 44.5438C87.0444 44.5438 85.676 43.1755 85.676 41.4973C85.676 39.8083 87.0444 38.4507 88.7336 38.4507C90.412 38.4507 91.7805 39.8083 91.7805 41.4973C91.7805 43.1755 90.412 44.5438 88.7336 44.5438Z" fill="#5C606D"/>
<path d="M80.2451 43.6996C79.0263 43.6996 78.0321 42.7161 78.0321 41.4975C78.0321 40.2789 79.0263 39.2954 80.2451 39.2954C81.4638 39.2954 82.4581 40.2789 82.4581 41.4975C82.4581 42.7161 81.4638 43.6996 80.2451 43.6996Z" fill="#5C606D"/>
<path d="M73.6382 42.9404C72.8364 42.9404 72.1949 42.299 72.1949 41.4973C72.1949 40.6955 72.8364 40.0435 73.6382 40.0435C74.44 40.0435 75.0815 40.6955 75.0815 41.4973C75.0815 42.299 74.44 42.9404 73.6382 42.9404Z" fill="#5C606D"/>
<path d="M92.55 64.0423C90.7646 63.0161 90.1552 60.7285 91.1815 58.954C92.2186 57.1688 94.4957 56.5595 96.2704 57.5964C98.0557 58.6227 98.6651 60.8996 97.6388 62.6741C96.6018 64.4592 94.3246 65.0685 92.55 64.0423Z" fill="#5C606D"/>
<path d="M83.6232 57.7888C82.2976 57.0192 81.8485 55.3302 82.6076 54.0047C83.3773 52.6791 85.0665 52.2195 86.3921 52.9891C87.7178 53.7481 88.1775 55.4478 87.4078 56.7733C86.638 58.0988 84.9489 58.5478 83.6232 57.7888Z" fill="#5C606D"/>
<path d="M76.6956 52.8072C75.7761 52.2834 75.4554 51.0968 75.99 50.1775C76.5245 49.2582 77.7005 48.9482 78.6199 49.472C79.55 50.0065 79.86 51.1824 79.3255 52.1017C78.8016 53.0317 77.615 53.3417 76.6956 52.8072Z" fill="#5C606D"/>
<path d="M71.5106 48.585C71.0937 48.3499 70.9547 47.8261 71.1899 47.4092C71.4358 47.003 71.9596 46.8533 72.3659 47.0992C72.7828 47.3343 72.9218 47.8581 72.6866 48.275C72.4514 48.6812 71.9168 48.8309 71.5106 48.585Z" fill="#5C606D"/>
<path d="M85.7829 71.3004C84.4145 69.9321 84.4145 67.7087 85.7829 66.3404C87.162 64.9614 89.3857 64.9614 90.7541 66.3404C92.1225 67.7087 92.1225 69.9321 90.7541 71.3004C89.3857 72.6687 87.162 72.6687 85.7829 71.3004Z" fill="#5C606D"/>
<path d="M78.8232 62.9087C77.8397 61.9359 77.8397 60.3432 78.8232 59.3704C79.7961 58.3869 81.389 58.3869 82.3619 59.3704C83.3454 60.3432 83.3454 61.9359 82.3619 62.9087C81.389 63.8921 79.7961 63.8921 78.8232 62.9087Z" fill="#5C606D"/>
<path d="M73.3495 56.3881C72.6653 55.6933 72.6653 54.5815 73.3495 53.8974C74.0337 53.2132 75.1455 53.2132 75.8404 53.8974C76.5246 54.5815 76.5246 55.6933 75.8404 56.3881C75.1455 57.0722 74.0337 57.0722 73.3495 56.3881Z" fill="#5C606D"/>
<path d="M69.3191 51.0753C68.977 50.7439 68.977 50.1988 69.3191 49.8674C69.6505 49.5253 70.1957 49.5253 70.5271 49.8674C70.8692 50.1988 70.8692 50.7439 70.5271 51.0753C70.1957 51.4174 69.6505 51.4174 69.3191 51.0753Z" fill="#5C606D"/>
<path d="M77.4119 76.6024C76.5139 75.031 77.0485 73.0107 78.62 72.1021C80.2022 71.1934 82.2121 71.7386 83.1208 73.31C84.0295 74.8814 83.4843 76.891 81.9128 77.8104C80.3412 78.719 78.3207 78.1738 77.4119 76.6024Z" fill="#5C606D"/>
<path d="M72.8041 66.7247C72.1627 65.6023 72.5476 64.1699 73.6701 63.5285C74.7926 62.8764 76.2145 63.2612 76.8666 64.3837C77.5188 65.5061 77.1339 66.9385 76.0114 67.5799C74.8888 68.232 73.4563 67.8471 72.8041 66.7247Z" fill="#5C606D"/>
<path d="M69.4688 58.8577C69.1053 58.2377 69.3191 57.436 69.9392 57.0725C70.5699 56.709 71.3717 56.9228 71.7352 57.5535C72.088 58.1735 71.8742 58.9753 71.2541 59.3387C70.6234 59.7022 69.8216 59.4884 69.4688 58.8577Z" fill="#5C606D"/>
<path d="M66.5501 52.9144C66.3042 52.5082 66.4539 51.9737 66.8601 51.7386C67.2771 51.5034 67.8009 51.6424 68.0361 52.0593C68.282 52.4655 68.1323 52.9893 67.7261 53.2351C67.3091 53.4703 66.7853 53.3313 66.5501 52.9144Z" fill="#5C606D"/>
<path d="M68.1751 79.5525C67.7689 78.0239 68.6776 76.4525 70.2064 76.0463C71.7351 75.6401 73.3067 76.538 73.7129 78.0773C74.1299 79.606 73.2212 81.1773 71.6924 81.5836C70.1636 82.0004 68.5921 81.0918 68.1751 79.5525Z" fill="#5C606D"/>
<path d="M66.2935 68.8205C66.0262 67.805 66.6249 66.7574 67.6405 66.4901C68.6561 66.2122 69.7038 66.8215 69.9818 67.837C70.2491 68.8525 69.6504 69.9001 68.6348 70.1674C67.6085 70.4453 66.5714 69.836 66.2935 68.8205Z" fill="#5C606D"/>
<path d="M64.6792 60.4719C64.4974 59.7771 64.9037 59.0609 65.5986 58.8685C66.3042 58.6867 67.0205 59.0929 67.2022 59.7985C67.3946 60.4933 66.9777 61.2095 66.2828 61.4019C65.5879 61.5836 64.8609 61.1667 64.6792 60.4719Z" fill="#5C606D"/>
<path d="M63.3964 53.9725C63.2788 53.5128 63.5567 53.0425 64.0164 52.9249C64.4654 52.7966 64.9358 53.0745 65.0641 53.5342C65.1817 53.9939 64.9144 54.4642 64.4547 54.5818C63.995 54.7101 63.5246 54.4321 63.3964 53.9725Z" fill="#5C606D"/>
<path d="M58.083 80.13C58.083 78.5479 59.3659 77.2651 60.9481 77.2651C62.5304 77.2651 63.8133 78.5479 63.8133 80.13C63.8133 81.7121 62.5304 83.0055 60.9481 83.0055C59.3659 83.0055 58.083 81.7121 58.083 80.13Z" fill="#5C606D"/>
<path d="M59.0453 69.2695C59.0453 68.2219 59.8899 67.3667 60.9483 67.3667C62.0066 67.3667 62.8619 68.2219 62.8619 69.2695C62.8619 70.3277 62.0066 71.1829 60.9483 71.1829C59.8899 71.1829 59.0453 70.3277 59.0453 69.2695Z" fill="#5C606D"/>
<path d="M59.6439 60.7924C59.6439 60.0655 60.2319 59.4775 60.9482 59.4775C61.6645 59.4775 62.2525 60.0655 62.2525 60.7924C62.2525 61.5193 61.6645 62.0965 60.9482 62.0965C60.2319 62.0965 59.6439 61.5193 59.6439 60.7924Z" fill="#5C606D"/>
<path d="M60.0929 54.1862C60.0929 53.7052 60.4778 53.3311 60.9482 53.3311C61.4186 53.3311 61.8141 53.7052 61.8141 54.1862C61.8141 54.6673 61.4186 55.0414 60.9482 55.0414C60.4778 55.0414 60.0929 54.6673 60.0929 54.1862Z" fill="#5C606D"/>
<path d="M48.1727 78.0773C48.5896 76.538 50.1612 75.6401 51.6899 76.0463C53.2187 76.4525 54.1274 78.0239 53.7212 79.5525C53.3042 81.0918 51.7327 82.0004 50.2039 81.5836C48.6751 81.1773 47.7664 79.606 48.1727 78.0773Z" fill="#5C606D"/>
<path d="M51.9143 67.837C52.1923 66.8215 53.24 66.2122 54.2556 66.4901C55.2712 66.7574 55.8699 67.805 55.6027 68.8205C55.3247 69.836 54.2877 70.4453 53.2614 70.1781C52.2457 69.9001 51.6364 68.8525 51.9143 67.837Z" fill="#5C606D"/>
<path d="M54.6939 59.7985C54.8757 59.0929 55.592 58.6867 56.2976 58.8685C56.9925 59.0609 57.3987 59.7771 57.217 60.4719C57.0245 61.1667 56.3189 61.5836 55.6134 61.3912C54.9185 61.2095 54.5015 60.4933 54.6939 59.7985Z" fill="#5C606D"/>
<path d="M56.9712 53.5663C57.0674 53.1815 57.463 52.9463 57.8479 53.0532C58.2327 53.1601 58.4679 53.5556 58.361 53.9404C58.2648 54.3253 57.8585 54.5497 57.4737 54.4535C57.0888 54.3466 56.8643 53.9511 56.9712 53.5663Z" fill="#5C606D"/>
<path d="M39.449 73.6949C40.1439 72.4976 41.6833 72.0807 42.8914 72.7756C44.0887 73.4704 44.5057 75.0097 43.8108 76.2176C43.1159 77.4149 41.5764 77.8318 40.3684 77.137C39.1603 76.4421 38.754 74.9028 39.449 73.6949Z" fill="#5C606D"/>
<path d="M45.703 64.7688C46.1306 64.0206 47.0928 63.764 47.8411 64.1916C48.5895 64.6299 48.8461 65.5919 48.4184 66.3402C47.9801 67.0885 47.0179 67.345 46.2696 66.9068C45.5319 66.4792 45.2646 65.5171 45.703 64.7688Z" fill="#5C606D"/>
<path d="M50.3 57.6287C50.6208 57.0835 51.3264 56.8911 51.8716 57.2118C52.4275 57.5325 52.6092 58.238 52.2992 58.7832C51.9785 59.3283 51.2729 59.5207 50.7277 59.2001C50.1717 58.8794 49.99 58.1845 50.3 57.6287Z" fill="#5C606D"/>
<path d="M54.0098 52.1443C54.1916 51.8129 54.6192 51.706 54.9506 51.8877C55.2713 52.0801 55.3889 52.497 55.1965 52.8284C55.0147 53.1598 54.5871 53.2667 54.2557 53.085C53.935 52.8926 53.8174 52.465 54.0098 52.1443Z" fill="#5C606D"/>
<path d="M31.9975 67.1847C32.8955 66.2867 34.3602 66.2867 35.2582 67.1847C36.1562 68.0826 36.1562 69.5471 35.2582 70.445C34.3602 71.343 32.8955 71.343 31.9975 70.445C31.0995 69.5471 31.0995 68.0826 31.9975 67.1847Z" fill="#5C606D"/>
<path d="M40.347 60.1829C40.8708 59.6591 41.7261 59.6591 42.2606 60.1829C42.7845 60.7067 42.7845 61.5725 42.2606 62.0963C41.7261 62.6201 40.8708 62.6201 40.347 62.0963C39.8231 61.5725 39.8231 60.7067 40.347 60.1829Z" fill="#5C606D"/>
<path d="M46.6546 54.4855C47.0074 54.122 47.5954 54.122 47.9589 54.4855C48.3223 54.8489 48.3223 55.4369 47.9589 55.8003C47.5954 56.1531 47.0074 56.1531 46.6546 55.8003C46.2911 55.4369 46.2911 54.8489 46.6546 54.4855Z" fill="#5C606D"/>
<path d="M26.374 58.8785C27.4431 58.2692 28.8008 58.6327 29.4209 59.7016C30.0302 60.7599 29.6668 62.1282 28.5977 62.7482C27.5286 63.3682 26.1709 62.9941 25.5508 61.9251C24.9414 60.8668 25.3049 59.4985 26.374 58.8785Z" fill="#5C606D"/>
<path d="M36.338 54.4318C36.8618 54.1325 37.5354 54.3142 37.8454 54.838C38.1447 55.3618 37.963 56.0352 37.4391 56.3345C36.9153 56.6445 36.2418 56.4628 35.9424 55.939C35.6324 55.4045 35.8141 54.7418 36.338 54.4318Z" fill="#5C606D"/>
<path d="M43.768 50.3375C44.217 50.081 44.7836 50.2306 45.0509 50.6796C45.3075 51.1179 45.1471 51.6951 44.7088 51.9517C44.2598 52.2082 43.6825 52.0586 43.4259 51.6096C43.1693 51.1606 43.3297 50.5941 43.768 50.3375Z" fill="#5C606D"/>
<path d="M24.1503 29.5572C25.2194 29.8458 25.8502 30.9469 25.5722 32.0158C25.2836 33.0848 24.1824 33.7262 23.1026 33.4376C22.0336 33.1489 21.3921 32.0479 21.6808 30.9789C21.9694 29.8993 23.0706 29.2686 24.1503 29.5572Z" fill="#5C606D"/>
<path d="M28.4909 20.4386C29.453 20.9945 29.7844 22.2238 29.2285 23.1859C28.6726 24.1479 27.4432 24.4793 26.481 23.9235C25.5188 23.3676 25.1874 22.1383 25.7433 21.1762C26.2992 20.2141 27.5287 19.8827 28.4909 20.4386Z" fill="#5C606D"/>
<path d="M37.4711 26.6065C38.0164 26.9272 38.2088 27.6328 37.8881 28.1886C37.5674 28.7338 36.8618 28.9262 36.3165 28.6055C35.7606 28.2848 35.5682 27.5793 35.8889 27.0341C36.2096 26.4783 36.9152 26.2965 37.4711 26.6065Z" fill="#5C606D"/>
<path d="M44.6981 31.0536C45.1364 31.3102 45.2754 31.866 45.0295 32.3043C44.773 32.7426 44.217 32.8922 43.7787 32.6464C43.3404 32.3898 43.1907 31.834 43.4473 31.3957C43.6932 30.9574 44.2598 30.8077 44.6981 31.0536Z" fill="#5C606D"/>
<path d="M35.13 12.6781C35.9639 13.5012 35.9639 14.8481 35.13 15.6819C34.2961 16.5157 32.9491 16.5157 32.1152 15.6819C31.292 14.8481 31.292 13.5012 32.1152 12.6781C32.9491 11.8443 34.2961 11.8443 35.13 12.6781Z" fill="#5C606D"/>
<path d="M42.2714 20.8875C42.8059 21.422 42.8059 22.2878 42.2714 22.8223C41.7369 23.3568 40.8709 23.3568 40.3364 22.8223C39.8125 22.2878 39.8125 21.422 40.3364 20.8875C40.8709 20.3637 41.7369 20.3637 42.2714 20.8875Z" fill="#5C606D"/>
<path d="M48.0337 27.1199C48.44 27.5261 48.44 28.1782 48.0337 28.5844C47.6275 28.9906 46.9753 28.9906 46.5691 28.5844C46.1628 28.1782 46.1628 27.5261 46.5691 27.1199C46.9753 26.7244 47.6275 26.7244 48.0337 27.1199Z" fill="#5C606D"/>
<path d="M43.8108 6.7768C44.5057 7.98474 44.0994 9.52405 42.8914 10.2189C41.6833 10.9137 40.1439 10.5075 39.449 9.29957C38.754 8.09163 39.1603 6.55231 40.3684 5.85748C41.5764 5.16265 43.1159 5.56886 43.8108 6.7768Z" fill="#5C606D"/>
<path d="M48.4291 16.6543C48.8567 17.4026 48.6001 18.3754 47.8518 18.803C47.0927 19.2412 46.1305 18.9847 45.6922 18.2257C45.2539 17.4774 45.5105 16.5047 46.2695 16.0771C47.0179 15.6388 47.9907 15.8954 48.4291 16.6543Z" fill="#5C606D"/>
<path d="M52.2886 24.2234C52.5986 24.7686 52.4169 25.4634 51.8716 25.7734C51.3264 26.0941 50.6315 25.9017 50.3108 25.3565C50.0008 24.8113 50.1825 24.1165 50.7277 23.8065C51.273 23.4858 51.9679 23.6782 52.2886 24.2234Z" fill="#5C606D"/>
<path d="M55.143 30.1978C55.314 30.4972 55.2178 30.882 54.9185 31.053C54.6191 31.2241 54.2343 31.1172 54.0632 30.8178C53.8922 30.5185 53.9884 30.1337 54.2877 29.9734C54.5871 29.7916 54.9719 29.8985 55.143 30.1978Z" fill="#5C606D"/>
<path d="M53.5501 3.48473C53.9349 4.91715 53.0797 6.39233 51.6471 6.77716C50.2145 7.16199 48.7392 6.30681 48.3543 4.87439C47.9695 3.44197 48.814 1.96679 50.2466 1.58196C51.6899 1.19713 53.1545 2.05231 53.5501 3.48473Z" fill="#5C606D"/>
<path d="M55.3461 14.2384C55.5706 15.1149 55.0574 16.0129 54.1808 16.248C53.3041 16.4832 52.4061 15.9701 52.1709 15.0935C51.9357 14.217 52.4595 13.3191 53.3362 13.0839C54.2021 12.8487 55.1109 13.3618 55.3461 14.2384Z" fill="#5C606D"/>
<path d="M57.217 22.5229C57.3987 23.2177 56.9925 23.9339 56.2976 24.1263C55.592 24.3081 54.8757 23.9018 54.6939 23.1963C54.5015 22.5015 54.9185 21.7853 55.6134 21.5929C56.3189 21.4111 57.0352 21.828 57.217 22.5229Z" fill="#5C606D"/>
<path d="M58.3502 29.0545C58.4464 29.4394 58.2219 29.8242 57.8478 29.9204C57.4736 30.0273 57.078 29.8028 56.9818 29.4287C56.8856 29.0438 57.0994 28.659 57.4843 28.5628C57.8584 28.4559 58.2433 28.6804 58.3502 29.0545Z" fill="#5C606D"/>
<path d="M63.8133 2.86479C63.8133 4.44687 62.5304 5.72963 60.9481 5.72963C59.3659 5.72963 58.083 4.44687 58.083 2.86479C58.083 1.28271 59.3659 -0.0107422 60.9481 -0.0107422C62.5304 -0.0107422 63.8133 1.28271 63.8133 2.86479Z" fill="#5C606D"/>
<path d="M62.8618 13.7148C62.8618 14.7731 62.0066 15.6282 60.9482 15.6282C59.9005 15.6282 59.0345 14.7731 59.0345 13.7148C59.0345 12.6672 59.9005 11.812 60.9482 11.812C62.0066 11.812 62.8618 12.6672 62.8618 13.7148Z" fill="#5C606D"/>
<path d="M62.2525 22.2026C62.2525 22.9295 61.6645 23.5067 60.9482 23.5067C60.2319 23.5067 59.6439 22.9295 59.6439 22.2026C59.6439 21.4864 60.2319 20.8984 60.9482 20.8984C61.6645 20.8984 62.2525 21.4864 62.2525 22.2026Z" fill="#5C606D"/>
<path d="M61.8141 28.8088C61.8141 29.2898 61.4186 29.664 60.9482 29.664C60.4778 29.664 60.0929 29.2898 60.0929 28.8088C60.0929 28.3384 60.4778 27.9536 60.9482 27.9536C61.4186 27.9536 61.8141 28.3384 61.8141 28.8088Z" fill="#5C606D"/>
<path d="M97.1898 55.5225C94.9661 54.9239 93.6512 52.6363 94.2392 50.4235C94.8379 48.1893 97.1257 46.8745 99.3494 47.4731C101.573 48.0611 102.888 50.3487 102.3 52.5721C101.701 54.7956 99.4135 56.1211 97.1898 55.5225Z" fill="#5C606D"/>
<path d="M87.055 51.4174C85.5476 51.0112 84.6496 49.4612 85.0558 47.9539C85.4621 46.4467 87.0016 45.5594 88.509 45.9656C90.027 46.3612 90.9144 47.9112 90.5081 49.4184C90.1019 50.9257 88.5624 51.8129 87.055 51.4174Z" fill="#5C606D"/>
<path d="M79.0583 48.4674C77.9571 48.1788 77.305 47.0564 77.6043 45.9553C77.9037 44.865 79.0262 44.2129 80.1167 44.5122C81.2071 44.8008 81.8593 45.9233 81.5706 47.0243C81.2713 48.1146 80.1487 48.7667 79.0583 48.4674Z" fill="#5C606D"/>
<path d="M72.8683 46.0407C72.1734 45.859 71.7565 45.1427 71.9382 44.4372C72.1306 43.7424 72.8469 43.3362 73.5418 43.5179C74.2474 43.7103 74.6537 44.4158 74.4719 45.1214C74.2795 45.8162 73.5632 46.2331 72.8683 46.0407Z" fill="#5C606D"/>
<path d="M31.7836 41.9461C31.7836 45.153 32.3929 45.8692 34.7128 45.6554C36.1668 45.5165 37.1503 44.704 37.6314 43.3251C38.1553 41.8392 37.8666 40.503 36.7868 39.3913C35.8461 38.4185 34.7021 38.1726 33.4192 38.643C31.6125 39.3057 31.6873 40.7916 31.7836 41.9461ZM31.7836 48.3706C31.7836 50.3375 31.7515 52.1868 31.8049 54.0468C31.837 55.0303 31.559 55.4365 30.4793 55.4151C28.1701 55.3724 28.1701 55.4365 28.1701 53.1382C28.1701 47.943 28.1487 42.7478 28.2021 37.5526C28.2021 36.8792 27.6676 35.8743 28.8115 35.5643C29.9127 35.2543 30.5755 35.8102 30.8321 37.0075C32.3181 35.7781 33.8576 34.9978 35.7178 35.1795C37.1183 35.3185 38.3477 35.885 39.374 36.8685C41.6939 39.0706 42.1964 42.7692 40.5714 45.6554C38.9357 48.5844 36.1454 49.4823 31.7836 48.3706Z" fill="#5C606D"/>
<path d="M5.3453 42.1391C6.45714 40.0119 7.45138 38.1091 8.44563 36.217C8.69152 35.7467 8.86257 35.1374 9.51471 35.1588C10.1668 35.1801 10.3272 35.7788 10.5731 36.2598C11.5673 38.1412 12.5616 40.0333 13.6627 42.1391C14.3042 40.1722 14.8708 38.4619 15.4374 36.7515C15.7795 35.7146 17.8963 35.0198 18.805 35.6184C19.2113 35.8856 19.0402 36.2063 18.9333 36.5163C17.6932 40.3433 16.4637 44.1595 15.2236 47.9757C15.0846 48.3926 14.9777 48.863 14.4218 48.9164C13.8231 48.9698 13.5879 48.5209 13.3634 48.0719C12.1233 45.6988 10.8724 43.315 9.50402 40.7067C8.21043 43.1653 7.03445 45.4422 5.82638 47.6978C5.54843 48.2429 5.39875 49.0126 4.55418 48.9057C3.80583 48.7988 3.82721 48.0612 3.65616 47.5374C2.48017 43.9457 1.36833 40.3433 0.149576 36.7836C-0.21391 35.7146 0.0854317 35.5863 1.07967 35.4901C2.65122 35.3619 3.50648 35.8001 3.8379 37.457C4.14793 38.9643 4.768 40.3967 5.3453 42.1391Z" fill="#5C606D"/>
<path d="M63.9951 42C63.963 40.0438 62.3167 38.3548 60.4778 38.3976C58.6176 38.451 57.0354 40.2041 57.0996 42.139C57.1744 44.0524 58.7459 45.6666 60.542 45.6666C62.3915 45.6666 64.0272 43.9348 63.9951 42ZM60.6168 48.9162C56.9285 48.9483 53.8389 45.8055 53.8389 42.0321C53.8496 38.312 56.8537 35.2013 60.4778 35.1479C64.1341 35.1051 67.2558 38.28 67.2558 42.0427C67.2451 45.7521 64.2303 48.8735 60.6168 48.9162Z" fill="#5C606D"/>
<path d="M46.7935 37.1364C48.333 35.565 49.9152 34.8274 51.8609 35.2764C52.5024 35.426 53.5073 35.5757 53.069 36.4843C52.6734 37.2861 52.93 38.8468 51.2088 38.6009C48.6965 38.2481 47.8733 38.9536 47.8733 41.4016C47.8733 43.3578 47.8305 45.314 47.884 47.2809C47.916 48.2537 47.5419 48.5423 46.6011 48.553C44.2277 48.5851 44.2277 48.6171 44.2277 46.1799C44.2277 43.2937 44.1956 40.3968 44.2491 37.5105C44.2598 36.8264 43.7466 35.8216 44.9119 35.5436C45.9917 35.2871 46.6973 35.7574 46.7935 37.1364Z" fill="#5C606D"/>
<path d="M24.963 41.9679C24.963 43.7211 24.931 45.4955 24.9844 47.2487C25.0058 48.1787 24.7278 48.6383 23.7336 48.5421C23.2953 48.4994 22.857 48.5207 22.4186 48.5421C21.6917 48.5742 21.3389 48.3069 21.3389 47.5266C21.3603 43.86 21.3602 40.1828 21.3496 36.5162C21.3389 35.8427 21.5954 35.5114 22.2903 35.5221C22.8249 35.5434 23.3594 35.5541 23.894 35.5221C24.7492 35.4686 24.9951 35.8962 24.9737 36.6765C24.9417 38.4403 24.963 40.2041 24.963 41.9679Z" fill="#5C606D"/>
</g>
<defs>
<clipPath id="clip0">
<rect width="104" height="83" fill="white"/>
</clipPath>
</defs>
</svg>
