<svg width="135" height="31" viewBox="0 0 135 31" fill="none" xmlns="http://www.w3.org/2000/svg">
<path fill-rule="evenodd" clip-rule="evenodd" d="M0.0432129 10.4512H6.50804V19.7931C6.50804 21.7877 7.48516 23.0453 9.5728 23.0453C11.4729 23.0453 12.5719 21.4242 12.5719 19.6539V10.4512H18.8781V21.1437C18.8781 23.3604 17.8714 25.5489 16.0275 26.8354C14.1555 28.1298 11.752 28.4463 9.52592 28.4463C4.65477 28.4463 0.043934 26.7323 0.043934 21.1437V10.4512H0.0432129ZM20.7033 27.925V10.4512H27.065V12.4912C28.6954 10.7959 30.5206 9.83679 32.9241 9.83679C36.7337 9.83679 39.5 12.0347 39.5 15.9655V27.9257H33.1289V18.8066C33.1289 16.7774 32.4856 15.0908 30.1571 15.0908C27.8467 15.0908 27.0643 17.0659 27.0643 19.0871V27.9264H20.7033V27.925ZM41.4657 27.925V10.4512H47.9298V27.925H41.4657ZM63.5781 21.9355V27.2637C62.1063 28.1017 60.3835 28.4103 58.6976 28.4103C53.6584 28.4103 49.5322 24.4045 49.5322 19.3373C49.5322 14.0841 53.631 9.80939 58.9399 9.80939C60.5891 9.80939 62.1633 10.1728 63.5788 11.0014V16.2921C62.5822 15.7051 61.4919 15.1831 60.3093 15.1831C58.037 15.1831 56.3691 16.8409 56.3691 19.1145C56.3691 21.275 57.9339 22.9227 60.1319 22.9227C61.3614 22.9227 62.4979 22.4763 63.5781 21.9355ZM70.9083 20.7435C70.9083 22.5874 71.7094 24.0685 73.7776 24.0685C75.054 24.0685 75.9013 23.5277 76.4688 22.4388H82.4858C81.8902 24.2726 81.0984 25.9037 79.4507 27.0207C77.7452 28.1954 75.6958 28.5956 73.6565 28.5956C70.5088 28.5956 67.4346 27.2082 65.8886 24.3757C65.0499 22.8289 64.5285 21.0038 64.5285 19.2349C64.5285 16.6635 65.4696 13.7574 67.3885 11.9972C69.1668 10.3668 71.7109 9.66877 74.0949 9.66877C79.9158 9.66877 82.8962 13.3572 82.8962 18.8982C82.8962 19.514 82.8226 20.1277 82.7382 20.7435H70.9083ZM84.0608 27.925V11.0382C84.0608 8.44867 84.1999 5.53324 86.1484 3.58698C87.7594 1.97603 90.2653 1.5376 92.4539 1.5376H94.1117V6.12959H93.1144C90.7398 6.12959 90.4975 7.59199 90.4975 9.66012V10.6841H93.8874V15.4722H90.4975V27.9257H84.0608V27.925ZM112.171 30.8592L111.604 30.3097C112.591 29.117 114.017 28.2704 115.414 27.6264C114.63 27.3012 113.821 27.0308 112.965 27.0121L112.74 27.2724C111.864 28.3245 110.756 28.641 109.405 28.641C108.446 28.641 107.338 28.548 106.425 28.2408L105.448 27.9243L105.084 27.682V27.6358C105.084 27.3474 106.379 27.1411 106.583 27.1051L108.093 26.8065C109.324 26.5508 110.578 26.4196 111.836 26.415C113.374 26.415 114.892 26.7236 116.336 27.2349C117.844 26.7416 119.419 26.415 121.01 26.415C122.724 26.415 124.41 26.6393 126.059 27.0669C126.237 27.113 127.457 27.3286 127.457 27.6538C127.457 28.2315 123.722 28.6598 123.219 28.6598C122.026 28.6598 120.415 28.2596 119.922 27.0402C119.838 27.0402 119.745 27.0301 119.652 27.0301C118.868 27.0301 117.984 27.3185 117.267 27.6171C118.571 28.2214 119.847 29.0225 120.853 30.0566L121.048 30.2621L120.499 30.7928L120.2 30.5404L119.651 30.0472C119.204 29.6376 116.941 28.0447 116.391 28.0065C115.897 27.9697 114.034 29.2273 113.606 29.5532C113.094 29.9549 112.629 30.4027 112.171 30.8592ZM105.912 20.9764L106.481 21.5454C107.152 22.216 109.89 25.2143 109.89 26.1366C109.89 26.3422 109.526 26.3321 109.387 26.3321C108.121 26.3321 106.984 25.3997 106.379 24.3476C105.804 23.3576 105.501 22.233 105.503 21.0882C105.503 20.9952 105.503 20.7896 105.634 20.7896C105.745 20.7904 105.848 20.9115 105.912 20.9764ZM100.631 23.6496C100.65 23.5385 100.78 23.5003 100.873 23.5003C101.777 23.5003 107.85 25.7371 107.85 26.3977C107.85 26.8823 106.219 26.8073 105.987 26.8073C104.654 26.8073 103.425 26.2116 102.383 25.4098C102.169 25.2425 100.594 23.9762 100.631 23.6496ZM103.305 20.4183C103.305 20.1197 103.491 17.5678 103.855 17.5678C104.218 17.5678 104.897 20.445 104.981 20.7803C105.26 21.9449 105.447 23.0813 105.447 24.2827C105.447 24.3858 105.428 24.5812 105.288 24.5812C104.822 24.5812 103.975 23.0994 103.798 22.7547C103.425 22.0379 103.305 21.2187 103.305 20.4183ZM98.5264 18.723C98.5264 18.6581 98.5444 18.5737 98.6194 18.5737C99.5042 18.5737 104.115 23.0171 104.115 23.9481C104.115 24.0591 104.05 24.0974 103.948 24.0974C102.606 24.0974 100.929 22.6537 100.11 21.7127C99.6535 21.1819 98.5264 19.4679 98.5264 18.723ZM103.015 19.7563L102.746 20.8084C102.718 20.9115 102.653 21.1899 102.513 21.1899C101.982 21.1899 101.721 18.8052 101.721 18.3494C101.721 17.5295 101.945 16.6916 102.244 15.9366C102.327 15.7325 102.829 14.3538 103.147 14.3538C103.454 14.3538 103.417 15.0057 103.417 15.1823C103.417 16.6916 103.388 18.2946 103.015 19.7563ZM99.104 14.7641L99.9138 16.0578C100.409 16.8589 101.6 19.0857 101.6 20.0534C101.6 20.1284 101.572 20.2409 101.479 20.2409C101.264 20.2409 101.069 20.1017 100.911 19.9604L100.203 19.328C98.9367 18.1915 98.1637 15.8818 98.1637 14.1951C98.1637 14.0928 98.2005 13.8966 98.331 13.8966C98.6562 13.8973 98.9649 14.5398 99.104 14.7641ZM103.156 11.5501C103.221 11.5501 103.231 11.6064 103.231 11.6619C103.231 12.4905 101.721 17.4553 101.06 17.4553C100.744 17.4553 100.772 16.5625 100.772 16.3751C100.772 14.9408 101.303 13.7113 102.149 12.5842C102.28 12.4169 102.886 11.5501 103.156 11.5501ZM98.7593 11.4477C98.7593 11.1773 98.8704 9.29596 99.161 9.29596C99.4494 9.29596 99.8677 11.0382 99.9247 11.2617C100.288 12.6029 100.539 14.056 100.539 15.4528C100.539 15.6013 100.577 16.132 100.316 16.132C100.008 16.132 99.43 14.8564 99.3276 14.5766C98.9447 13.5995 98.7593 12.5006 98.7593 11.4477ZM101.497 13.0782L101.125 13.4791C101.05 13.5534 100.929 13.6933 100.808 13.6933C100.687 13.6933 100.687 13.544 100.687 13.4603C100.687 12.277 101.218 11.2155 101.953 10.3214C102.252 9.95794 103.425 8.65418 103.91 8.65418C103.976 8.65418 104.013 8.69168 104.013 8.7472C104.013 9.71493 102.195 12.3138 101.497 13.0782ZM100.827 5.84043C101.208 5.85918 101.218 8.39242 101.218 8.63471C101.218 8.96065 101.004 12.1926 100.556 12.1926C100.045 12.1926 99.9059 9.59378 99.9059 9.24909C99.9059 8.48544 100.027 7.7492 100.259 7.02304C100.316 6.85575 100.556 5.8224 100.827 5.84043ZM104.227 5.90605L104.534 5.70126C104.562 5.69188 104.59 5.66376 104.618 5.66376C104.683 5.67313 104.711 5.75678 104.711 5.81303C104.711 6.46491 103.566 8.15085 103.193 8.65346C102.979 8.93325 101.964 10.1995 101.564 10.1995C101.471 10.1995 101.404 10.1159 101.404 10.0315C101.404 8.56981 103.072 6.6697 104.227 5.90605ZM104.283 3.8848L104.003 4.66719C103.63 5.72938 102.95 6.86512 102.169 7.67564L101.916 7.93668C101.851 8.01168 101.767 8.10398 101.665 8.10398C101.506 8.10398 101.478 7.89918 101.478 7.77804C101.478 6.69782 102.102 5.62626 102.782 4.82511C102.997 4.56407 103.891 3.48386 104.254 3.48386C104.319 3.48386 104.329 3.58625 104.329 3.63313C104.329 3.7175 104.311 3.80115 104.283 3.8848ZM123.201 26.3602C123.06 26.3602 122.92 26.3039 122.92 26.146C122.92 25.4191 126.777 20.7529 127.299 20.7529C127.41 20.7529 127.42 20.9108 127.42 20.9851C127.421 23.3525 125.864 26.3602 123.201 26.3602ZM125.352 25.9874L126.191 25.5497C127.233 25.0103 130.876 23.5205 132.059 23.5205C132.124 23.5205 132.245 23.5486 132.245 23.6315C132.245 24.0411 130.224 25.5598 129.907 25.7653C128.892 26.4359 127.729 26.8455 126.507 26.8455C126.266 26.8455 124.916 26.8541 124.916 26.4078C124.915 26.2015 125.194 26.0616 125.352 25.9874ZM128.063 24.1255L127.689 24.4788C127.634 24.5351 127.559 24.6101 127.475 24.618C127.326 24.6281 127.354 24.3108 127.354 24.2365V24.0974C127.354 22.4763 127.856 20.8286 128.36 19.3006C128.407 19.1412 128.873 17.5966 129.143 17.5966C129.32 17.5966 129.367 18.0617 129.385 18.1821L129.543 19.1232C129.599 19.478 129.618 19.84 129.618 20.2034C129.618 21.6665 129.125 23.09 128.063 24.1255ZM134.043 18.7792L134.303 18.6581C134.331 18.648 134.368 18.6198 134.414 18.6198C134.471 18.6198 134.517 18.6847 134.517 18.741C134.514 18.7895 134.501 18.8368 134.479 18.8802L134.182 19.5508C133.576 20.9014 132.412 22.3645 131.135 23.1563C130.689 23.4267 129.421 24.1334 128.891 24.1334C128.789 24.1334 128.723 24.0772 128.723 23.9755C128.723 23.426 130.512 21.6744 130.913 21.2742C131.695 20.4832 133.028 19.2717 134.043 18.7792ZM129.703 15.341L129.739 14.7172C129.749 14.643 129.778 14.3444 129.907 14.3545C130.01 14.3639 130.084 14.5124 130.131 14.5874L130.522 15.2948C131.025 16.2171 131.276 17.3255 131.276 18.3776C131.276 18.7042 130.904 21.2649 130.458 21.2649C129.907 21.2649 129.656 17.0651 129.656 16.7479C129.656 16.282 129.674 15.8075 129.703 15.341ZM132.244 16.7846L132.169 17.2043C132.151 17.2872 132.133 17.4365 132.022 17.4365C131.509 17.4365 130.269 13.5339 130.13 12.957C130.12 12.9289 129.721 11.5783 130.037 11.5783C130.522 11.5783 131.555 13.4409 131.741 13.8699C132.068 14.5874 132.3 15.3511 132.3 16.1529C132.301 16.3664 132.283 16.5806 132.244 16.7846ZM134.387 10.0971L134.443 10.9257C134.461 11.0749 134.461 11.2148 134.461 11.354C134.461 12.2669 134.275 13.3096 133.987 14.1764C133.884 14.4555 133.13 16.1515 132.72 16.1515C132.561 16.1515 132.543 15.8631 132.543 15.7599C132.543 14.2038 132.915 12.7508 133.363 11.2797C133.419 11.1023 133.884 9.40774 134.127 9.40774C134.332 9.40846 134.378 9.97597 134.387 10.0971ZM131.984 19.9892L131.546 20.2416C131.5 20.2735 131.445 20.2924 131.389 20.2964C131.324 20.2964 131.314 20.1947 131.314 20.1486C131.314 19.2825 134.247 13.8793 134.89 13.8793C134.956 13.8793 134.956 13.9911 134.956 14.0379C134.956 15.0814 134.657 16.171 134.276 17.1401C133.876 18.1634 132.943 19.4397 131.984 19.9892ZM132.432 13.1618V13.4784C132.432 13.562 132.432 13.6832 132.329 13.6832C132.18 13.6832 132.058 13.4877 131.976 13.394L131.35 12.6491C130.829 12.0253 129.218 9.67815 129.218 8.83085C129.218 8.7746 129.246 8.70033 129.311 8.70033C129.442 8.70033 129.571 8.79335 129.664 8.86763L130.29 9.35221C131.35 10.1721 132.459 11.7643 132.432 13.1618ZM128.779 6.45553L128.668 6.08272C128.65 6.01782 128.622 5.94283 128.622 5.87793C128.622 5.83106 128.659 5.80293 128.705 5.80293C129.321 5.80293 130.625 7.32086 130.978 7.82419C131.37 8.39242 131.826 9.16544 131.826 9.87285C131.826 9.95649 131.844 10.255 131.705 10.255C130.904 10.2558 128.994 7.19106 128.779 6.45553ZM129.367 3.66125L130.019 4.25761C130.885 5.04938 131.853 6.38126 131.853 7.62011C131.853 7.74126 131.891 8.1696 131.714 8.1696C131.007 8.1696 129.656 5.45031 129.432 4.90011C129.422 4.88136 128.883 3.51198 129.153 3.54011C129.236 3.54011 129.311 3.605 129.367 3.66125ZM132.915 11.7831L132.757 12.1277C132.729 12.184 132.701 12.2489 132.626 12.2489C132.263 12.2489 132.058 9.50076 132.058 9.16617C132.058 8.86763 132.283 5.87793 132.533 5.87793C132.654 5.87793 132.747 6.27814 132.775 6.36179L133.046 7.11606C133.306 7.83356 133.372 8.72701 133.372 9.49138C133.373 10.2651 133.224 11.0756 132.915 11.7831Z" fill="#5C606D"/>
<path fill-rule="evenodd" clip-rule="evenodd" d="M104.097 13.1067C104.097 9.45494 105.578 5.81324 108.335 3.38232C110.589 1.37975 113.597 0.140137 116.625 0.140137C123.517 0.140137 129.004 5.8594 129.004 12.6964C129.004 19.6257 123.322 25.4669 116.363 25.4669C109.591 25.4669 104.097 19.832 104.097 13.1067ZM44.6885 1.32351C46.7191 1.32351 48.3957 3.02825 48.3957 5.04957C48.3957 7.07089 46.7285 8.79367 44.6885 8.79367C42.6585 8.79367 40.9812 7.08027 40.9812 5.04957C40.9812 3.02825 42.6578 1.32351 44.6885 1.32351Z" fill="#5C606D"/>
<path fill-rule="evenodd" clip-rule="evenodd" d="M71.0015 16.9991H76.8606C76.7676 15.2951 76.0039 13.8701 74.103 13.8701C72.0817 13.8701 71.2625 15.1645 71.0015 16.9991ZM120.024 1.75136C120.22 1.56531 120.416 1.37853 120.621 1.19248L120.24 1.09008C119.495 0.885273 118.768 0.726621 117.995 0.652344L118.218 0.773494L118.676 0.978295C119.149 1.1831 119.587 1.48093 120.024 1.75136ZM116.998 5.59863C117.874 5.53301 118.712 5.43061 119.55 5.1609C119.271 4.50899 118.964 3.88449 118.554 3.2982C118.05 3.41935 117.556 3.503 117.036 3.52175L116.998 5.59863ZM116.987 8.56035C117.93 8.55025 118.842 8.34617 119.783 8.30867C120.024 8.28992 120.509 8.25242 120.509 7.91781C120.509 7.85291 120.491 7.79666 120.482 7.74114L120.351 7.21038C120.23 6.67962 120.015 6.18564 119.801 5.69238C118.879 5.97146 117.938 6.08324 116.979 6.15824L116.987 8.56035ZM120.062 5.03038C120.733 4.81124 121.372 4.50426 121.962 4.11741C121.395 3.48353 120.789 2.87849 120.062 2.43139C119.753 2.68288 119.411 2.89282 119.047 3.0559L119.242 3.4006L119.624 4.05251C119.801 4.35971 119.931 4.69505 120.062 5.03038ZM122.456 3.86574C122.903 3.57833 123.318 3.24425 123.695 2.86912C122.968 2.20784 122.027 1.76073 121.106 1.41603C120.91 1.64896 120.686 1.84438 120.472 2.04919C121.217 2.53379 121.879 3.20445 122.456 3.86574ZM122.82 4.30347C123.452 5.03975 124.021 5.85031 124.468 6.7164C125.102 6.35294 125.725 5.95199 126.275 5.46811C125.697 4.6388 124.989 3.81886 124.16 3.23257C123.9 3.48425 123.62 3.70781 123.323 3.93136L122.82 4.30347Z" fill="white"/>
<path fill-rule="evenodd" clip-rule="evenodd" d="M112.321 1.36029C107.711 3.15805 104.441 7.95569 104.441 12.8918C104.441 19.5427 109.76 25.0384 116.447 25.0384C123.462 25.0384 128.668 19.216 128.668 12.3704C128.668 10.0513 127.848 7.85257 126.627 5.91491L126.134 6.26898C125.668 6.59493 125.193 6.90213 124.691 7.17255C124.794 7.38672 124.905 7.62902 124.905 7.87132C124.905 7.96434 124.877 8.16914 124.745 8.16914C124.494 8.16914 124.262 7.62902 124.178 7.44297C123.832 7.55474 123.461 7.74152 123.087 7.74152C123.005 7.74152 122.837 7.67589 122.837 7.56412C122.837 7.26557 123.711 7.00525 123.935 6.90285C123.506 6.04615 123.022 5.28248 122.361 4.58371C121.699 4.95653 121.029 5.28248 120.312 5.54281C120.46 5.90626 120.609 6.26033 120.73 6.63315L120.962 7.34057C121.008 7.49922 121.065 7.66652 121.065 7.83454C121.065 8.51456 120.48 8.76623 119.91 8.83113L118.56 8.99843C118.038 9.06333 117.507 9.09145 116.977 9.10083L116.985 9.9294C116.985 10.1061 116.985 10.4046 116.725 10.4046C116.483 10.4046 116.418 10.1998 116.408 9.98565L116.39 9.19386C116.139 9.19386 115.384 9.22198 115.384 8.83113C115.384 8.6357 115.599 8.57946 115.758 8.57946C115.906 8.57946 116.055 8.58883 116.214 8.58883H116.447L116.429 6.2322L115.645 6.1947C115.538 5.95369 115.404 5.72557 115.245 5.51468L116.475 5.59906V3.51213C115.962 3.484 115.488 3.38232 114.993 3.2417C114.835 3.45588 114.36 4.42507 114.118 4.42507C113.997 4.42507 113.923 4.29454 113.923 4.18277C113.923 3.78255 114.248 3.3167 114.462 2.99941C114.079 2.83615 113.719 2.62328 113.392 2.36626C113.065 2.57106 111.864 3.5864 111.715 3.5864C111.593 3.5864 111.539 3.42776 111.539 3.32536C111.539 2.92513 112.637 2.27324 112.944 2.06844C112.723 1.84489 112.517 1.60259 112.321 1.36029ZM115.283 0.717773H115.208C114.427 0.717773 113.719 0.9132 112.983 1.18362C113.132 1.37905 113.29 1.54707 113.476 1.69562C114.054 1.30477 114.651 1.00694 115.283 0.717773Z" fill="white"/>
<path fill-rule="evenodd" clip-rule="evenodd" d="M115.973 1.01562C115.2 1.23915 114.538 1.5838 113.849 2.01209C114.156 2.20749 114.473 2.37549 114.798 2.52403L115.172 2.01209L115.646 1.43455L115.973 1.01562ZM115.329 2.72952C115.703 2.84993 116.074 2.94367 116.466 3.01793L116.504 1.35956C116.409 1.31413 115.422 2.59901 115.329 2.72952ZM117.071 1.39777L117.061 2.99919C117.448 2.95177 117.83 2.88026 118.208 2.78504C117.873 2.27311 117.528 1.80804 117.071 1.39777ZM118.804 2.55287C119.06 2.41163 119.309 2.25612 119.548 2.08708C118.971 1.67753 118.422 1.37975 117.751 1.14613C118.04 1.50953 118.319 1.87293 118.579 2.24499L118.804 2.55287Z" fill="white"/>
<path fill-rule="evenodd" clip-rule="evenodd" d="M105.912 11.1211C105.754 11.2141 105.596 11.3071 105.438 11.4095C105.569 9.74234 106.379 6.99426 107.747 5.96094C107.654 6.24937 107.589 6.52915 107.561 6.82697C106.695 8.11267 106.183 9.60317 105.912 11.1211ZM124.151 21.0317L124.021 20.6683C124.916 19.8304 125.66 18.805 126.144 17.67L126.824 17.1011C126.256 18.5908 125.483 20.0907 124.151 21.0317Z" fill="#5C606D"/>
<path fill-rule="evenodd" clip-rule="evenodd" d="M123.75 21.5074C121.662 23.1653 119.241 24.2556 116.55 24.2556C109.974 24.2556 105.232 19.0584 105.232 12.6123C105.232 10.9169 108.158 10.9075 108.158 9.33329C108.158 8.53211 107.841 7.76843 107.841 6.97663C107.841 5.17886 109.48 3.75391 111.213 3.75391C113.001 3.75391 115.497 5.31876 115.497 7.29393C115.497 8.47658 114.576 9.02609 114.576 9.72486C114.576 9.94841 114.613 10.172 114.613 10.3955C114.613 10.6378 114.26 10.684 114.232 10.945L114.214 11.0849L114.054 11.3272L113.915 11.5789C113.85 11.6813 113.469 11.9705 113.348 12.101C113.133 12.3339 112.825 12.3808 112.518 12.3808C112.323 12.3808 112.118 12.3714 111.931 12.3245L111.42 12.1853C111.335 12.1663 111.247 12.1568 111.16 12.1572C110.879 12.1572 110.554 12.3527 110.554 12.6606C110.554 13.1632 110.833 13.6572 110.814 14.1692L110.786 15.5206L110.804 15.6136L110.953 16.06L111.065 16.4429C111.233 17.0667 112.211 17.0205 112.853 17.2708L113.402 17.4763C113.477 17.503 113.57 17.5592 113.655 17.5592C113.99 17.5592 114.382 16.9253 114.941 16.9253C115.155 16.9253 115.163 17.252 115.35 17.234L115.881 17.1878C115.992 17.1684 116.076 17.6162 116.076 17.7092C116.076 18.4909 115.536 19.4976 114.66 19.4976C114.297 19.4976 114.018 19.2092 113.683 19.2092C113.544 19.2092 112.508 19.4976 112.221 19.5445C111.812 19.6094 111.401 19.6743 110.992 19.6743C110.675 19.6743 110.209 19.6844 109.938 19.5163L109.724 19.3772C109.687 19.3591 109.649 19.331 109.603 19.331C109.267 19.331 109.1 20.1791 109.1 20.4012C109.1 21.4266 110.405 21.8081 111.206 21.8081C111.717 21.8081 112.248 21.7331 112.724 21.5276L114.168 20.8951C115.21 20.4387 116.98 20.2432 117.279 20.0839C117.539 19.9447 117.744 19.7024 117.744 19.3952C117.743 19.2667 117.727 19.1387 117.698 19.0137L117.568 18.501L117.465 17.8772L117.38 17.1972C117.194 15.5581 115.248 15.4744 115.248 14.2535C115.248 13.7509 115.779 13.4617 115.797 12.9865C115.807 12.7911 115.834 12.6606 116.022 12.5675L116.208 12.4839C116.468 12.3627 116.208 11.7851 116.543 11.664L116.72 11.5991C117.121 11.4592 116.757 10.6306 117.326 10.5556L117.783 10.4907L118.332 10.3789C119.003 10.239 118.966 9.56838 119.758 9.22368L120.586 8.86022L120.894 8.6648L121.256 8.28332C121.583 7.95737 122.133 7.89175 122.57 7.89175C125.635 7.89175 127.88 10.2765 127.88 13.2757C127.88 15.6136 125.988 18.5854 123.418 18.5854C123.25 18.5854 123.082 18.5659 122.915 18.5659C122.495 18.5659 122.467 19.0318 122.467 19.3591C122.467 20.4394 123.772 21.1843 123.772 21.2031C123.772 21.2961 123.754 21.3891 123.754 21.4821V21.5074H123.75Z" fill="#5C606D"/>
</svg>
