<svg width="159" height="77" viewBox="0 0 159 77" fill="none" xmlns="http://www.w3.org/2000/svg">
<path d="M82.0823 35.7431L122.791 0L158.535 40.7092L117.825 76.4523L82.0823 35.7431Z" fill="#5C606D"/>
<path d="M75.5358 44.6694C71.8912 44.6694 68.9286 47.632 68.9286 51.2767C68.9286 54.9213 71.8912 57.8839 75.5358 57.8839C79.1805 57.8839 82.1005 54.9213 82.1005 51.2767C82.1005 47.632 79.1592 44.6694 75.5358 44.6694ZM75.5358 54.8574C73.5324 54.8574 71.9338 53.2162 71.9338 51.2554C71.9338 49.2945 73.5324 47.696 75.5358 47.696C77.4967 47.696 79.0952 49.2945 79.0952 51.2554C79.0952 53.2375 77.4967 54.8574 75.5358 54.8574Z" fill="#5F6369"/>
<path d="M51.3447 44.52C49.8954 44.52 48.4035 44.8184 47.2312 45.3086C46.2721 44.7545 45.3343 44.52 44.0128 44.52C42.3504 44.52 40.6453 44.7332 38.791 45.3726L38.45 45.4791V57.6066H41.7536V47.6531C42.4143 47.44 42.9471 47.3547 43.6079 47.3547C45.249 47.3547 45.7179 47.8663 45.7179 49.5714V57.5853H49.0642V49.3582C49.0642 48.6123 49.0216 48.1434 48.915 47.6958C49.5757 47.4826 50.1086 47.3547 50.7053 47.3547C52.2612 47.3547 52.9646 48.0581 52.9646 49.5714V57.5853H56.2682V49.3156C56.2682 47.6744 56.0125 46.7153 55.2665 45.9054C54.4352 45.0315 53.0498 44.52 51.3447 44.52Z" fill="#5F6369"/>
<path d="M64.5805 54.9852C62.3852 54.9852 61.1277 53.6211 61.1277 51.234C61.1277 48.7829 62.4065 47.3975 64.6232 47.3975C65.0921 47.3975 65.4757 47.4402 65.8381 47.5467C65.8381 47.5467 66.5201 47.7386 67.1169 48.2075L68.5236 45.8203C67.7563 45.1809 66.8611 44.9038 66.5627 44.8399C65.7102 44.5841 64.4527 44.5415 64.4527 44.5415C60.4883 44.5415 57.8241 47.291 57.8241 51.3832C57.8241 55.3262 60.3604 57.8626 64.2608 57.8626C64.2608 57.8626 66.8824 57.9691 68.6515 56.3493L67.0103 54.2392C66.0938 54.8147 65.4757 54.9852 64.5805 54.9852Z" fill="#5F6369"/>
<path d="M21.5269 44.627C16.8165 44.627 14.6212 46.6944 14.6212 51.1276V57.6283H17.9888V51.4047V51.1063C17.9888 48.8897 19.2463 47.5043 21.2072 47.5043C22.0171 47.5043 22.6565 47.6535 23.1041 47.7601L23.8927 44.8188C22.6139 44.627 21.5269 44.627 21.5269 44.627Z" fill="#5F6369"/>
<path d="M36.5104 50.7432V57.6062H31.9919C28.8801 57.6062 27.4947 57.393 25.8749 56.306C24.4682 55.3469 23.6796 53.5139 23.6796 51.1481C23.6796 47.8871 25.8323 44.5835 30.5852 44.5835C34.4217 44.5835 36.5104 46.7362 36.5104 50.7432ZM33.2068 51.1268C33.2068 48.6331 32.2477 47.4182 30.3081 47.4182C28.3473 47.4182 27.0898 48.8676 27.0898 51.0629C27.0898 53.7058 28.3473 54.8567 31.1607 54.8567H33.2068V51.1268Z" fill="#5F6369"/>
<path d="M12.8095 50.7432V57.6062H8.31235C5.20055 57.6062 3.81516 57.393 2.19531 56.306C0.788608 55.3469 0 53.5139 0 51.1481C0 47.8871 2.15269 44.5835 6.90564 44.5835C10.7634 44.5835 12.8095 46.7362 12.8095 50.7432ZM9.37804 51.1268C9.37804 48.6118 8.48286 47.4182 6.522 47.4182C4.56114 47.4182 3.30363 48.8676 3.30363 51.0629C3.30363 53.7058 4.56114 54.8567 7.37455 54.8567H9.37804V51.1268Z" fill="#5F6369"/>
<path d="M122.301 35.1462C122.749 35.3806 123.047 35.8282 123.005 36.2119C122.941 36.5955 122.514 36.7234 122.046 36.4889C121.577 36.2545 121.278 35.7856 121.342 35.4019C121.427 35.0396 121.832 34.933 122.301 35.1462Z" fill="white"/>
<path d="M123.644 27.7506C124.006 27.9425 124.284 28.2835 124.241 28.5179C124.198 28.7524 123.879 28.795 123.495 28.6032C123.111 28.4114 122.856 28.0704 122.898 27.8359C122.941 27.5801 123.261 27.5588 123.644 27.7506Z" fill="white"/>
<path d="M123.772 27.0254C124.092 27.1959 124.305 27.473 124.284 27.6435C124.241 27.8354 123.985 27.8567 123.665 27.6862C123.346 27.5157 123.133 27.2386 123.154 27.0468C123.197 26.8762 123.452 26.8549 123.772 27.0254Z" fill="white"/>
<path d="M123.879 26.3008C124.156 26.45 124.369 26.7058 124.348 26.8763C124.326 27.0468 124.07 27.0681 123.772 26.8976C123.474 26.7484 123.282 26.4927 123.303 26.3221C123.346 26.1516 123.602 26.1303 123.879 26.3008Z" fill="white"/>
<path d="M123.985 25.5763C124.262 25.7255 124.433 25.9386 124.433 26.1092C124.411 26.2583 124.177 26.2584 123.9 26.1305C123.623 25.9813 123.431 25.7468 123.452 25.5976C123.495 25.4484 123.729 25.4484 123.985 25.5763Z" fill="white"/>
<path d="M124.113 24.9157C124.369 25.0435 124.539 25.2567 124.518 25.3846C124.497 25.5124 124.283 25.5124 124.028 25.3846C123.772 25.2567 123.601 25.0435 123.623 24.8943C123.644 24.7878 123.857 24.7878 124.113 24.9157Z" fill="white"/>
<path d="M124.198 24.3401C124.433 24.468 124.582 24.6598 124.582 24.7664C124.561 24.8943 124.369 24.8943 124.134 24.7664C123.9 24.6385 123.729 24.4467 123.751 24.3188C123.772 24.1909 123.964 24.2123 124.198 24.3401Z" fill="white"/>
<path d="M124.284 23.7649C124.497 23.8715 124.646 24.042 124.625 24.1699C124.603 24.2978 124.433 24.2765 124.22 24.1486C124.006 24.0207 123.857 23.8715 123.879 23.7436C123.9 23.6157 124.07 23.6371 124.284 23.7649Z" fill="white"/>
<path d="M124.39 23.168C124.561 23.2746 124.71 23.4025 124.689 23.509C124.667 23.6156 124.518 23.5943 124.326 23.4877C124.134 23.3812 124.007 23.2533 124.028 23.1467C124.049 23.0401 124.198 23.0828 124.39 23.168Z" fill="white"/>
<path d="M124.475 22.6353C124.646 22.7205 124.752 22.8484 124.752 22.9337C124.731 23.0402 124.603 22.9976 124.433 22.9124C124.262 22.8058 124.134 22.6992 124.156 22.5926C124.156 22.5074 124.305 22.5287 124.475 22.6353Z" fill="white"/>
<path d="M124.539 22.0808C124.689 22.166 124.795 22.2726 124.774 22.3365C124.752 22.4218 124.646 22.4005 124.497 22.3152C124.347 22.23 124.241 22.1234 124.262 22.0595C124.284 21.9742 124.411 22.0168 124.539 22.0808Z" fill="white"/>
<path d="M124.625 21.5907C124.752 21.6547 124.838 21.7399 124.838 21.8252C124.816 21.8891 124.731 21.8678 124.603 21.8039C124.475 21.7399 124.39 21.6547 124.39 21.5694C124.411 21.4842 124.497 21.5055 124.625 21.5907Z" fill="white"/>
<path d="M121.811 37.7253C121.427 37.5335 121.172 37.1285 121.236 36.7875C121.3 36.4678 121.662 36.3612 122.046 36.5531C122.429 36.7449 122.664 37.1285 122.621 37.4695C122.557 37.7892 122.216 37.9171 121.811 37.7253Z" fill="white"/>
<path d="M121.513 39.3022C121.129 39.1104 120.895 38.7054 120.959 38.3644C121.044 38.0234 121.364 37.9168 121.747 38.0873C122.11 38.2791 122.365 38.6628 122.301 39.0038C122.237 39.3448 121.896 39.4727 121.513 39.3022Z" fill="white"/>
<path d="M121.193 40.9437C120.831 40.7519 120.596 40.3683 120.66 40.0059C120.745 39.6649 121.065 39.537 121.427 39.7075C121.79 39.878 122.024 40.283 121.96 40.624C121.896 40.9863 121.577 41.1142 121.193 40.9437Z" fill="white"/>
<path d="M120.831 42.7551C120.468 42.5846 120.255 42.1796 120.319 41.8173C120.404 41.4763 120.724 41.3484 121.086 41.4976C121.449 41.6681 121.662 42.0518 121.598 42.4141C121.534 42.7551 121.193 42.9043 120.831 42.7551Z" fill="white"/>
<path d="M120.468 44.5457C120.149 44.3965 119.957 44.0341 120.021 43.7144C120.085 43.3947 120.383 43.2668 120.682 43.416C120.98 43.5652 121.172 43.9062 121.129 44.226C121.086 44.5457 120.788 44.6949 120.468 44.5457Z" fill="white"/>
<path d="M120.021 46.7409C119.722 46.5917 119.531 46.2507 119.594 45.9096C119.68 45.5899 119.957 45.4407 120.255 45.5686C120.554 45.6965 120.724 46.0588 120.681 46.3785C120.618 46.7196 120.34 46.8688 120.021 46.7409Z" fill="white"/>
<path d="M119.53 49.0855C119.253 48.9576 119.104 48.6379 119.168 48.3182C119.232 48.0198 119.488 47.8706 119.765 47.9772C120.021 48.1051 120.191 48.4248 120.127 48.7232C120.063 49.0429 119.808 49.1921 119.53 49.0855Z" fill="white"/>
<path d="M119.04 51.451C118.806 51.3445 118.678 51.0674 118.742 50.7903C118.806 50.5132 119.04 50.364 119.254 50.4706C119.488 50.5772 119.616 50.8542 119.552 51.1313C119.488 51.3871 119.275 51.5363 119.04 51.451Z" fill="white"/>
<path d="M123.9 36.0414C124.262 36.2332 124.497 36.5955 124.475 36.8939C124.433 37.1923 124.113 37.2989 123.751 37.1284C123.388 36.9366 123.133 36.5529 123.175 36.2545C123.218 35.9348 123.537 35.8496 123.9 36.0414Z" fill="white"/>
<path d="M125.498 36.7021C125.946 36.9366 126.244 37.4055 126.223 37.7891C126.18 38.1728 125.797 38.3007 125.349 38.0875C124.902 37.8531 124.582 37.3629 124.625 36.9792C124.667 36.5956 125.051 36.4677 125.498 36.7021Z" fill="white"/>
<path d="M136.518 36.1052C136.347 35.9986 136.219 36.0199 136.24 36.1904C136.262 36.3609 136.432 36.5741 136.603 36.702C136.795 36.8085 136.901 36.7872 136.88 36.6167C136.859 36.4462 136.709 36.2331 136.518 36.1052Z" fill="white"/>
<path d="M135.239 35.2319C135.004 35.0827 134.834 35.1253 134.855 35.3385C134.876 35.5516 135.09 35.8287 135.324 35.9779C135.558 36.1271 135.729 36.0844 135.708 35.8713C135.686 35.6582 135.473 35.3811 135.239 35.2319Z" fill="white"/>
<path d="M131.658 47.2097C131.338 47.0179 131.104 47.1458 131.104 47.5294C131.104 47.9131 131.338 48.3393 131.658 48.5525C131.978 48.7443 132.212 48.6164 132.212 48.2328C132.191 47.8491 131.956 47.4015 131.658 47.2097Z" fill="white"/>
<path d="M130.123 44.183C129.761 43.9699 129.484 44.1191 129.463 44.5027C129.463 44.9077 129.719 45.3766 130.081 45.5897C130.443 45.8029 130.72 45.6537 130.742 45.2487C130.742 44.8437 130.486 44.3962 130.123 44.183Z" fill="white"/>
<path d="M128.525 41.5616C128.163 41.3698 127.886 41.4977 127.864 41.8387C127.843 42.201 128.12 42.6273 128.461 42.8404C128.823 43.0323 129.1 42.9044 129.122 42.542C129.122 42.1797 128.866 41.7534 128.525 41.5616Z" fill="white"/>
<path d="M127.523 30.7981C127.203 30.6276 126.948 30.6702 126.926 30.8833C126.926 31.1178 127.161 31.4162 127.481 31.608C127.8 31.7785 128.056 31.7359 128.077 31.5014C128.077 31.2883 127.843 30.9899 127.523 30.7981Z" fill="white"/>
<path d="M134.088 35.5727C133.832 35.4235 133.662 35.4661 133.683 35.6793C133.704 35.8924 133.917 36.1908 134.173 36.34C134.429 36.4892 134.599 36.4466 134.578 36.2121C134.557 35.999 134.344 35.7219 134.088 35.5727Z" fill="white"/>
<path d="M132.788 34.7836C132.532 34.6344 132.319 34.6771 132.34 34.8902C132.361 35.1033 132.575 35.4017 132.852 35.5722C133.129 35.7214 133.321 35.6788 133.299 35.4444C133.278 35.2312 133.065 34.9541 132.788 34.7836Z" fill="white"/>
<path d="M130.209 34.3576C129.889 34.1871 129.655 34.251 129.655 34.4854C129.655 34.7412 129.91 35.0822 130.209 35.2527C130.528 35.4232 130.763 35.3593 130.763 35.1035C130.763 34.8478 130.528 34.5281 130.209 34.3576Z" fill="white"/>
<path d="M131.509 33.9953C131.21 33.8247 130.997 33.8887 130.997 34.1231C130.997 34.3576 131.253 34.6773 131.551 34.8691C131.85 35.0396 132.063 34.9757 132.063 34.7412C132.042 34.4855 131.807 34.1658 131.509 33.9953Z" fill="white"/>
<path d="M130.145 33.2068C129.804 33.0363 129.548 33.0789 129.548 33.3347C129.548 33.5904 129.825 33.9528 130.145 34.1446C130.486 34.3364 130.742 34.2725 130.742 33.9954C130.742 33.7396 130.486 33.3986 130.145 33.2068Z" fill="white"/>
<path d="M128.823 33.5478C128.482 33.3559 128.205 33.4199 128.184 33.697C128.184 33.974 128.44 34.3364 128.802 34.5282C129.164 34.72 129.42 34.6561 129.441 34.379C129.441 34.1019 129.186 33.7396 128.823 33.5478Z" fill="white"/>
<path d="M126.99 39.0469C126.628 38.8551 126.33 38.9616 126.287 39.3026C126.266 39.6437 126.521 40.0699 126.905 40.2618C127.289 40.4536 127.587 40.3257 127.608 39.9847C127.608 39.6437 127.353 39.2387 126.99 39.0469Z" fill="white"/>
<path d="M127.097 37.5973C126.713 37.3842 126.372 37.4908 126.351 37.8531C126.33 38.2154 126.607 38.6417 127.012 38.8762C127.417 39.0893 127.736 38.9614 127.758 38.5991C127.758 38.2368 127.481 37.8105 127.097 37.5973Z" fill="white"/>
<path d="M127.182 36.2333C126.756 36.0202 126.415 36.1055 126.372 36.4678C126.351 36.8301 126.649 37.299 127.097 37.5335C127.523 37.7679 127.886 37.64 127.907 37.2777C127.928 36.9154 127.608 36.4678 127.182 36.2333Z" fill="white"/>
<path d="M127.267 34.9756C126.863 34.7624 126.521 34.8477 126.479 35.1887C126.458 35.5297 126.756 35.9773 127.182 36.2118C127.608 36.4249 127.95 36.3396 127.971 35.9773C127.992 35.615 127.694 35.1887 127.267 34.9756Z" fill="white"/>
<path d="M127.331 33.8674C126.969 33.6755 126.671 33.7395 126.649 34.0379C126.628 34.3363 126.905 34.6986 127.267 34.9117C127.63 35.1035 127.928 35.0183 127.949 34.7412C127.971 34.4215 127.694 34.0592 127.331 33.8674Z" fill="white"/>
<path d="M127.417 32.7378C127.033 32.5247 126.713 32.5886 126.671 32.887C126.649 33.1854 126.948 33.5904 127.353 33.8035C127.758 34.0166 128.077 33.9314 128.077 33.633C128.099 33.3346 127.8 32.9509 127.417 32.7378Z" fill="white"/>
<path d="M127.481 31.7144C127.097 31.5226 126.799 31.5652 126.756 31.8423C126.735 32.1194 127.033 32.503 127.417 32.7161C127.8 32.9293 128.12 32.8653 128.12 32.5669C128.141 32.2899 127.864 31.9275 127.481 31.7144Z" fill="white"/>
<path d="M125.008 28.5815C124.731 28.4536 124.518 28.475 124.497 28.6242C124.475 28.7947 124.667 29.0504 124.944 29.1783C125.221 29.3275 125.435 29.2849 125.456 29.1144C125.456 28.9652 125.264 28.7307 125.008 28.5815Z" fill="white"/>
<path d="M125.051 27.793C124.795 27.6651 124.603 27.6864 124.582 27.8356C124.561 27.9848 124.731 28.1979 124.987 28.3471C125.243 28.475 125.434 28.4537 125.456 28.3045C125.477 28.134 125.307 27.9208 125.051 27.793Z" fill="white"/>
<path d="M125.093 27.0257C124.88 26.9191 124.71 26.9191 124.688 27.047C124.667 27.1749 124.838 27.3667 125.051 27.4733C125.264 27.5798 125.434 27.5798 125.456 27.452C125.456 27.3454 125.307 27.1536 125.093 27.0257Z" fill="white"/>
<path d="M125.136 26.3011C124.944 26.1945 124.795 26.1945 124.774 26.3224C124.752 26.4503 124.902 26.5995 125.093 26.706C125.285 26.8126 125.434 26.8126 125.456 26.6847C125.456 26.5568 125.328 26.4076 125.136 26.3011Z" fill="white"/>
<path d="M125.179 25.619C125.008 25.5338 124.859 25.5125 124.838 25.619C124.816 25.7256 124.965 25.8748 125.136 25.96C125.307 26.0453 125.456 26.0666 125.477 25.96C125.477 25.8535 125.349 25.7256 125.179 25.619Z" fill="white"/>
<path d="M125.2 24.9374C125.051 24.8521 124.923 24.8308 124.902 24.9374C124.902 25.044 125.008 25.1505 125.157 25.2358C125.328 25.321 125.456 25.3423 125.456 25.2358C125.477 25.1505 125.349 25.044 125.2 24.9374Z" fill="white"/>
<path d="M125.221 24.3402C125.072 24.255 124.966 24.2337 124.944 24.3402C124.944 24.4255 125.051 24.532 125.2 24.6173C125.349 24.7026 125.456 24.7239 125.477 24.6173C125.477 24.532 125.37 24.4255 125.221 24.3402Z" fill="white"/>
<path d="M125.264 23.7225C125.136 23.6586 125.029 23.6373 125.029 23.7012C125.029 23.7865 125.115 23.8717 125.243 23.9357C125.37 23.9996 125.477 24.0209 125.477 23.957C125.477 23.893 125.392 23.7865 125.264 23.7225Z" fill="white"/>
<path d="M123.559 38.407C123.836 38.5349 124.092 38.4497 124.134 38.2152C124.156 37.9595 123.985 37.6824 123.687 37.5332C123.41 37.4053 123.154 37.4692 123.111 37.725C123.09 37.9595 123.282 38.2578 123.559 38.407Z" fill="white"/>
<path d="M123.324 39.9844C123.601 40.1122 123.836 40.027 123.878 39.7712C123.9 39.5155 123.729 39.2384 123.473 39.0892C123.196 38.9613 122.962 39.0466 122.919 39.281C122.877 39.5368 123.047 39.8352 123.324 39.9844Z" fill="white"/>
<path d="M122.941 41.604C123.218 41.7319 123.452 41.6253 123.495 41.3696C123.538 41.1138 123.346 40.8154 123.09 40.6875C122.834 40.5596 122.6 40.6662 122.536 40.9007C122.493 41.1777 122.664 41.4761 122.941 41.604Z" fill="white"/>
<path d="M122.6 43.3736C122.855 43.4802 123.069 43.395 123.111 43.1392C123.154 42.8834 122.983 42.6063 122.749 42.4785C122.493 42.3719 122.28 42.4572 122.237 42.7129C122.173 42.9687 122.344 43.2458 122.6 43.3736Z" fill="white"/>
<path d="M122.173 45.1425C122.408 45.2491 122.621 45.1425 122.664 44.908C122.706 44.6736 122.557 44.3965 122.323 44.2899C122.088 44.1834 121.875 44.2899 121.832 44.5244C121.79 44.7588 121.939 45.0146 122.173 45.1425Z" fill="white"/>
<path d="M121.683 47.2314C121.896 47.3379 122.109 47.21 122.152 46.9756C122.195 46.7411 122.046 46.4641 121.832 46.3788C121.619 46.2722 121.427 46.3788 121.364 46.6133C121.342 46.869 121.47 47.1248 121.683 47.2314Z" fill="white"/>
<path d="M128.802 32.5031C128.482 32.3326 128.227 32.3752 128.205 32.6097C128.205 32.8441 128.44 33.1852 128.781 33.3557C129.1 33.5262 129.356 33.4836 129.377 33.2278C129.377 32.9933 129.122 32.6736 128.802 32.5031Z" fill="white"/>
<path d="M128.738 34.7198C128.44 34.5706 128.227 34.6133 128.205 34.8477C128.205 35.0822 128.418 35.4019 128.717 35.5511C129.015 35.7003 129.25 35.6363 129.25 35.4019C129.25 35.1674 129.015 34.869 128.738 34.7198Z" fill="white"/>
<path d="M128.717 35.8494C128.397 35.6789 128.12 35.7429 128.099 36.0199C128.099 36.297 128.333 36.6593 128.674 36.8512C129.015 37.0217 129.271 36.9577 129.292 36.6593C129.292 36.3823 129.036 36.0413 128.717 35.8494Z" fill="white"/>
<path d="M128.546 39.9417C128.227 39.7712 127.971 39.8778 127.949 40.1762C127.928 40.4959 128.184 40.8795 128.504 41.05C128.823 41.2206 129.1 41.114 129.1 40.7943C129.1 40.4959 128.866 40.1336 128.546 39.9417Z" fill="white"/>
<path d="M133.981 34.4428C133.704 34.2936 133.512 34.3363 133.534 34.5494C133.555 34.7838 133.789 35.0822 134.066 35.2527C134.344 35.4019 134.535 35.3593 134.514 35.1249C134.471 34.9117 134.258 34.6133 133.981 34.4428Z" fill="white"/>
<path d="M130.017 46.144C129.719 45.9735 129.484 46.1014 129.463 46.4424C129.463 46.7835 129.676 47.1884 129.974 47.3802C130.273 47.5507 130.507 47.4229 130.528 47.0818C130.528 46.7195 130.315 46.3146 130.017 46.144Z" fill="white"/>
<path d="M131.679 49.2348C131.402 49.0643 131.168 49.1922 131.168 49.5545C131.168 49.9168 131.381 50.3431 131.679 50.5349C131.978 50.7268 132.191 50.5776 132.191 50.2152C132.17 49.8529 131.956 49.4266 131.679 49.2348Z" fill="white"/>
<path d="M128.376 43.2668C128.056 43.0963 127.779 43.2029 127.758 43.5652C127.736 43.9062 127.992 44.3325 128.312 44.5243C128.653 44.6948 128.909 44.567 128.93 44.2259C128.951 43.8636 128.717 43.4373 128.376 43.2668Z" fill="white"/>
<path d="M126.841 40.7091C126.521 40.5386 126.244 40.6451 126.202 40.9649C126.18 41.2846 126.415 41.6682 126.735 41.8387C127.076 42.0092 127.331 41.9027 127.374 41.5616C127.395 41.2632 127.182 40.8796 126.841 40.7091Z" fill="white"/>
<path d="M125.349 38.2369C124.987 38.0664 124.688 38.1517 124.646 38.4714C124.603 38.7911 124.859 39.1961 125.221 39.3879C125.584 39.5584 125.882 39.4518 125.925 39.1321C125.967 38.7911 125.711 38.4074 125.349 38.2369Z" fill="white"/>
<path d="M128.61 38.5568C128.312 38.4076 128.056 38.4716 128.056 38.7487C128.035 39.0257 128.269 39.3881 128.568 39.5586C128.866 39.7291 129.122 39.6225 129.122 39.3455C129.122 39.0684 128.909 38.7274 128.61 38.5568Z" fill="white"/>
<path d="M127.566 29.9246C127.289 29.7754 127.054 29.7967 127.033 29.9885C127.033 30.1803 127.246 30.4574 127.523 30.6066C127.8 30.7558 128.035 30.7345 128.035 30.5427C128.056 30.3508 127.843 30.0951 127.566 29.9246Z" fill="white"/>
<path d="M132.724 33.7819C132.489 33.654 132.34 33.6966 132.34 33.8671C132.361 34.0376 132.532 34.2934 132.766 34.4213C133.001 34.5492 133.15 34.5065 133.15 34.336C133.129 34.1655 132.937 33.9098 132.724 33.7819Z" fill="white"/>
<path d="M130.23 36.7878C129.974 36.6386 129.782 36.7025 129.782 36.937C129.782 37.1714 129.974 37.4485 130.23 37.5977C130.486 37.7469 130.678 37.683 130.678 37.4485C130.656 37.2141 130.465 36.937 130.23 36.7878Z" fill="white"/>
<path d="M130.102 42.4996C129.783 42.3291 129.548 42.4357 129.527 42.7554C129.527 43.0964 129.761 43.48 130.081 43.6719C130.401 43.8424 130.635 43.7358 130.656 43.3948C130.635 43.0751 130.401 42.6701 130.102 42.4996Z" fill="white"/>
<path d="M128.653 37.235C128.354 37.0858 128.12 37.1498 128.099 37.4055C128.099 37.6613 128.312 38.0023 128.61 38.1728C128.909 38.3433 129.143 38.2581 129.164 37.981C129.164 37.7039 128.951 37.3842 128.653 37.235Z" fill="white"/>
<path d="M131.679 38.9188C131.402 38.7483 131.189 38.8336 131.189 39.1107C131.189 39.3877 131.424 39.7288 131.701 39.8993C131.999 40.0698 132.212 39.9845 132.191 39.7074C132.191 39.4304 131.956 39.0893 131.679 38.9188Z" fill="white"/>
<path d="M132.916 52.7301C132.681 52.5596 132.511 52.6874 132.511 53.0072C132.511 53.3269 132.702 53.7318 132.937 53.9023C133.171 54.0728 133.342 53.945 133.342 53.6252C133.321 53.2842 133.129 52.9006 132.916 52.7301Z" fill="white"/>
<path d="M131.573 35.1463C131.317 34.9971 131.104 35.061 131.104 35.2741C131.104 35.4873 131.317 35.7857 131.594 35.9349C131.871 36.0841 132.063 36.0201 132.042 35.807C132.042 35.5938 131.829 35.2954 131.573 35.1463Z" fill="white"/>
<path d="M126.244 29.2638C125.989 29.136 125.775 29.1573 125.754 29.3278C125.733 29.4983 125.925 29.7328 126.18 29.882C126.436 30.0098 126.649 29.9885 126.671 29.818C126.692 29.6262 126.5 29.3917 126.244 29.2638Z" fill="white"/>
<path d="M128.845 29.7964C128.589 29.6685 128.418 29.6898 128.397 29.839C128.397 30.0095 128.589 30.244 128.823 30.3718C129.079 30.4997 129.271 30.4784 129.271 30.3079C129.271 30.1587 129.1 29.9456 128.845 29.7964Z" fill="white"/>
<path d="M131.488 33.1003C131.274 32.9937 131.125 33.015 131.125 33.1642C131.125 33.3134 131.296 33.5266 131.509 33.6545C131.722 33.761 131.871 33.7397 131.871 33.5692C131.85 33.42 131.679 33.2069 131.488 33.1003Z" fill="white"/>
<path d="M130.166 38.1089C129.91 37.9597 129.697 38.045 129.697 38.2794C129.697 38.5139 129.889 38.8122 130.166 38.9828C130.422 39.132 130.635 39.0467 130.635 38.8122C130.614 38.5565 130.422 38.2581 130.166 38.1089Z" fill="white"/>
<path d="M131.594 37.6188C131.36 37.4909 131.189 37.5548 131.189 37.7467C131.189 37.9598 131.381 38.2156 131.594 38.3434C131.829 38.4713 131.999 38.4074 131.978 38.2156C131.999 38.0024 131.829 37.7467 131.594 37.6188Z" fill="white"/>
<path d="M133.086 39.8141C132.83 39.6649 132.66 39.7289 132.66 39.9846C132.681 40.2404 132.873 40.5601 133.129 40.7093C133.384 40.8585 133.555 40.7946 133.555 40.5388C133.534 40.283 133.321 39.9633 133.086 39.8141Z" fill="white"/>
<path d="M135.324 36.404C135.132 36.2974 135.004 36.3188 135.026 36.4893C135.047 36.6598 135.217 36.8942 135.388 37.0008C135.58 37.1074 135.708 37.086 135.686 36.8942C135.686 36.745 135.516 36.5319 135.324 36.404Z" fill="white"/>
<path d="M128.845 29.0294C128.632 28.9228 128.461 28.9228 128.461 29.072C128.461 29.2212 128.632 29.413 128.845 29.5409C129.058 29.6475 129.228 29.6475 129.228 29.4983C129.228 29.3491 129.058 29.1573 128.845 29.0294Z" fill="white"/>
<path d="M128.845 30.6919C128.61 30.5641 128.44 30.6067 128.44 30.7559C128.44 30.9051 128.61 31.1395 128.845 31.2674C129.079 31.3953 129.25 31.3527 129.25 31.2035C129.228 31.033 129.058 30.7985 128.845 30.6919Z" fill="white"/>
<path d="M133.15 50.5986C132.894 50.4281 132.681 50.556 132.681 50.897C132.681 51.238 132.894 51.6643 133.15 51.8561C133.406 52.048 133.598 51.9201 133.598 51.5578C133.619 51.2167 133.406 50.7905 133.15 50.5986Z" fill="white"/>
<path d="M127.608 29.1573C127.374 29.0507 127.203 29.0507 127.203 29.1999C127.203 29.3491 127.374 29.5623 127.587 29.6688C127.822 29.7967 127.992 29.7754 127.992 29.6262C127.992 29.4983 127.822 29.2852 127.608 29.1573Z" fill="white"/>
<path d="M130.145 35.5941C129.932 35.4662 129.761 35.5088 129.74 35.7007C129.74 35.8925 129.91 36.1269 130.145 36.2548C130.379 36.3827 130.55 36.3188 130.55 36.1483C130.55 35.9564 130.379 35.7007 130.145 35.5941Z" fill="white"/>
<path d="M130.145 32.3968C129.953 32.2903 129.825 32.3329 129.825 32.4608C129.825 32.61 129.974 32.7805 130.166 32.887C130.358 32.9936 130.486 32.9723 130.486 32.8231C130.464 32.6739 130.315 32.5034 130.145 32.3968Z" fill="white"/>
<path d="M130.123 41.0076C129.91 40.8797 129.719 40.9437 129.719 41.1781C129.719 41.3913 129.889 41.6684 130.102 41.7962C130.337 41.9241 130.507 41.8389 130.507 41.6257C130.507 41.3913 130.337 41.1355 130.123 41.0076Z" fill="white"/>
<path d="M131.701 45.3556C131.445 45.2064 131.253 45.2917 131.253 45.5901C131.253 45.8884 131.466 46.2295 131.722 46.4C131.978 46.5492 132.17 46.4426 132.17 46.1655C132.148 45.8671 131.956 45.5048 131.701 45.3556Z" fill="white"/>
<path d="M128.823 31.6932C128.653 31.608 128.525 31.6293 128.525 31.7359C128.525 31.8637 128.653 32.0343 128.823 32.1195C128.994 32.2048 129.122 32.1834 129.122 32.0556C129.122 31.949 128.994 31.7998 128.823 31.6932Z" fill="white"/>
<path d="M131.573 51.3232C131.36 51.1953 131.211 51.3019 131.211 51.5577C131.211 51.8348 131.36 52.1545 131.573 52.2823C131.786 52.4102 131.935 52.3037 131.935 52.0266C131.914 51.7708 131.765 51.4724 131.573 51.3232Z" fill="white"/>
<path d="M132.873 35.9989C132.66 35.871 132.511 35.9136 132.511 36.1054C132.532 36.2973 132.702 36.5317 132.916 36.6596C133.129 36.7875 133.278 36.7449 133.278 36.553C133.257 36.3612 133.086 36.1268 132.873 35.9989Z" fill="white"/>
<path d="M130.123 29.7538C129.932 29.6472 129.782 29.6685 129.782 29.7964C129.782 29.9243 129.932 30.1161 130.145 30.2227C130.337 30.3292 130.486 30.3079 130.486 30.1801C130.465 30.0522 130.315 29.8604 130.123 29.7538Z" fill="white"/>
<path d="M137.775 36.9581C137.626 36.8516 137.519 36.8942 137.541 37.0434C137.562 37.1926 137.711 37.3844 137.86 37.491C138.009 37.5975 138.116 37.5549 138.095 37.4057C138.073 37.2565 137.924 37.0647 137.775 36.9581Z" fill="white"/>
<path d="M134.493 40.7518C134.28 40.6026 134.109 40.6879 134.13 40.901C134.152 41.1355 134.322 41.4339 134.557 41.5831C134.791 41.7323 134.94 41.6683 134.919 41.4126C134.898 41.1781 134.706 40.8797 134.493 40.7518Z" fill="white"/>
<path d="M133.811 54.9893C133.619 54.8401 133.491 54.9467 133.491 55.2451C133.491 55.5435 133.64 55.9058 133.832 56.0763C134.024 56.2468 134.152 56.1189 134.152 55.8205C134.131 55.5008 134.003 55.1385 133.811 54.9893Z" fill="white"/>
<path d="M129.953 48.2119C129.719 48.084 129.548 48.1906 129.527 48.4463C129.527 48.7234 129.697 49.0218 129.91 49.171C130.145 49.2989 130.315 49.1923 130.315 48.9153C130.337 48.6595 130.166 48.3398 129.953 48.2119Z" fill="white"/>
<path d="M133.022 38.5566C132.873 38.4714 132.745 38.514 132.745 38.6632C132.745 38.8124 132.873 39.0042 133.043 39.1108C133.214 39.2174 133.32 39.1534 133.32 39.0042C133.299 38.8337 133.171 38.6419 133.022 38.5566Z" fill="white"/>
<path d="M130.06 28.9653C129.889 28.8801 129.761 28.8801 129.782 28.9866C129.782 29.1145 129.91 29.2424 130.081 29.349C130.251 29.4342 130.379 29.4342 130.379 29.3276C130.337 29.1998 130.209 29.0506 130.06 28.9653Z" fill="white"/>
<path d="M131.232 29.6686C131.104 29.6047 130.997 29.6047 130.997 29.6899C130.997 29.7965 131.104 29.9031 131.253 29.9883C131.381 30.0523 131.488 30.0523 131.488 29.967C131.466 29.8604 131.36 29.7539 131.232 29.6686Z" fill="white"/>
<path d="M128.291 45.3764C128.099 45.2699 127.928 45.3551 127.907 45.5683C127.907 45.7814 128.035 46.0372 128.248 46.1651C128.461 46.2716 128.61 46.1864 128.632 45.9732C128.653 45.7388 128.504 45.483 128.291 45.3764Z" fill="white"/>
<path d="M126.649 42.606C126.458 42.4994 126.287 42.5847 126.266 42.7765C126.244 42.9683 126.394 43.2241 126.585 43.3307C126.777 43.4372 126.948 43.352 126.969 43.1602C126.99 42.9683 126.841 42.7126 126.649 42.606Z" fill="white"/>
<path d="M125.115 40.0699C124.923 39.9633 124.752 40.0273 124.731 40.2191C124.71 40.4109 124.838 40.624 125.051 40.7306C125.243 40.8372 125.413 40.7519 125.434 40.5814C125.456 40.3896 125.307 40.1551 125.115 40.0699Z" fill="white"/>
<path d="M131.146 28.9223C130.997 28.8371 130.891 28.8371 130.912 28.9437C130.912 29.0502 131.04 29.1781 131.189 29.242C131.338 29.3273 131.445 29.3273 131.424 29.2207C131.424 29.1355 131.296 29.0076 131.146 28.9223Z" fill="white"/>
<path d="M132.084 28.944C131.956 28.8801 131.871 28.8801 131.871 28.9653C131.871 29.0506 131.978 29.1572 132.106 29.2211C132.234 29.285 132.319 29.285 132.319 29.1998C132.297 29.1145 132.212 29.008 132.084 28.944Z" fill="white"/>
<path d="M135.899 41.8174C135.75 41.7321 135.665 41.7748 135.665 41.9239C135.686 42.0731 135.793 42.2863 135.942 42.3715C136.091 42.4568 136.177 42.4142 136.177 42.265C136.155 42.1158 136.027 41.9026 135.899 41.8174Z" fill="white"/>
<path d="M134.599 42.1796C134.429 42.0731 134.301 42.1157 134.301 42.3075C134.322 42.4994 134.472 42.7551 134.642 42.8617C134.813 42.9896 134.94 42.9256 134.94 42.7125C134.919 42.542 134.77 42.2862 134.599 42.1796Z" fill="white"/>
<path d="M133.15 41.2635C132.979 41.157 132.873 41.2209 132.873 41.3914C132.873 41.5619 133.022 41.7751 133.171 41.8816C133.342 41.9882 133.47 41.9242 133.448 41.7537C133.448 41.5832 133.321 41.3701 133.15 41.2635Z" fill="white"/>
<path d="M131.679 40.3896C131.53 40.3044 131.402 40.347 131.402 40.4962C131.402 40.6454 131.53 40.8372 131.679 40.9438C131.829 41.0291 131.957 40.9864 131.957 40.8372C131.935 40.6667 131.829 40.4749 131.679 40.3896Z" fill="white"/>
<path d="M130.145 39.5156C129.996 39.4304 129.868 39.473 129.868 39.6222C129.868 39.7714 129.996 39.9632 130.145 40.0485C130.294 40.1337 130.422 40.0911 130.422 39.9419C130.422 39.7927 130.315 39.6009 130.145 39.5156Z" fill="white"/>
<path d="M135.963 43.1603C135.814 43.0538 135.729 43.1177 135.729 43.2669C135.75 43.4374 135.857 43.6506 136.006 43.7358C136.155 43.8424 136.241 43.7784 136.241 43.6292C136.241 43.48 136.113 43.2669 135.963 43.1603Z" fill="white"/>
<path d="M137.413 44.2471C137.285 44.1618 137.2 44.2044 137.221 44.3536C137.242 44.5028 137.349 44.716 137.477 44.8012C137.605 44.9078 137.69 44.8439 137.669 44.6947C137.626 44.5455 137.519 44.3536 137.413 44.2471Z" fill="white"/>
<path d="M130.102 30.5853C129.953 30.5 129.825 30.5 129.825 30.6279C129.825 30.7558 129.953 30.8837 130.123 30.9689C130.273 31.0542 130.401 31.0542 130.401 30.9263C130.379 30.8197 130.273 30.6706 130.102 30.5853Z" fill="white"/>
<path d="M120.618 34.4003C120.255 34.2298 119.893 34.315 119.829 34.5921C119.765 34.8905 119.999 35.2741 120.383 35.4447C120.767 35.6152 121.108 35.5299 121.172 35.2315C121.214 34.9331 120.98 34.5708 120.618 34.4003Z" fill="white"/>
<path d="M118.998 33.4835C118.529 33.2704 118.081 33.3769 117.975 33.7179C117.868 34.0803 118.166 34.5492 118.657 34.7836C119.147 34.9968 119.595 34.8902 119.68 34.5065C119.765 34.1655 119.467 33.7179 118.998 33.4835Z" fill="white"/>
<path d="M108.17 22.0385C108.426 22.1238 108.554 22.273 108.469 22.4009C108.384 22.5287 108.106 22.55 107.851 22.4648C107.595 22.3795 107.467 22.2303 107.552 22.1025C107.638 21.9959 107.915 21.9533 108.17 22.0385Z" fill="white"/>
<path d="M109.939 22.5925C110.238 22.6991 110.387 22.9122 110.302 23.0614C110.195 23.2106 109.875 23.2319 109.556 23.1253C109.236 23.0188 109.087 22.8056 109.193 22.6564C109.321 22.5072 109.641 22.4859 109.939 22.5925Z" fill="white"/>
<path d="M109.279 36.7446C109.556 36.8511 109.705 37.1282 109.598 37.3627C109.492 37.5971 109.172 37.7037 108.874 37.5758C108.575 37.4692 108.447 37.1922 108.554 36.9577C108.682 36.7233 108.98 36.638 109.279 36.7446Z" fill="white"/>
<path d="M111.836 35.466C112.22 35.6365 112.433 35.9775 112.305 36.2973C112.177 36.617 111.772 36.7235 111.367 36.5743C110.962 36.4038 110.771 36.0415 110.899 35.7218C111.026 35.4234 111.431 35.2955 111.836 35.466Z" fill="white"/>
<path d="M114.394 34.7201C114.799 34.8906 115.033 35.2743 114.927 35.6153C114.799 35.935 114.394 36.0629 113.968 35.8924C113.541 35.7006 113.328 35.3169 113.435 34.9972C113.584 34.6562 113.989 34.5496 114.394 34.7201Z" fill="white"/>
<path d="M119.211 26.5141C119.552 26.6846 119.765 26.983 119.722 27.1748C119.658 27.3879 119.339 27.4092 118.976 27.2387C118.614 27.0682 118.401 26.7698 118.465 26.5567C118.529 26.3649 118.849 26.3435 119.211 26.5141Z" fill="white"/>
<path d="M111.069 24.0418C111.389 24.1697 111.559 24.3829 111.474 24.5534C111.367 24.7239 111.026 24.7665 110.707 24.6386C110.366 24.5107 110.195 24.2976 110.302 24.1058C110.408 23.9779 110.749 23.9353 111.069 24.0418Z" fill="white"/>
<path d="M112.732 24.6813C113.051 24.8092 113.243 25.0649 113.158 25.2354C113.051 25.406 112.732 25.4486 112.391 25.3207C112.049 25.1715 111.879 24.9371 111.964 24.7665C112.049 24.596 112.391 24.5534 112.732 24.6813Z" fill="white"/>
<path d="M115.481 26.8979C115.843 27.0684 116.056 27.3455 115.971 27.5799C115.865 27.7931 115.524 27.8357 115.161 27.6865C114.799 27.516 114.586 27.2176 114.671 27.0045C114.756 26.7913 115.119 26.7487 115.481 26.8979Z" fill="white"/>
<path d="M114.33 25.2997C114.671 25.4489 114.884 25.726 114.799 25.9391C114.692 26.1309 114.351 26.1735 113.989 26.0243C113.627 25.8751 113.413 25.5981 113.52 25.3849C113.627 25.1931 113.968 25.1505 114.33 25.2997Z" fill="white"/>
<path d="M115.929 26.0028C116.291 26.1733 116.525 26.4717 116.44 26.6849C116.355 26.898 115.993 26.9406 115.588 26.7701C115.204 26.5996 114.991 26.3012 115.076 26.0668C115.183 25.8536 115.545 25.8323 115.929 26.0028Z" fill="white"/>
<path d="M117.058 27.5798C117.442 27.7716 117.676 28.0914 117.591 28.3258C117.506 28.5816 117.122 28.6242 116.717 28.4324C116.312 28.2405 116.078 27.9208 116.184 27.6651C116.291 27.4519 116.653 27.4093 117.058 27.5798Z" fill="white"/>
<path d="M116.781 34.0592C117.186 34.251 117.42 34.6133 117.335 34.933C117.229 35.2527 116.845 35.3593 116.419 35.1675C116.014 34.9757 115.779 34.592 115.865 34.2723C115.992 33.9952 116.376 33.8887 116.781 34.0592Z" fill="white"/>
<path d="M117.186 32.7377C117.612 32.9508 117.868 33.3345 117.783 33.6755C117.676 33.9952 117.25 34.1018 116.824 33.91C116.376 33.6968 116.12 33.2919 116.227 32.9722C116.334 32.6311 116.76 32.5459 117.186 32.7377Z" fill="white"/>
<path d="M117.57 31.48C118.039 31.6932 118.316 32.1194 118.209 32.4605C118.103 32.8015 117.655 32.908 117.165 32.6949C116.696 32.4605 116.397 32.0342 116.525 31.6932C116.653 31.3735 117.101 31.2669 117.57 31.48Z" fill="white"/>
<path d="M117.932 30.3295C118.38 30.5426 118.657 30.9476 118.571 31.2673C118.465 31.587 118.039 31.6723 117.57 31.4591C117.101 31.246 116.824 30.8197 116.93 30.5213C117.058 30.1803 117.484 30.1164 117.932 30.3295Z" fill="white"/>
<path d="M118.252 29.3064C118.635 29.4982 118.891 29.8392 118.806 30.095C118.721 30.3507 118.358 30.4147 117.953 30.2442C117.548 30.0523 117.314 29.69 117.399 29.4342C117.484 29.1785 117.868 29.1145 118.252 29.3064Z" fill="white"/>
<path d="M118.614 28.2832C119.04 28.4964 119.296 28.8587 119.232 29.1358C119.147 29.4129 118.742 29.4768 118.316 29.2637C117.889 29.0505 117.612 28.6882 117.698 28.4111C117.804 28.134 118.188 28.0914 118.614 28.2832Z" fill="white"/>
<path d="M118.934 27.3454C119.339 27.5585 119.595 27.8996 119.531 28.1553C119.445 28.4111 119.062 28.4537 118.635 28.2619C118.209 28.0488 117.953 27.7078 118.039 27.4307C118.145 27.1962 118.529 27.1536 118.934 27.3454Z" fill="white"/>
<path d="M122.216 27.1325C122.493 27.2817 122.664 27.5161 122.642 27.6866C122.6 27.8572 122.365 27.8785 122.088 27.7293C121.811 27.5801 121.619 27.3456 121.662 27.1751C121.705 27.0046 121.939 26.9833 122.216 27.1325Z" fill="white"/>
<path d="M122.429 26.3864C122.685 26.5143 122.855 26.7274 122.813 26.8766C122.77 27.0258 122.557 27.0471 122.301 26.8979C122.046 26.77 121.875 26.5569 121.918 26.4077C121.96 26.2585 122.173 26.2585 122.429 26.3864Z" fill="white"/>
<path d="M122.642 25.6829C122.856 25.7895 123.005 25.9813 122.983 26.1092C122.962 26.2371 122.77 26.2371 122.536 26.1305C122.323 26.0239 122.173 25.8321 122.195 25.7042C122.237 25.5763 122.429 25.5763 122.642 25.6829Z" fill="white"/>
<path d="M122.834 25.0008C123.026 25.1074 123.175 25.2566 123.154 25.3845C123.133 25.5124 122.962 25.491 122.77 25.3845C122.578 25.2779 122.429 25.1287 122.451 25.0008C122.472 24.8943 122.642 24.8943 122.834 25.0008Z" fill="white"/>
<path d="M123.026 24.3827C123.196 24.4893 123.324 24.6172 123.324 24.7237C123.303 24.8303 123.154 24.809 122.962 24.7237C122.77 24.6172 122.642 24.4893 122.664 24.3827C122.685 24.2761 122.834 24.2974 123.026 24.3827Z" fill="white"/>
<path d="M123.197 23.8075C123.367 23.8928 123.474 24.0206 123.452 24.1059C123.431 24.1912 123.303 24.1912 123.133 24.1059C122.962 24.0206 122.856 23.8928 122.877 23.8075C122.898 23.7009 123.026 23.7223 123.197 23.8075Z" fill="white"/>
<path d="M123.346 23.3173C123.495 23.4025 123.601 23.5091 123.58 23.5944C123.559 23.6796 123.431 23.6583 123.282 23.5731C123.133 23.4878 123.026 23.3812 123.047 23.296C123.069 23.2107 123.196 23.232 123.346 23.3173Z" fill="white"/>
<path d="M123.495 22.8271C123.623 22.891 123.708 22.9976 123.708 23.0615C123.687 23.1254 123.58 23.1254 123.452 23.0402C123.324 22.9762 123.218 22.8697 123.239 22.8057C123.26 22.7205 123.367 22.7418 123.495 22.8271Z" fill="white"/>
<path d="M120.063 36.6807C119.765 36.5315 119.595 36.2544 119.637 35.9986C119.701 35.7642 119.957 35.6789 120.255 35.8281C120.532 35.9773 120.724 36.2544 120.682 36.4889C120.639 36.7446 120.362 36.8299 120.063 36.6807Z" fill="white"/>
<path d="M119.765 38.2367C119.488 38.1088 119.317 37.8104 119.36 37.5759C119.424 37.3415 119.68 37.2562 119.957 37.3841C120.234 37.512 120.404 37.8104 120.362 38.0448C120.298 38.2793 120.042 38.3645 119.765 38.2367Z" fill="white"/>
<path d="M119.467 39.8568C119.189 39.7289 119.019 39.4305 119.083 39.1747C119.147 38.919 119.403 38.8337 119.68 38.9616C119.957 39.0895 120.106 39.3665 120.063 39.6223C119.999 39.8994 119.744 39.9846 119.467 39.8568Z" fill="white"/>
<path d="M119.19 41.647C118.934 41.5191 118.785 41.242 118.827 41.0076C118.891 40.7731 119.126 40.6666 119.403 40.7945C119.659 40.9223 119.808 41.1781 119.765 41.4339C119.68 41.647 119.445 41.7536 119.19 41.647Z" fill="white"/>
<path d="M118.827 43.5653C118.593 43.4588 118.444 43.1817 118.508 42.9472C118.571 42.7128 118.806 42.6062 119.04 42.7128C119.275 42.8194 119.424 43.0964 119.36 43.3309C119.296 43.5653 119.083 43.6719 118.827 43.5653Z" fill="white"/>
<path d="M118.444 45.7603C118.209 45.6538 118.081 45.398 118.145 45.1636C118.209 44.9291 118.422 44.8225 118.657 44.9291C118.891 45.0357 118.998 45.2914 118.955 45.5259C118.891 45.739 118.678 45.8456 118.444 45.7603Z" fill="white"/>
<path d="M117.442 26.7059C117.804 26.8764 118.017 27.1748 117.953 27.388C117.868 27.6011 117.527 27.6437 117.165 27.4732C116.802 27.3027 116.589 27.0043 116.653 26.7699C116.738 26.5781 117.08 26.5354 117.442 26.7059Z" fill="white"/>
<path d="M116.632 28.6244C116.952 28.7736 117.143 29.0506 117.08 29.2638C116.994 29.4769 116.696 29.5195 116.355 29.3703C116.014 29.2212 115.822 28.9441 115.907 28.7309C115.993 28.5391 116.312 28.4965 116.632 28.6244Z" fill="white"/>
<path d="M116.27 29.6473C116.632 29.8179 116.866 30.1376 116.781 30.3933C116.696 30.6491 116.334 30.713 115.95 30.5425C115.566 30.372 115.353 30.031 115.438 29.7965C115.524 29.5408 115.886 29.4981 116.27 29.6473Z" fill="white"/>
<path d="M114.906 33.313C115.268 33.4835 115.481 33.8032 115.396 34.1016C115.289 34.3787 114.927 34.4852 114.543 34.3147C114.16 34.1442 113.968 33.8032 114.053 33.5261C114.16 33.2277 114.522 33.1425 114.906 33.313Z" fill="white"/>
<path d="M111.602 23.168C111.943 23.3172 112.135 23.5516 112.028 23.7221C111.922 23.8926 111.559 23.9139 111.197 23.7861C110.835 23.6369 110.664 23.4024 110.771 23.2106C110.899 23.0614 111.261 23.0401 111.602 23.168Z" fill="white"/>
<path d="M111.154 37.1923C111.517 37.3415 111.708 37.6825 111.581 38.0022C111.453 38.3006 111.069 38.4498 110.685 38.3006C110.323 38.1514 110.131 37.7891 110.259 37.4907C110.408 37.1496 110.792 37.0431 111.154 37.1923Z" fill="white"/>
<path d="M108.597 38.2154C108.959 38.3646 109.129 38.7056 109.002 39.0253C108.852 39.345 108.447 39.4729 108.064 39.345C107.68 39.1958 107.51 38.8335 107.659 38.5351C107.808 38.1941 108.213 38.0662 108.597 38.2154Z" fill="white"/>
<path d="M113.818 36.3186C114.202 36.4891 114.394 36.8514 114.287 37.1711C114.159 37.4908 113.776 37.6187 113.392 37.4482C113.009 37.2777 112.795 36.894 112.923 36.5743C113.051 36.2759 113.435 36.148 113.818 36.3186Z" fill="white"/>
<path d="M116.291 35.6156C116.653 35.7861 116.866 36.1271 116.781 36.4255C116.674 36.7239 116.333 36.8304 115.971 36.6812C115.609 36.5107 115.396 36.1484 115.481 35.85C115.566 35.5516 115.928 35.445 116.291 35.6156Z" fill="white"/>
<path d="M118.571 34.9116C118.955 35.0821 119.168 35.4658 119.104 35.7642C119.019 36.0839 118.657 36.1691 118.273 35.9986C117.889 35.8068 117.655 35.4445 117.74 35.1247C117.825 34.8264 118.188 34.7411 118.571 34.9116Z" fill="white"/>
<path d="M115.374 32.0132C115.715 32.1624 115.907 32.4821 115.822 32.7379C115.737 32.9936 115.396 33.0576 115.033 32.9084C114.692 32.7592 114.479 32.4395 114.586 32.1837C114.692 31.9492 115.012 31.864 115.374 32.0132Z" fill="white"/>
<path d="M119.467 25.7256C119.765 25.8748 119.957 26.1305 119.914 26.301C119.85 26.4716 119.573 26.4929 119.275 26.3437C118.955 26.1945 118.763 25.9387 118.827 25.7469C118.87 25.5764 119.147 25.5764 119.467 25.7256Z" fill="white"/>
<path d="M113.222 23.9139C113.499 24.0418 113.648 24.2336 113.563 24.3828C113.477 24.532 113.2 24.5533 112.923 24.4255C112.646 24.2976 112.497 24.1058 112.582 23.9566C112.668 23.8287 112.945 23.8074 113.222 23.9139Z" fill="white"/>
<path d="M114.586 29.0082C114.884 29.136 115.055 29.3918 114.969 29.5836C114.884 29.7754 114.586 29.8181 114.287 29.6902C113.989 29.5623 113.818 29.3065 113.904 29.1147C113.989 28.9229 114.287 28.8803 114.586 29.0082Z" fill="white"/>
<path d="M112.454 33.9313C112.838 34.1018 113.03 34.4215 112.923 34.7199C112.795 35.0183 112.412 35.1036 112.028 34.9544C111.644 34.7839 111.453 34.4429 111.559 34.1658C111.687 33.8887 112.071 33.7821 112.454 33.9313Z" fill="white"/>
<path d="M115.801 30.8835C116.142 31.0327 116.334 31.3311 116.248 31.5655C116.163 31.8 115.843 31.8639 115.502 31.7147C115.161 31.5655 114.969 31.2671 115.055 31.0327C115.14 30.7982 115.46 30.7343 115.801 30.8835Z" fill="white"/>
<path d="M112.326 29.3698C112.667 29.519 112.859 29.7961 112.753 30.0305C112.646 30.265 112.284 30.3289 111.922 30.1797C111.559 30.0305 111.389 29.7535 111.495 29.519C111.623 29.2846 111.985 29.2206 112.326 29.3698Z" fill="white"/>
<path d="M106.359 39.3029C106.614 39.4094 106.721 39.6439 106.614 39.8783C106.487 40.1128 106.209 40.2194 105.932 40.1128C105.677 40.0062 105.549 39.7718 105.677 39.5373C105.805 39.3242 106.103 39.2176 106.359 39.3029Z" fill="white"/>
<path d="M113.84 26.237C114.159 26.3862 114.33 26.6206 114.245 26.8124C114.159 27.0042 113.84 27.0469 113.52 26.8977C113.2 26.7485 113.03 26.514 113.115 26.3222C113.2 26.1517 113.52 26.1091 113.84 26.237Z" fill="white"/>
<path d="M120.852 26.4502C121.129 26.5994 121.3 26.8125 121.257 26.983C121.214 27.1322 120.98 27.1535 120.703 27.0256C120.426 26.8765 120.255 26.6633 120.298 26.4928C120.341 26.3436 120.596 26.3223 120.852 26.4502Z" fill="white"/>
<path d="M116.93 23.786C117.143 23.8713 117.271 24.0205 117.25 24.127C117.229 24.2336 117.037 24.2549 116.824 24.191C116.611 24.1057 116.483 23.9565 116.504 23.85C116.547 23.7221 116.717 23.7008 116.93 23.786Z" fill="white"/>
<path d="M114.714 24.5536C114.948 24.6602 115.097 24.852 115.033 24.9799C114.969 25.1077 114.735 25.1291 114.479 25.0225C114.223 24.9159 114.096 24.7241 114.159 24.5962C114.223 24.4683 114.479 24.447 114.714 24.5536Z" fill="white"/>
<path d="M114.053 30.18C114.351 30.3079 114.522 30.5637 114.458 30.7768C114.373 30.99 114.074 31.0326 113.755 30.9047C113.435 30.7768 113.264 30.4997 113.35 30.2866C113.456 30.0948 113.755 30.0522 114.053 30.18Z" fill="white"/>
<path d="M112.859 28.3472C113.136 28.4537 113.286 28.6882 113.2 28.8587C113.115 29.0292 112.838 29.0718 112.561 28.9653C112.284 28.8587 112.135 28.6242 112.22 28.4537C112.305 28.2832 112.582 28.2406 112.859 28.3472Z" fill="white"/>
<path d="M110.493 28.731C110.813 28.8588 110.984 29.1146 110.877 29.3064C110.771 29.4983 110.43 29.5622 110.11 29.4556C109.79 29.3277 109.62 29.072 109.726 28.8802C109.833 28.667 110.174 28.6244 110.493 28.731Z" fill="white"/>
<path d="M109.385 23.5302C109.641 23.6154 109.769 23.786 109.684 23.9138C109.598 24.0417 109.321 24.0844 109.065 23.9991C108.81 23.9138 108.661 23.7433 108.767 23.6155C108.874 23.4876 109.129 23.4449 109.385 23.5302Z" fill="white"/>
<path d="M117.271 23.0824C117.484 23.1676 117.634 23.3168 117.612 23.4447C117.57 23.5513 117.378 23.5726 117.165 23.4873C116.93 23.4021 116.781 23.2316 116.824 23.125C116.845 22.9971 117.058 22.9971 117.271 23.0824Z" fill="white"/>
<path d="M118.06 25.0649C118.337 25.1928 118.507 25.4273 118.443 25.5765C118.379 25.7257 118.124 25.747 117.847 25.6191C117.57 25.4912 117.399 25.2567 117.463 25.1076C117.527 24.9584 117.783 24.937 118.06 25.0649Z" fill="white"/>
<path d="M118.38 24.3188C118.614 24.4467 118.763 24.6385 118.742 24.7664C118.699 24.8943 118.486 24.9156 118.23 24.7877C117.996 24.6598 117.825 24.468 117.868 24.3401C117.911 24.2123 118.145 24.1909 118.38 24.3188Z" fill="white"/>
<path d="M114.991 28.0275C115.246 28.134 115.396 28.3472 115.332 28.5177C115.268 28.6882 115.012 28.7095 114.735 28.6029C114.479 28.4751 114.33 28.2832 114.394 28.1127C114.479 27.9635 114.735 27.9209 114.991 28.0275Z" fill="white"/>
<path d="M116.248 25.2782C116.461 25.3848 116.589 25.534 116.547 25.6618C116.483 25.7897 116.291 25.7897 116.078 25.7045C115.865 25.5979 115.737 25.4274 115.779 25.3208C115.843 25.1929 116.035 25.1716 116.248 25.2782Z" fill="white"/>
<path d="M113.009 32.6527C113.264 32.7593 113.413 32.9937 113.35 33.1855C113.264 33.3774 112.987 33.4413 112.731 33.3347C112.454 33.2282 112.326 32.9937 112.412 32.7806C112.476 32.6101 112.731 32.5461 113.009 32.6527Z" fill="white"/>
<path d="M117.698 25.9813C117.889 26.0665 117.996 26.2157 117.975 26.3436C117.932 26.4502 117.762 26.4715 117.57 26.3863C117.378 26.301 117.271 26.1305 117.293 26.0239C117.335 25.896 117.506 25.896 117.698 25.9813Z" fill="white"/>
<path d="M119.658 25.0007C119.872 25.1073 120 25.2778 119.978 25.4057C119.936 25.5336 119.765 25.5336 119.531 25.427C119.317 25.3204 119.168 25.1286 119.211 25.022C119.254 24.9155 119.445 24.8942 119.658 25.0007Z" fill="white"/>
<path d="M112.156 25.6192C112.412 25.7258 112.561 25.9176 112.497 26.0668C112.412 26.216 112.156 26.2586 111.879 26.152C111.602 26.0455 111.474 25.8537 111.538 25.7045C111.602 25.5553 111.879 25.5339 112.156 25.6192Z" fill="white"/>
<path d="M106.401 21.4627C106.614 21.5267 106.721 21.6545 106.636 21.7611C106.55 21.8464 106.316 21.889 106.103 21.8251C105.89 21.7611 105.783 21.6332 105.868 21.5267C105.932 21.4201 106.167 21.3988 106.401 21.4627Z" fill="white"/>
<path d="M108.639 28.0914C108.938 28.1979 109.087 28.4111 108.98 28.6029C108.874 28.7734 108.554 28.8374 108.234 28.7521C107.936 28.6455 107.765 28.4324 107.893 28.2406C108 28.0488 108.32 27.9848 108.639 28.0914Z" fill="white"/>
<path d="M105.719 40.9865C105.954 41.0717 106.06 41.3062 105.932 41.5406C105.805 41.7538 105.527 41.8603 105.293 41.7751C105.059 41.6898 104.952 41.4554 105.08 41.2209C105.208 41.0078 105.485 40.9012 105.719 40.9865Z" fill="white"/>
<path d="M103.844 41.9668C104.057 42.0307 104.142 42.2439 104.035 42.4357C103.929 42.6275 103.673 42.7128 103.46 42.6488C103.247 42.5849 103.162 42.3718 103.268 42.1799C103.375 41.9881 103.631 41.9029 103.844 41.9668Z" fill="white"/>
<path d="M110.494 38.8549C110.771 38.9615 110.898 39.2386 110.813 39.473C110.707 39.7075 110.408 39.814 110.131 39.7075C109.854 39.6009 109.726 39.3238 109.833 39.0681C109.918 38.8336 110.216 38.7484 110.494 38.8549Z" fill="white"/>
<path d="M107.915 39.9417C108.192 40.0483 108.32 40.3254 108.234 40.5598C108.128 40.7943 107.829 40.9008 107.552 40.7943C107.275 40.6877 107.147 40.4106 107.254 40.1548C107.339 39.9417 107.637 39.8351 107.915 39.9417Z" fill="white"/>
<path d="M111.069 27.7294C111.261 27.8147 111.389 27.9639 111.325 28.0917C111.261 28.2196 111.048 28.2409 110.834 28.177C110.621 28.0917 110.515 27.9425 110.579 27.8147C110.664 27.6868 110.877 27.6442 111.069 27.7294Z" fill="white"/>
<path d="M116.355 22.0173C116.525 22.0812 116.632 22.1878 116.61 22.2943C116.568 22.3796 116.419 22.3796 116.248 22.3156C116.078 22.2517 115.95 22.1238 115.992 22.0386C116.035 21.9533 116.184 21.9533 116.355 22.0173Z" fill="white"/>
<path d="M113.2 38.0024C113.435 38.109 113.563 38.3221 113.477 38.5353C113.392 38.7271 113.158 38.8123 112.923 38.7271C112.689 38.6205 112.561 38.3861 112.646 38.1942C112.732 37.9811 112.966 37.8959 113.2 38.0024Z" fill="white"/>
<path d="M115.737 37.1497C115.95 37.2563 116.078 37.4695 116.014 37.6613C115.95 37.8531 115.737 37.917 115.502 37.8318C115.289 37.7252 115.161 37.5121 115.225 37.3203C115.289 37.1071 115.502 37.0432 115.737 37.1497Z" fill="white"/>
<path d="M118.081 36.6166C118.294 36.7231 118.401 36.915 118.358 37.1068C118.316 37.2773 118.103 37.3412 117.889 37.256C117.676 37.1494 117.548 36.9363 117.612 36.7658C117.676 36.574 117.868 36.5313 118.081 36.6166Z" fill="white"/>
<path d="M106.614 27.5587C106.806 27.6226 106.913 27.7505 106.849 27.8784C106.764 27.9849 106.551 28.0276 106.337 27.9849C106.124 27.921 106.039 27.7931 106.103 27.6652C106.188 27.5374 106.401 27.4947 106.614 27.5587Z" fill="white"/>
<path d="M107.936 29.0289C108.17 29.1142 108.298 29.2847 108.213 29.4552C108.128 29.6044 107.872 29.6683 107.616 29.5831C107.36 29.4978 107.254 29.3273 107.339 29.1568C107.446 29.0076 107.701 28.9437 107.936 29.0289Z" fill="white"/>
<path d="M109.854 29.8818C110.067 29.9671 110.174 30.1376 110.11 30.2655C110.025 30.4147 109.811 30.4573 109.598 30.372C109.385 30.2868 109.279 30.1163 109.343 29.9884C109.406 29.8392 109.641 29.7966 109.854 29.8818Z" fill="white"/>
<path d="M111.73 30.6277C111.922 30.713 112.028 30.8621 111.964 30.99C111.9 31.1179 111.708 31.1605 111.517 31.0753C111.325 30.99 111.218 30.8408 111.282 30.713C111.346 30.6064 111.538 30.5638 111.73 30.6277Z" fill="white"/>
<path d="M113.541 31.395C113.733 31.4802 113.819 31.6294 113.776 31.7573C113.712 31.8852 113.541 31.9278 113.35 31.8426C113.158 31.7573 113.051 31.6081 113.115 31.4589C113.158 31.3523 113.35 31.3097 113.541 31.395Z" fill="white"/>
<path d="M117.591 22.5075C117.762 22.5714 117.868 22.678 117.847 22.7846C117.825 22.8698 117.676 22.8911 117.506 22.8059C117.335 22.7419 117.229 22.6354 117.25 22.5288C117.271 22.4435 117.421 22.4436 117.591 22.5075Z" fill="white"/>
<path d="M116.696 21.4627C116.845 21.5267 116.952 21.6332 116.93 21.6972C116.909 21.7824 116.781 21.7824 116.632 21.7185C116.483 21.6545 116.376 21.548 116.397 21.4627C116.419 21.4201 116.547 21.3988 116.696 21.4627Z" fill="white"/>
<path d="M115.779 20.589C115.907 20.653 116.014 20.7382 115.992 20.8022C115.971 20.8874 115.843 20.8874 115.715 20.8235C115.587 20.7595 115.481 20.6743 115.502 20.6103C115.524 20.5251 115.63 20.5251 115.779 20.589Z" fill="white"/>
<path d="M118.614 23.7007C118.785 23.7859 118.912 23.9351 118.87 24.0417C118.827 24.1482 118.678 24.1482 118.486 24.0417C118.316 23.9564 118.188 23.8072 118.23 23.7007C118.273 23.6154 118.444 23.6154 118.614 23.7007Z" fill="white"/>
<path d="M105.954 28.4537C106.167 28.5177 106.252 28.6669 106.188 28.7948C106.103 28.9226 105.89 28.9653 105.677 28.9013C105.463 28.8374 105.357 28.6882 105.442 28.5603C105.527 28.4537 105.741 28.3898 105.954 28.4537Z" fill="white"/>
<path d="M104.099 27.9421C104.291 27.9847 104.376 28.1126 104.313 28.2405C104.227 28.3471 104.014 28.3897 103.822 28.3471C103.63 28.2831 103.524 28.1766 103.609 28.0487C103.694 27.9421 103.908 27.8995 104.099 27.9421Z" fill="white"/>
<path d="M119.85 27.2603C119.786 27.4734 119.978 27.7505 120.298 27.9636C119.914 27.8357 119.616 27.8997 119.531 28.1341C119.467 28.3473 119.616 28.6243 119.893 28.8588C119.573 28.7948 119.317 28.8801 119.253 29.1146C119.19 29.3703 119.381 29.7113 119.744 29.9671C119.339 29.8392 119.019 29.9245 118.934 30.2016C118.87 30.436 118.998 30.7131 119.253 30.9688C118.934 30.9262 118.678 31.0328 118.614 31.2885C118.529 31.5656 118.699 31.8853 119.019 32.1411C118.657 32.0772 118.358 32.205 118.273 32.4821C118.166 32.8658 118.486 33.356 118.998 33.5904C119.424 33.7823 119.808 33.7396 119.999 33.5265C120.042 33.8675 120.34 34.2298 120.745 34.4217C121.108 34.5922 121.427 34.5709 121.619 34.4217C121.726 34.7201 121.982 35.0185 122.344 35.189C122.685 35.3595 123.005 35.3595 123.196 35.189C123.303 35.4874 123.58 35.7857 123.921 35.9563C124.283 36.1268 124.582 36.1054 124.774 35.9349C124.88 36.2546 125.157 36.5743 125.498 36.7449C125.989 36.9793 126.394 36.8727 126.436 36.4678C126.457 36.1694 126.266 35.8071 125.967 35.53C126.287 35.5939 126.521 35.466 126.543 35.1676C126.564 34.9119 126.394 34.5922 126.138 34.3577C126.415 34.379 126.607 34.2725 126.628 34.0167C126.649 33.7183 126.415 33.356 126.074 33.1002C126.436 33.2281 126.713 33.1215 126.735 32.8445C126.756 32.61 126.585 32.3116 126.308 32.0772C126.585 32.1411 126.799 32.0345 126.82 31.8214C126.841 31.5656 126.607 31.2246 126.266 30.9902C126.585 31.0967 126.82 31.0328 126.841 30.8196C126.862 30.5639 126.585 30.2015 126.202 30.0097C125.882 29.8392 125.605 29.8392 125.498 30.0097C125.456 29.7753 125.2 29.4982 124.88 29.3064C124.561 29.1359 124.305 29.1359 124.177 29.2851C124.113 29.0293 123.857 28.7309 123.516 28.5391C123.154 28.3473 122.834 28.3686 122.706 28.5178C122.664 28.2833 122.429 28.0276 122.109 27.857C121.726 27.6652 121.385 27.6652 121.321 27.921C121.385 27.6652 121.108 27.3455 120.703 27.1537C120.298 27.0045 119.935 27.0258 119.85 27.2603ZM124.902 34.6561C125.093 34.7627 125.221 34.9545 125.2 35.1037C125.179 35.2529 125.008 35.2955 124.816 35.2103C124.625 35.1037 124.497 34.9119 124.518 34.7627C124.561 34.5922 124.71 34.5709 124.902 34.6561ZM123.41 33.9315C123.58 34.0167 123.687 34.1872 123.687 34.3151C123.665 34.443 123.516 34.4856 123.346 34.4004C123.175 34.3151 123.047 34.1446 123.069 33.9954C123.09 33.8675 123.239 33.8462 123.41 33.9315ZM121.875 33.1642C122.046 33.2494 122.173 33.4199 122.131 33.5478C122.109 33.6757 121.939 33.7183 121.768 33.6331C121.598 33.5478 121.47 33.3773 121.513 33.2494C121.555 33.1215 121.705 33.0789 121.875 33.1642ZM120.511 32.7592C120.468 32.9084 120.298 32.951 120.085 32.8445C119.893 32.7379 119.765 32.5461 119.786 32.4182C119.829 32.269 119.999 32.2477 120.213 32.3329C120.426 32.4182 120.532 32.61 120.511 32.7592ZM125.093 33.5904C125.264 33.6757 125.37 33.8462 125.37 33.9741C125.349 34.102 125.221 34.1446 125.051 34.0593C124.88 33.9741 124.774 33.8036 124.774 33.6757C124.795 33.5265 124.944 33.5052 125.093 33.5904ZM120.49 31.2672C120.66 31.3525 120.767 31.523 120.745 31.6296C120.724 31.7574 120.554 31.7788 120.383 31.6935C120.213 31.6083 120.106 31.4377 120.127 31.3312C120.149 31.2246 120.298 31.2033 120.49 31.2672ZM125.243 32.4821C125.413 32.5674 125.52 32.7166 125.498 32.8445C125.477 32.9723 125.349 32.9936 125.179 32.9084C125.008 32.8231 124.902 32.6526 124.923 32.5461C124.944 32.4182 125.072 32.3969 125.243 32.4821ZM120.745 30.2016C120.916 30.2868 121.022 30.436 121.001 30.5639C120.98 30.6704 120.809 30.7131 120.639 30.6278C120.468 30.5426 120.362 30.3934 120.383 30.2655C120.426 30.1589 120.575 30.1163 120.745 30.2016ZM125.349 31.4377C125.498 31.523 125.626 31.6722 125.605 31.7788C125.584 31.9066 125.456 31.9066 125.307 31.8427C125.136 31.7574 125.029 31.6083 125.051 31.5017C125.072 31.3738 125.2 31.3525 125.349 31.4377ZM121.001 29.1998C121.172 29.2851 121.278 29.4129 121.257 29.5408C121.236 29.6474 121.086 29.6687 120.916 29.5834C120.745 29.4982 120.639 29.349 120.66 29.2424C120.681 29.1359 120.831 29.1359 121.001 29.1998ZM125.413 30.3507C125.584 30.436 125.712 30.6065 125.69 30.7131C125.669 30.8196 125.541 30.841 125.37 30.7557C125.2 30.6704 125.072 30.4999 125.093 30.3934C125.115 30.2868 125.243 30.2655 125.413 30.3507ZM124.07 29.6687C124.22 29.754 124.326 29.8818 124.326 29.9884C124.305 30.095 124.177 30.1163 124.028 30.031C123.879 29.9458 123.772 29.8179 123.772 29.7113C123.793 29.6048 123.921 29.6048 124.07 29.6687ZM122.706 28.9867C122.855 29.0719 122.962 29.1998 122.941 29.3064C122.919 29.4129 122.792 29.4129 122.621 29.349C122.472 29.2637 122.365 29.1359 122.387 29.0293C122.429 28.9014 122.557 28.9014 122.706 28.9867ZM121.236 28.1981C121.406 28.2833 121.534 28.4325 121.513 28.5604C121.491 28.667 121.321 28.6883 121.15 28.603C120.98 28.5178 120.852 28.3473 120.873 28.2407C120.895 28.1341 121.065 28.1128 121.236 28.1981Z" fill="white"/>
</svg>
