<svg width="135" height="41" viewBox="0 0 135 41" fill="none" xmlns="http://www.w3.org/2000/svg">
<path d="M30.0818 2.81627C29.597 2.04907 28.6276 1.5376 27.6582 1.5376C26.758 1.5376 25.9271 1.98513 25.3731 2.6884L15.1942 15.4112L5.15383 2.75234C4.59987 1.98513 3.76894 1.60153 2.79952 1.60153C1.76086 1.60153 0.652951 2.17693 0.237486 3.00807C-0.17798 3.77527 -0.0394914 4.67034 0.583707 5.43755L12.4245 20.0144V30.7553C12.4245 32.2897 13.5324 33.3126 15.1942 33.3126C16.5791 33.3126 17.964 32.3536 17.964 30.7553V20.0144L29.8048 5.37361L29.874 5.30968C30.428 4.47854 30.4972 3.58347 30.0818 2.81627Z" fill="#2E2E2E"/>
<path d="M98.1495 14.1016C98.0826 15.091 97.882 16.2124 97.5476 17.136C96.4107 19.7746 93.6689 21.4237 90.5258 21.4237C86.7139 21.2258 83.7046 18.7851 83.7046 15.3549V11.7268C83.7046 7.50502 87.5833 5.59203 90.8602 5.52606C92.532 5.65799 93.9364 6.18572 95.0732 7.04326C97.1464 8.82433 98.2164 11.1331 98.1495 14.1016ZM95.4076 1.43621C93.9364 0.842522 92.2645 0.512695 90.6595 0.512695C88.5196 0.512695 85.5771 1.17235 83.6377 2.82148C83.4371 1.56814 82.5008 0.776557 81.1634 0.776557C79.5584 0.776557 78.4884 1.832 78.4884 3.34921V31.0546C78.4884 32.5059 79.6252 33.5613 81.1634 33.5613C82.7015 33.5613 83.8383 32.5059 83.8383 31.0546V24.3922C85.5102 25.7115 88.1852 26.4371 90.7264 26.4371C98.0826 26.4371 103.366 21.3577 103.566 14.1675C103.633 8.29661 100.624 3.5471 95.4076 1.43621ZM121.087 25.6455V29.2076C120.887 33.0336 118.279 35.4084 114.266 35.4084C112.661 35.2764 111.19 34.7487 110.053 33.8912C107.98 32.1761 106.977 29.8013 107.044 26.8988C107.111 25.7774 107.311 24.656 107.646 23.8644C108.716 21.2918 111.458 19.5767 114.534 19.5767H114.601C118.68 19.7086 121.087 22.0174 121.087 25.6455ZM123.696 14.6952C122.425 14.6952 121.422 15.4209 121.154 16.6082C119.549 15.2889 117.342 14.5633 114.734 14.4973H114.266C112.461 14.4973 110.856 14.8272 109.451 15.4209C104.837 17.2019 101.828 21.6216 101.694 26.8329C101.56 31.6483 103.566 35.8701 107.311 38.3768C109.251 39.7621 111.859 40.4877 114.534 40.4877C116.674 40.4877 119.215 39.6301 121.087 38.047C121.288 39.3003 122.291 40.1579 123.696 40.1579C125.301 40.1579 126.371 39.1024 126.371 37.5852V17.2679C126.371 15.7507 125.301 14.6952 123.696 14.6952ZM132.389 4.60255C130.851 4.60255 129.714 5.65799 129.714 7.10923V34.4848C129.714 35.9361 130.851 36.9915 132.389 36.9915C133.86 36.9915 134.997 35.8701 134.997 34.4848V7.10923C135.064 5.72396 133.86 4.60255 132.389 4.60255Z" fill="#EC641D"/>
<path d="M72.4846 11.9836C70.8479 11.9836 69.8249 12.9475 69.8249 14.4897V24.8355C69.8249 29.3337 65.7332 32.2896 61.9142 32.2896C58.7771 32.2896 55.5719 30.0405 55.5719 26.2492V14.4255C55.5719 12.9475 54.4808 11.9194 52.8441 11.9194C51.2073 11.9194 50.1844 12.8833 50.1844 14.4255V26.185C50.1844 33.3178 56.0493 37.0448 61.9142 37.0448C65.1876 37.0448 67.9836 36.0167 69.9613 34.2816C69.9613 35.0528 70.3023 35.6954 70.8479 36.1452C71.3253 36.5307 72.0072 36.7878 72.6892 36.7878C73.9849 36.7878 75.3488 35.9524 75.3488 34.3459V14.4255C75.2125 12.9475 74.1213 11.9836 72.4846 11.9836ZM33.8855 35.4383C29.1117 35.4383 25.1563 31.7755 25.1563 27.2131C25.1563 22.715 29.0435 18.9879 33.8855 18.9879C38.6592 18.9879 42.6146 22.6507 42.6146 27.2131C42.5464 31.7755 38.6592 35.4383 33.8855 35.4383ZM42.6146 16.8031C39.7504 14.6825 35.795 13.7186 32.8625 14.0399C29.9301 14.3612 28.9753 12.819 29.9983 10.7627L23.9288 17.9598L22.9741 19.1164C18.1321 24.8998 19.0869 33.1892 25.0881 37.6874C31.0894 42.1856 39.8867 41.1574 44.7287 35.3741C49.5706 29.5907 48.6841 21.3012 42.6146 16.8031Z" fill="#2E2E2E"/>
</svg>
