<svg width="808" height="953" viewBox="0 0 808 953" fill="none" xmlns="http://www.w3.org/2000/svg">
<path fill-rule="evenodd" clip-rule="evenodd" d="M808 100.249C806.291 102.109 804.583 103.968 802.878 105.823C764.615 147.446 727.774 187.522 721.741 215.273C720.927 219.018 720.118 222.777 719.306 226.544C704.538 295.1 689.154 366.515 634.614 414.101C573.529 467.397 487.889 487.025 404.307 492.232C315.983 497.734 224.075 489.93 150.43 444.262C75.1233 397.562 20.1568 335.206 19.3746 251.048C18.9628 206.74 47.0266 171.843 95.6669 145.834C137.815 123.296 180.868 100.274 194.479 64.0242C201.685 44.8328 199.751 22.9735 193.739 0H808V100.249Z" fill="#FF9C66"/>
<path fill-rule="evenodd" clip-rule="evenodd" d="M554.938 903.532C554.938 903.532 414.958 953.248 372.614 916.309C330.27 879.371 328.858 844.675 323.964 827.117C314.867 794.48 308.819 786.648 291.322 760.225C275.304 736.034 249.135 717.364 223.512 699.084C182.52 669.84 142.926 641.592 148.529 593.333C153.952 546.621 197.161 522.912 242.035 498.29C275.001 480.202 308.865 461.621 329.306 433.065C349.618 404.688 356.664 368.74 363.583 333.437C372.425 288.322 381.06 244.261 416.912 218.397C479.982 172.898 562.842 189.941 635.834 204.954C638.356 205.473 640.867 205.99 643.365 206.501C649.597 207.777 655.926 209.034 662.317 210.304C712.988 220.373 767.534 231.211 808 257.946V833.891C795.893 861.301 778.439 882.557 753.393 892.807C720.273 904.58 687.885 901.655 654.893 898.676C622.573 895.758 589.673 892.787 554.938 903.532Z" fill="#FFBF75"/>
<path fill-rule="evenodd" clip-rule="evenodd" d="M384.39 0H808V396.345C787.528 419.128 766.235 436.6 746.46 443.025C716.802 452.66 697.956 428.796 675.959 400.94C655.823 375.442 633.047 346.6 596.921 337.048C576.957 331.77 555.557 330.409 534.473 329.069C493.008 326.432 420.926 310.369 395.23 278.237C369.371 245.901 395.23 213.821 407.233 172.109C408.74 150.263 410.258 128.249 408.261 107.327C406.331 87.1067 400.759 66.3986 395.23 45.8479C391.069 30.3846 386.933 15.0104 384.39 0Z" fill="#F1987C"/>
</svg>
