<svg width="604" height="561" viewBox="0 0 604 561" fill="none" xmlns="http://www.w3.org/2000/svg">
<g clip-path="url(#clip0)">
<path d="M159.014 176.723C225.692 135.901 243.032 86.154 328.893 62.2241C372.948 53.8882 371.011 50.9221 416.835 55.3367C462.658 59.7512 528.938 97.9431 563.455 139.112C597.971 180.28 602.877 239.421 596.159 277.566C589.441 315.712 565.398 375.78 518.863 403.817C472.327 431.853 441.139 449.904 357.914 467.351C274.69 484.798 250.106 505.985 165.346 476.718C80.5859 447.452 -19.2885 361.008 8.50568 274.34C36.2999 187.671 92.3352 217.544 159.014 176.723Z" fill="#FF9C66"/>
<path d="M424.803 361.059C424.86 363.853 424.896 366.651 424.911 369.454C425.359 375.508 425.072 379.953 424.239 380.797C423.892 381.172 423.425 381.418 422.919 381.491C422.535 381.492 422.158 381.395 421.824 381.209C420.196 380.319 420.926 373.281 421.143 370.575C421.39 367.454 421.441 364.322 421.295 361.198" fill="#906254"/>
<path d="M432.566 368.71L433.674 376.895C434.808 382.736 435.083 387.121 434.451 388.07C434.197 388.489 433.8 388.805 433.333 388.962C432.996 389.023 432.648 388.989 432.33 388.864C430.787 388.238 430.579 381.269 430.437 378.582C430.285 375.502 429.952 372.433 429.44 369.394" fill="#906254"/>
<path d="M431.849 372.39C430.205 372.546 428.717 370.93 428.523 368.782C428.33 366.634 429.506 364.767 431.149 364.612C432.792 364.456 434.281 366.072 434.474 368.22C434.667 370.368 433.492 372.235 431.849 372.39Z" fill="#FF9C66"/>
<path d="M423.53 367.492C421.969 367.477 420.726 365.816 420.753 363.781C420.781 361.746 422.068 360.108 423.628 360.122C425.189 360.137 426.432 361.798 426.405 363.833C426.377 365.868 425.09 367.506 423.53 367.492Z" fill="#FF9C66"/>
<path d="M440.542 365.749L442.97 373.637C445.016 379.225 446.033 383.486 445.557 384.525C445.376 384.978 445.037 385.353 444.603 385.58C444.279 385.698 443.929 385.719 443.594 385.643C441.964 385.243 440.619 378.427 440.046 375.811C439.397 372.799 438.577 369.828 437.589 366.911" fill="#906254"/>
<path d="M435.979 367.582C435.371 365.521 436.167 363.466 437.757 362.992C439.348 362.518 441.13 363.804 441.738 365.865C442.346 367.926 441.55 369.981 439.959 370.456C438.369 370.93 436.587 369.643 435.979 367.582Z" fill="#FF9C66"/>
<path d="M446.777 359.328L450.384 364.826C453.342 368.663 454.917 371.691 454.381 372.562C454.099 372.981 453.701 373.31 453.237 373.51C452.83 373.666 452.399 373.751 451.964 373.762C449.878 373.786 447.714 368.875 446.821 367.003C445.765 364.822 444.516 362.739 443.088 360.78" fill="#906254"/>
<path d="M442.067 361.178C440.937 359.35 441.164 357.16 442.575 356.287C443.985 355.415 446.045 356.189 447.175 358.017C448.305 359.845 448.078 362.035 446.668 362.907C445.257 363.78 443.197 363.006 442.067 361.178Z" fill="#FF9C66"/>
<path d="M444.192 352.094C442.013 349.074 436.161 349.837 433.673 350.164C432.825 350.274 422.296 351.768 421.202 357.114C420.144 362.273 428.022 370.353 435.463 368.886C443.177 367.373 447.184 356.235 444.192 352.094Z" fill="#906254"/>
<path d="M427.741 265.653L411.043 268.424L401.432 208.996L418.13 206.225L427.741 265.653Z" fill="#906254"/>
<path d="M433.831 350.127C426.307 350.7 424.174 355.733 420.269 355.64C410.736 355.406 404.129 323.663 401.87 311.229C399.47 297.994 392.134 257.512 403.972 252.362C407.495 250.82 409.972 253.628 418.948 252.19C427.798 250.77 429.778 247.347 433.498 247.91C437.218 248.473 443.409 253.164 448.071 286.266C451.698 312.01 453.575 349.069 444.053 351.704C441.315 352.455 439.643 349.676 433.831 350.127Z" fill="#FDFDFD"/>
<path d="M388.014 183.804C400.465 176.97 416.414 187.877 421.779 191.537C424.284 193.24 440.335 204.559 442.788 223.755C443.23 227.272 444.558 237.671 439.673 240.599C433.671 244.196 425.245 232.34 414.149 235.128C405.609 237.266 405.493 245.565 399.219 246.115C388.895 247.02 374.028 225.871 376.31 205.745C376.71 202.35 378.187 189.211 388.014 183.804Z" fill="#FDFDFD"/>
<path d="M395.999 181.636C399.203 181.553 402.395 182.022 405.431 183.023C413.978 187.03 428.198 195.586 436.773 212.28C440.177 218.968 442.336 226.22 443.146 233.688C442.883 236.077 442.179 238.324 440.782 239.769C440.941 230.445 438.824 221.235 434.612 212.931C427.623 199.358 416.995 192.479 411.235 188.872C406.459 185.879 401.346 183.451 395.999 181.636Z" fill="#FF9C66"/>
<path d="M430.602 248.214C435.558 251.824 439.181 256.936 440.928 262.783C445.077 276.08 446.733 299.741 447.756 311.93C448.876 325.226 449.611 329.572 448.268 337.492C447.436 342.353 446.076 347.115 444.211 351.695L444 351.773C443.482 351.912 442.942 351.94 442.414 351.855C443.482 349.219 444.402 346.528 445.17 343.794C448.457 332.068 447.703 323.855 444.07 294.801C441.096 271.025 439.951 263.286 433.323 254.768C431.782 252.785 430.08 250.931 428.232 249.224C429.002 248.843 429.793 248.506 430.602 248.214Z" fill="#FF9C66"/>
<path d="M276.328 405.32C328.398 419.197 386.935 369.553 407.076 294.435C427.216 219.318 401.332 147.173 349.263 133.295C297.193 119.417 238.656 169.061 218.515 244.179C198.375 319.297 224.259 391.442 276.328 405.32Z" fill="#F9F6F4"/>
<path d="M361.903 393.548C377.939 381.928 385.961 365.651 379.819 357.193C373.678 348.735 355.699 351.299 339.663 362.919C323.626 374.539 315.605 390.816 321.746 399.274C327.887 407.732 345.866 405.169 361.903 393.548Z" fill="#906254"/>
<path d="M362.758 364.345C351.37 366.529 344.016 373.11 338.905 377.809C329.46 386.579 322.396 397.604 318.376 409.844C316.297 416.26 315.868 428.226 315.096 451.881C314.321 475.72 314.78 479.961 314.418 484.665C314.238 486.985 313.941 488.686 313.837 489.387C312.41 498.997 310.761 510.138 312.244 518.973C312.443 520.096 315.647 538.337 323.278 539.397C334.381 540.967 358.91 523.887 373.565 491.099C373.565 491.099 395.972 451.887 393.403 398.164C392.543 380.214 389.159 370.028 381.544 365.698C374.978 361.988 366.972 363.522 362.758 364.345Z" fill="#FDFDFD"/>
<path d="M260.385 387.409C269.305 381.865 268.067 363.768 257.62 346.989C247.172 330.209 231.472 321.102 222.552 326.646C213.632 332.19 214.87 350.287 225.317 367.066C235.765 383.846 251.465 392.954 260.385 387.409Z" fill="#906254"/>
<path d="M235.936 339.411C245.655 345.691 249.972 354.55 252.926 360.817C258.345 372.479 260.703 385.337 259.78 398.18C259.27 404.907 255.126 416.144 246.867 438.352C238.54 460.718 236.501 464.473 235.049 468.963C234.333 471.188 233.964 472.875 233.797 473.559C231.468 482.991 228.769 493.933 224.042 501.562C223.441 502.529 213.535 518.222 206.068 516.365C195.189 513.658 178.948 488.651 177.816 452.789C177.816 452.789 171.945 408.075 194.716 359.272C202.328 342.969 209.327 334.794 218.024 333.638C225.478 332.653 232.283 337.071 235.936 339.411Z" fill="#FDFDFD"/>
<path d="M333.149 180.5C304.848 173.518 284.475 157.601 287.644 144.949C290.813 132.297 316.324 127.7 344.625 134.683C372.927 141.665 393.3 157.582 390.131 170.234C386.962 182.886 361.45 187.482 333.149 180.5Z" fill="#906254"/>
<path d="M359.23 174.547C316.269 177.177 279.46 144.7 277.016 102.007C274.572 59.3138 307.417 22.5717 350.379 19.9412C393.34 17.3107 430.148 49.7879 432.593 92.4811C435.037 135.174 402.191 171.916 359.23 174.547Z" fill="#FDFDFD"/>
<path d="M295.826 79.4125L293.958 58.3553L333.327 53.6916C334.755 63.3633 336.188 73.037 337.627 82.7128L342.778 86.755L317.195 117.025L285.339 91.2568L295.826 79.4125Z" fill="#906254"/>
<path d="M333.318 53.6791L443.752 81.1333L427.69 144.741L317.255 117.286L333.318 53.6791Z" fill="#A17162"/>
<path d="M281.609 104.437C271.497 101.974 266.585 86.7096 270.636 70.3429C274.688 53.9761 286.17 42.7048 296.282 45.1676C306.394 47.6304 311.306 62.8948 307.254 79.2616C303.203 95.6283 291.721 106.9 281.609 104.437Z" fill="#FF9C66"/>
<path d="M190.482 270.205L200.791 276.165L179.264 313.151L168.955 307.191L190.482 270.205Z" fill="#906254"/>
<path d="M182.743 314.46C181.76 317.108 180.785 319.752 179.816 322.391C177.381 327.985 176.131 332.297 176.638 333.367C176.847 333.844 177.218 334.233 177.686 334.468C178.05 334.592 178.44 334.62 178.818 334.551C180.656 334.223 182.343 327.317 183.045 324.682C183.86 321.643 184.865 318.657 186.055 315.741" fill="#906254"/>
<path d="M173.299 318.509C172.028 320.973 170.757 323.44 169.486 325.909C166.46 331.095 164.712 335.151 164.997 336.25C165.094 336.729 165.364 337.157 165.755 337.455C166.054 337.622 166.396 337.701 166.739 337.682C168.419 337.583 170.962 331.037 171.994 328.54C173.174 325.672 174.52 322.875 176.026 320.161" fill="#906254"/>
<path d="M172.713 322.221C171.201 321.539 170.704 319.386 171.603 317.412C172.501 315.438 174.456 314.39 175.968 315.072C177.479 315.754 177.976 317.907 177.078 319.881C176.179 321.855 174.225 322.903 172.713 322.221Z" fill="#FF9C66"/>
<path d="M180.749 319.947C179.258 319.449 178.583 317.468 179.241 315.523C179.9 313.579 181.643 312.407 183.135 312.906C184.627 313.405 185.302 315.385 184.643 317.33C183.984 319.275 182.241 320.446 180.749 319.947Z" fill="#FF9C66"/>
<path d="M166.694 313.061C165.037 315.291 163.385 317.524 161.738 319.759C157.92 324.397 155.522 328.113 155.627 329.248C155.647 329.735 155.841 330.197 156.175 330.553C156.442 330.769 156.767 330.901 157.11 330.934C158.779 331.104 162.359 325.058 163.797 322.758C165.43 320.116 167.214 317.569 169.14 315.129" fill="#906254"/>
<path d="M165.603 317.709C164.255 316.745 164.188 314.536 165.455 312.774C166.722 311.012 168.843 310.365 170.192 311.329C171.541 312.293 171.608 314.503 170.34 316.265C169.073 318.027 166.952 318.673 165.603 317.709Z" fill="#FF9C66"/>
<path d="M162.868 304.914L157.599 308.959C153.494 311.667 151.023 314.006 151.197 314.994C151.315 315.492 151.58 315.943 151.958 316.29C152.295 316.565 152.679 316.779 153.09 316.924C155.068 317.612 158.766 313.661 160.247 312.184C161.985 310.451 163.875 308.873 165.893 307.471" fill="#906254"/>
<path d="M161.736 308.368C160.688 307.084 161.205 304.933 162.891 303.564C164.576 302.194 166.791 302.125 167.839 303.409C168.886 304.693 168.369 306.844 166.684 308.213C164.999 309.583 162.783 309.652 161.736 308.368Z" fill="#FF9C66"/>
<path d="M167.698 298.938C170.789 296.773 176.105 299.391 178.375 300.512C179.145 300.895 188.667 305.709 187.916 311.14C187.186 316.38 176.976 321.497 170.375 317.696C163.529 313.767 163.462 301.904 167.698 298.938Z" fill="#906254"/>
<path d="M244.708 171.915L259.191 180.288L228.846 232.425L214.363 224.051L244.708 171.915Z" fill="#906254"/>
<path d="M178.321 300.741C185.15 303.901 185.325 309.335 189.01 310.604C198.014 313.701 215.674 286.396 222.286 275.584C229.312 264.09 250.828 228.872 241.62 219.936C238.858 217.279 235.549 219.05 227.673 214.571C219.917 210.166 219.298 206.283 215.618 205.516C211.938 204.75 204.452 206.964 188.116 236.219C175.404 258.97 160.246 292.882 168.179 298.63C170.481 300.312 173.05 298.299 178.321 300.741Z" fill="#FDFDFD"/>
<path d="M281.291 162.067C272.322 151.196 253.349 155.474 246.987 156.913C244.017 157.582 224.812 162.207 215.278 179.103C213.53 182.198 208.369 191.353 211.807 195.845C216.029 201.365 228.339 193.454 237.607 200.084C244.733 205.181 241.705 212.934 247.329 215.709C256.586 220.309 278.395 206.144 283.894 186.661C284.808 183.378 288.387 170.642 281.291 162.067Z" fill="#FDFDFD"/>
<path d="M217.368 206.69C214.068 207.626 210.96 209.136 208.188 211.149C206.036 212.727 204.118 214.597 202.488 216.703C193.805 227.663 183.679 249.14 178.31 260.156C172.459 272.163 170.193 275.955 168.568 283.803C167.579 288.621 167.116 293.529 167.188 298.442C167.241 298.494 167.299 298.541 167.362 298.581C167.792 298.894 168.286 299.11 168.81 299.212C168.77 296.379 168.891 293.546 169.172 290.725C170.351 278.686 174.037 271.268 187.953 245.477C199.358 224.35 203.21 217.531 212.465 211.877C214.615 210.561 216.869 209.422 219.206 208.472C218.629 207.842 218.016 207.247 217.368 206.69Z" fill="#FF9C66"/>
<path d="M272.627 156.388C269.654 155.194 266.493 154.522 263.285 154.403C253.858 155.157 237.468 158.173 223.441 170.75C217.843 175.795 213.206 181.8 209.754 188.475C209.15 190.804 208.98 193.131 209.758 194.964C212.981 186.218 218.288 178.372 225.225 172.096C236.633 161.866 249.07 159.172 255.755 157.814C261.307 156.691 266.968 156.213 272.627 156.388Z" fill="#FF9C66"/>
<path d="M279.968 104.033C270.092 101.627 265.294 86.7182 269.252 70.732C273.209 54.7459 284.424 43.7366 294.3 46.1421C304.176 48.5475 308.974 63.4569 305.017 79.443C301.059 95.4291 289.845 106.438 279.968 104.033Z" fill="#F9F6F4"/>
<path d="M202.369 514.398C199.721 506.417 197.498 498.301 195.709 490.083C191.624 471.451 184.786 440.194 193.367 402.919C200.433 372.176 215.219 349.25 227.125 334.556C225.731 334.059 224.29 333.704 222.825 333.496C213.914 344.549 206.46 356.699 200.644 369.647C175.289 426.284 188.837 483.003 198.642 511.422C199.784 512.534 201.032 513.53 202.369 514.398Z" fill="#FF9C66"/>
<path d="M328.583 539.433C334.072 533.035 339.218 526.35 343.999 519.407C354.823 503.688 372.994 477.306 379.209 439.577C384.312 408.497 379.345 381.673 373.878 363.632C375.358 363.698 376.827 363.907 378.266 364.257C382.322 377.833 384.615 391.878 385.091 406.049C387.098 468.002 353.027 515.43 333.163 538.076C331.685 538.679 330.151 539.134 328.583 539.433Z" fill="#FF9C66"/>
<path d="M330.371 284.49C314.099 281.693 303.777 263.121 307.317 243.008C310.858 222.895 326.919 208.856 343.191 211.653C359.464 214.449 369.785 233.021 366.245 253.134C362.705 273.248 346.644 287.286 330.371 284.49Z" fill="#FDFDFD" stroke="#FF9C66" stroke-width="5.77" stroke-miterlimit="10"/>
<path d="M327.007 237.381C328.335 242.81 329.989 248.154 331.963 253.383L330.344 262.493C329.859 265.252 330.896 267.032 333.317 267.443C335.739 267.855 337.369 266.536 337.86 263.77L339.476 254.617C344.369 248.71 347.745 244.243 349.586 241.238C350.109 240.495 350.492 239.665 350.715 238.787C350.853 237.777 350.592 236.756 349.988 235.936C349.383 235.117 348.483 234.563 347.474 234.391C345.902 234.119 344.729 235.069 343.502 237.307C342.54 239.01 341.489 240.663 340.353 242.257C339.303 243.873 338.166 245.431 336.945 246.924C336.504 245.697 335.956 243.859 335.333 241.451C334.71 239.043 334.296 237.183 334.083 235.7C333.696 233.186 332.916 231.908 331.344 231.614C330.345 231.465 329.324 231.699 328.49 232.271C327.656 232.842 327.07 233.707 326.853 234.689C326.739 235.589 326.792 236.501 327.007 237.381Z" fill="#FF9C66"/>
<path d="M399.352 69.1717L367.81 62.1916L375.074 135.323L408.001 141.87L399.352 69.1717Z" fill="white" fill-opacity="0.1"/>
<path d="M361.181 57.7631L357.912 55.7603L365.722 131.697L369.273 132.901L361.181 57.7631Z" fill="white" fill-opacity="0.1"/>
</g>
<defs>
<clipPath id="clip0">
<rect width="603" height="560" fill="white" transform="translate(0.249023 0.887207)"/>
</clipPath>
</defs>
</svg>
