<svg width="1552" height="344" viewBox="0 0 1552 344" fill="none" xmlns="http://www.w3.org/2000/svg">
    <g clip-path="url(#clip0)">
    <rect width="1552" height="344" rx="30" fill="#FFA370"/>
    <ellipse cx="66.1733" cy="73.304" rx="24.0815" ry="24.0815" fill="white" fill-opacity="0.2"/>
    <ellipse cx="1255.6" cy="216" rx="32" ry="32" fill="white" fill-opacity="0.2"/>
    <ellipse cx="131.844" cy="49.2224" rx="10.4158" ry="10.4158" fill="white" fill-opacity="0.2"/>
    <ellipse cx="462.693" cy="213" rx="10.4158" ry="10.4158" fill="white" fill-opacity="0.2"/>
    <ellipse cx="961.619" cy="49.5762" rx="6.40772" ry="6.40772" fill="white" fill-opacity="0.2"/>
    <ellipse cx="1492.24" cy="286.762" rx="9.11767" ry="9.11767" fill="white" fill-opacity="0.2"/>
    <path d="M0 181.985C58.5113 188.936 147.727 213.268 224.197 199.364C300.667 185.46 387.565 121.156 434.49 108.99C481.415 96.8244 571.789 62.0652 752.537 213.268C933.286 364.471 1133.86 230.647 1168.62 199.364C1203.38 168.081 1260.02 96.8243 1339.97 62.0651C1403.93 34.2577 1507.97 50.4787 1552 62.0651" stroke="white" stroke-opacity="0.3" stroke-width="2"/>
    </g>
    <defs>
    <clipPath id="clip0">
    <rect width="1552" height="344" fill="white"/>
    </clipPath>
    </defs>
    </svg>
