<svg width="228" height="45" viewBox="0 0 228 45" fill="none" xmlns="http://www.w3.org/2000/svg">
<path d="M88.5245 1.85211L90.6211 11.0659C90.9521 12.528 91.1728 13.6866 91.3107 14.5142C91.4487 15.3418 91.5866 16.4176 91.6969 17.7142C91.7797 18.2383 91.89 19.0659 92.0004 20.1969H92.1107C92.2211 18.2935 92.359 16.6659 92.5245 15.259C92.69 13.8797 92.9107 12.5556 93.1866 11.3418L95.4763 1.82452H101.407L94.8694 28.0314V44.1418H88.4969V28.3349L81.959 1.82452H88.5245V1.85211Z" fill="#7C4F4F"/>
<path d="M105.82 8.14165C105.82 6.8451 106.069 5.71407 106.538 4.77614C107.007 3.8382 107.641 3.09338 108.441 2.54165C109.213 1.98993 110.096 1.60372 111.062 1.35545C112.027 1.10717 113.048 0.996826 114.124 0.996826C115.2 0.996826 116.22 1.10717 117.213 1.35545C118.207 1.60372 119.062 1.98993 119.862 2.54165C120.634 3.09338 121.269 3.8382 121.765 4.77614C122.234 5.71407 122.482 6.81752 122.482 8.14165V37.852C122.482 39.1486 122.234 40.2796 121.765 41.2175C121.296 42.1554 120.634 42.9003 119.834 43.452C119.034 44.0037 118.151 44.3899 117.186 44.6382C116.22 44.8865 115.2 44.9968 114.124 44.9968C113.048 44.9968 112.027 44.8865 111.062 44.6382C110.096 44.3899 109.241 44.0037 108.441 43.452C107.669 42.9003 107.034 42.1554 106.538 41.2175C106.069 40.2796 105.82 39.1761 105.82 37.852V8.14165ZM112.165 37.3003C112.165 38.321 112.303 39.0106 112.607 39.3692C112.91 39.7279 113.407 39.8934 114.124 39.8934C114.813 39.8934 115.282 39.7279 115.586 39.3692C115.889 39.0106 116.027 38.321 116.027 37.3003V8.66579C116.027 7.6451 115.889 6.95545 115.586 6.59683C115.282 6.23821 114.786 6.07269 114.124 6.07269C113.407 6.07269 112.882 6.23821 112.607 6.59683C112.331 6.95545 112.165 7.6451 112.165 8.66579V37.3003Z" fill="#7C4F4F"/>
<path d="M144.827 1.85205V37.852C144.827 39.1486 144.579 40.2796 144.11 41.2176C143.641 42.1555 142.979 42.9003 142.179 43.452C141.379 44.0038 140.496 44.39 139.531 44.6383C138.565 44.8865 137.544 44.9969 136.469 44.9969C135.393 44.9969 134.372 44.8865 133.406 44.6383C132.441 44.39 131.586 44.0038 130.786 43.452C130.013 42.9003 129.379 42.1555 128.882 41.2176C128.413 40.2796 128.165 39.1762 128.165 37.852V1.85205H134.537V37.3279C134.537 38.3486 134.675 39.0383 134.979 39.3969C135.282 39.7555 135.779 39.921 136.496 39.921C137.186 39.921 137.655 39.7555 137.958 39.3969C138.262 39.0383 138.4 38.3486 138.4 37.3279V1.85205H144.827Z" fill="#7C4F4F"/>
<path d="M150.594 1.85205H158.263C161.49 1.85205 163.808 2.54171 165.159 3.89343C166.511 5.27274 167.201 7.7555 167.201 11.3969V36.4727C167.201 38.6245 166.539 40.4176 165.187 41.9072C163.835 43.3969 161.987 44.1417 159.642 44.1417H150.594V1.85205ZM156.939 39.0934H158.428C159.311 39.0934 159.918 38.8727 160.277 38.4589C160.635 38.0452 160.828 37.19 160.828 35.921V10.0176C160.828 8.72101 160.635 7.86584 160.277 7.45205C159.918 7.06584 159.283 6.84515 158.428 6.84515H156.939V39.0934Z" fill="#7C4F4F"/>
<path d="M176.496 1.85205H186.041L190.896 44.1417H184.468L183.255 32.6658H178.758L177.379 44.1417H171.613L176.496 1.85205ZM182.703 27.1486L181.379 9.57619H180.965L179.393 27.1486H182.703Z" fill="#7C4F4F"/>
<path d="M208.552 1.85205V7.36929H203.035V44.1417H196.662V7.36929H191.09V1.85205H208.552Z" fill="#7C4F4F"/>
<path d="M213.601 1.85205H223.145L228.001 44.1417H221.573L220.359 32.6658H215.863L214.483 44.1417H208.718L213.601 1.85205ZM219.78 27.1486L218.456 9.57619H218.042L216.47 27.1486H219.78Z" fill="#7C4F4F"/>
<path d="M7.91726 24.335H0V32.2522H7.91726V24.335Z" fill="#7C4F4F"/>
<path d="M7.91726 35.866H0V43.7832H7.91726V35.866Z" fill="#7C4F4F"/>
<path d="M46.6477 24.1421H38.7305V32.0593H46.6477V24.1421Z" fill="#7C4F4F"/>
<path d="M46.6477 35.7004H38.7305V43.6177H46.6477V35.7004Z" fill="#FF9C66"/>
<path d="M20.0833 1.88013H12.166V9.79737H20.0833V1.88013Z" fill="#7C4F4F"/>
<path d="M20.0833 13.1626H12.166V21.0798H20.0833V13.1626Z" fill="#7C4F4F"/>
<path d="M20.0833 24.4456H12.166V32.3628H20.0833V24.4456Z" fill="#FF9C66"/>
<path d="M20.0833 35.7004H12.166V43.6177H20.0833V35.7004Z" fill="#FF9C66"/>
<path d="M34.427 1.85254H26.5098V9.76978H34.427V1.85254Z" fill="#7C4F4F"/>
<path d="M34.427 13.135H26.5098V21.0523H34.427V13.135Z" fill="#7C4F4F"/>
<path d="M34.427 24.418H26.5098V32.3352H34.427V24.418Z" fill="#7C4F4F"/>
<path d="M34.427 35.7004H26.5098V43.6177H34.427V35.7004Z" fill="#FF9C66"/>
<path d="M60.9661 1.85254H53.0488V9.76978H60.9661V1.85254Z" fill="#7C4F4F"/>
<path d="M60.9661 13.135H53.0488V21.0523H60.9661V13.135Z" fill="#7C4F4F"/>
<path d="M60.9661 24.418H53.0488V32.3352H60.9661V24.418Z" fill="#7C4F4F"/>
<path d="M60.9661 35.7004H53.0488V43.6177H60.9661V35.7004Z" fill="#FF9C66"/>
<path d="M73.2688 1.85254H65.3516V9.76978H73.2688V1.85254Z" fill="#FF9C66"/>
<path d="M73.2688 13.135H65.3516V21.0523H73.2688V13.135Z" fill="#7C4F4F"/>
<path d="M73.2688 24.418H65.3516V32.3352H73.2688V24.418Z" fill="#7C4F4F"/>
<path d="M73.2688 35.7004H65.3516V43.6177H73.2688V35.7004Z" fill="#7C4F4F"/>
</svg>
