<svg width="867" height="811" viewBox="0 0 867 811" fill="none" xmlns="http://www.w3.org/2000/svg">
<path fill-rule="evenodd" clip-rule="evenodd" d="M261.45 172.592C303.196 154.209 351.041 163.171 393.809 188.648C436.578 214.126 454.908 243.727 495.002 269.554C543.973 301.099 640.484 235.607 714.575 265.702C788.667 295.796 786.478 375.883 774.647 427.765C762.413 481.412 754.949 540.088 714.992 578.187C674.741 616.567 616.006 630.152 560.211 632.23C508.556 634.154 350.083 634.3 289.277 630.07C228.471 625.841 161.302 612.116 132.027 563.19C102.36 513.608 127.117 472.633 143.097 402.606C159.077 332.579 146.111 309.397 157.231 259.086C168.351 208.774 217.694 191.859 261.45 172.592Z" fill="#FFBF75"/>
<mask id="mask0" mask-type="alpha" maskUnits="userSpaceOnUse" x="118" y="162" width="663" height="472">
<path fill-rule="evenodd" clip-rule="evenodd" d="M261.45 172.592C303.196 154.209 351.041 163.171 393.809 188.648C436.578 214.126 454.908 243.727 495.002 269.554C543.973 301.099 640.484 235.607 714.575 265.702C788.667 295.796 786.478 375.883 774.647 427.765C762.413 481.412 754.949 540.088 714.992 578.187C674.741 616.567 616.006 630.152 560.211 632.23C508.556 634.154 350.083 634.3 289.277 630.07C228.471 625.841 161.302 612.116 132.027 563.19C102.36 513.608 127.117 472.633 143.097 402.606C159.077 332.579 146.111 309.397 157.231 259.086C168.351 208.774 217.694 191.859 261.45 172.592Z" fill="#FFBF75"/>
</mask>
<g mask="url(#mask0)">
<path d="M613.076 438.14C608.638 425.01 589.677 422.316 583.314 421.413C580.353 420.994 561.045 418.539 546.335 430.759C543.645 432.995 535.674 439.613 537.257 444.951C539.203 451.505 553.333 448.53 559.513 457.863C564.281 465.047 558.777 471.106 562.97 475.643C569.87 483.112 594.919 477.699 606.819 461.682C608.807 459 616.575 448.53 613.076 438.14Z" fill="white"/>
<path d="M608.694 431.275C606.421 429.102 603.786 427.336 600.906 426.054C592.022 423.306 575.912 420.075 558.457 426.453C551.483 429.024 545.033 432.822 539.42 437.666C538.019 439.579 537.004 441.64 537.042 443.604C543.207 436.792 550.944 431.564 559.591 428.367C573.784 423.18 586.146 425.261 592.758 426.457C598.24 427.447 603.588 429.063 608.694 431.275Z" fill="#FF9C66"/>
<path d="M667.924 630.601C718.887 630.601 760.201 578.155 760.201 513.46C760.201 448.765 718.887 396.319 667.924 396.319C616.962 396.319 575.648 448.765 575.648 513.46C575.648 578.155 616.962 630.601 667.924 630.601Z" fill="#F9F6F4"/>
<path d="M640.053 623.068C646.876 616.763 642.675 601.289 630.67 588.507C618.666 575.724 603.403 570.472 596.58 576.776C589.757 583.081 593.957 598.555 605.962 611.337C617.967 624.12 633.23 629.372 640.053 623.068Z" fill="#906254"/>
<path d="M630.675 588.537L630.87 588.751L623.716 623.916C621.355 622.979 619.089 621.822 616.947 620.463C614.355 617.483 611.994 614.315 609.882 610.983C609.683 610.673 609.497 610.366 609.303 610.056L615.966 577.324C620.899 579.779 626.03 583.589 630.675 588.537Z" fill="#906254"/>
<path d="M610.348 585.729C619.934 589.54 625.231 596.484 628.894 601.419C635.642 610.615 639.922 621.361 641.332 632.648C642.047 638.565 640.359 649.014 636.958 669.643C633.531 690.44 632.393 694.037 631.881 698.179C631.64 700.226 631.606 701.75 631.576 702.375C631.153 710.944 630.692 720.885 627.87 728.291C627.515 729.231 621.554 744.506 614.705 744.154C604.725 743.646 586.212 724.704 579.037 693.798C579.037 693.798 566.198 656.031 577.709 609.896C581.55 594.483 586.263 586.216 593.671 583.749C600.038 581.617 606.777 584.294 610.348 585.729Z" fill="white"/>
<path d="M668.633 436.411C694.441 436.411 715.363 427.156 715.363 415.74C715.363 404.324 694.441 395.069 668.633 395.069C642.824 395.069 621.902 404.324 621.902 415.74C621.902 427.156 642.824 436.411 668.633 436.411Z" fill="#906254"/>
<path fill-rule="evenodd" clip-rule="evenodd" d="M675.57 436.185C673.306 436.334 670.989 436.411 668.631 436.411C662.67 436.411 656.969 435.917 651.727 435.017V396.844H675.57V436.185Z" fill="#906254"/>
<path d="M668.631 429.605C706.822 429.605 737.783 398.894 737.783 361.011C737.783 323.128 706.822 292.418 668.631 292.418C630.439 292.418 599.479 323.128 599.479 361.011C599.479 398.894 630.439 429.605 668.631 429.605Z" fill="white"/>
<path d="M723.355 358.057L729.489 340.344L696.567 328.175C693.251 336.19 689.935 344.206 686.621 352.224L681.304 354.629C686.49 365.072 691.676 375.515 696.859 385.958L729.857 370.432L723.355 358.057Z" fill="#906254"/>
<path d="M696.572 328.118L595.21 328.609L595.495 386.396L696.857 385.905L696.572 328.118Z" fill="#A17162"/>
<path d="M730.285 382.538C739.57 382.538 747.097 370.479 747.097 355.602C747.097 340.726 739.57 328.666 730.285 328.666C721 328.666 713.473 340.726 713.473 355.602C713.473 370.479 721 382.538 730.285 382.538Z" fill="#FF9C66"/>
<path d="M669.763 493.729C669.637 502.302 667.902 510.703 662.995 517.648C658.24 524.476 650.337 529.847 640.818 529.738C631.304 529.847 623.401 524.476 618.642 517.648C613.76 510.703 612.021 502.302 611.898 493.729C612.021 485.152 613.76 476.751 618.642 469.81C623.401 462.978 631.304 457.607 640.818 457.716C650.337 457.607 658.24 462.978 662.995 469.81C667.906 476.751 669.641 485.152 669.763 493.729Z" fill="white"/>
<path d="M640.846 531.878C630.54 532.008 622.045 526.125 617.041 518.84C611.888 511.425 610.225 502.608 610.077 493.729C610.225 484.845 611.888 476.033 617.041 468.614C622.045 461.329 630.54 455.446 640.846 455.58C651.151 455.446 659.646 461.329 664.651 468.614C669.804 476.033 671.466 484.845 671.614 493.729C671.466 502.608 669.804 511.425 664.651 518.84C659.646 526.142 651.151 532.016 640.846 531.878ZM640.846 459.856C622.718 460.276 613.309 477.9 613.77 493.729C613.309 509.558 622.718 527.186 640.846 527.598C658.973 527.178 668.386 509.553 667.921 493.729C668.386 477.884 658.973 460.259 640.846 459.839V459.856Z" fill="#FF9C66"/>
<path d="M649.521 481.729C647.66 483.609 644.999 487.768 641.652 495.451C641.678 499.248 641.767 503.048 641.919 506.853C642.076 510.26 640.73 512.488 638.01 512.526C635.29 512.488 633.894 510.252 634.059 506.848C634.211 503.035 634.3 499.217 634.325 495.392C630.822 487.273 628.111 483.429 626.499 481.729C626.017 481.302 625.665 480.75 625.483 480.135C625.179 478.704 626.275 474.851 628.623 472.543C630.289 470.995 631.618 471.591 632.713 474.067C633.348 475.481 634.258 477.403 635.383 479.984C636.466 482.636 637.316 484.793 637.993 486.278C638.628 484.855 639.474 482.69 640.599 480.046C641.724 477.403 642.634 475.535 643.273 474.067C644.369 471.591 645.693 470.995 647.364 472.543C649.712 474.851 650.803 478.704 650.503 480.135C650.331 480.746 649.991 481.298 649.521 481.729Z" fill="#FF9C66"/>
<path d="M731.786 382.539C740.854 382.539 748.204 370.759 748.204 356.228C748.204 341.696 740.854 329.917 731.786 329.917C722.718 329.917 715.367 341.696 715.367 356.228C715.367 370.759 722.718 382.539 731.786 382.539Z" fill="#F9F6F4"/>
<path d="M611.101 743.272C607.401 736.798 604.05 730.133 601.062 723.306C594.293 707.847 582.942 681.905 584.009 648.137C584.893 620.295 593.878 597.924 601.777 583.178C600.472 582.985 599.151 582.919 597.834 582.981C591.94 594.068 587.511 605.861 584.656 618.071C572.235 671.448 593.861 718.334 607.34 741.321C608.525 742.093 609.785 742.747 611.101 743.272Z" fill="#FF9C66"/>
<path d="M725.55 742.236C729.249 735.761 732.6 729.097 735.589 722.27C742.358 706.811 753.708 680.869 752.638 647.101C751.758 619.258 742.772 596.888 734.87 582.142C736.174 581.949 737.495 581.883 738.812 581.945C744.704 593.032 749.133 604.826 751.991 617.034C764.411 670.412 742.781 717.298 729.302 740.285C728.119 741.057 726.862 741.71 725.55 742.236Z" fill="#FF9C66"/>
<path d="M515.591 340.378C512.82 338.46 514.377 335.342 511.361 329.941C510.066 327.617 508.822 326.492 509.33 325.493C509.88 324.411 512.105 324.201 513.658 324.591C519.712 326.123 523.033 338.791 520.067 341.016C518.946 341.863 516.826 341.238 515.591 340.378Z" fill="#FF9C66"/>
<path d="M526.772 339.53C524.395 337.655 525.926 334.801 523.494 329.694C522.444 327.491 521.378 326.408 521.89 325.498C522.432 324.512 524.428 324.386 525.782 324.797C531.104 326.417 533.478 338.297 530.736 340.269C529.704 341.02 527.847 340.365 526.772 339.53Z" fill="#FF9C66"/>
<path d="M505.371 340.814C502.693 338.767 504.398 335.716 501.648 330.193C500.464 327.81 499.275 326.627 499.833 325.653C500.43 324.6 502.664 324.491 504.195 324.956C510.169 326.765 512.889 339.576 509.822 341.658C508.65 342.455 506.564 341.729 505.371 340.814Z" fill="#FF9C66"/>
<path d="M405.713 332.476C405.15 329.996 409.283 326.345 417.558 319.048C424.674 312.753 428.439 309.757 433.211 309.816C437.793 309.87 440.949 312.535 447.172 317.789C455.129 324.503 460.807 329.304 459.863 332.896C457.334 342.514 407.82 341.779 405.713 332.476Z" stroke="#995037" stroke-width="6" stroke-miterlimit="10"/>
<path d="M265.781 405.444C275.317 417.178 284.219 429.404 292.45 442.072C308.559 466.882 312.338 478.404 324.76 481.752C327.534 482.499 333.212 483.507 355.531 475.138C370.435 469.552 384.845 462.746 398.611 454.79L416.561 480.734C409.946 485.938 404.202 489.825 400.15 492.435C374.892 508.673 352.393 515.52 332.453 521.431C325.58 523.466 322.098 524.484 319.631 524.484C294.219 524.484 275.526 488.238 268.346 472.595C267.491 450.211 266.636 427.828 265.781 405.444Z" fill="#906254"/>
<path d="M556.766 329.119H308.858C301.848 329.119 296.166 334.756 296.166 341.708V521.312C296.166 528.264 301.848 533.901 308.858 533.901H556.766C563.775 533.901 569.457 528.264 569.457 521.312V341.708C569.457 334.756 563.775 329.119 556.766 329.119Z" fill="#F1987C"/>
<path d="M580.5 507.887L571.726 506.494C565.338 505.84 560.756 504.782 560.033 503.779C559.701 503.346 559.532 502.812 559.555 502.269C559.622 501.874 559.793 501.503 560.05 501.194C561.285 499.7 568.481 501.694 571.261 502.399C574.462 503.211 577.712 503.823 580.991 504.232" fill="#906254"/>
<path d="M582.573 506.788C582.877 505.189 581.422 503.575 579.323 503.183C577.225 502.79 575.277 503.768 574.974 505.367C574.67 506.966 576.125 508.58 578.224 508.972C580.322 509.365 582.27 508.386 582.573 506.788Z" fill="#FF9C66"/>
<path d="M630.627 513.401L627.154 500.244L576.999 513.268L580.472 526.425L630.627 513.401Z" fill="#906254"/>
<path d="M583.951 531.269C586.912 528.882 586.257 522.487 585.969 519.759C585.872 518.827 584.548 507.325 579.331 506.146C574.297 505.005 566.301 513.624 567.634 521.756C569.017 530.195 579.86 534.534 583.951 531.269Z" fill="#906254"/>
<path d="M571.068 514.614C568.92 514.934 566.754 515.124 564.583 515.181C562.125 515.244 560.869 515.269 559.447 514.853C558.601 514.606 558.343 514.434 554.481 511.975C551.096 509.851 549.984 509.159 550.115 508.379C550.212 507.791 550.961 507.46 551.227 507.342C552.298 506.851 553.47 507.233 554.612 507.699C558.229 509.167 558.563 510.259 560.818 510.863C561.304 510.993 561.723 511.056 565.133 511.001C567.798 510.955 570.04 510.871 571.695 510.8" fill="#906254"/>
<path d="M575.83 513.526C576.084 511.919 574.579 510.35 572.47 510.023C570.36 509.695 568.444 510.732 568.19 512.34C567.936 513.947 569.441 515.516 571.551 515.843C573.66 516.171 575.577 515.134 575.83 513.526Z" fill="#FF9C66"/>
<path d="M568.494 523.07C566.476 523.868 564.41 524.542 562.309 525.088C559.927 525.705 558.709 526.011 557.232 525.927C556.357 525.877 556.056 525.751 551.733 524.249C547.968 522.94 546.707 522.52 546.656 521.731C546.614 521.135 547.287 520.64 547.502 520.472C548.429 519.751 549.66 519.855 550.887 520.053C554.745 520.669 555.316 521.651 557.656 521.731C558.155 521.731 558.578 521.731 561.886 520.892C564.471 520.246 566.637 519.658 568.232 519.213" fill="#906254"/>
<path d="M573.731 527.186C570.719 527.803 567.161 530.732 564.145 531.349C557.571 532.348 552.841 533.636 552.075 534.639C551.731 535.056 551.546 535.581 551.555 536.12C551.616 536.493 551.784 536.841 552.037 537.123C553.277 538.487 560.714 536.154 563.582 535.315C565.998 534.605 569.953 531.408 574.159 530.669" fill="#906254"/>
<path d="M570.383 524.154C572.468 523.697 573.872 522.039 573.518 520.45C573.164 518.862 571.187 517.944 569.102 518.401C567.017 518.857 565.613 520.515 565.966 522.104C566.32 523.693 568.297 524.61 570.383 524.154Z" fill="#FF9C66"/>
<path d="M575.662 531.31C577.707 530.7 578.981 528.942 578.509 527.384C578.037 525.826 575.996 525.058 573.951 525.668C571.906 526.278 570.631 528.036 571.103 529.594C571.576 531.152 573.617 531.92 575.662 531.31Z" fill="#FF9C66"/>
<path d="M735.182 485.944L729.764 470.388L673.428 489.695L678.846 505.251L735.182 485.944Z" fill="#906254"/>
<path d="M594.947 517.094C593.707 509.835 588.559 508.24 588.309 504.434C587.691 495.139 618.346 485.701 630.415 482.332C643.225 478.744 682.451 467.766 688.589 478.786C690.417 482.067 687.878 484.74 690.091 493.33C692.27 501.799 695.823 503.402 695.591 507.073C695.358 510.745 691.293 517.203 659.107 524.878C634.071 530.846 597.735 536.209 594.304 527.203C593.314 524.589 595.903 522.705 594.947 517.094Z" fill="white"/>
<path d="M739.568 434.527C751.379 441.913 749.531 460.826 748.909 467.17C748.621 470.108 746.451 489.31 731.005 500.594C728.175 502.659 719.803 508.773 714.954 505.982C708.994 502.558 715.246 489.663 707.572 481.48C701.649 475.185 694.428 479.05 690.976 473.927C685.294 465.534 696.526 442.655 715.031 434.976C718.14 433.692 730.218 428.686 739.568 434.527Z" fill="white"/>
<path d="M745.988 441.274C747.533 444.011 748.588 446.992 749.105 450.087C749.528 459.319 748.602 475.584 737.954 490.716C733.68 496.754 728.341 501.977 722.195 506.133C719.974 506.972 717.706 507.442 715.803 506.909C724.014 502.726 731.08 496.631 736.397 489.146C745.053 476.843 746.157 464.455 746.669 457.804C747.087 452.286 746.859 446.739 745.988 441.274Z" fill="#FF9C66"/>
<path d="M702.652 504.178C700.893 507.036 698.638 509.563 695.993 511.643C693.929 513.247 691.651 514.559 689.224 515.542C676.495 520.825 653.362 524.685 641.453 526.838C628.466 529.184 624.256 530.317 616.345 529.776C611.487 529.439 606.68 528.581 602.008 527.216C601.978 527.153 601.944 527.086 601.919 527.019C601.736 526.531 601.661 526.01 601.699 525.491C604.386 526.273 607.115 526.904 609.872 527.384C621.718 529.44 629.714 527.925 657.99 521.643C681.123 516.498 688.64 514.648 696.446 507.434C698.26 505.752 699.935 503.927 701.455 501.979C701.893 502.69 702.292 503.424 702.652 504.178Z" fill="#FF9C66"/>
<path d="M533.532 350.894H332.1C325.09 350.894 319.408 356.53 319.408 363.483V498.232C319.408 505.184 325.09 510.821 332.1 510.821H533.532C540.541 510.821 546.223 505.184 546.223 498.232V363.483C546.223 356.53 540.541 350.894 533.532 350.894Z" fill="#FFF3EA"/>
<path d="M268.11 415.677C265.157 410.16 263.846 403.924 264.329 397.696C264.812 391.468 267.069 385.504 270.839 380.5C275.144 383.016 279.956 384.557 284.932 385.012C298.497 386.167 311.929 378.602 318.581 368.326C327.12 355.13 322.683 340.235 316.309 318.711C312.98 307.52 311.18 301.792 305.395 297.513C294.379 289.374 277.757 293.011 267.654 298.866C250.555 308.776 247.575 327.726 247.191 330.437C243.944 324.806 238.539 321.448 234.005 322.298C227.215 323.605 223.446 334.197 226.733 341.695C229.143 347.205 235.262 350.796 242.19 350.715C241.254 358.238 238.699 365.475 234.698 371.934C230.697 378.393 225.343 383.923 218.999 388.151L268.11 415.677Z" fill="#FFE2D2"/>
<path d="M254.032 310.587C255.088 311.05 261.694 313.802 268.582 310.587C274.649 307.759 278.552 301.43 278.587 294.349C281.959 296.326 285.652 297.703 289.501 298.419C295.173 299.462 307.143 300.108 309.959 294.812C313.036 289.023 304.892 276.681 294.06 272.261C282.383 267.499 271.013 273.451 269.053 274.514C273.361 265.017 271.669 260.052 270.418 257.828C263.802 246.057 232.276 244.602 220.855 260.988C213.793 271.121 217.224 284.058 218.127 287.146C210.89 282.684 202.074 282.018 195.392 285.793C186.017 291.083 181.862 304.513 187.663 316.463C186.206 317.643 181.909 321.413 182.206 325.935C182.601 331.989 191.176 338.399 203.577 337.636C201.725 340.383 201.843 343.796 203.577 345.775C205.854 348.344 210.972 348.456 214.034 344.87C214.067 346.96 214.757 348.988 216.009 350.67C217.261 352.353 219.012 353.604 221.016 354.251C223.021 354.897 225.179 354.906 227.189 354.275C229.199 353.645 230.96 352.407 232.225 350.735C232.225 354.881 235.815 357.557 238.59 357.048C240.985 356.611 243.134 353.716 242.693 350.282C239.849 350.372 237.027 349.753 234.487 348.481C233.559 348.013 229.133 345.775 227.209 341.263C224.409 334.685 227.322 324.211 234.03 322.771C238.744 321.754 244.718 325.34 247.672 331.791C248.578 328.029 249.488 324.272 250.401 320.517C253.114 321.637 255.96 321.474 257.222 320.065C258.878 318.182 258.268 313.517 254.032 310.587Z" fill="#906254"/>
<path d="M282.77 340.611C285.668 339.973 287.322 336.35 286.465 332.518C285.608 328.687 282.564 326.097 279.666 326.735C276.768 327.373 275.114 330.996 275.971 334.828C276.828 338.66 279.872 341.249 282.77 340.611Z" fill="white"/>
<path d="M286.469 332.508C286.176 331.15 285.564 329.879 284.684 328.799C284.245 328.74 283.799 328.757 283.366 328.85C280.694 329.435 279.171 332.777 279.96 336.313C280.299 338 281.203 339.523 282.525 340.637L282.766 340.601C285.674 339.96 287.325 336.338 286.469 332.508Z" fill="#906254"/>
<path d="M304.692 328.828C307.341 328.245 308.853 324.93 308.068 321.425C307.284 317.92 304.501 315.551 301.852 316.134C299.203 316.717 297.691 320.031 298.475 323.536C299.259 327.042 302.043 329.411 304.692 328.828Z" fill="white"/>
<path d="M308.078 321.423C307.787 320.067 307.143 318.809 306.212 317.775C305.765 317.684 305.304 317.684 304.858 317.775C302.534 318.284 301.211 321.194 301.898 324.267C302.37 326.373 303.668 328.016 305.186 328.672C307.53 327.817 308.812 324.699 308.078 321.423Z" fill="#906254"/>
<path d="M281.211 320.146C281.247 319.892 277.201 317.811 274.031 319.637C270.862 321.464 270.667 326.144 270.954 326.251C271.241 326.358 271.836 322.369 275.057 320.655C277.96 319.108 281.175 320.365 281.211 320.146Z" fill="#895F51"/>
<path d="M311.987 354.52C312.295 354.749 310.221 361.259 304.872 362.66C299.523 364.061 294.289 359.278 294.476 358.838C294.662 358.399 299.613 362.023 304.872 360.462C309.636 359.067 311.711 354.322 311.987 354.52Z" fill="#895F51"/>
<path d="M304.803 310.45C304.833 310.252 301.587 308.578 299.043 310.043C296.499 311.508 296.345 315.262 296.576 315.349C296.807 315.435 297.284 312.236 299.864 310.862C302.192 309.621 304.772 310.628 304.803 310.45Z" fill="#895F51"/>
<path d="M300.699 338.46C302.111 336.665 304.103 335.407 306.341 334.899C307.243 334.695 310.895 333.881 312.495 335.916C313.551 337.275 313.1 339.126 313.008 339.477C312.392 341.751 310.192 342.703 309.418 343.038C307.57 343.531 305.624 343.531 303.776 343.038C305.133 343.278 306.522 343.278 307.879 343.038C309.014 342.784 310.07 342.261 310.956 341.512C311.645 340.984 312.177 340.281 312.495 339.477C312.669 339.076 312.759 338.643 312.759 338.205C312.759 337.768 312.669 337.335 312.495 336.934C312.254 336.508 311.899 336.156 311.469 335.916C309.213 334.538 305.971 335.367 305.828 335.408C303.875 335.954 302.105 337.008 300.699 338.46Z" fill="#895F51"/>
<path d="M402.641 510.821H469.339C460.387 455.538 447.725 416.466 435.33 416.542C423.023 416.617 410.89 455.257 402.641 510.821Z" fill="#FFE2D2"/>
<path d="M222.182 382.753C227.649 384.534 228.751 389.931 240.368 396.733C248.347 401.355 257.146 404.418 266.287 405.757C269.823 422.107 273.158 438.795 276.293 455.82C287.979 519.5 295.873 583.808 299.936 648.409L139.878 647.509C138.663 628.178 137.493 599.435 138.514 564.517C140.022 513.178 141.022 486.902 153.069 457.178C170.865 413.246 205.375 377.285 222.182 382.753Z" fill="#FF9C66"/>
<path d="M331.284 510.821H396.992C384.859 415.593 375.294 393.298 368.398 393.361C363.77 393.407 360.221 403.537 350.973 435.396C342.812 463.511 335.929 488.87 330.243 510.77C330.582 510.8 330.929 510.821 331.284 510.821Z" fill="#FFE2D2"/>
<path d="M519.289 474.287C507.253 444.652 501.703 443.922 499.884 444.04C495.746 444.304 492.324 450.217 486.02 470.749C482.75 481.408 479.061 494.866 475.715 510.82H531.6C528.237 498.409 524.126 486.21 519.289 474.287Z" fill="#FFE2D2"/>
<path d="M499.423 509.322C498.93 509.223 498.598 509.877 497.463 510.793C496.717 511.396 495.892 511.892 495.011 512.27C495.748 512.1 496.443 511.78 497.052 511.331C497.662 510.881 498.173 510.311 498.554 509.655C498.83 509.1 499.185 508.434 498.93 507.851C498.327 506.442 494.734 506.786 493.571 506.897C492.379 507.004 491.197 507.201 490.034 507.485C488.489 507.851 486.97 508.322 485.489 508.895C482.594 509.961 479.306 510.1 472.724 510.383C470.122 510.494 468.185 510.505 466.59 510.499C462.007 510.499 457.883 510.266 452.308 509.944C443.318 509.428 441.591 508.995 441.453 508.201C441.176 506.597 447.609 504.06 449.269 503.411C453.764 501.662 455.469 502.301 458.392 500.363C460.451 498.992 463.308 496.278 462.682 494.585C461.974 492.67 457.069 492.853 454.047 492.964C450.511 493.078 447.005 493.663 443.623 494.702C436.033 497.216 419.52 503.522 398.025 512.559V518.664L402.089 518.559C406.96 525.997 411.83 533.437 416.697 540.879L430.16 527.812C436.161 528.167 440.999 528.24 444.06 528.245C444.06 528.245 473.682 528.323 493.544 519.158C495.343 518.274 496.97 517.075 498.349 515.617C499.655 514.34 500.259 513.397 500.403 512.287C500.563 510.982 500.109 509.461 499.423 509.322Z" fill="#FFC4A4"/>
<path d="M239.006 453.567C241.945 461.055 244.556 466.412 246.376 470.13C258.541 494.981 269.773 518.763 291.754 542.993C293.503 545.078 295.679 546.769 298.139 547.953C306.729 551.921 316.997 547.851 330.88 540.287C332.664 539.315 383.935 511.346 394.084 507.363C399.044 505.414 401.777 506.208 403.177 506.91C404.047 507.357 404.82 507.971 405.449 508.716C414.07 518.381 419.117 527.253 425.004 536.227C426.317 538.231 428.056 540.806 427.276 543.446C426.446 546.244 423.204 547.556 422.276 547.953C411.183 552.694 349.63 589.159 335.88 597.568C325.987 603.637 314.217 611.547 300.416 608.841C297.055 608.167 293.828 606.949 290.867 605.234C233.109 572.794 191.264 495.057 191.264 495.057C180.138 477.42 170.265 459.035 161.719 440.035C166.268 428.738 174.489 418.058 182 408.676C201.191 384.766 210.599 382.881 218.102 382.738C220.408 382.705 222.706 383.009 224.923 383.639C225.529 407.578 230.293 431.234 239.006 453.567Z" fill="#906254"/>
<path d="M496.316 400.432C504.19 400.432 510.573 394.1 510.573 386.29C510.573 378.48 504.19 372.148 496.316 372.148C488.443 372.148 482.06 378.48 482.06 386.29C482.06 394.1 488.443 400.432 496.316 400.432Z" fill="#FFE2D2"/>
<path d="M510.574 324.083C507.574 325.762 508.666 329.488 504.939 334.994C503.331 337.369 501.952 338.418 502.311 339.61C502.701 340.894 504.85 341.477 506.445 341.288C512.621 340.542 517.685 327.021 515.083 324.083C514.081 322.963 511.915 323.328 510.574 324.083Z" fill="#906254"/>
<path d="M521.989 324.083C518.985 325.762 520.077 329.488 516.354 334.994C514.746 337.369 513.363 338.418 513.722 339.61C514.112 340.894 516.261 341.477 517.856 341.288C524.036 340.542 529.1 327.021 526.494 324.083C525.504 322.963 523.33 323.328 521.989 324.083Z" fill="#906254"/>
<path d="M500.338 324.083C497.339 325.762 498.43 329.488 494.703 334.994C493.1 337.369 491.716 338.418 492.076 339.61C492.465 340.894 494.614 341.477 496.209 341.288C502.386 340.542 507.45 327.021 504.848 324.083C503.854 322.963 501.679 323.328 500.338 324.083Z" fill="#906254"/>
<path d="M431.587 299.744L436.664 303.66" stroke="#828282" stroke-width="4" stroke-miterlimit="10" stroke-linecap="round"/>
<path d="M431.586 303.521C433.689 303.521 435.393 301.831 435.393 299.745C435.393 297.659 433.689 295.968 431.586 295.968C429.483 295.968 427.778 297.659 427.778 299.745C427.778 301.831 429.483 303.521 431.586 303.521Z" fill="#A5A5A5"/>
<path d="M630.972 324.845L659.727 324.365L640.203 386.756L610.318 386.612L630.972 324.845Z" fill="white" fill-opacity="0.1"/>
<path d="M666.253 321.69L669.47 320.526L648.941 385.314L645.624 385.731L666.253 321.69Z" fill="white" fill-opacity="0.1"/>
</g>
</svg>
