<svg width="420" height="708" viewBox="0 0 420 708" fill="none" xmlns="http://www.w3.org/2000/svg">
<g clip-path="url(#clip0)">
<path d="M35.5462 474.827L52.1045 476.068L56.5332 416.897L39.9749 415.655L35.5462 474.827Z" fill="#906254"/>
<path d="M56.5352 475.135C56.7848 479.008 57.0639 482.884 57.3724 486.763C57.4683 495.194 58.3855 501.308 59.6311 502.37C60.1528 502.847 60.8238 503.128 61.5297 503.166C62.058 503.119 62.5654 502.938 63.0036 502.64C65.1393 501.204 63.3081 491.559 62.6916 487.842C61.9845 483.556 61.5466 479.229 61.3805 474.888" fill="#906254"/>
<path d="M46.7236 486.66L46.1608 498.119C45.2876 506.339 45.4229 512.439 46.4026 513.671C46.8005 514.219 47.3818 514.607 48.0414 514.765C48.5123 514.807 48.9856 514.717 49.4077 514.505C51.4538 513.446 50.9238 503.781 50.8048 500.047C50.6527 495.767 50.7503 491.482 51.0972 487.214" fill="#906254"/>
<path d="M48.1053 491.651C50.4034 491.661 52.2761 489.247 52.2882 486.257C52.3003 483.268 50.4472 480.837 48.1492 480.827C45.8512 480.816 43.9785 483.231 43.9664 486.22C43.9542 489.209 45.8073 491.641 48.1053 491.651Z" fill="#FF9C66"/>
<path d="M59.0161 483.866C61.1782 483.651 62.7039 481.203 62.4237 478.396C62.1436 475.589 60.1638 473.487 58.0017 473.701C55.8396 473.915 54.314 476.364 54.5941 479.171C54.8743 481.978 56.8541 484.08 59.0161 483.866Z" fill="#FF9C66"/>
<path d="M35.3154 483.528L32.9046 494.741C30.7475 502.726 29.8501 508.746 30.6258 510.125C30.9277 510.728 31.4367 511.204 32.0601 511.464C32.5184 511.586 33.0022 511.572 33.4526 511.424C35.645 510.668 36.6942 501.071 37.1754 497.382C37.7136 493.136 38.4922 488.924 39.5073 484.765" fill="#906254"/>
<path d="M41.8091 485.502C42.4052 482.573 41.0629 479.828 38.8109 479.37C36.5588 478.913 34.2499 480.916 33.6537 483.845C33.0575 486.774 34.3999 489.52 36.6519 489.977C38.904 490.435 41.2129 488.431 41.8091 485.502Z" fill="#FF9C66"/>
<path d="M25.8967 475.393L21.5699 483.454C17.9421 489.134 16.1273 493.523 16.9682 494.662C17.4074 495.205 17.9943 495.611 18.6586 495.831C19.2382 495.995 19.8419 496.06 20.4431 496.02C23.3232 495.792 25.7299 488.725 26.7409 486.022C27.9393 482.87 29.4169 479.831 31.1562 476.942" fill="#906254"/>
<path d="M32.6115 477.387C33.9573 474.717 33.3841 471.717 31.3311 470.685C29.2781 469.654 26.5229 470.982 25.1771 473.652C23.8312 476.322 24.4045 479.322 26.4575 480.353C28.5104 481.385 31.2657 480.057 32.6115 477.387Z" fill="#FF9C66"/>
<path d="M28.6167 465.103C31.2718 460.645 39.4476 460.97 42.9229 461.111C44.1079 461.158 58.8322 461.911 60.9748 469.184C63.0453 476.202 53.1141 488.388 42.6608 487.287C31.824 486.156 24.9726 471.218 28.6167 465.103Z" fill="#906254"/>
<path d="M40.8179 343.579L64.082 345.323L70.3248 261.913L47.0607 260.169L40.8179 343.579Z" fill="#906254"/>
<path d="M42.5202 461.167C52.9574 461.019 56.4897 467.718 61.8602 467.101C74.9713 465.584 80.3402 420.833 81.9899 403.344C83.7394 384.728 89.0839 327.792 72.1626 322.145C67.1267 320.452 64.0434 324.647 51.5028 323.78C39.1398 322.922 36.0073 318.433 30.947 319.677C25.8868 320.92 17.906 328.187 15.3776 374.576C13.409 410.655 15.1846 462.172 28.6174 464.628C32.4799 465.326 34.4575 461.271 42.5202 461.167Z" fill="white"/>
<path d="M85.8753 225.358C67.8755 217.449 47.1392 234.553 40.1634 240.293C36.9048 242.965 16.0767 260.653 14.9547 287.549C14.7586 292.476 14.1526 307.047 21.2433 310.492C29.9561 314.723 40.1915 297.246 55.8435 299.72C67.8884 301.613 69.0287 313.095 77.757 313.072C92.1191 313.034 110.154 281.879 104.627 254.286C103.673 249.633 100.084 231.618 85.8753 225.358Z" fill="white"/>
<path d="M74.5172 223.349C70.0888 223.635 65.7437 224.683 61.6742 226.448C50.3615 233.064 31.7604 246.683 21.9039 270.86C17.9978 280.543 15.8749 290.85 15.6373 301.287C16.2811 304.561 17.5169 307.582 19.6135 309.408C18.2955 296.522 20.1303 283.511 24.9603 271.492C32.9983 251.832 46.843 240.983 54.3612 235.27C60.5941 230.53 67.3581 226.53 74.5172 223.349Z" fill="#FF9C66"/>
<path d="M34.8667 319.737C28.5024 325.349 24.1366 332.872 22.4255 341.175C18.295 360.082 18.7834 393.008 18.8037 409.991C18.8188 428.517 18.3193 434.619 21.0806 445.402C22.7859 452.02 25.2029 458.434 28.2897 464.534L28.5884 464.615C29.3132 464.742 30.0565 464.713 30.769 464.53C28.9996 461.019 27.4263 457.413 26.0563 453.728C20.1892 437.925 20.2654 426.474 21.8549 385.843C23.1561 352.593 23.8222 341.749 31.9045 329.14C33.7833 326.205 35.899 323.428 38.2303 320.836C37.1312 320.406 36.0081 320.038 34.8667 319.737Z" fill="#FF9C66"/>
<path d="M251.718 530.667C323.963 510.415 358.853 409.882 329.647 306.121C300.442 202.36 218.2 134.663 145.955 154.915C73.7104 175.167 38.8204 275.7 68.026 379.461C97.2317 483.222 179.473 550.919 251.718 530.667Z" fill="#F9F6F4"/>
<path d="M333.953 455.381C345.914 430.667 344.98 405.509 331.868 399.189C318.755 392.869 298.43 407.779 286.469 432.493C274.508 457.206 275.442 482.364 288.555 488.684C301.667 495.005 321.993 480.094 333.953 455.381Z" fill="#906254"/>
<path d="M315.528 418.892C303.006 429.027 298.332 441.889 295.167 450.981C289.375 467.889 287.991 485.989 291.144 503.578C292.83 512.778 300.205 527.676 314.877 557.079C329.668 586.708 333.03 591.589 335.693 597.572C337.004 600.524 337.763 602.797 338.098 603.722C342.693 616.397 348.028 631.088 355.679 640.909C356.665 642.149 372.639 662.331 382.697 658.621C397.349 653.258 416.153 616.308 412.475 566.644C412.475 566.644 414.062 504.05 375.439 440.108C362.532 418.744 351.656 408.52 339.459 408.225C328.958 407.999 320.153 415.123 315.528 418.892Z" fill="white"/>
<path d="M205.754 514.29C213.002 501.686 199.541 480.394 175.689 466.734C151.837 453.074 126.625 452.218 119.377 464.822C112.129 477.426 125.59 498.718 149.442 512.378C173.295 526.038 198.506 526.894 205.754 514.29Z" fill="#906254"/>
<path d="M144.067 471.813C160.129 473.112 171.272 481.102 179.032 486.82C193.375 497.511 204.756 511.67 212.103 527.962C215.919 536.513 218.256 552.956 222.792 585.498C227.347 618.276 227.327 624.2 228.511 630.636C229.102 633.824 229.763 636.126 230.01 637.071C233.382 650.119 237.296 665.254 236.537 677.672C236.438 679.247 234.654 704.91 224.271 707.538C209.145 711.365 172.721 691.468 147.656 648.407C147.656 648.407 110.936 597.641 106.637 523.101C105.208 498.195 108.392 483.621 118.292 476.507C126.782 470.416 138.042 471.351 144.067 471.813Z" fill="white"/>
<path d="M163.262 221.263C201.949 209.199 228.94 185.461 223.548 168.244C218.157 151.027 182.425 146.85 143.739 158.915C105.053 170.98 78.0619 194.718 83.4531 211.935C88.8444 229.152 124.576 233.328 163.262 221.263Z" fill="#906254"/>
<path d="M126.486 215.503C186.116 215.503 234.456 167.261 234.456 107.751C234.456 48.2419 186.116 0 126.486 0C66.8556 0 18.5156 48.2419 18.5156 107.751C18.5156 167.261 66.8556 215.503 126.486 215.503Z" fill="white"/>
<path d="M206.729 78.1224L207.646 48.7195L152.833 45.5903C151.623 59.1437 150.407 72.7004 149.184 86.2603L142.381 92.3121L180.156 132.175L222.17 93.6799L206.729 78.1224Z" fill="#906254"/>
<path d="M152.869 45.5931L1.89258 92.9834L29.1846 179.578L180.161 132.187L152.869 45.5931Z" fill="#A17162"/>
<path d="M228.457 111.662C242.306 107.386 247.923 85.822 241.002 63.497C234.082 41.1719 217.245 26.5398 203.396 30.8155C189.547 35.0911 183.931 56.6552 190.851 78.9803C197.772 101.305 214.609 115.937 228.457 111.662Z" fill="#FF9C66"/>
<path d="M230.7 110.967C244.226 106.791 249.712 85.7288 242.952 63.9229C236.192 42.117 219.747 27.8251 206.221 32.0011C192.695 36.1772 187.209 57.2397 193.969 79.0456C200.728 100.852 217.173 115.143 230.7 110.967Z" fill="#F9F6F4"/>
<path d="M361.147 326.457L346.529 334.318L374.736 386.554L389.353 378.692L361.147 326.457Z" fill="#906254"/>
<path d="M369.933 388.202C371.169 391.922 372.395 395.635 373.611 399.341C376.717 407.214 378.245 413.256 377.496 414.722C377.184 415.376 376.654 415.901 375.997 416.208C375.489 416.365 374.949 416.389 374.429 416.277C371.905 415.745 369.894 406.082 369.046 402.392C368.06 398.136 366.809 393.946 365.299 389.845" fill="#906254"/>
<path d="M382.87 394.234C384.513 397.711 386.157 401.191 387.8 404.675C391.744 412.006 393.973 417.713 393.529 419.229C393.371 419.891 392.979 420.475 392.425 420.872C392.003 421.092 391.528 421.188 391.054 421.148C388.737 420.941 385.522 411.74 384.211 408.227C382.713 404.194 380.981 400.252 379.024 396.419" fill="#906254"/>
<path d="M383.473 399.416C385.605 398.531 386.396 395.564 385.24 392.789C384.084 390.014 381.418 388.482 379.286 389.367C377.154 390.251 376.363 393.218 377.519 395.993C378.676 398.768 381.341 400.301 383.473 399.416Z" fill="#FF9C66"/>
<path d="M372.419 395.91C374.515 395.278 375.546 392.558 374.722 389.834C373.898 387.111 371.53 385.416 369.434 386.048C367.337 386.68 366.306 389.4 367.13 392.123C367.955 394.846 370.322 396.542 372.419 395.91Z" fill="#FF9C66"/>
<path d="M392.277 386.962C394.466 390.131 396.648 393.303 398.824 396.478C403.892 403.081 407.038 408.345 406.84 409.92C406.79 410.595 406.5 411.23 406.022 411.711C405.643 412 405.187 412.171 404.71 412.203C402.393 412.37 397.72 403.819 395.836 400.562C393.699 396.822 391.348 393.208 388.796 389.737" fill="#906254"/>
<path d="M393.536 393.463C395.454 392.18 395.649 389.116 393.972 386.62C392.295 384.124 389.381 383.14 387.463 384.424C385.545 385.707 385.35 388.771 387.027 391.267C388.704 393.763 391.618 394.747 393.536 393.463Z" fill="#FF9C66"/>
<path d="M397.927 375.823L405.036 381.668C410.598 385.605 413.911 388.96 413.625 390.328C413.438 391.016 413.05 391.632 412.511 392.099C412.031 392.468 411.49 392.751 410.913 392.936C408.142 393.811 403.202 388.163 401.22 386.047C398.893 383.564 396.349 381.291 393.618 379.258" fill="#906254"/>
<path d="M399.313 380.668C400.826 378.928 400.209 375.92 397.934 373.951C395.66 371.981 392.589 371.795 391.076 373.535C389.563 375.276 390.18 378.283 392.454 380.253C394.729 382.223 397.799 382.409 399.313 380.668Z" fill="#FF9C66"/>
<path d="M391.458 367.272C387.277 364.133 379.793 367.557 376.599 369.024C375.514 369.525 362.104 375.833 362.893 383.42C363.662 390.741 377.565 398.279 386.883 393.26C396.546 388.074 397.187 371.572 391.458 367.272Z" fill="#906254"/>
<path d="M290.2 187.682L269.663 198.727L309.423 272.359L329.961 261.314L290.2 187.682Z" fill="#906254"/>
<path d="M376.412 369.397C366.818 373.511 366.325 381.058 361.168 382.672C348.567 386.608 325.395 347.926 316.747 332.624C307.557 316.358 279.416 266.517 292.57 254.472C296.514 250.891 301.01 253.488 312.113 247.584C323.048 241.778 324.083 236.406 329.211 235.49C334.338 234.575 344.593 237.96 365.842 279.299C382.378 311.448 401.783 359.213 390.542 366.878C387.278 369.122 383.817 366.219 376.412 369.397Z" fill="white"/>
<path d="M239.935 172.424C252.862 157.664 278.943 164.394 287.689 166.658C291.771 167.711 318.157 174.933 330.581 198.835C332.859 203.214 339.584 216.164 334.614 222.275C328.511 229.783 311.827 218.27 298.683 227.116C288.576 233.916 292.412 244.829 284.494 248.46C271.459 254.482 241.907 233.877 235.193 206.54C234.078 201.935 229.71 184.065 239.935 172.424Z" fill="white"/>
<path d="M250.791 165.004C254.965 163.464 259.376 162.658 263.826 162.623C276.852 164.06 299.422 168.931 318.275 187.017C325.798 194.27 331.944 202.821 336.418 212.258C337.148 215.525 337.276 218.772 336.112 221.291C332.051 208.983 325.061 197.84 315.741 188.818C300.408 174.107 283.3 169.846 274.101 167.681C266.461 165.89 258.639 164.992 250.791 165.004Z" fill="#FF9C66"/>
<path d="M325.414 237.203C329.932 238.639 334.159 240.865 337.897 243.776C340.798 246.057 343.364 248.734 345.519 251.727C357.016 267.314 370.022 297.573 376.934 313.101C384.467 330.026 387.425 335.389 389.309 346.361C390.454 353.097 390.867 359.936 390.541 366.76C390.466 366.831 390.383 366.893 390.295 366.947C389.686 367.364 388.992 367.643 388.264 367.764C388.45 363.829 388.414 359.886 388.155 355.955C387.08 339.178 382.328 328.717 364.283 292.308C349.493 262.482 344.484 252.849 331.951 244.612C329.041 242.695 325.977 241.02 322.791 239.604C323.617 238.752 324.493 237.951 325.414 237.203Z" fill="#FF9C66"/>
<path d="M218.473 707.921C209.955 699.907 201.868 691.449 194.246 682.582C176.932 662.498 147.903 628.795 133.812 577.626C122.177 535.43 125.175 497.722 130.075 471.96C128.037 472.268 126.036 472.779 124.1 473.486C120.47 492.834 119.35 512.569 120.767 532.203C127.068 618.03 181.142 678.44 211.936 706.73C214.071 707.339 216.26 707.738 218.473 707.921Z" fill="#FF9C66"/>
<path d="M389.185 655.227C391.694 643.806 393.593 632.26 394.874 620.638C397.773 594.325 402.644 550.162 385.349 499.976C371.081 458.647 347.269 429.126 328.643 410.665C330.502 409.775 332.444 409.067 334.44 408.55C348.384 422.479 360.477 438.138 370.421 455.144C413.806 529.536 403.325 609.853 393.908 650.562C392.493 652.27 390.911 653.833 389.185 655.227Z" fill="#FF9C66"/>
<path d="M175.625 365.197C197.999 359.936 210.863 333.341 204.36 305.798C197.856 278.254 174.446 260.191 152.072 265.452C129.699 270.714 116.834 297.308 123.338 324.852C129.842 352.396 153.252 370.459 175.625 365.197Z" fill="white" stroke="#FF9C66" stroke-width="5.77" stroke-miterlimit="10"/>
<path d="M176.498 299.647C175.093 307.296 173.23 314.854 170.917 322.28L173.875 334.787C174.762 338.575 173.471 341.134 170.157 341.911C166.844 342.689 164.488 340.996 163.59 337.198L160.632 324.632C153.405 316.848 148.386 310.934 145.605 306.919C144.823 305.933 144.228 304.812 143.85 303.613C143.581 302.223 143.86 300.783 144.63 299.595C145.4 298.406 146.601 297.561 147.982 297.236C150.131 296.725 151.827 297.945 153.701 300.946C155.164 303.229 156.747 305.433 158.443 307.549C160.021 309.703 161.717 311.77 163.521 313.738C164.034 311.997 164.646 309.399 165.316 306.004C165.987 302.609 166.411 299.992 166.588 297.915C166.923 294.392 167.899 292.552 170.049 292.011C171.418 291.719 172.846 291.958 174.044 292.68C175.243 293.403 176.12 294.553 176.498 295.898C176.726 297.137 176.726 298.408 176.498 299.647Z" fill="#FF9C66"/>
<path d="M62.5139 72.5835L105.753 60.2241L101.445 162.105L56.2486 173.984L62.5139 72.5835Z" fill="white" fill-opacity="0.1"/>
<path d="M114.53 53.5538L118.918 50.4985L114.061 156.397L109.219 158.369L114.53 53.5538Z" fill="white" fill-opacity="0.1"/>
</g>
<defs>
<clipPath id="clip0">
<rect width="420" height="708" fill="white" transform="translate(-0.000976562)"/>
</clipPath>
</defs>
</svg>
