<svg width="675" height="391" viewBox="0 0 675 391" fill="none" xmlns="http://www.w3.org/2000/svg">
<path d="M391.378 64.5546C428.388 75.819 460.218 89.887 494.708 86.3921C545.609 81.2348 553.075 60.7107 597.284 57.3526C641.493 53.9946 662.807 64.9786 672.937 95.4613C685.676 133.813 630.052 160.311 645.821 210.115C652.957 232.655 662.049 237.012 667.191 263.468C673.339 295.145 656.247 322.58 651.134 330.105C647.173 335.928 634.306 353.498 594.699 371.508C594.699 371.508 521.866 407.883 417.157 381.208C364.037 367.675 363.067 354.907 318.161 350.058C269.901 344.851 262.687 360.701 188.9 362.038C169.182 362.392 128.892 361.263 83.1405 346.064C57.931 337.692 40.4742 335.587 15.7561 305.738C-17.5086 260.208 10.3083 159.023 40.0823 92.9704C62.498 43.2418 93.6011 26.8653 130.464 10.5365C130.464 10.5365 169.318 -13.1668 257.57 10.5365C258.262 10.8166 276.032 17.1399 298.604 27.5501C321.298 37.4499 327.828 41.1326 343.921 47.7537C343.899 47.7537 365.83 56.7816 391.378 64.5546Z" fill="#F1987C"/>
<mask id="mask0" mask-type="alpha" maskUnits="userSpaceOnUse" x="0" y="0" width="675" height="391">
<path d="M391.378 64.5546C428.388 75.819 460.218 89.887 494.708 86.3921C545.609 81.2348 553.075 60.7107 597.284 57.3526C641.493 53.9946 662.807 64.9786 672.937 95.4613C685.676 133.813 630.052 160.311 645.821 210.115C652.957 232.655 662.049 237.012 667.191 263.468C673.339 295.145 656.247 322.58 651.134 330.105C647.173 335.928 634.306 353.498 594.699 371.508C594.699 371.508 521.866 407.883 417.157 381.208C364.037 367.675 363.067 354.907 318.161 350.058C269.901 344.851 262.687 360.701 188.9 362.038C169.182 362.392 128.892 361.263 83.1405 346.064C57.931 337.692 40.4742 335.587 15.7561 305.738C-17.5086 260.208 10.3083 159.023 40.0823 92.9704C62.498 43.2418 93.6011 26.8653 130.464 10.5365C130.464 10.5365 169.318 -13.1668 257.57 10.5365C258.262 10.8166 276.032 17.1399 298.604 27.5501C321.298 37.4499 327.828 41.1326 343.921 47.7537C343.899 47.7537 365.83 56.7816 391.378 64.5546Z" fill="#F1987C"/>
</mask>
<g mask="url(#mask0)">
<path d="M464.98 33.2561H533.133V499.711H464.98V33.2561Z" fill="white"/>
<mask id="mask1" mask-type="alpha" maskUnits="userSpaceOnUse" x="464" y="33" width="70" height="467">
<path d="M464.98 33.2561H533.133V499.711H464.98V33.2561Z" fill="white"/>
</mask>
<g mask="url(#mask1)">
<path d="M484.247 98.5918H552.4V100.01H484.247V98.5918Z" fill="#664141" fill-opacity="0.5"/>
<path d="M484.247 140.832H552.4V142.25H484.247V140.832Z" fill="#664141" fill-opacity="0.5"/>
<path d="M511.366 107.042H552.4V108.46H511.366V107.042Z" fill="#664141" fill-opacity="0.5"/>
<path d="M511.366 115.489H552.4V116.906H511.366V115.489Z" fill="#664141" fill-opacity="0.5"/>
<path d="M511.366 123.935H552.4V125.353H511.366V123.935Z" fill="#664141" fill-opacity="0.5"/>
<path d="M511.366 132.385H552.4V133.803H511.366V132.385Z" fill="#664141" fill-opacity="0.5"/>
<path d="M484.247 56.356H552.4V57.7738H484.247V56.356Z" fill="#664141" fill-opacity="0.5"/>
<path d="M511.366 64.802H552.4V66.2198H511.366V64.802Z" fill="#664141" fill-opacity="0.5"/>
<path d="M511.366 73.2488H552.4V74.6666H511.366V73.2488Z" fill="#664141" fill-opacity="0.5"/>
<path d="M511.366 81.6987H552.4V83.1165H511.366V81.6987Z" fill="#664141" fill-opacity="0.5"/>
<path d="M511.366 90.1455H552.4V91.5633H511.366V90.1455Z" fill="#664141" fill-opacity="0.5"/>
<path d="M511.366 39.4592H552.4V40.877H511.366V39.4592Z" fill="#664141" fill-opacity="0.5"/>
<path d="M511.366 47.9055H552.4V49.3233H511.366V47.9055Z" fill="#664141" fill-opacity="0.5"/>
<path d="M484.247 183.071H552.4V184.489H484.247V183.071Z" fill="#664141" fill-opacity="0.5"/>
<path d="M511.366 149.278H552.4V150.696H511.366V149.278Z" fill="#664141" fill-opacity="0.5"/>
<path d="M511.366 157.728H552.4V159.146H511.366V157.728Z" fill="#664141" fill-opacity="0.5"/>
<path d="M511.366 166.175H552.4V167.592H511.366V166.175Z" fill="#664141" fill-opacity="0.5"/>
<path d="M511.366 174.621H552.4V176.039H511.366V174.621Z" fill="#664141" fill-opacity="0.5"/>
<path d="M484.247 225.308H552.4V226.725H484.247V225.308Z" fill="#664141" fill-opacity="0.5"/>
<path d="M511.366 191.518H552.4V192.936H511.366V191.518Z" fill="#664141" fill-opacity="0.5"/>
<path d="M511.366 199.964H552.4V201.382H511.366V199.964Z" fill="#664141" fill-opacity="0.5"/>
<path d="M511.366 208.415H552.4V209.832H511.366V208.415Z" fill="#664141" fill-opacity="0.5"/>
<path d="M511.366 216.861H552.4V218.279H511.366V216.861Z" fill="#664141" fill-opacity="0.5"/>
<path d="M484.247 267.547H552.4V268.965H484.247V267.547Z" fill="#664141" fill-opacity="0.5"/>
<path d="M511.366 233.757H552.4V235.175H511.366V233.757Z" fill="#664141" fill-opacity="0.5"/>
<path d="M511.366 242.204H552.4V243.622H511.366V242.204Z" fill="#664141" fill-opacity="0.5"/>
<path d="M511.366 250.65H552.4V252.068H511.366V250.65Z" fill="#664141" fill-opacity="0.5"/>
<path d="M511.366 259.101H552.4V260.519H511.366V259.101Z" fill="#664141" fill-opacity="0.5"/>
<path d="M484.247 309.787H552.4V311.205H484.247V309.787Z" fill="#664141" fill-opacity="0.5"/>
<path d="M511.366 275.994H552.4V277.412H511.366V275.994Z" fill="#664141" fill-opacity="0.5"/>
<path d="M511.366 284.444H552.4V285.861H511.366V284.444Z" fill="#664141" fill-opacity="0.5"/>
<path d="M511.366 292.89H552.4V294.308H511.366V292.89Z" fill="#664141" fill-opacity="0.5"/>
<path d="M511.366 301.337H552.4V302.754H511.366V301.337Z" fill="#664141" fill-opacity="0.5"/>
<path d="M484.247 352.023H552.4V353.441H484.247V352.023Z" fill="#664141" fill-opacity="0.5"/>
<path d="M511.366 318.233H552.4V319.651H511.366V318.233Z" fill="#664141" fill-opacity="0.5"/>
<path d="M511.366 326.68H552.4V328.098H511.366V326.68Z" fill="#664141" fill-opacity="0.5"/>
<path d="M511.366 335.13H552.4V336.548H511.366V335.13Z" fill="#664141" fill-opacity="0.5"/>
<path d="M511.366 343.576H552.4V344.994H511.366V343.576Z" fill="#664141" fill-opacity="0.5"/>
<path d="M511.366 360.473H552.4V361.891H511.366V360.473Z" fill="#664141" fill-opacity="0.5"/>
<path d="M511.366 368.919H552.4V370.337H511.366V368.919Z" fill="#664141" fill-opacity="0.5"/>
<path d="M511.366 377.366H552.4V378.784H511.366V377.366Z" fill="#664141" fill-opacity="0.5"/>
<path d="M511.366 385.816H552.4V387.234H511.366V385.816Z" fill="#664141" fill-opacity="0.5"/>
</g>
<path d="M439.677 134.144L445.236 151.1L412.092 161.823L406.532 144.867L439.677 134.144Z" fill="#906254"/>
<path d="M434.439 130.709L434.36 130.748C432.89 131.506 431.841 133.442 431.466 134.431C429.95 138.446 431.609 144.795 431.609 144.795C431.941 146.064 435.177 158.43 439.712 158.264C440.372 158.215 440.998 157.955 441.497 157.523C444.408 155.194 441.457 149.98 440.883 139.304C440.851 138.08 440.59 136.872 440.116 135.742C438.92 132.97 436.019 130.032 434.439 130.709Z" fill="#A17162"/>
<path d="M441.125 130.085L452.604 128.954C460.811 127.724 466.934 127.515 468.219 128.433C468.787 128.802 469.205 129.36 469.396 130.007C469.462 130.475 469.391 130.952 469.193 131.382C468.229 133.466 458.488 133.424 454.759 133.481C450.463 133.547 446.174 133.856 441.914 134.406" fill="#A17162"/>
<path d="M434.081 134.291C433.555 132.063 435.496 129.705 438.416 129.025C441.336 128.345 444.13 129.599 444.656 131.827C445.182 134.055 443.241 136.413 440.321 137.093C437.401 137.773 434.607 136.519 434.081 134.291Z" fill="#FF7B31"/>
<path d="M444.08 136.703L455.574 135.785C463.816 134.654 469.936 134.601 471.195 135.661C471.766 136.114 472.166 136.746 472.33 137.454C472.385 137.974 472.303 138.5 472.091 138.978C471.07 141.275 461.343 140.942 457.604 140.892C453.305 140.839 449.008 141.056 444.737 141.545" fill="#906254"/>
<path d="M437.086 141.754C436.246 139.36 437.879 136.618 440.733 135.63C443.588 134.641 446.583 135.781 447.423 138.174C448.263 140.568 446.63 143.31 443.776 144.298C440.921 145.287 437.926 144.148 437.086 141.754Z" fill="#FF7B31"/>
<path d="M445.86 142.894L457.382 142.834C465.674 142.373 471.783 142.735 472.975 143.766C473.508 144.187 473.873 144.783 474.002 145.446C474.019 145.919 473.899 146.386 473.656 146.793C472.497 148.782 462.812 147.832 459.087 147.541C454.802 147.207 450.501 147.116 446.206 147.268" fill="#A17162"/>
<path d="M438.478 146.387C438.165 144.12 440.32 141.953 443.291 141.548C446.263 141.143 448.926 142.652 449.239 144.919C449.553 147.186 447.398 149.353 444.426 149.758C441.455 150.163 438.792 148.654 438.478 146.387Z" fill="#FF7B31"/>
<path d="M447.423 150.175L459.47 150.115C468.137 149.633 474.524 150.009 475.773 151.09C476.329 151.529 476.709 152.151 476.843 152.844C476.865 153.341 476.741 153.834 476.486 154.262C475.277 156.339 465.15 155.347 461.254 155.042C456.775 154.692 452.28 154.596 447.791 154.755" fill="#906254"/>
<path d="M439.699 153.851C439.371 151.481 441.625 149.217 444.734 148.793C447.842 148.368 450.627 149.946 450.955 152.316C451.282 154.686 449.028 156.951 445.92 157.375C442.812 157.799 440.027 156.221 439.699 153.851Z" fill="#FF7B31"/>
<path d="M341.439 195.717L339.9 213.146L276.87 207.657L278.408 190.228L341.439 195.717Z" fill="#906254"/>
<path d="M247.684 214.71C243.973 200.454 259.274 187.155 264.409 182.689C266.803 180.608 282.553 167.327 302.771 169.762C306.471 170.209 317.425 171.534 319.131 177.205C321.222 184.167 306.928 189.611 306.86 201.51C306.806 210.651 315.234 212.888 314.153 219.342C312.369 229.976 286.921 239.546 266.985 232.103C263.631 230.837 250.617 225.985 247.684 214.71Z" fill="white"/>
<path d="M247.567 206.079C248.32 202.834 249.635 199.745 251.453 196.948C257.772 189.38 270.208 177.248 289.462 172.902C297.167 171.183 305.121 170.861 312.941 171.952C315.307 172.849 317.412 174.107 318.521 175.876C309.061 173.341 299.123 173.122 289.558 175.238C273.901 178.782 264.113 187.736 258.925 192.606C254.626 196.644 250.815 201.166 247.567 206.079Z" fill="#FFAA7B"/>
<path d="M420.158 149.193C423.673 156.201 429.411 156.243 430.838 160.043C434.353 169.308 406.124 188.3 394.931 195.417C383.034 202.988 346.592 226.169 336.94 216.837C334.064 214.058 335.812 210.559 330.895 202.499C326.046 194.552 321.943 193.992 321.029 190.207C320.116 186.421 322.242 178.584 352.558 160.922C376.133 147.184 411.388 130.627 417.664 138.716C419.487 141.069 417.443 143.781 420.158 149.193Z" fill="white"/>
<path d="M322.429 192.798C323.324 189.353 324.826 186.093 326.864 183.167C328.467 180.907 330.377 178.88 332.541 177.142C343.831 167.873 366.129 156.857 377.558 151.022C390.022 144.66 393.947 142.221 402.154 140.35C407.189 139.21 412.333 138.616 417.497 138.578C417.551 138.634 417.604 138.691 417.651 138.751C417.995 139.19 418.239 139.698 418.364 140.24C415.393 140.25 412.424 140.427 409.472 140.768C396.816 142.296 389.133 146.29 362.372 161.326C340.47 173.64 333.408 177.822 327.721 187.555C326.399 189.824 325.264 192.194 324.327 194.644C323.663 194.062 323.029 193.445 322.429 192.798Z" fill="#FFAA7B"/>
<path d="M41.7447 360.293C44.5993 356.812 51.8142 357.914 54.8972 358.382C55.9498 358.542 68.9559 360.647 70.0799 366.974C71.1504 373.074 61.0416 382.3 51.882 380.333C42.3405 378.292 37.8553 365.06 41.7447 360.293Z" fill="#906254"/>
<path d="M64.7061 370.745C65.3936 373.794 66.081 376.841 66.7685 379.887C67.8889 386.568 69.3198 391.321 70.4367 392.016C70.8381 392.329 71.3421 392.484 71.8514 392.449C72.3607 392.415 72.8393 392.195 73.1949 391.832C74.7114 390.414 72.1245 382.97 71.1753 380.11C70.0979 376.788 69.2303 373.402 68.5776 369.973" fill="#906254"/>
<path d="M56.2633 379.379L56.1241 389.113C55.6674 396.117 55.9279 401.281 56.8057 402.295C57.1601 402.748 57.6666 403.06 58.233 403.174C58.6376 403.197 59.0405 403.104 59.3926 402.904C61.1018 401.944 60.3632 393.752 60.142 390.601C59.8872 386.978 59.8419 383.344 60.0064 379.716" fill="#906254"/>
<path d="M63.7129 373.262C63.1566 371.08 64.073 368.967 65.7599 368.543C67.4468 368.119 69.2653 369.544 69.8217 371.726C70.3781 373.908 69.4616 376.021 67.7748 376.446C66.0879 376.87 64.2693 375.445 63.7129 373.262Z" fill="#FF7B31"/>
<path d="M54.7506 377.198C54.5247 374.958 55.7452 373.003 57.4767 372.83C59.2081 372.658 60.7948 374.334 61.0207 376.574C61.2466 378.814 60.0261 380.77 58.2946 380.942C56.5632 381.114 54.9765 379.438 54.7506 377.198Z" fill="#FF7B31"/>
<path d="M45.6133 376.122C44.9829 379.305 44.3501 382.495 43.7149 385.692C41.9986 392.498 41.3207 397.627 41.9986 398.782C42.2686 399.29 42.7111 399.687 43.2475 399.902C43.6401 399.994 44.0511 399.974 44.4322 399.842C46.2876 399.2 47.0441 391.012 47.3974 387.872C47.8035 384.264 48.4159 380.682 49.2314 377.143" fill="#906254"/>
<path d="M411.547 139.912C411.868 139.537 412.406 138.913 434.798 136.782C448.635 135.463 465.773 134.089 480.641 133.106C488.866 132.562 501.479 131.803 512.219 131.303C517.605 131.051 521.857 130.896 524.855 130.848C526.506 130.835 527.784 130.824 528.651 130.853C529.78 130.897 530.742 130.932 530.826 131.839L530.829 132.225L530.605 132.493C530.315 132.828 529.78 133.46 510.097 135.52C497.33 136.855 482.089 138.174 468.283 139.142C455.965 140.009 441.872 140.794 430.591 141.249C425.08 141.47 420.494 141.599 417.321 141.624C413.661 141.653 412.243 141.59 411.683 141.269C411.565 141.197 411.469 141.092 411.406 140.967C411.343 140.842 411.317 140.702 411.329 140.562L411.326 140.176L411.547 139.912Z" fill="#69A6FF"/>
<path d="M38.2333 367.538L35.4179 376.863C33.0486 383.474 31.8782 388.511 32.442 389.726C32.6587 390.259 33.0599 390.696 33.5732 390.96C33.956 391.09 34.3683 391.109 34.7614 391.013C36.6704 390.552 38.219 382.474 38.872 379.384C39.6216 375.83 40.5747 372.323 41.7266 368.878" fill="#906254"/>
<path d="M46.8099 378.784C45.0908 378.516 43.9814 376.496 44.332 374.272C44.6825 372.048 46.3604 370.462 48.0795 370.729C49.7987 370.997 50.9082 373.017 50.5576 375.241C50.207 377.465 48.5291 379.051 46.8099 378.784Z" fill="#FF7B31"/>
<path d="M40.1078 371.392C38.3886 371.125 37.2792 369.105 37.6298 366.881C37.9804 364.657 39.6582 363.07 41.3774 363.338C43.0966 363.605 44.206 365.625 43.8554 367.849C43.5048 370.073 41.8269 371.659 40.1078 371.392Z" fill="#FF7B31"/>
<path d="M181.938 429.397C121.46 429.397 72.4333 366.241 72.4333 288.335C72.4333 210.428 121.46 147.272 181.938 147.272C242.416 147.272 291.442 210.428 291.442 288.335C291.442 366.241 242.416 429.397 181.938 429.397Z" fill="#F9F6F4"/>
<path d="M437.975 131.651L449.511 135.093C457.943 137.152 463.941 139.367 464.815 140.764C465.218 141.346 465.398 142.053 465.322 142.756C465.2 143.234 464.941 143.666 464.576 144C462.792 145.638 453.415 141.746 449.782 140.321C445.602 138.686 441.331 137.289 436.99 136.138" fill="#906254"/>
<path d="M434.388 137.09C431.291 136.592 429.092 134.274 429.477 131.913C429.861 129.552 432.684 128.041 435.781 128.538C438.878 129.036 441.077 131.354 440.692 133.715C440.308 136.077 437.485 137.588 434.388 137.09Z" fill="#FF7B31"/>
<path d="M112.825 401.151C98.6741 386.061 93.7215 367.795 101.763 360.354C109.805 352.912 127.796 359.113 141.947 374.203C156.099 389.293 161.051 407.558 153.009 415C144.967 422.441 126.976 416.241 112.825 401.151Z" fill="#906254"/>
<path d="M83.6979 199.833L100.315 205.631L79.348 264.931L62.7305 259.133L83.6979 199.833Z" fill="#906254"/>
<path d="M40.8236 344.777C48.474 346.71 49.7114 352.256 53.753 352.85C63.611 354.305 76.3339 322.882 80.9745 310.512C85.909 297.361 101.006 257.079 89.7988 249.683C86.4532 247.476 83.3806 249.911 74.4099 246.843C65.5667 243.815 64.1651 239.943 60.2332 239.859C56.3013 239.774 49.0539 243.497 38.0787 276.66C29.5422 302.452 20.7006 340.18 29.9846 344.564C32.6953 345.831 34.9118 343.284 40.8236 344.777Z" fill="white"/>
<path d="M119.379 182.625C108 173.191 89.3482 181.229 83.0859 183.929C80.1702 185.187 61.34 193.636 54.8954 212.831C53.7169 216.347 50.2251 226.743 54.6497 230.702C60.072 235.56 71.1737 225.07 82.0119 230.096C90.3506 233.965 88.7749 242.491 95.1121 244.282C105.538 247.233 125.149 228.488 126.921 207.409C127.223 203.849 128.381 190.091 119.379 182.625Z" fill="white"/>
<path d="M141.954 374.169L142.183 374.421L133.751 415.956C130.967 414.846 128.293 413.481 125.765 411.876C122.71 408.358 119.924 404.618 117.433 400.686C117.201 400.331 116.98 399.956 116.755 399.591L124.606 360.927C130.429 363.83 136.481 368.325 141.954 374.169Z" fill="#906254"/>
<path d="M117.994 370.838C129.294 375.332 135.539 383.534 139.856 389.358C151.417 404.953 153.886 421.031 154.514 426.22C155.356 433.203 153.369 445.527 149.358 469.892C145.319 494.438 143.977 498.684 143.396 503.565C143.11 505.979 143.071 507.779 143.039 508.527C142.557 518.639 141.997 530.372 138.671 539.116C138.25 540.225 131.225 558.256 123.153 557.842C111.378 557.239 89.569 534.88 81.1123 498.411C81.1123 498.411 65.9795 453.832 79.5423 399.367C84.074 381.173 89.6297 371.419 98.3612 368.509C105.844 366.003 113.783 369.161 117.994 370.838Z" fill="white"/>
<path d="M218.432 414.939C210.39 407.498 215.342 389.232 229.493 374.142C243.645 359.052 261.635 352.851 269.677 360.293C277.719 367.734 272.767 386 258.616 401.09C244.464 416.18 226.474 422.38 218.432 414.939Z" fill="#906254"/>
<path opacity="0.58" d="M197.408 193.935C188.995 194.81 180.512 194.81 172.099 193.935V148.754H197.408V193.935Z" fill="#A17162"/>
<path d="M229.495 374.169L229.266 374.421L237.698 415.956C240.482 414.846 243.156 413.481 245.684 411.876C248.739 408.358 251.524 404.618 254.015 400.686C254.247 400.331 254.469 399.956 254.693 399.591L246.843 360.927C241.009 363.83 234.968 368.325 229.495 374.169Z" fill="#906254"/>
<path d="M253.454 370.838C242.153 375.332 235.909 383.534 231.591 389.358C220.03 404.953 217.561 421.031 216.933 426.22C216.091 433.203 218.079 445.527 222.089 469.892C226.129 494.438 227.47 498.684 228.048 503.565C228.337 505.979 228.377 507.779 228.405 508.527C228.887 518.639 229.447 530.372 232.773 539.116C233.194 540.225 240.219 558.256 248.291 557.842C260.066 557.239 281.875 534.88 290.332 498.411C290.332 498.411 305.465 453.832 291.902 399.367C287.37 381.173 281.814 371.419 273.083 368.509C265.604 366.003 257.665 369.161 253.454 370.838Z" fill="white"/>
<path d="M184.752 194.598C154.331 194.598 129.669 183.674 129.669 170.198C129.669 156.722 154.331 145.798 184.752 145.798C215.174 145.798 239.835 156.722 239.835 170.198C239.835 183.674 215.174 194.598 184.752 194.598Z" fill="#906254"/>
<path d="M184.753 186.566C139.736 186.566 103.244 150.316 103.244 105.599C103.244 60.8824 139.736 24.6323 184.753 24.6323C229.769 24.6323 266.262 60.8824 266.262 105.599C266.262 150.316 229.769 186.566 184.753 186.566Z" fill="white"/>
<path d="M120.253 102.108L113.02 81.1954L151.828 66.8083C155.734 76.2603 159.643 85.7229 163.554 95.1962L169.819 98.0318L151.482 135.026L112.589 116.701L120.253 102.108Z" fill="#906254"/>
<path d="M151.821 66.7769L271.298 67.3569L270.962 135.57L151.485 134.99L151.821 66.7769Z" fill="#A17162"/>
<path d="M112.089 131.007C101.146 131.007 92.2746 116.772 92.2746 99.2126C92.2746 81.6532 101.146 67.4185 112.089 67.4185C123.032 67.4185 131.903 81.6532 131.903 99.2126C131.903 116.772 123.032 131.007 112.089 131.007Z" fill="#FFAA7B"/>
<path d="M110.315 131.01C99.6259 131.01 90.9608 117.105 90.9608 99.9531C90.9608 82.8009 99.6259 68.8962 110.315 68.8962C121.004 68.8962 129.669 82.8009 129.669 99.9531C129.669 117.105 121.004 131.01 110.315 131.01Z" fill="#F9F6F4"/>
<path d="M110.41 178.39C107.124 177.734 103.749 177.649 100.434 178.14C90.8886 180.734 74.6335 186.971 62.7024 202.617C57.9479 208.878 54.3724 215.942 52.1484 223.467C51.9924 225.977 52.2776 228.403 53.4425 230.135C55.0216 220.529 58.9211 211.446 64.807 203.664C74.5114 190.957 86.7631 185.797 93.3695 183.11C98.8459 180.885 104.565 179.301 110.41 178.39Z" fill="#FFAA7B"/>
<path d="M63.2747 240.704C57.533 243.54 52.8715 248.148 49.9892 253.838C43.2536 266.756 37.1296 290.735 33.8143 303.065C30.1888 316.512 28.6149 320.838 28.5089 329.2C28.4443 334.334 28.9411 339.461 29.9907 344.49C30.0613 344.525 30.1238 344.566 30.1949 344.598C30.6981 344.834 31.247 344.959 31.8036 344.965C31.2045 342.073 30.7678 339.15 30.4958 336.21C29.327 323.601 31.6365 315.309 40.7906 286.139C48.2794 262.27 50.9014 254.531 59.2759 246.952C61.2243 245.192 63.3116 243.59 65.5179 242.161C64.7969 241.636 64.0481 241.149 63.2747 240.704Z" fill="#FFAA7B"/>
<path d="M252.566 556.824C256.927 549.181 260.878 541.315 264.402 533.257C272.373 515.006 285.758 484.382 284.498 444.524C283.46 411.656 272.866 385.253 263.574 367.846C265.109 367.617 266.663 367.538 268.213 367.612C275.156 380.701 280.376 394.622 283.745 409.033C298.375 472.04 272.891 527.387 256.984 554.52C255.59 555.428 254.11 556.2 252.566 556.824Z" fill="#FFAA7B"/>
<path d="M117.666 556.824C113.308 549.181 109.358 541.314 105.834 533.257C97.8588 515.006 84.4779 484.382 85.7339 444.524C86.7759 411.656 97.3664 385.253 106.662 367.846C105.127 367.617 103.573 367.538 102.023 367.612C95.0781 380.7 89.8577 394.621 86.4904 409.033C71.8607 472.04 97.345 527.387 113.231 554.52C114.631 555.429 116.116 556.201 117.666 556.824Z" fill="#FFAA7B"/>
<path d="M205.616 301.652C183.834 301.652 166.176 284.775 166.176 263.957C166.176 243.138 183.834 226.261 205.616 226.261C227.398 226.261 245.056 243.138 245.056 263.957C245.056 284.775 227.398 301.652 205.616 301.652Z" fill="white" stroke="#FFAA7B" stroke-width="4" stroke-miterlimit="10"/>
<path d="M190.579 254.847C192.556 258.569 195.892 263.648 200.642 270.089V279.545C200.642 282.409 202.394 284.018 205.616 284.018C208.838 284.018 210.651 282.409 210.651 279.545V270.035C215.625 263.244 218.961 258.165 220.642 254.847C221.266 253.688 221.548 252.784 221.548 252.182C221.548 250.218 219.286 248.308 216.345 248.308C214.254 248.308 212.952 249.463 211.878 251.93C211.012 253.831 210.03 255.677 208.938 257.459C207.94 259.288 206.825 261.052 205.601 262.741C204.756 261.585 203.625 259.824 202.269 257.513C201.187 255.706 200.206 253.843 199.328 251.93C198.258 249.449 196.952 248.308 194.861 248.308C191.921 248.308 189.659 250.218 189.659 252.182C189.673 252.774 189.955 253.688 190.579 254.847Z" fill="#FFAA7B"/>
<path d="M509.775 263.007C505.403 264.114 501.32 266.141 497.804 268.951C483.506 280.591 484.48 302.836 484.405 311.991C484.234 333.464 480.905 364.45 467.017 406.846L486.4 406.279C494.193 358.527 501.985 310.77 509.775 263.007Z" fill="#FF9C66"/>
<path d="M508.918 264.988C505.25 266.814 501.962 269.312 499.227 272.35C493.821 278.376 492.212 284.94 491.245 289.055C490.128 293.819 490.025 298.271 489.818 307.178C489.703 312.194 489.893 313.161 489.625 316.837C489.086 324.327 487.523 329.792 487.252 331.245C485.268 341.84 482.613 361.189 479.555 399.484L564.786 397.786C560.362 377.997 557.771 361.799 556.222 350.783C554.535 338.731 550.442 306.636 541.4 285.943C538.53 279.34 534.363 273.372 529.143 268.387C525.88 265.224 522.243 262.466 518.31 260.175C517.707 262.362 516.843 265.378 515.744 268.951C512.661 278.985 511.527 280.935 509.475 282.261C506.556 284.143 502.014 284.281 501.207 282.828C499.748 280.194 511.316 273.74 509.771 266.97C509.606 266.264 509.318 265.594 508.918 264.988Z" fill="#FFBF75"/>
<path d="M535.356 404.326C540.091 404.556 542.674 404.68 544.233 404.01C549.029 401.951 548.39 390.541 545.186 356.44C544.473 348.695 543.723 339.192 542.731 326.312C542.406 322.118 542.146 317.213 542.018 311.07C541.814 301.38 542.046 293.426 542.274 288.205C540.052 282.578 536.974 277.323 533.147 272.623C531.071 270.074 528.783 267.702 526.307 265.534C525.95 270.436 525.236 280.166 524.255 292.472C522.114 319.605 522.592 346.88 521.4 374.067C521.211 378.391 520.219 400.693 527.745 403.365C529.618 404.046 534.207 404.269 535.356 404.326Z" fill="#FF9C66"/>
<path d="M500.421 284.504C497.586 281.907 499.156 275.635 503.928 270.494C508.7 265.354 514.867 263.292 517.702 265.889C520.538 268.486 518.967 274.758 514.195 279.899C509.424 285.039 503.257 287.101 500.421 284.504Z" fill="#FFE2E2"/>
<path d="M519.181 268.951C520.123 261.655 518.513 254.258 514.621 248L499.227 252.813C501.951 254.606 504.269 256.941 506.036 259.671C507.803 262.401 508.979 265.466 509.49 268.671" fill="#FFE2E2"/>
<path d="M462.774 157.657C462.774 158.501 465.961 159.018 473.197 163.747C475.648 165.349 477.507 166.731 477.268 167.415C476.715 168.993 465.8 164.094 462.678 167.731C461.004 169.684 462.514 174.912 465.532 185.372C466.362 188.557 466.684 191.852 466.485 195.137C466.413 196.399 465.891 198.481 465.668 198.926C465.444 199.37 465.183 200.037 463.094 201.963C461.006 203.89 455.805 204.468 455.478 207.521C455.151 210.573 456.385 211.109 457.258 211.859C458.131 212.609 461.536 213.295 461.536 213.295C463.081 223.231 461.536 220.724 461.536 231.139C461.536 241.553 465.513 246.403 469.249 249.601C472.985 252.8 481.283 256.722 489.953 257.194C496.34 257.548 509.6 258.257 521.318 249.601C524.939 246.912 528.062 243.619 530.549 239.868C537.789 243.767 545.967 243.533 551.163 239.237C554.224 236.707 557.907 231.4 556.262 226.158C554.581 220.799 548.412 218.952 547.066 218.545C542.784 217.247 539.106 218.236 537.571 218.669C535.099 219.375 532.801 220.582 530.82 222.213C533.799 220.775 536.417 218.694 538.485 216.124C549.286 202.396 542.592 173.863 524.997 159.185C500.355 138.62 462.82 154.432 462.774 157.657Z" fill="#FFE2E2"/>
<path d="M562.631 204.984C561.467 204.059 566.32 188.888 577.535 186.396C586.099 184.496 593.21 191.125 593.435 191.341C593.541 191.427 593.628 191.535 593.69 191.658C593.751 191.78 593.786 191.913 593.792 192.05C593.756 192.546 593.078 192.876 592.779 193.007H592.757C591.79 193.163 589.271 191.749 589.271 191.749C589.271 191.749 588.914 191.557 587.648 190.905C586.13 190.278 584.547 189.821 582.927 189.544C579.041 188.892 575.658 190.862 574.681 191.433C571.795 193.148 569.48 195.668 568.022 198.678C567.144 200.546 566.545 202.857 564.215 204.349C563.608 204.743 562.898 205.196 562.631 204.984Z" fill="#FF697A"/>
<path d="M562.945 204.275C564.479 202.148 569.592 195.651 578.488 193.879C583.808 192.815 592.993 192.95 597.2 198.603C598.384 200.198 599.865 203.158 598.784 204.59C597.164 206.717 591.226 203.544 584.511 202.701C579.276 202.038 571.758 202.573 561.995 208.057C566.349 205.66 572.572 203.25 580.072 203.328C584.126 203.371 593.671 203.47 596.882 209.315C598.017 211.381 597.952 213.387 597.831 215.932C597.756 217.815 597.417 226.243 592.122 229.791C585.374 234.318 574.573 228.235 569.603 224.12C565.6 220.75 562.54 216.409 560.722 211.519C564.197 222.04 569.367 225.591 572.14 226.956C575.226 228.48 582.691 232.159 588.315 232C588.953 231.978 591.291 231.861 591.804 232.942C592.161 233.701 591.49 234.768 591.169 235.147C588.771 238 578.78 235.066 571.822 230.738C569.121 229.058 562.734 224.964 559.772 217.191C559.379 216.165 559.06 215.111 558.82 214.04C559.697 217.744 561.478 222.593 565.478 226.644C574.177 235.448 587.726 234.796 587.997 239.56C588.108 241.52 585.903 242.945 585.778 243.023C581.478 245.724 573.671 240.131 570.238 237.667C565.11 233.995 556.679 227.952 556.283 218.453C556.199 215.976 556.63 213.508 557.549 211.204" fill="#FF697A"/>
<path d="M512.518 157.647C511.573 159.42 510.93 161.336 510.616 163.318C510.148 166.395 510.476 169.539 511.569 172.456C509.949 170.759 508.754 168.709 508.079 166.469C507.174 163.365 507.285 160.056 508.397 157.019C508.397 157.019 506.373 163.002 507.126 168.677C507.378 170.532 507.913 172.338 508.714 174.033C491.031 176.272 473.086 175.312 455.747 171.197C455.68 168.918 455.562 159.001 461.139 151.983C462.345 150.509 463.693 149.155 465.164 147.942C466.78 146.647 468.554 145.561 470.445 144.709C471.745 144.109 473.082 143.591 474.448 143.157C501.299 134.824 520.436 138.432 520.436 138.432C525.274 139.343 530.744 140.374 537.246 143.788C538.766 144.585 552.354 151.94 559.13 165.838C567.03 182.068 563.626 203.055 550.883 219.714C548.65 218.917 546.249 218.699 543.908 219.083C540.538 219.694 537.5 221.484 535.344 224.127C536.572 220.565 537.318 216.857 537.563 213.1C537.937 208.65 537.506 204.169 536.293 199.869C533.742 191.1 529.321 191.957 526.156 183.798C522.962 175.546 526.234 171.747 522.352 165.526C519.665 161.22 515.526 158.912 512.518 157.647Z" fill="#FF697A"/>
<path d="M488.877 183.602C489.113 184.051 492.195 181.625 496.309 182.126C500.613 182.652 503.075 186.013 503.498 185.573C503.857 185.204 502.384 182.527 499.779 181.14C498.023 180.244 496.008 179.983 494.079 180.402C490.974 181.018 488.67 183.204 488.877 183.602Z" fill="#FF697A"/>
<path d="M528.059 165.838C526.224 169.605 525.045 173.653 524.572 177.811C524.059 182.384 523.338 188.799 526.792 194.51C528.412 197.182 529.771 197.756 530.913 200.808C532.223 204.307 531.984 207.653 531.548 209.946C532.426 206.756 533.122 202.176 531.548 197.345C530.528 194.201 529.261 193.127 528.376 190.412C527.37 187.311 527.027 182.572 530.282 175.607" fill="#FF697A"/>
<path d="M561.679 199.865C562.749 200.184 563.199 201.283 563.263 201.439C563.395 201.765 563.706 202.718 562.632 205.221C561.654 207.489 561.122 207.348 559.777 209.946C558.881 211.668 558.739 212.459 557.872 212.781C557.432 212.93 556.959 212.949 556.51 212.837C556.06 212.725 555.652 212.487 555.335 212.15C554.849 211.58 554.803 210.775 555.652 207.741C557.315 201.808 558.632 200.826 559.142 200.493C559.652 200.159 560.626 199.546 561.679 199.865Z" fill="#7C4F4F"/>
<path d="M489.525 216.56C482.081 216.56 476.048 210.636 476.048 203.328C476.048 196.02 482.081 190.096 489.525 190.096C496.968 190.096 503.002 196.02 503.002 203.328C503.002 210.636 496.968 216.56 489.525 216.56Z" fill="white"/>
<mask id="mask2" mask-type="alpha" maskUnits="userSpaceOnUse" x="476" y="190" width="28" height="27">
<path d="M489.525 216.56C482.081 216.56 476.048 210.636 476.048 203.328C476.048 196.02 482.081 190.096 489.525 190.096C496.968 190.096 503.002 196.02 503.002 203.328C503.002 210.636 496.968 216.56 489.525 216.56Z" fill="white"/>
</mask>
<g mask="url(#mask2)">
<path d="M488.213 208.867C486.811 210.263 485.066 211.271 483.15 211.79C481.235 212.31 479.217 212.324 477.295 211.83C474.784 209.345 473.367 205.972 473.355 202.451C473.342 198.93 474.734 195.548 477.227 193.044C478.748 191.529 480.622 190.41 482.683 189.787C484.671 190.239 486.501 191.212 487.982 192.604C489.464 193.996 490.543 195.757 491.108 197.704C491.672 199.651 491.701 201.712 491.192 203.674C490.683 205.636 489.655 207.427 488.213 208.86V208.867Z" fill="#4F88DB"/>
</g>
<path d="M537.258 228.218C540.173 224.673 544.291 223.06 547.723 224.124C548.362 224.319 551.01 225.24 551.848 227.587C553.051 230.958 549.707 234.981 546.771 236.724C541.297 239.971 534.92 236.685 534.403 236.409C534.285 236.345 539.188 238.709 544.234 237.04C545.505 236.629 546.688 235.987 547.723 235.147C548.109 234.832 552.319 231.284 551.213 227.902C550.499 225.776 548.123 224.9 547.723 224.751C544.498 223.56 540.444 224.985 537.258 228.218Z" fill="#DF8383"/>
<path d="M541.065 229.792C541.746 228.445 543.174 227.842 544.233 228.218C545.575 228.693 545.828 230.554 545.504 231.684C545.054 233.233 543.238 234.357 541.065 234.205C543.206 234.049 544.844 232.872 545.186 231.369C545.379 230.511 545.265 229.047 544.233 228.533C543.299 228.065 541.864 228.512 541.065 229.792Z" fill="#DF8383"/>
</g>
<path d="M220.902 65.9116L190.802 65.7078L211.933 137.758L243.208 137.227L220.902 65.9116Z" fill="white" fill-opacity="0.1"/>
<path d="M228.196 62.6892L224.817 61.3796L247.025 136.195L250.502 136.639L228.196 62.6892Z" fill="white" fill-opacity="0.1"/>
<path fill-rule="evenodd" clip-rule="evenodd" d="M462.254 238.104C462.363 238.535 462.745 238.836 463.183 238.822C464.729 238.773 466.784 238.423 469.385 237.418C472.88 236.068 474.319 235.047 474.892 234.374C475.271 233.928 474.794 233.679 474.258 233.903C473.245 234.326 471.298 234.903 467.882 235.157C466.156 235.285 464.745 234.865 463.617 234.216C462.807 233.751 461.619 234.28 461.727 235.219C461.845 236.236 462.024 237.197 462.254 238.104Z" fill="white"/>
<path fill-rule="evenodd" clip-rule="evenodd" d="M462.821 239.55C464.581 239.498 466.889 239.112 469.786 238.02C473.62 236.575 475.308 235.446 476.031 234.614C476.18 234.443 476.315 234.213 476.315 233.941C476.315 233.636 476.148 233.401 475.937 233.267C475.569 233.035 475.082 233.084 474.704 233.238C473.663 233.662 471.594 234.267 467.901 234.531C466.131 234.658 464.695 234.236 463.548 233.591C462.992 233.278 462.338 233.269 461.8 233.469C461.811 233.895 461.816 234.144 461.849 234.552C461.906 234.483 461.973 234.432 462.185 234.388C462.551 234.388 462.733 234.402 462.999 234.552C464.323 235.297 465.976 235.777 467.981 235.634C471.19 235.404 473.253 234.92 474.521 234.486C473.691 235.101 472.164 235.942 469.391 236.987C466.598 238.04 464.411 238.397 462.788 238.445C462.665 238.449 462.478 238.445 462.478 238.445C462.478 238.445 462.69 239.152 462.821 239.55Z" fill="#FF697A"/>
<path d="M475.219 233.852C475.219 233.852 475.218 233.853 475.217 233.855M462.821 239.55C464.581 239.498 466.889 239.112 469.786 238.02C473.62 236.575 475.308 235.446 476.031 234.614C476.18 234.443 476.315 234.213 476.315 233.941C476.315 233.636 476.148 233.401 475.937 233.267C475.569 233.035 475.082 233.084 474.704 233.238C473.663 233.662 471.594 234.267 467.901 234.531C466.131 234.658 464.695 234.236 463.548 233.591C462.992 233.278 462.338 233.269 461.8 233.469C461.811 233.895 461.816 234.144 461.849 234.552C461.906 234.483 461.973 234.432 462.185 234.388C462.551 234.388 462.733 234.402 462.999 234.552C464.323 235.297 465.976 235.777 467.981 235.634C471.19 235.404 473.253 234.92 474.521 234.486C473.691 235.101 472.164 235.942 469.391 236.987C466.598 238.04 464.411 238.397 462.788 238.445C462.665 238.449 462.478 238.445 462.478 238.445C462.478 238.445 462.69 239.152 462.821 239.55Z" stroke="#FF697A"/>
</svg>
