<svg width="64" height="64" viewBox="0 0 64 64" fill="none" xmlns="http://www.w3.org/2000/svg">
    <path d="M14.8925 7.40811C27.1894 7.40811 35.6339 1.03833 41.5592 1.03833C47.4846 1.03833 59.929 4.44455 59.929 31.7032C59.929 58.9619 43.1877 62.9619 36.6703 62.9619C6.15122 62.9637 -6.88523 7.40811 14.8925 7.40811Z" fill="#FFA370"/>
    <path d="M10.1025 12.5391L11.3596 11.282L13.8738 13.7961L12.6167 15.0532L10.1025 12.5391Z" fill="white"/>
    <path d="M9.78711 21.0242L12.3013 18.51L13.5583 19.7671L11.0442 22.2812L9.78711 21.0242Z" fill="white"/>
    <path d="M31.5556 43.1111V44.0053C31.5556 46.4604 29.5662 48.4497 27.1111 48.4497V51.9999H12V37.8879C12 34.6453 13.4738 31.5804 16.0071 29.5555L20.1778 26.2222L31.5556 43.1111Z" fill="#F1987C"/>
    <path d="M48.4442 41.4578V13.7778C48.4442 12.7964 47.6478 12 46.6664 12H22.6664C21.6851 12 20.8887 12.7964 20.8887 13.7778V41.4578C20.8887 42.4391 21.6851 43.2356 22.6664 43.2356H46.6664C47.6478 43.2356 48.4442 42.4391 48.4442 41.4578Z" fill="white"/>
    <path d="M29.3688 30.2222C29.3688 31.3067 28.9599 32.3911 28.1243 33.2089L24.8888 36.4445C25.3154 37.3156 25.5288 38.24 25.5288 39.1645C25.5288 40.5689 25.0488 41.9378 24.1066 43.0578L21.3332 46.3823V52H12.4443V40.64L23.7154 30.1689L26.8977 27.2178C27.2532 26.8978 27.7866 26.8978 28.1243 27.2356C28.9599 28.0534 29.3688 29.1378 29.3688 30.2222Z" fill="#F1987C"/>
    <path d="M24.8887 29.9022V13.7778C24.8887 12.7964 25.6851 12 26.6664 12H22.6664C21.6851 12 20.8887 12.7964 20.8887 13.7778V31.68L24.8887 29.9022Z" fill="#FFFDFB"/>
    <path d="M29.1289 28.8586C28.9262 28.2648 28.6044 27.7048 28.1244 27.2355C27.7867 26.8977 27.2533 26.8977 26.8978 27.2177L23.7156 30.1688L20.0071 29.5555L21.5787 28.3004L20.1778 26.2222L16.0071 29.5555C13.4738 31.5804 12 34.6453 12 37.8879V51.9999H16V42.6577C16 41.6728 16.4089 40.7306 17.1289 40.0586L29.1289 28.8586Z" fill="#FFA370"/>
    <path d="M30.2183 30.7751L28.4814 28.7502L31.5748 26.0978C32.0281 25.7084 32.6877 25.6693 33.1819 26L34.9383 27.1715L40.3872 21.7227L42.2734 23.6089L36.0512 29.8311C35.6032 30.2791 34.8992 30.3502 34.3694 29.9982L32.5437 28.7804L30.2183 30.7751Z" fill="#664141"/>
    <path d="M42.6668 28.4444H40.0001V23.9999H35.5557V21.3333H41.3334C42.0694 21.3333 42.6668 21.9306 42.6668 22.6666V28.4444Z" fill="#664141"/>
    <path d="M23.7123 45.7175L21.6216 44.0606L23.0758 42.2259C24.3025 40.7522 24.5389 38.7273 23.6963 37.0401C23.4385 36.5264 23.5398 35.9059 23.9469 35.5006L27.1647 32.2828C28.1994 31.2481 28.2918 29.6233 27.4438 28.4819L18.2385 36.9779L16.4287 35.017L25.97 26.2099C26.85 25.3975 28.2012 25.4241 29.0492 26.2721C30.1034 27.3264 30.6829 28.7273 30.6829 30.2188C30.6829 31.7104 30.1016 33.1113 29.0492 34.1655L26.4625 36.7521C27.2963 39.1788 26.818 41.897 25.1452 43.9024L23.7123 45.7175Z" fill="#664141"/>
    <path d="M27.1105 53.3333H11.9993C11.2633 53.3333 10.666 52.7359 10.666 51.9999V37.8879C10.666 34.2204 12.3087 30.8053 15.1745 28.5137L20.3869 24.3484L22.0527 26.4319L16.8402 30.5973C14.6109 32.3786 13.3327 35.0364 13.3327 37.8879V50.6666H25.7771V48.4479C25.7771 47.7119 26.3745 47.1146 27.1105 47.1146C28.826 47.1146 30.2216 45.7191 30.2216 44.0035V41.7777H32.8882V44.0035C32.8882 46.7306 30.9896 49.0222 28.4438 49.6266V51.9999C28.4438 52.7359 27.8465 53.3333 27.1105 53.3333Z" fill="#664141"/>
    <path d="M46.6668 44.4445H24.4446V41.7779H46.6668C46.9086 41.7779 47.1112 41.5752 47.1112 41.3334V13.7779C47.1112 13.5361 46.9086 13.3334 46.6668 13.3334H22.6668C22.425 13.3334 22.2223 13.5361 22.2223 13.7779V32.889H19.5557V13.7779C19.5557 12.0623 20.9512 10.6667 22.6668 10.6667H46.6668C48.3823 10.6667 49.7779 12.0623 49.7779 13.7779V41.3334C49.7779 43.049 48.3823 44.4445 46.6668 44.4445Z" fill="#664141"/>
    <path d="M3.55566 50.6667H60.4446V53.3334H3.55566V50.6667Z" fill="#664141"/>
    </svg>
