<svg width="64" height="64" viewBox="0 0 64 64" fill="none" xmlns="http://www.w3.org/2000/svg">
    <path d="M49.1077 56.5919C36.8108 56.5919 28.3664 62.9617 22.4411 62.9617C16.5157 62.9617 4.07129 59.5555 4.07129 32.2968C4.07129 5.03815 20.8126 1.03638 27.33 1.03638C57.8491 1.03638 70.8855 56.5919 49.1077 56.5919Z" fill="#FFA370"/>
    <path d="M15.0264 9.3335H16.8041V12.8891H15.0264V9.3335Z" fill="white"/>
    <path d="M9.24805 14.6667H12.8036V16.4445H9.24805V14.6667Z" fill="white"/>
    <path d="M48.4446 43.1111V22.6667C48.4446 21.6854 47.6481 20.8889 46.6668 20.8889H17.3334C16.3521 20.8889 15.5557 21.6854 15.5557 22.6667V43.1111H48.4446Z" fill="white"/>
    <path d="M21.3334 20.8889H17.3334C16.3521 20.8889 15.5557 21.6854 15.5557 22.6667V43.1111H19.5557V22.6667C19.5557 21.6854 20.3521 20.8889 21.3334 20.8889Z" fill="#FFFDFB"/>
    <path d="M3.55566 41.7778H60.4446V44.4445H3.55566V41.7778Z" fill="#664141"/>
    <path d="M49.7778 43.111H47.1111V22.6665C47.1111 22.4212 46.912 22.2221 46.6667 22.2221H44V19.5554H46.6667C48.3822 19.5554 49.7778 20.951 49.7778 22.6665V43.111Z" fill="#664141"/>
    <path d="M16.8883 43.111H14.2217V22.6665C14.2217 20.951 15.6172 19.5554 17.3328 19.5554H19.9995V22.2221H17.3328C17.0875 22.2221 16.8883 22.4212 16.8883 22.6665V43.111Z" fill="#664141"/>
    <path d="M35.1113 15.6924H39.1113V30.8035H35.1113V15.6924Z" fill="#FFBF75"/>
    <path d="M24.4443 22.8035H28.4443V30.8035H24.4443V22.8035Z" fill="#FFBF75"/>
    <path d="M39.5561 32.1367H35.1117C34.3757 32.1367 33.7783 31.5393 33.7783 30.8033V15.6922C33.7783 14.9562 34.3757 14.3589 35.1117 14.3589H39.5561C40.2921 14.3589 40.8894 14.9562 40.8894 15.6922V30.8033C40.8894 31.5393 40.2921 32.1367 39.5561 32.1367ZM36.445 29.47H38.2228V17.0256H36.445V29.47Z" fill="#664141"/>
    <path d="M28.8891 32.1369H24.4447C23.7087 32.1369 23.1113 31.5395 23.1113 30.8035V22.8035C23.1113 22.0675 23.7087 21.4702 24.4447 21.4702H28.8891C29.6251 21.4702 30.2224 22.0675 30.2224 22.8035V30.8035C30.2224 31.5395 29.6251 32.1369 28.8891 32.1369ZM25.778 29.4702H27.5558V24.1369H25.778V29.4702Z" fill="#664141"/>
    <path d="M21.334 29.4702H42.6673V32.1369H21.334V29.4702Z" fill="#664141"/>
    </svg>
