<svg width="871" height="839" viewBox="0 0 871 839" fill="none" xmlns="http://www.w3.org/2000/svg">
<path fill-rule="evenodd" clip-rule="evenodd" d="M150.094 261.006C210.829 195.647 378.354 260.514 454.706 247.93C502.355 240.076 566.115 202.105 614.995 202.137C663.876 202.168 730.872 239.015 753.742 297.868C781.471 369.227 794.468 464.286 746.595 540.793C699.314 616.353 620.127 622.52 544.835 645.307C479.287 665.144 296.912 670.045 241.091 645.397C180.467 618.628 132.72 582.394 116.561 510.155C99.0686 431.952 88.8158 326.95 150.094 261.006Z" fill="#FFBF75"/>
<mask id="mask0" mask-type="alpha" maskUnits="userSpaceOnUse" x="103" y="202" width="676" height="461">
<path fill-rule="evenodd" clip-rule="evenodd" d="M150.094 261.006C210.829 195.647 378.354 260.514 454.706 247.93C502.355 240.076 566.115 202.105 614.995 202.137C663.876 202.168 730.872 239.015 753.742 297.868C781.471 369.227 794.468 464.286 746.595 540.793C699.314 616.353 620.127 622.52 544.835 645.307C479.287 665.144 296.912 670.045 241.091 645.397C180.467 618.628 132.72 582.394 116.561 510.155C99.0686 431.952 88.8158 326.95 150.094 261.006Z" fill="#C4C4C4"/>
</mask>
<g mask="url(#mask0)">
<path d="M337.708 461.983C339.025 461.116 352.528 452.431 359.977 459.116C365.365 463.953 365.867 475.29 359.654 485.848C360.453 485.566 374.39 480.877 383 489.524C391.196 497.762 391.238 514.744 380.998 527.992C348.168 535.32 323.229 520.799 320.116 501.466C318.058 488.695 324.988 470.394 337.708 461.983Z" fill="#FF9C66"/>
<path d="M345.628 349.687C347.291 348.594 355.237 343.828 356.801 336.228C358.243 329.213 353.685 322.571 349.898 319.286C343.986 314.157 336.907 314.565 334.806 314.776C334.586 309.587 333.191 291.247 319.669 279.451C304.424 266.158 278.176 265.01 262.082 281.026C253.276 289.795 250.246 300.978 249.118 306.665C237.45 305.841 226.475 312.86 222.301 323.041C218.527 332.243 221.686 340.642 222.401 342.415C218.88 343.132 209.438 345.582 201.524 354.518C187.004 370.923 191.806 393.167 192.021 394.106C182.202 396.491 173.743 403.915 170.191 413.578C165.54 426.263 170.044 440.921 181.575 447.668C177.599 448.111 173.857 450.355 172.114 453.81C169.5 458.994 171.515 466.655 178.001 469.771C173.137 471.718 169.218 475.875 168.083 480.716C166.443 487.683 170.711 495.416 178.665 497.123C177.181 498.009 169.775 502.567 167.769 510.638C165.363 520.312 171.526 531.688 183.69 535.109L268.094 493.289L300.245 471.693C320.366 384.911 335.127 356.6 345.628 349.687Z" fill="#FF9C66"/>
<path d="M356.482 367.468C359.524 369.76 360.433 372.518 364.154 393.599C372.412 440.304 371.651 447.339 367.781 454.52C360.868 467.352 348.46 472.369 347.739 472.647C339.121 475.991 331.822 474.625 328.546 473.757C328.026 477.409 328.118 481.061 328.819 484.53C330.029 490.259 346.368 489.612 350.378 493.299C348.635 504.204 330.823 515.429 328.074 518.167C310.12 536.053 267.816 522.107 264.567 500.416C264.136 497.244 263.579 492.983 264.574 489.789C267.378 491.038 270.475 485.229 273.626 484.545C282.195 482.505 288.005 479.914 290.247 475.496C298.304 459.617 294.252 443.38 292.899 438.62C290.997 438.733 282.512 439.002 276.825 432.21C272.603 427.168 269.349 417.548 273.674 410.416C275.872 406.789 279.171 405.222 280.443 404.707C286.525 402.251 293.597 404.803 298.254 411.283C297.512 407.027 297.715 402.53 298.848 398.149C305.293 374.252 342.234 356.746 356.482 367.468Z" fill="#D99066"/>
<path d="M469.979 560.404C471.747 557.468 474.271 553.088 476.978 547.601C480.282 540.916 482.456 535.438 487.682 521.195C495.542 499.787 497.937 492.254 501.007 492.149C502.908 492.087 504.093 494.902 504.307 495.358C506.2 499.797 501.265 509.986 501.265 509.986C499.068 514.562 496.288 520.737 492.949 529.155C502.88 525.258 511.28 525.356 513.597 529.746C515.663 533.661 512.37 540.007 507.742 548.69C502.846 557.857 496.868 566.354 489.985 573.928L469.979 560.404Z" fill="#D99066"/>
<path d="M496.577 517.145C494.22 517.552 493.471 519.318 485.724 530.22C482.229 535.138 481.063 536.634 480.926 539.167C480.752 542.436 482.362 546.222 484.911 546.595C485.308 546.633 486.779 546.772 490.236 543.573C495.738 538.478 495.037 535.351 501.396 525.829C502.487 524.195 503.456 522.875 503.271 521.309C502.981 518.746 499.62 516.626 496.577 517.145Z" fill="#DD876A"/>
<path d="M502.476 520.536C500.12 520.937 499.366 522.702 491.624 533.606C488.124 538.523 486.962 540.024 486.826 542.552C486.651 545.827 488.256 549.613 490.806 549.981C491.208 550.019 492.674 550.158 496.135 546.964C501.637 541.869 500.936 538.742 507.295 529.219C508.383 527.58 509.355 526.265 509.175 524.673C508.838 522.132 505.495 520.019 502.476 520.536Z" fill="#D99066"/>
<path d="M507.191 523.994C505 524.369 504.301 526.014 497.099 536.16C493.845 540.738 492.765 542.127 492.637 544.482C492.474 547.527 493.969 551.05 496.34 551.39C496.709 551.425 498.077 551.555 501.293 548.585C506.423 543.822 505.773 540.936 511.67 532.079C512.684 530.558 513.591 529.316 513.417 527.877C513.155 525.474 510.005 523.5 507.191 523.994Z" fill="#DD876A"/>
<path d="M511.38 527.935C509.19 528.309 508.486 529.954 501.284 540.1C498.035 544.678 496.95 546.066 496.826 548.422C496.659 551.467 498.155 554.984 500.529 555.33C500.898 555.365 502.262 555.495 505.479 552.519C510.609 547.757 509.958 544.876 515.86 536.019C516.874 534.498 517.782 533.251 517.603 531.812C517.315 529.422 514.188 527.451 511.38 527.935Z" fill="#D99066"/>
<path d="M485.571 555.725C481.747 557.064 477.102 549.062 476.644 548.179C476.569 548.055 476.513 547.916 476.479 547.769C476.248 546.552 478.164 544.742 480.492 537.775C481.712 534.126 482.485 531.409 484.878 528.735C485.804 527.629 486.906 526.711 488.119 526.032C491.481 524.234 494.771 525.175 497.535 526.057C498.158 526.254 508.252 529.48 507.578 533.446C507.211 535.471 504.242 536.767 503.784 536.957C498.396 539.305 493.771 534.751 491.577 537.098C490.888 537.838 490.732 539.597 490.731 539.601C490.73 539.606 490.221 554.093 485.571 555.725Z" fill="#D99066"/>
<path d="M348.225 350.356C349.301 350.273 355.772 349.671 359.267 344.453C364.085 337.262 358.844 327.869 358.354 327.021C352.288 316.509 337.216 316.885 331.166 317.036C310.228 317.55 275.676 329.975 263.594 362.241C257.073 379.655 259.909 395.355 262.04 403.232C262.709 406.864 264.534 410.006 267.219 412.143C269.347 409.67 272.042 407.853 274.964 406.922C280.56 405.207 284.905 407.627 286.46 408.496C288.791 409.807 290.77 411.684 292.259 413.997C292.879 413.698 297.829 411.218 299.732 405.281C301.772 398.915 298.519 394.174 298.204 393.738C305.899 399.748 315.906 397.416 319.941 391.317C323.926 385.297 320.891 377.43 320.726 377.017C338.242 385.936 354.646 383.669 360.017 375.252C362.877 370.782 363.798 362.72 360.173 356.928C356.336 350.809 349.386 350.4 348.225 350.356Z" fill="#FF9C66"/>
<path d="M274.206 483.674C253.909 488.07 219.54 501.035 212.187 506.495C199.594 515.865 190.887 530.398 188.197 534.894C185.73 539.019 161.534 584.256 153.688 603.508C147.158 619.532 145.585 627.615 144.961 631.329C143.639 639.361 143.254 647.429 143.815 655.34C144.777 673.132 145.593 696.563 146.519 726.441L190.237 731.046C186.259 712.652 184.327 693.588 184.479 674.23C184.554 664.841 184.654 652.072 187.237 638.814C189.689 626.221 197.613 596.576 228.783 564.328C215.236 590.84 207.157 619.673 205.158 648.647C203.158 677.621 207.29 705.977 217.241 731.57L393.823 741.303C380.862 717.717 365.526 696.409 363.343 682.971C361.161 669.533 353.49 610.749 361.305 582.365C361.876 598.417 367.354 670.643 373.951 684.34C380.548 698.037 385.574 716.514 400.475 721.165C415.376 725.816 419.084 720.915 423.987 715.818C431.176 708.383 458.69 658.039 487.042 602.942C487.887 601.298 490.978 594.875 494.694 586.275C497.181 580.519 499.349 574.677 503.684 563C505.859 557.144 506.06 556.445 506.023 555.18C505.854 549.461 501.219 548.047 491.553 538.748C484.636 532.07 482.836 528.806 479.44 529.572C475.885 530.379 473.577 534.946 472.585 536.969C449.995 582.95 446.729 590.818 446.729 590.818C446.729 590.818 443.744 598.578 426.181 628.082C425.409 629.376 423.432 632.623 421.219 632.641C418.592 632.666 417.041 628.134 416.409 626.251C403.784 587.673 402.358 569.069 402.358 569.069C395.626 532.189 388.516 510.715 388.516 510.715C387.575 509.015 386.439 507.463 385.13 506.091C383.617 504.532 377.555 498.733 348.966 491.709C348.401 494.671 347.078 499.275 343.651 503.269C336.969 511.054 326.99 511.067 319.727 511.074C316.796 511.08 301.357 510.857 287.019 498.96C281.938 494.728 277.613 489.567 274.206 483.674Z" fill="#AE6B55"/>
<path d="M330.786 418.427C333.181 418.294 335.303 414.867 335.526 410.773C335.748 406.679 333.987 403.468 331.592 403.601C329.197 403.734 327.075 407.16 326.853 411.255C326.63 415.349 328.391 418.56 330.786 418.427Z" fill="white"/>
<path d="M357.664 407.894C359.376 407.799 360.892 405.352 361.051 402.428C361.21 399.505 359.951 397.212 358.24 397.307C356.528 397.402 355.012 399.849 354.853 402.772C354.694 405.696 355.953 407.989 357.664 407.894Z" fill="white"/>
<path d="M331.641 403.366L331.497 403.391C330.698 404.935 330.245 406.634 330.181 408.331C329.974 412.303 331.589 415.418 333.786 415.288C334.065 415.27 334.346 415.202 334.615 415.086C335.143 413.719 335.449 412.285 335.517 410.855C335.738 406.583 334.002 403.247 331.641 403.366Z" fill="#895F51"/>
<path d="M361.037 402.477C361.199 399.41 359.951 397.009 358.245 397.11C357.974 397.127 357.703 397.208 357.451 397.347C356.99 398.36 356.728 399.447 356.682 400.531C356.537 403.38 357.697 405.612 359.278 405.519C359.761 405.476 360.234 405.248 360.611 404.875C360.854 404.089 360.997 403.282 361.037 402.477Z" fill="#895F51"/>
<path d="M341.209 442.525C341.489 442.239 344.683 447.436 349.878 447.164C354.965 446.883 358.647 441.497 358.987 441.835C359.327 442.172 355.846 449.173 350.283 449.753C344.163 450.433 340.895 442.847 341.209 442.525Z" fill="#895F51"/>
<path d="M350.565 410.782C350.789 410.729 350.752 413.686 352.006 416.263C352.796 418.029 353.989 419.518 355.485 420.604C358.333 422.569 360.837 421.679 361.114 423.141C361.362 424.418 359.885 426.123 358.608 426.913C358.608 426.913 356.75 428.12 353.919 427.253C353.897 427.251 353.685 427.182 353.697 427.119C353.737 426.897 356.619 427.803 358.727 426.255C359.46 425.719 360.547 424.617 360.401 423.742C360.228 422.718 358.549 423.032 356.445 422.032C353.524 420.646 352.202 417.875 351.406 416.207C350.745 414.758 350.417 413.128 350.446 411.44C350.45 410.899 350.523 410.788 350.565 410.782Z" fill="#895F51"/>
<path d="M284.677 427.454C284.648 427.495 280.847 425.547 280.594 421.753C280.493 420.225 280.946 418.061 282.327 416.855C283.352 415.954 284.644 415.836 284.674 415.96C284.704 416.085 283.008 416.431 281.988 417.89C280.715 419.708 281.252 422.239 281.342 422.679C282.06 425.95 284.704 427.423 284.677 427.454Z" fill="#895F51"/>
<path d="M282.53 412.669C280.948 410.697 278.935 409.88 277.411 410.593C275.887 411.306 275.28 413.413 274.997 414.42C273.404 420.147 277.092 425.203 277.343 425.54C280.59 429.864 285.945 431.369 285.965 431.337C285.984 431.304 285.878 431.275 285.297 430.921C284.821 430.631 284.102 430.157 283.091 429.405C280.086 427.161 277.662 425.301 276.497 422.242C275.261 418.991 275.206 413.681 277.628 412.102C279.419 410.944 281.807 412.243 282.53 412.669Z" fill="#895F51"/>
<path d="M351.694 394.948C351.842 395.078 353.251 392.37 356.048 391.307C358.845 390.244 361.067 391.491 361.133 391.279C361.199 391.068 358.557 389.209 355.775 390.269C352.992 391.328 351.531 394.806 351.694 394.948Z" fill="#895F51"/>
<path d="M320.42 403.557C320.631 403.744 322.63 399.896 326.602 398.386C330.489 396.914 333.726 398.646 333.821 398.351C333.916 398.056 330.166 395.41 326.231 396.918C322.296 398.427 320.202 403.359 320.42 403.557Z" fill="#895F51"/>
</g>
<path d="M630.2 408.646C677.883 414.783 721.535 381.441 727.701 334.174C733.867 286.907 700.211 243.615 652.528 237.477C604.846 231.34 561.193 264.682 555.027 311.949C548.862 359.215 582.518 402.508 630.2 408.646Z" fill="white"/>
<path d="M710.099 317.215L717.11 294.702L675.191 280.644C671.335 290.851 667.487 301.061 663.646 311.274L657.053 314.505C663.993 327.438 670.937 340.371 677.885 353.303L718.776 332.497L710.099 317.215Z" fill="#906254"/>
<path d="M675.192 280.658L547.667 285.209L548.845 354.797L677.869 353.324L675.192 280.658Z" fill="#A17162"/>
<path d="M719.798 347.778C731.479 347.418 740.465 331.96 739.868 313.252C739.271 294.544 729.317 279.67 717.636 280.03C705.955 280.39 696.969 295.848 697.566 314.556C698.163 333.265 708.117 348.138 719.798 347.778Z" fill="#FFAA7B"/>
<path d="M721.691 347.718C733.1 347.367 741.877 332.268 741.294 313.996C740.711 295.723 730.989 281.196 719.579 281.547C708.169 281.899 699.393 296.997 699.976 315.27C700.559 333.543 710.281 348.07 721.691 347.718Z" fill="#E5E5E5"/>
<g opacity="0.03">
<path opacity="0.03" d="M564.784 358.665L585.331 356.833L606.146 281.803L585.456 283.652L564.784 358.665Z" fill="#FFDA7D"/>
<path opacity="0.03" d="M592.946 356.804L595.353 356.57L613.414 282.396L611.007 282.634L592.946 356.804Z" fill="#FFDA7D"/>
</g>
<path d="M723.229 233.022C723.209 232.406 722.689 231.922 722.067 231.941C721.445 231.96 720.957 232.475 720.977 233.092L723.316 306.383C723.336 307 723.856 307.484 724.477 307.465C725.099 307.446 725.587 306.93 725.568 306.314L723.229 233.022Z" fill="#906254"/>
<path d="M724.356 315.414C726.843 315.337 728.755 311.999 728.626 307.957C728.497 303.916 726.376 300.701 723.889 300.778C721.402 300.855 719.49 304.193 719.619 308.235C719.748 312.277 721.869 315.491 724.356 315.414Z" fill="#906254"/>
<path d="M606.5 376.981C606.288 378.166 617.714 383.022 631.092 382.924C651.557 382.773 667.621 371.112 667.113 369.894C666.696 368.883 655.212 375.366 635.416 377.205C618.29 378.784 606.712 375.792 606.5 376.981Z" fill="#FF9C66"/>
<path d="M587.988 282.135L622.294 281.364L599.439 355.938L563.782 355.975L587.988 282.135Z" fill="white" fill-opacity="0.1"/>
<path d="M630.062 278.127L633.891 276.716L609.856 354.158L605.9 354.679L630.062 278.127Z" fill="white" fill-opacity="0.1"/>
<g filter="url(#filter0_d)">
<path d="M609.421 439.114C565.551 459.484 513.6 464.037 472.134 443.062C473.006 397.662 473.676 355.01 474.095 315.754C517.965 295.389 569.916 290.831 611.382 311.81C610.51 357.21 609.835 399.873 609.421 439.114Z" fill="#60FFF7" fill-opacity="0.22"/>
</g>
<path fill-rule="evenodd" clip-rule="evenodd" d="M543.54 325.677C548.808 324.785 558.554 325.901 565.358 335.406L565.366 335.418L565.366 335.418C573.554 347.06 573.965 361.13 570.379 370.265C568.492 375.155 565.752 377.799 563.049 380.408L562.869 380.582L562.69 380.754C559.924 383.43 557.082 386.297 554.584 391.972C551.07 400.104 550.868 408.229 551.201 413.668L551.284 415.028L549.982 415.459L549.947 415.47C549.932 415.475 549.917 415.48 549.902 415.484C550.068 415.604 550.197 415.763 550.289 415.971C550.439 416.3 550.474 416.67 550.387 417.022C549.897 418.948 545.64 419.509 541.295 419.408C539.63 419.403 537.968 419.256 536.329 418.969C534.391 418.588 533.004 417.916 532.781 416.869C532.713 416.49 532.777 416.101 532.963 415.764C533.076 415.546 533.224 415.383 533.407 415.265C533.31 415.238 533.216 415.208 533.127 415.176L531.833 414.709L531.958 413.347C532.458 407.893 532.49 399.764 529.144 391.803C526.774 386.321 523.989 383.549 521.269 381.071C521.035 380.857 520.799 380.644 520.563 380.431C518.023 378.139 515.399 375.771 513.589 371.58C509.958 363.25 510.48 352.698 518.833 340.981C523.279 334.608 528.86 330.7 533.596 328.435C535.963 327.302 538.135 326.572 539.872 326.148C540.74 325.937 541.514 325.797 542.164 325.724C542.624 325.673 543.105 325.644 543.54 325.677ZM562.441 337.457C556.51 329.176 548.095 328.429 543.929 329.214L543.597 329.276L543.265 329.214C543.268 329.215 543.266 329.215 543.258 329.214C543.215 329.212 543.003 329.202 542.565 329.251C542.095 329.304 541.473 329.412 540.724 329.595C539.229 329.96 537.291 330.606 535.146 331.632C530.857 333.685 525.797 337.227 521.765 343.01L521.76 343.018L521.754 343.025C514.004 353.891 513.805 363.144 516.869 370.172L516.871 370.178C518.365 373.638 520.448 375.524 523.011 377.844L523.013 377.846C523.233 378.045 523.457 378.248 523.684 378.455C526.587 381.1 529.779 384.273 532.431 390.411L532.434 390.419L532.438 390.427C535.779 398.372 536.022 406.374 535.645 412.052C536.003 412.091 536.411 412.129 536.862 412.163C537.487 412.211 538.178 412.252 538.907 412.285C539.265 402.817 539.435 394.681 539.496 388.233L539.496 388.232C539.55 383.008 539.549 378.913 539.399 375.717C538.467 375.933 537.535 376.053 536.636 376.089C534.917 376.157 533.227 375.922 531.791 375.381C530.383 374.85 529.03 373.949 528.313 372.554C527.668 371.301 527.647 369.865 527.902 368.637C528.161 367.392 528.744 366.151 529.576 365.188L529.578 365.186C530.676 363.919 532.142 363.226 533.564 362.933C533.977 362.072 534.559 361.323 535.181 360.706C536.281 359.613 537.648 358.786 538.909 358.338C538.96 358.319 539.012 358.301 539.063 358.284C539.237 357.98 539.45 357.778 539.555 357.684C539.807 357.458 540.093 357.282 540.35 357.149C540.875 356.875 541.529 356.648 542.221 356.502C543.55 356.22 545.459 356.147 547.08 357.106L547.088 357.11L547.095 357.114C548.588 358.016 549.403 359.516 549.845 361.143C550.285 362.763 550.413 364.71 550.382 366.83C550.331 370.233 549.855 374.442 549.332 379.056C549.206 380.175 549.076 381.318 548.95 382.479L548.95 382.48C548.136 389.9 547.193 400.049 546.507 412.322C546.891 412.304 547.242 412.283 547.555 412.259C547.35 406.591 547.822 398.619 551.303 390.566L551.308 390.556C554.079 384.257 557.305 381.009 560.197 378.211L560.483 377.935L560.483 377.935C563.196 375.314 565.442 373.144 567.045 368.99L567.049 368.98C570.221 360.904 569.915 348.087 562.441 337.457ZM542.925 412.383C542.777 412.382 542.629 412.381 542.479 412.38C542.837 402.895 543.008 394.74 543.069 388.267C543.128 382.496 543.126 377.935 542.905 374.401C544.235 373.678 545.463 372.705 546.47 371.446L546.477 371.437L546.483 371.429L546.485 371.426C546.499 371.408 546.521 371.38 546.55 371.342C546.361 373.532 546.088 375.948 545.792 378.565L545.792 378.569L545.79 378.582L545.79 378.585L545.789 378.591C545.661 379.722 545.529 380.89 545.398 382.094L545.398 382.096L545.398 382.097C544.572 389.622 543.616 399.924 542.925 412.383ZM539.193 359.127L538.806 359.091L538.805 359.095L538.805 359.1L539.196 359.135L539.193 359.127ZM533.087 366.851C533.485 368.716 534.694 370.405 536.128 371.563C536.536 371.893 536.985 372.198 537.464 372.462C537.14 372.503 536.816 372.53 536.494 372.543C535.17 372.595 533.971 372.406 533.058 372.062C532.117 371.708 531.662 371.265 531.496 370.941L531.494 370.937C531.334 370.627 531.251 370.079 531.401 369.354C531.549 368.647 531.882 367.968 532.286 367.501C532.509 367.245 532.779 367.027 533.087 366.851ZM538.49 368.895C538.454 368.867 538.418 368.839 538.382 368.81C537.541 368.13 536.975 367.305 536.705 366.535C536.78 366.563 536.851 366.593 536.916 366.624L536.919 366.625C537.47 366.888 538.033 367.455 538.49 368.895ZM542.361 369.689C543.341 369.257 544.261 368.209 544.839 366.815C545.456 365.329 545.478 363.953 545.184 363.246L545.179 363.234C544.914 362.583 544.15 362.116 542.782 361.772C542.355 361.664 542.036 361.604 541.706 361.541L541.706 361.541L541.706 361.541C541.528 361.507 541.348 361.472 541.146 361.43C540.793 361.476 540.448 361.559 540.123 361.676L540.115 361.679C539.369 361.943 538.488 362.463 537.777 363.147C538.016 363.228 538.247 363.321 538.467 363.426C540.714 364.499 541.789 366.737 542.361 369.689ZM549.488 416.58C549.457 416.506 549.359 416.292 548.576 416.279L548.566 416.27C547.616 416.308 546.669 416.399 545.729 416.542C544.337 416.72 542.934 416.803 541.53 416.791C540.193 416.762 538.86 416.644 537.539 416.438C537.307 416.405 537.079 416.371 536.86 416.338C535.251 416.099 534.035 415.919 533.771 416.422C533.713 416.509 533.683 416.612 533.684 416.717C533.684 416.717 533.685 416.717 533.686 416.719C533.704 416.762 533.982 417.397 536.447 417.896C538.064 418.179 539.702 418.324 541.343 418.329C543.313 418.405 545.286 418.269 547.226 417.923C549.33 417.455 549.535 416.849 549.535 416.849C549.548 416.757 549.532 416.662 549.488 416.58ZM548.318 420.646C549.038 420.646 549.126 420.845 549.154 420.911C549.192 420.987 549.208 421.073 549.2 421.158C549.2 421.158 549.01 421.716 547.081 422.169C545.307 422.51 543.5 422.654 541.693 422.601C540.188 422.614 538.685 422.498 537.2 422.255C534.914 421.813 534.67 421.217 534.658 421.187L534.658 421.186C534.658 421.186 534.658 421.186 534.658 421.186C534.658 421.09 534.686 420.997 534.738 420.916C534.98 420.449 536.106 420.609 537.599 420.821C537.745 420.841 537.894 420.863 538.045 420.884C538.098 420.891 538.151 420.898 538.204 420.905C539.415 421.081 540.637 421.177 541.861 421.192C543.147 421.189 544.43 421.099 545.704 420.923C546.564 420.783 547.432 420.69 548.303 420.645L548.318 420.646ZM546.33 419.839L546.33 419.839L546.33 419.839C545.128 419.997 543.64 420.193 541.872 420.188C540.17 420.168 538.749 419.971 537.597 419.811C535.669 419.543 534.493 419.38 534.007 420.329C533.836 420.64 533.775 420.999 533.836 421.349C534.036 422.315 535.312 422.922 537.088 423.258C538.592 423.505 540.116 423.622 541.64 423.609C545.62 423.666 549.519 423.099 549.973 421.323C550.052 421.001 550.02 420.661 549.882 420.358C549.65 419.833 549.15 419.655 548.393 419.647L548.393 419.644C547.843 419.639 547.154 419.73 546.33 419.839ZM548.595 424.916C548.573 424.858 548.494 424.687 547.861 424.691L547.846 424.689C547.08 424.736 546.317 424.824 545.56 424.954C544.438 425.123 543.305 425.215 542.169 425.23C541.089 425.228 540.01 425.155 538.939 425.011C538.733 424.986 538.533 424.961 538.34 424.937C537.054 424.774 536.088 424.652 535.877 425.065C535.83 425.137 535.804 425.22 535.803 425.305C535.803 425.305 535.804 425.306 535.805 425.309C535.829 425.358 536.074 425.866 538.043 426.221C539.354 426.416 540.679 426.501 542.005 426.474C543.602 426.503 545.197 426.361 546.762 426.051C548.466 425.634 548.631 425.136 548.631 425.136C548.642 425.061 548.629 424.984 548.595 424.916ZM546.097 423.991C546.827 423.889 547.438 423.803 547.925 423.803L547.942 423.79C548.613 423.789 549.051 423.944 549.258 424.411C549.378 424.678 549.406 424.978 549.336 425.262C548.945 426.849 545.499 427.359 541.986 427.355C540.632 427.387 539.277 427.304 537.937 427.105C536.375 426.832 535.245 426.313 535.069 425.457C535.017 425.145 535.071 424.825 535.223 424.548C535.657 423.698 536.704 423.83 538.42 424.046C539.433 424.174 540.68 424.331 542.171 424.333C543.726 424.325 545.038 424.14 546.097 423.991Z" fill="#CFFFF6"/>
<path d="M537.307 416.866C536.252 416.728 535.678 416.362 534.617 416.435C534.407 416.449 534.157 416.491 533.925 416.537C533.714 416.579 533.559 416.317 533.704 416.159C533.733 416.128 533.77 416.106 533.812 416.096L534.829 415.847C535.138 415.772 535.457 415.737 535.776 415.744L545.453 415.949L549.012 416.191C549.261 416.208 549.481 416.363 549.581 416.593C549.73 416.936 549.57 417.335 549.224 417.479L546.881 418.457C546.494 418.618 546.079 418.701 545.66 418.701H542.031L536.793 418.242C536.592 418.224 536.393 418.187 536.199 418.13L534.818 417.723C534.344 417.583 533.979 417.142 533.748 416.705L534.237 416.866C535.376 417.279 536.548 417.593 537.748 417.757C538.387 417.844 539.091 417.929 539.669 417.973C541.71 418.127 542.881 418.233 544.911 417.973C545.907 417.845 546.465 417.742 547.437 417.487C547.841 417.381 548.384 417.208 548.716 417.1C548.855 417.054 548.9 416.88 548.801 416.771C548.762 416.729 548.708 416.705 548.651 416.705H548.169C548.097 416.705 548.027 416.71 547.956 416.722C547.45 416.804 545.238 417.152 543.743 417.217C542.758 417.26 542.203 417.252 541.217 417.217C539.685 417.164 538.827 417.066 537.307 416.866Z" fill="#CFFFF6"/>
<path d="M537.863 421.194C536.89 421.066 536.361 420.728 535.381 420.796C535.188 420.809 534.957 420.848 534.743 420.89C534.549 420.929 534.406 420.688 534.54 420.542C534.566 420.513 534.6 420.492 534.639 420.483L535.577 420.254C535.863 420.184 536.156 420.152 536.45 420.158L545.378 420.348L548.661 420.571C548.891 420.587 549.094 420.73 549.186 420.942C549.324 421.258 549.176 421.627 548.857 421.76L546.695 422.661C546.338 422.81 545.956 422.887 545.569 422.887H542.221L537.389 422.463C537.203 422.447 537.02 422.412 536.841 422.359L535.567 421.984C535.13 421.855 534.793 421.448 534.58 421.045L535.031 421.194C536.081 421.575 537.163 421.865 538.27 422.015C538.859 422.096 539.508 422.174 540.042 422.215C541.925 422.357 543.005 422.455 544.878 422.215C545.797 422.097 546.312 422.002 547.208 421.767C547.581 421.669 548.082 421.509 548.388 421.409C548.517 421.367 548.558 421.206 548.466 421.106C548.431 421.067 548.38 421.045 548.328 421.045H547.884C547.817 421.045 547.752 421.05 547.687 421.061C547.221 421.137 545.179 421.458 543.8 421.518C542.891 421.557 542.38 421.55 541.47 421.518C540.057 421.468 539.265 421.378 537.863 421.194Z" fill="#CFFFF6"/>
<path d="M538.669 425.514C537.802 425.41 537.325 425.098 536.456 425.179C536.289 425.195 536.092 425.233 535.908 425.276C535.726 425.318 535.583 425.098 535.701 424.955C535.725 424.925 535.758 424.904 535.794 424.893L536.61 424.663C536.869 424.59 537.136 424.554 537.405 424.555L545.333 424.579L548.22 424.733C548.446 424.745 548.646 424.884 548.735 425.092C548.862 425.387 548.732 425.729 548.442 425.865L546.593 426.734C546.249 426.895 545.875 426.982 545.495 426.99L542.575 427.047L538.291 426.73C538.113 426.717 537.937 426.685 537.765 426.634L536.68 426.316C536.265 426.194 535.947 425.813 535.748 425.43L536.152 425.564C537.092 425.907 538.063 426.165 539.056 426.289C539.579 426.355 540.153 426.417 540.625 426.446C542.302 426.549 543.263 426.623 544.923 426.362C545.738 426.234 546.194 426.135 546.986 425.896C547.315 425.797 547.757 425.637 548.027 425.536C548.144 425.493 548.18 425.345 548.097 425.251C548.062 425.212 548.011 425.19 547.959 425.191L547.575 425.198C547.515 425.199 547.456 425.206 547.397 425.217C546.981 425.298 545.176 425.638 543.953 425.719C543.145 425.772 542.691 425.774 541.882 425.759C540.624 425.737 539.919 425.665 538.669 425.514Z" fill="#CFFFF6"/>
<path d="M609.468 439.17L676.664 352.693L676.611 280.418L611.709 312.31L609.468 439.17Z" fill="#00FFF2" fill-opacity="0.1"/>
<path d="M548.208 285.105L474.009 315.776L474.009 442.265L549.836 358.775C547.986 334.574 550.058 309.312 548.208 285.105Z" fill="#5BEAE2" fill-opacity="0.1"/>
<g filter="url(#filter1_d)">
<line y1="-1" x2="72.5174" y2="-1" transform="matrix(-0.00299819 -0.999995 0.999996 -0.00295843 677.058 353.174)" stroke="#02FFE1" stroke-opacity="0.68" stroke-width="2"/>
</g>
<g filter="url(#filter2_d)">
<line y1="-1" x2="69.6941" y2="-1" transform="matrix(-0.00552275 -0.999985 0.999985 -0.00544953 549.008 354.559)" stroke="#02FFE1" stroke-opacity="0.68" stroke-width="2"/>
</g>
<defs>
<filter id="filter0_d" x="421.134" y="245.116" width="241.248" height="260.639" filterUnits="userSpaceOnUse" color-interpolation-filters="sRGB">
<feFlood flood-opacity="0" result="BackgroundImageFix"/>
<feColorMatrix in="SourceAlpha" type="matrix" values="0 0 0 0 0 0 0 0 0 0 0 0 0 0 0 0 0 0 127 0"/>
<feOffset dy="-2"/>
<feGaussianBlur stdDeviation="25.5"/>
<feColorMatrix type="matrix" values="0 0 0 0 0.279167 0 0 0 0 1 0 0 0 0 0.87025 0 0 0 0.58 0"/>
<feBlend mode="normal" in2="BackgroundImageFix" result="effect1_dropShadow"/>
<feBlend mode="normal" in="SourceGraphic" in2="effect1_dropShadow" result="shape"/>
</filter>
<filter id="filter1_d" x="669.84" y="279.657" width="12.2174" height="82.523" filterUnits="userSpaceOnUse" color-interpolation-filters="sRGB">
<feFlood flood-opacity="0" result="BackgroundImageFix"/>
<feColorMatrix in="SourceAlpha" type="matrix" values="0 0 0 0 0 0 0 0 0 0 0 0 0 0 0 0 0 0 127 0"/>
<feOffset dy="4"/>
<feGaussianBlur stdDeviation="2.5"/>
<feColorMatrix type="matrix" values="0 0 0 0 0 0 0 0 0 1 0 0 0 0 0.88 0 0 0 0.9 0"/>
<feBlend mode="normal" in2="BackgroundImageFix" result="effect1_dropShadow"/>
<feBlend mode="normal" in="SourceGraphic" in2="effect1_dropShadow" result="shape"/>
</filter>
<filter id="filter2_d" x="541.623" y="283.866" width="12.3849" height="79.704" filterUnits="userSpaceOnUse" color-interpolation-filters="sRGB">
<feFlood flood-opacity="0" result="BackgroundImageFix"/>
<feColorMatrix in="SourceAlpha" type="matrix" values="0 0 0 0 0 0 0 0 0 0 0 0 0 0 0 0 0 0 127 0"/>
<feOffset dy="4"/>
<feGaussianBlur stdDeviation="2.5"/>
<feColorMatrix type="matrix" values="0 0 0 0 0 0 0 0 0 1 0 0 0 0 0.88 0 0 0 0.9 0"/>
<feBlend mode="normal" in2="BackgroundImageFix" result="effect1_dropShadow"/>
<feBlend mode="normal" in="SourceGraphic" in2="effect1_dropShadow" result="shape"/>
</filter>
</defs>
</svg>
