<svg width="80" height="80" viewBox="0 0 80 80" fill="none" xmlns="http://www.w3.org/2000/svg">
    <path d="M18.6154 9.26007C33.9866 9.26007 44.5421 1.29785 51.9488 1.29785C59.3554 1.29785 74.911 5.55563 74.911 39.629C74.911 73.7023 53.9843 78.7023 45.8377 78.7023C7.68878 78.7045 -8.60678 9.26007 18.6154 9.26007Z" fill="#FFAA7B" fill-opacity="0.1"/>
    <path d="M59.7842 16.9233L61.3555 15.352L64.4982 18.4947L62.9269 20.066L59.7842 16.9233Z" fill="#FFA370"/>
    <path d="M68.8184 25.9585L70.3897 24.3871L73.5324 27.5298L71.9611 29.1012L68.8184 25.9585Z" fill="#FFA370"/>
    <path d="M68.4268 18.4937L71.5695 15.351L73.1408 16.9223L69.9981 20.065L68.4268 18.4937Z" fill="#FFA370"/>
    <path d="M35.5556 56.1111C46.9081 56.1111 56.1111 46.9081 56.1111 35.5556C56.1111 24.203 46.9081 15 35.5556 15C24.203 15 15 24.203 15 35.5556C15 46.9081 24.203 56.1111 35.5556 56.1111Z" fill="white"/>
    <path d="M55.5551 51.6669C57.0893 51.6669 58.3329 50.4232 58.3329 48.8891C58.3329 47.355 57.0893 46.1113 55.5551 46.1113C54.021 46.1113 52.7773 47.355 52.7773 48.8891C52.7773 50.4232 54.021 51.6669 55.5551 51.6669Z" fill="white"/>
    <path d="M34.2 23.5779V25.5112C34.2 28.9112 31.8222 31.8223 28.5111 32.5334C27.2222 32.8001 26.1111 33.5112 25.3111 34.4667C24.5111 35.4445 24.0667 36.6445 24.0444 37.9779C24.0222 39.4445 23.4222 40.7556 22.4667 41.7112C21.4889 42.6667 20.1778 43.2667 18.6889 43.2667H16.5111C15.5333 40.889 15 38.289 15 35.5556C15 26.0445 21.4667 18.0223 30.2444 15.689C32.7111 17.5334 34.2 20.4667 34.2 23.5779Z" fill="#FFA370"/>
    <path d="M55.1555 29.3113L50.4888 29.8891C50.1999 29.9113 49.9332 29.9335 49.6666 29.9335C47.3554 29.9335 45.1999 28.7113 43.9777 26.7113C42.0888 23.5557 41.6221 19.7557 42.6443 16.2446C48.5777 18.4224 53.2221 23.2669 55.1555 29.3113Z" fill="#FFA370"/>
    <path d="M65.0002 49.0266C65.0002 56.9177 55.5558 64.9999 55.5558 64.9999C55.5558 64.9999 46.1113 56.9199 46.1113 49.0266C46.1113 43.7332 50.3402 39.4443 55.5558 39.4443C60.7713 39.4443 65.0002 43.7354 65.0002 49.0266Z" fill="#FFA370"/>
    <path d="M20 35.5556C20 25.0511 27.8844 16.4022 38.0556 15.1667C37.2333 15.0667 36.4044 15 35.5556 15C24.2022 15 15 24.2022 15 35.5556C15 46.9089 24.2022 56.1111 35.5556 56.1111C36.4044 56.1111 37.2333 56.0444 38.0556 55.9444C27.8844 54.7089 20 46.06 20 35.5556Z" fill="#664141" fill-opacity="0.1"/>
    <path d="M57.7773 48.8891C57.7773 48.4669 57.8862 48.078 58.0551 47.7202C57.6107 46.7758 56.6662 46.1113 55.5551 46.1113C54.0218 46.1113 52.7773 47.3558 52.7773 48.8891C52.7773 50.4224 54.0218 51.6669 55.5551 51.6669C56.6662 51.6669 57.6107 51.0024 58.0551 50.058C57.8862 49.7002 57.7773 49.3113 57.7773 48.8891Z" fill="#664141" fill-opacity="0.8"/>
    <path d="M20 35.5556C20 27.389 24.7733 20.3334 31.6756 17.0201C31.2444 16.5356 30.7711 16.0823 30.2444 15.689C21.4667 18.0223 15 26.0445 15 35.5556C15 38.289 15.5333 40.889 16.5111 43.2667H18.6889C19.6378 43.2667 20.5022 43.0023 21.2667 42.5779C20.4578 40.3867 20 38.0312 20 35.5556Z" fill="#FFA370"/>
    <path d="M48.9777 26.7113C47.5088 24.258 46.9132 21.418 47.1932 18.6246C45.7888 17.6557 44.271 16.8424 42.6443 16.2446C41.6221 19.7557 42.0888 23.5557 43.9777 26.7113C45.1999 28.7113 47.3554 29.9335 49.6665 29.9335C49.9332 29.9335 50.1999 29.9113 50.4888 29.8891L52.731 29.6113C51.1977 29.1357 49.8465 28.1335 48.9777 26.7113Z" fill="#FFA370"/>
    <path d="M51.1113 49.0266C51.1113 44.6177 54.0624 40.9443 58.0558 39.8266C57.2535 39.6021 56.4269 39.4443 55.5558 39.4443C50.3402 39.4443 46.1113 43.7354 46.1113 49.0266C46.1113 56.9177 55.5558 64.9999 55.5558 64.9999C55.5558 64.9999 56.6358 64.0688 58.0558 62.551C55.258 59.5643 51.1113 54.2621 51.1113 49.0266Z" fill="#FFA370"/>
    <path d="M55.5554 66.6667C55.1688 66.6667 54.7821 66.5334 54.4732 66.2667C54.0621 65.9156 44.4443 57.5889 44.4443 49.0267C44.4443 42.8245 49.4288 37.7778 55.5554 37.7778C61.6821 37.7778 66.6666 42.8245 66.6666 49.0267C66.6666 57.5889 57.0488 65.9156 56.6377 66.2667C56.3288 66.5334 55.9421 66.6667 55.5554 66.6667ZM55.5554 41.1112C51.2666 41.1112 47.7777 44.6623 47.7777 49.0267C47.7777 54.5423 53.191 60.42 55.5554 62.7245C57.9199 60.42 63.3332 54.5423 63.3332 49.0267C63.3332 44.6623 59.8443 41.1112 55.5554 41.1112Z" fill="#664141"/>
    <path d="M55.5558 53.3332C53.1047 53.3332 51.1113 51.3399 51.1113 48.8888C51.1113 46.4377 53.1047 44.4443 55.5558 44.4443C58.0069 44.4443 60.0002 46.4377 60.0002 48.8888C60.0002 51.3399 58.0069 53.3332 55.5558 53.3332ZM55.5558 47.7777C54.9447 47.7777 54.4447 48.2777 54.4447 48.8888C54.4447 49.4999 54.9447 49.9999 55.5558 49.9999C56.1669 49.9999 56.6669 49.4999 56.6669 48.8888C56.6669 48.2777 56.1669 47.7777 55.5558 47.7777Z" fill="#664141"/>
    <path d="M18.6885 44.9335H16.5107V41.6002H18.6885C20.7263 41.6002 22.3463 39.998 22.3774 37.9513C22.433 34.4957 24.8174 31.598 28.1707 30.9002C31.1707 30.258 32.1419 27.7691 32.4552 26.3424C33.2085 22.8957 31.8574 18.9757 29.2463 17.0224L31.2419 14.3535C34.9085 17.0957 36.7485 22.3202 35.7107 27.0557C34.8885 30.8135 32.393 33.4046 28.8596 34.1624C27.3619 34.4735 25.7463 35.8069 25.7107 38.0046C25.653 41.8246 22.5019 44.9335 18.6885 44.9335Z" fill="#664141"/>
    <path d="M49.8647 31.5754C47.1358 31.5754 44.8491 30.4843 43.1513 28.3954C40.6047 25.2598 39.758 20.1887 41.0447 15.7754L44.2425 16.7087C43.2802 20.0087 43.9113 24.0421 45.7402 26.2909C46.898 27.7221 48.4536 28.3665 50.358 28.2243L54.9491 27.6554L55.358 30.9621L50.6891 31.5398C50.4136 31.5643 50.138 31.5754 49.8647 31.5754Z" fill="#664141"/>
    <path d="M35.5552 57.7779C23.3019 57.7779 13.333 47.8091 13.333 35.5557C13.333 23.3024 23.3019 13.3335 35.5552 13.3335C46.5219 13.3335 55.7463 21.1735 57.4886 31.9802L54.1997 32.5091C52.7175 23.3291 44.8752 16.6668 35.5552 16.6668C25.1397 16.6668 16.6663 25.1402 16.6663 35.5557C16.6663 45.9713 25.1397 54.4446 35.5552 54.4446C36.9819 54.4446 38.3508 54.2913 39.7397 53.9735L40.4819 57.2246C38.8663 57.5913 37.2108 57.7779 35.5552 57.7779Z" fill="#664141"/>
    </svg>
