<svg width="80" height="17" viewBox="0 0 80 17" fill="none" xmlns="http://www.w3.org/2000/svg">
<g clip-path="url(#clip0)">
<path d="M31.0605 0.592062L31.7962 3.94253C31.9123 4.47419 31.9897 4.89551 32.0381 5.19645C32.0865 5.49739 32.1349 5.88861 32.1737 6.36009C32.2027 6.55068 32.2414 6.85162 32.2801 7.26291H32.3188C32.3576 6.57075 32.406 5.9789 32.464 5.4673C32.5221 4.96573 32.5995 4.48423 32.6963 4.04285L33.4997 0.582031H35.5808L33.2868 10.1118V15.9701H31.0508V10.2222L28.7568 0.582031H31.0605V0.592062Z" fill="#7C4F4F"/>
<path d="M37.1289 2.87888C37.1289 2.40741 37.216 1.99612 37.3806 1.65506C37.5451 1.31399 37.7677 1.04314 38.0484 0.842517C38.3195 0.64189 38.6292 0.501452 38.968 0.41117C39.3068 0.320887 39.6649 0.280762 40.0424 0.280762C40.4199 0.280762 40.778 0.320887 41.1265 0.41117C41.4749 0.501452 41.775 0.64189 42.0557 0.842517C42.3267 1.04314 42.5494 1.31399 42.7236 1.65506C42.8881 1.99612 42.9752 2.39738 42.9752 2.87888V13.6826C42.9752 14.1541 42.8881 14.5654 42.7236 14.9065C42.559 15.2475 42.3267 15.5184 42.046 15.719C41.7653 15.9196 41.4556 16.0601 41.1168 16.1504C40.778 16.2406 40.4199 16.2808 40.0424 16.2808C39.6649 16.2808 39.3068 16.2406 38.968 16.1504C38.6292 16.0601 38.3291 15.9196 38.0484 15.719C37.7774 15.5184 37.5548 15.2475 37.3806 14.9065C37.216 14.5654 37.1289 14.1641 37.1289 13.6826V2.87888ZM39.3552 13.482C39.3552 13.8532 39.4036 14.104 39.51 14.2344C39.6165 14.3648 39.7907 14.425 40.0424 14.425C40.2844 14.425 40.4489 14.3648 40.5554 14.2344C40.6619 14.104 40.7103 13.8532 40.7103 13.482V3.06948C40.7103 2.69832 40.6619 2.44753 40.5554 2.31713C40.4489 2.18672 40.2747 2.12653 40.0424 2.12653C39.7907 2.12653 39.6068 2.18672 39.51 2.31713C39.4132 2.44753 39.3552 2.69832 39.3552 3.06948V13.482Z" fill="#7C4F4F"/>
<path d="M50.8161 0.591309V13.6822C50.8161 14.1537 50.729 14.565 50.5644 14.906C50.3999 15.2471 50.1676 15.518 49.8868 15.7186C49.6061 15.9192 49.2964 16.0596 48.9576 16.1499C48.6188 16.2402 48.2607 16.2803 47.8832 16.2803C47.5057 16.2803 47.1476 16.2402 46.8088 16.1499C46.47 16.0596 46.17 15.9192 45.8893 15.7186C45.6182 15.518 45.3956 15.2471 45.2214 14.906C45.0568 14.565 44.9697 14.1637 44.9697 13.6822V0.591309H47.2057V13.4916C47.2057 13.8628 47.2541 14.1136 47.3605 14.244C47.467 14.3744 47.6412 14.4346 47.8929 14.4346C48.1349 14.4346 48.2994 14.3744 48.4059 14.244C48.5124 14.1136 48.5608 13.8628 48.5608 13.4916V0.591309H50.8161Z" fill="#7C4F4F"/>
<path d="M52.8389 0.591309H55.5297C56.6622 0.591309 57.4753 0.842092 57.9496 1.33363C58.4239 1.8352 58.6658 2.73802 58.6658 4.06215V13.1806C58.6658 13.9631 58.4335 14.6151 57.9593 15.1568C57.485 15.6985 56.8364 15.9694 56.0137 15.9694H52.8389V0.591309ZM55.0651 14.1336H55.5878C55.8975 14.1336 56.1105 14.0534 56.2363 13.9029C56.3622 13.7524 56.4299 13.4415 56.4299 12.98V3.56059C56.4299 3.08911 56.3622 2.77814 56.2363 2.62767C56.1105 2.48723 55.8879 2.40698 55.5878 2.40698H55.0651V14.1336Z" fill="#7C4F4F"/>
<path d="M61.9281 0.591309H65.2772L66.9807 15.9694H64.7254L64.2995 11.7963H62.7218L62.2378 15.9694H60.2148L61.9281 0.591309ZM64.106 9.79005L63.6413 3.40009H63.4962L62.9444 9.79005H64.106Z" fill="#7C4F4F"/>
<path d="M73.1749 0.591309V2.59758H71.239V15.9694H69.0031V2.59758H67.0479V0.591309H73.1749Z" fill="#7C4F4F"/>
<path d="M74.9466 0.591309H78.2957L79.9993 15.9694H77.744L77.3181 11.7963H75.7404L75.2564 15.9694H73.2334L74.9466 0.591309ZM77.1148 9.79005L76.6502 3.40009H76.505L75.9533 9.79005H77.1148Z" fill="#7C4F4F"/>
<path d="M2.77798 8.76758H0V11.6466H2.77798V8.76758Z" fill="#7C4F4F"/>
<path d="M2.77798 12.9604H0V15.8394H2.77798V12.9604Z" fill="#7C4F4F"/>
<path d="M16.3678 8.69727H13.5898V11.5763H16.3678V8.69727Z" fill="#7C4F4F"/>
<path d="M16.3678 12.9004H13.5898V15.7794H16.3678V12.9004Z" fill="#FF9C66"/>
<path d="M7.04653 0.602051H4.26855V3.48105H7.04653V0.602051Z" fill="#7C4F4F"/>
<path d="M7.04653 4.70459H4.26855V7.58359H7.04653V4.70459Z" fill="#7C4F4F"/>
<path d="M7.04653 8.80762H4.26855V11.6866H7.04653V8.80762Z" fill="#FF9C66"/>
<path d="M7.04653 12.9004H4.26855V15.7794H7.04653V12.9004Z" fill="#FF9C66"/>
<path d="M12.0797 0.591797H9.30176V3.47079H12.0797V0.591797Z" fill="#7C4F4F"/>
<path d="M12.0797 4.69434H9.30176V7.57333H12.0797V4.69434Z" fill="#7C4F4F"/>
<path d="M12.0797 8.79736H9.30176V11.6764H12.0797V8.79736Z" fill="#7C4F4F"/>
<path d="M12.0797 12.9004H9.30176V15.7794H12.0797V12.9004Z" fill="#FF9C66"/>
<path d="M21.3913 0.591797H18.6133V3.47079H21.3913V0.591797Z" fill="#7C4F4F"/>
<path d="M21.3913 4.69434H18.6133V7.57333H21.3913V4.69434Z" fill="#7C4F4F"/>
<path d="M21.3913 8.79736H18.6133V11.6764H21.3913V8.79736Z" fill="#7C4F4F"/>
<path d="M21.3913 12.9004H18.6133V15.7794H21.3913V12.9004Z" fill="#FF9C66"/>
<path d="M25.7086 0.591797H22.9307V3.47079H25.7086V0.591797Z" fill="#FF9C66"/>
<path d="M25.7086 4.69434H22.9307V7.57333H25.7086V4.69434Z" fill="#7C4F4F"/>
<path d="M25.7086 8.79736H22.9307V11.6764H25.7086V8.79736Z" fill="#7C4F4F"/>
<path d="M25.7086 12.9004H22.9307V15.7794H25.7086V12.9004Z" fill="#7C4F4F"/>
</g>
<defs>
<clipPath id="clip0">
<rect width="79.9997" height="16" fill="white" transform="translate(0 0.280762)"/>
</clipPath>
</defs>
</svg>
