<svg width="80" height="80" viewBox="0 0 80 80" fill="none" xmlns="http://www.w3.org/2000/svg">
    <g clip-path="url(#clip0)">
    <path d="M77.5646 45.2334C69.1601 32.3646 70.0535 19.1734 66.0023 12.9712C61.9512 6.769 49.8779 -3.92434 21.3512 14.709C-7.17544 33.3423 0.0801196 53.5979 4.5379 60.4179C25.4001 92.3557 92.4512 68.0246 77.5646 45.2334Z" fill="#FFAA7B" fill-opacity="0.1"/>
    <path d="M32.2227 70.0469H36.6671V72.2691H32.2227V70.0469Z" fill="#FFA370"/>
    <path d="M45 70.0469H49.4444V72.2691H45V70.0469Z" fill="#FFA370"/>
    <path d="M39.4453 75.6025H41.6675V80.047H39.4453V75.6025Z" fill="#FFA370"/>
    <path d="M13.3333 16.6667C11.4956 16.6667 10 15.1711 10 13.3333C10 11.4956 11.4956 10 13.3333 10C15.1711 10 16.6667 11.4956 16.6667 13.3333C16.6667 15.1711 15.1711 16.6667 13.3333 16.6667ZM13.3333 12.2222C12.72 12.2222 12.2222 12.7222 12.2222 13.3333C12.2222 13.9444 12.72 14.4444 13.3333 14.4444C13.9467 14.4444 14.4444 13.9444 14.4444 13.3333C14.4444 12.7222 13.9467 12.2222 13.3333 12.2222Z" fill="#FFA370"/>
    <path d="M39.9999 15C50.8288 15.2711 60.5554 20.46 60.5554 31.1111V41.1111C60.5554 53.7244 48.6821 65 39.9999 65C31.3177 65 19.4443 53.7244 19.4443 41.1111V31.1111C19.4443 20.46 29.171 15.2711 39.9999 15Z" fill="white"/>
    <path d="M39.9999 15C29.171 15.2711 19.4443 20.46 19.4443 31.1111V41.1111C19.4443 42.8978 19.7043 44.6511 20.1377 46.3556L23.3554 30.0222C23.3554 30.0222 28.8888 33.3333 39.9999 33.3333C51.111 33.3333 56.6888 29.9556 56.6888 29.9556L59.8799 46.2889C60.3021 44.6044 60.5554 42.8733 60.5554 41.1111V31.1111C60.5554 20.46 50.8288 15.2711 39.9999 15Z" fill="#FFA370"/>
    <path d="M19.4444 39.4668C16.9556 39.7557 15 41.8668 15 44.4446C15 47.2001 17.2444 49.4446 20 49.4446C20.3778 49.4446 20.7333 49.4001 21.0667 49.3112L19.4444 39.4668Z" fill="#FFA370"/>
    <path d="M60.5558 39.4668L58.9336 49.3112C59.2669 49.4001 59.6225 49.4446 60.0003 49.4446C62.7558 49.4446 65.0003 47.2001 65.0003 44.4446C65.0003 41.8668 63.0447 39.7557 60.5558 39.4668Z" fill="#FFA370"/>
    <path d="M24.4443 41.1111V31.1111C24.4443 21.2889 32.7199 16.1222 42.4999 15.1644C41.6755 15.0822 40.8421 15.0222 39.9999 15C29.171 15.2711 19.4443 20.46 19.4443 31.1111V41.1111C19.4443 53.7244 31.3177 65 39.9999 65C40.8088 65 41.6488 64.8711 42.4999 64.6844C34.2043 62.86 24.4443 52.5511 24.4443 41.1111Z" fill="#664141" fill-opacity="0.1"/>
    <path d="M42.4999 15.1644C41.6755 15.0822 40.8421 15.0222 39.9999 15C29.171 15.2711 19.4443 20.46 19.4443 31.1111V41.1111C19.4443 42.8978 19.7043 44.6511 20.1377 46.3556L23.3555 30.0222C23.3555 30.0222 23.7332 30.2467 24.4755 30.5756C24.7777 21.1089 32.9043 16.1044 42.4999 15.1644Z" fill="#FFC785" fill-opacity="0.06"/>
    <path d="M31.1106 47.2226C28.9661 47.2226 27.2217 45.4782 27.2217 43.3337C27.2217 41.1893 28.9661 39.4448 31.1106 39.4448C33.255 39.4448 34.9995 41.1893 34.9995 43.3337C34.9995 45.4782 33.255 47.2226 31.1106 47.2226ZM31.1106 42.7782C30.8039 42.7782 30.555 43.0271 30.555 43.3337C30.555 43.9448 31.6661 43.9448 31.6661 43.3337C31.6661 43.0271 31.4172 42.7782 31.1106 42.7782Z" fill="#664141"/>
    <path d="M48.8889 47.2226C46.7444 47.2226 45 45.4782 45 43.3337C45 41.1893 46.7444 39.4448 48.8889 39.4448C51.0333 39.4448 52.7778 41.1893 52.7778 43.3337C52.7778 45.4782 51.0333 47.2226 48.8889 47.2226ZM48.8889 42.7782C48.5822 42.7782 48.3333 43.0271 48.3333 43.3337C48.3333 43.9448 49.4444 43.9448 49.4444 43.3337C49.4444 43.0271 49.1956 42.7782 48.8889 42.7782Z" fill="#664141"/>
    <path d="M39.9996 66.6668C30.204 66.6668 17.7773 54.6357 17.7773 41.1113V31.1113C17.7773 20.6491 26.484 13.6713 39.9573 13.3335H40.0396C53.5151 13.6713 62.2218 20.6491 62.2218 31.1113V41.1113C62.2218 54.6357 49.7951 66.6668 39.9996 66.6668ZM39.9996 16.6668C31.2751 16.8979 21.1107 20.8157 21.1107 31.1113V41.1113C21.1107 53.1646 32.7129 63.3335 39.9996 63.3335C47.2862 63.3335 58.8885 53.1646 58.8885 41.1113V31.1113C58.8885 20.8157 48.724 16.8979 39.9996 16.6668Z" fill="#664141"/>
    <path d="M21.7682 46.7003L18.4971 46.0581L21.7193 29.7025C21.8237 29.1692 22.1815 28.7225 22.6771 28.5003C23.1704 28.2803 23.7415 28.3159 24.2104 28.5936C24.2571 28.6225 29.5726 31.6692 39.9993 31.6692C50.4237 31.6692 55.7771 28.5625 55.8304 28.5292C56.2971 28.2559 56.8704 28.2181 57.366 28.4403C57.8615 28.6625 58.2193 29.1092 58.3237 29.6403L61.5237 46.0159L58.2526 46.6536L55.4615 32.3759C52.8126 33.4492 47.6548 35.0003 39.9993 35.0003C32.3526 35.0003 27.2171 33.4781 24.5793 32.4292L21.7682 46.7003Z" fill="#664141"/>
    <path d="M39.9995 57.7667C37.5684 57.7667 35.1372 56.8756 33.2861 55.089L35.6017 52.689C38.0261 55.0334 41.9728 55.0334 44.3972 52.689L46.7128 55.089C44.8617 56.8756 42.4306 57.7667 39.9995 57.7667Z" fill="#664141"/>
    <path d="M19.9997 51.1111C16.3241 51.1111 13.333 48.1199 13.333 44.4444C13.333 41.0555 15.8775 38.1999 19.253 37.811L19.6375 41.1221C17.9441 41.3177 16.6663 42.7466 16.6663 44.4444C16.6663 46.2822 18.1619 47.7777 19.9997 47.7777C20.233 47.7777 20.4486 47.751 20.6375 47.7022L21.4975 50.9222C21.0263 51.0488 20.5241 51.1111 19.9997 51.1111Z" fill="#664141"/>
    <path d="M59.9995 51.1111C59.475 51.1111 58.9728 51.0488 58.5039 50.9222L59.3639 47.7022C59.5506 47.751 59.7661 47.7777 59.9995 47.7777C61.8372 47.7777 63.3328 46.2822 63.3328 44.4444C63.3328 42.7466 62.055 41.3177 60.3639 41.1221L60.7484 37.811C64.1217 38.1999 66.6661 41.0555 66.6661 44.4444C66.6661 48.1199 63.675 51.1111 59.9995 51.1111Z" fill="#664141"/>
    </g>
    <defs>
    <clipPath id="clip0">
    <rect width="80" height="80" fill="white"/>
    </clipPath>
    </defs>
    </svg>
