<svg width="64" height="64" viewBox="0 0 64 64" fill="none" xmlns="http://www.w3.org/2000/svg">
    <path d="M7.40786 49.1077C7.40786 36.8108 1.03809 28.3664 1.03809 22.4411C1.03809 16.5157 4.44431 4.07129 31.703 4.07129C58.9616 4.07129 62.9616 20.8126 62.9616 27.33C62.9634 57.8491 7.40786 70.8855 7.40786 49.1077Z" fill="#F1987C"/>
    <path d="M44.915 8.09937L46.907 5.15422L48.3796 6.15022L46.3876 9.09537L44.915 8.09937Z" fill="white"/>
    <path d="M37.7783 7.56372L38.7743 6.09115L41.7195 8.08315L40.7235 9.55572L37.7783 7.56372Z" fill="white"/>
    <path d="M46.2432 13.2949L47.2392 11.8223L50.1843 13.8144L49.1883 15.2869L46.2432 13.2949Z" fill="white"/>
    <path d="M50.2222 19.1111C51.2036 19.1111 52 19.9075 52 20.8889V40.4444H12V20.8889C12 19.9075 12.7964 19.1111 13.7778 19.1111H50.2222Z" fill="#FFFDFB"/>
    <path d="M12 40.4446H52V44.889C52 45.8704 51.2036 46.6668 50.2222 46.6668H13.7778C12.7964 46.6668 12 45.8704 12 44.889V40.4446Z" fill="#FFA370"/>
    <path d="M35.1106 46.6667C35.1106 46.6667 35.5461 49.8045 37.7417 52.0001H37.7772H26.2217C28.4439 49.7779 28.8528 46.6667 28.8528 46.6667H35.1106Z" fill="#F1987C"/>
    <path d="M24.8891 36.0001C28.0801 36.0001 30.6669 33.4133 30.6669 30.2224C30.6669 27.0314 28.0801 24.4446 24.8891 24.4446C21.6981 24.4446 19.1113 27.0314 19.1113 30.2224C19.1113 33.4133 21.6981 36.0001 24.8891 36.0001Z" fill="#FFA370"/>
    <path d="M16 44.889V40.4446H12V44.889C12 45.8704 12.7964 46.6668 13.7778 46.6668H17.7778C16.7964 46.6668 16 45.8704 16 44.889Z" fill="#FFA370"/>
    <path d="M28.8528 46.6667C28.8528 46.6667 28.4439 49.7779 26.2217 52.0001H30.2217C32.4439 49.7779 32.8528 46.6667 32.8528 46.6667H28.8528Z" fill="#FFA370"/>
    <path d="M23.1113 30.2224C23.1113 27.737 24.6882 25.6375 26.8891 24.8215C26.2633 24.5904 25.5949 24.4446 24.8891 24.4446C21.698 24.4446 19.1113 27.0312 19.1113 30.2224C19.1113 33.4135 21.698 36.0001 24.8891 36.0001C25.5949 36.0001 26.2633 35.8544 26.8891 35.6232C24.6882 34.8072 23.1113 32.7077 23.1113 30.2224Z" fill="#FFA370"/>
    <path d="M17.7778 19.1111H13.7778C12.7964 19.1111 12 19.9075 12 20.8889V40.4444H16V20.8889C16 19.9075 16.7964 19.1111 17.7778 19.1111Z" fill="#FFFDFB"/>
    <path d="M24.8894 37.3333C20.9677 37.3333 17.7783 34.144 17.7783 30.2222C17.7783 26.3004 20.9677 23.1111 24.8894 23.1111C28.8112 23.1111 32.0005 26.3004 32.0005 30.2222C32.0005 34.144 28.8112 37.3333 24.8894 37.3333ZM24.8894 25.7778C22.4397 25.7778 20.445 27.7706 20.445 30.2222C20.445 32.6738 22.4397 34.6666 24.8894 34.6666C27.3392 34.6666 29.3339 32.6738 29.3339 30.2222C29.3339 27.7706 27.3392 25.7778 24.8894 25.7778Z" fill="#664141"/>
    <path d="M21.8755 35.12L19.9893 33.2338L23.5537 29.6694V24.8889H26.2204V30.2222C26.2204 30.576 26.0799 30.9156 25.8293 31.1645L21.8755 35.12Z" fill="#664141"/>
    <path d="M35.5557 24.8889H46.2223V27.5556H35.5557V24.8889Z" fill="#664141"/>
    <path d="M35.5557 32.8889H46.2223V35.5556H35.5557V32.8889Z" fill="#664141"/>
    <path d="M50.2216 48.0001H13.7771C12.0616 48.0001 10.666 46.6045 10.666 44.889V20.8889C10.666 19.1734 12.0616 17.7778 13.7771 17.7778H50.2216C51.9371 17.7778 53.3327 19.1734 53.3327 20.8889V44.889C53.3327 46.6045 51.9371 48.0001 50.2216 48.0001ZM13.7771 20.4445C13.5318 20.4445 13.3327 20.6436 13.3327 20.8889V44.889C13.3327 45.1343 13.5318 45.3334 13.7771 45.3334H50.2216C50.4669 45.3334 50.666 45.1343 50.666 44.889V20.8889C50.666 20.6436 50.4669 20.4445 50.2216 20.4445H13.7771Z" fill="#664141"/>
    <path d="M3.55566 50.6667H60.4446V53.3334H3.55566V50.6667Z" fill="#664141"/>
    <path d="M12 39.1111H52V41.7778H12V39.1111Z" fill="#664141"/>
    <path d="M37.7777 53.3333H26.2221C25.6835 53.3333 25.1964 53.008 24.9901 52.5102C24.7839 52.0124 24.8977 51.4382 25.2799 51.0578C27.1306 49.2071 27.5288 46.5191 27.5324 46.4942L30.1759 46.8409C30.1617 46.9458 29.9146 48.736 28.8533 50.6666H35.1164C34.0657 48.7466 33.8044 46.9546 33.7901 46.8498L36.4301 46.48C36.4337 46.5066 36.823 49.072 38.535 50.9031C38.8835 51.1449 39.111 51.5449 39.111 52C39.111 52.736 38.5137 53.3333 37.7777 53.3333Z" fill="#664141"/>
    </svg>
