<svg width="65" height="64" viewBox="0 0 65 64" fill="none" xmlns="http://www.w3.org/2000/svg">
    <path d="M7.41575 14.8925C7.41575 27.1894 1.03906 35.6339 1.03906 41.5592C1.03906 47.4846 4.44898 59.929 31.7372 59.929C59.0255 59.929 63.0298 43.1877 63.0298 36.6703C63.0316 6.15122 7.41575 -6.88523 7.41575 14.8925Z" fill="#F1987C"/>
    <path d="M46.0996 18.8721L47.3574 17.6143L49.8729 20.1298L48.6151 21.3876L46.0996 18.8721Z" fill="white"/>
    <path d="M53.333 26.1006L54.5908 24.8428L57.1063 27.3583L55.8485 28.6161L53.333 26.1006Z" fill="white"/>
    <path d="M53.0195 20.1299L55.5351 17.6144L56.7928 18.8721L54.2773 21.3876L53.0195 20.1299Z" fill="white"/>
    <path d="M33.3692 40.8889C33.3692 37.8293 35.1987 35.2071 37.8185 34.0196V15.5556C37.8185 13.5911 36.2256 12 34.259 12H15.5721C13.6055 12 12.0127 13.5911 12.0127 15.5556V43.2356C12.0127 45.2 13.6055 46.7911 15.5721 46.7911H34.259C34.8196 46.7911 35.3429 46.6507 35.8127 46.4196C34.3195 45.04 33.3692 43.0827 33.3692 40.8889Z" fill="white"/>
    <path d="M28.0303 20.8889H32.4795V36H28.0303V20.8889Z" fill="#FFBF75"/>
    <path d="M17.3525 28H21.8018V36H17.3525V28Z" fill="#FFA370"/>
    <path d="M16.017 43.2356V15.5556C16.017 13.5911 17.6099 12 19.5765 12H15.5721C13.6055 12 12.0127 13.5911 12.0127 15.5556V43.2356C12.0127 45.2 13.6055 46.7911 15.5721 46.7911H19.5765C17.6099 46.7911 16.017 45.2 16.017 43.2356Z" fill="#FFFDFB"/>
    <path d="M52.0565 51.9999L46.2725 46.2222L52.0565 51.9999Z" fill="#FFBF75"/>
    <path d="M56.0604 51.9999L50.2764 46.2222L56.0604 51.9999Z" fill="#FFBF75"/>
    <path d="M27.4014 20.8889H32.8389V36H27.4014V20.8889Z" fill="#FFBF75"/>
    <path d="M17.3525 28H21.3569V36H17.3525V28Z" fill="#FFBF75"/>
    <path d="M40.9337 49.7778C36.027 49.7778 32.0352 45.7902 32.0352 40.8889C32.0352 35.9876 36.027 32 40.9337 32C45.8403 32 49.8322 35.9876 49.8322 40.8889C49.8322 45.7902 45.8403 49.7778 40.9337 49.7778ZM40.9337 34.6667C37.4989 34.6667 34.7047 37.4578 34.7047 40.8889C34.7047 44.32 37.4989 47.1111 40.9337 47.1111C44.3685 47.1111 47.1627 44.32 47.1627 40.8889C47.1627 37.4578 44.3685 34.6667 40.9337 34.6667Z" fill="#664141"/>
    <path d="M45.3184 47.1655L47.205 45.2789L52.9857 51.0596L51.099 52.9462L45.3184 47.1655Z" fill="#664141"/>
    <path d="M28.9197 48.0001H15.5719C12.8721 48.0001 10.6777 45.8081 10.6777 43.1112V15.5556C10.6777 12.8587 12.8721 10.6667 15.5719 10.6667H34.2589C36.9587 10.6667 39.1531 12.8587 39.1531 15.5556V27.1112H36.4835V15.5556C36.4835 14.3307 35.4851 13.3334 34.2589 13.3334H15.5719C14.3457 13.3334 13.3473 14.3307 13.3473 15.5556V43.1112C13.3473 44.3361 14.3457 45.3334 15.5719 45.3334H28.9197V48.0001Z" fill="#664141"/>
    <path d="M29.3649 32.4443H26.6953V20.8888C26.6953 20.1528 27.2933 19.5554 28.0301 19.5554H32.4794C33.2162 19.5554 33.8141 20.1528 33.8141 20.8888V30.6665H31.1446V22.2221H29.3649V32.4443Z" fill="#664141"/>
    <path d="M21.8016 37.3334H17.3524C16.6156 37.3334 16.0176 36.7361 16.0176 36.0001V28.0001C16.0176 27.2641 16.6156 26.6667 17.3524 26.6667H21.8016C22.5384 26.6667 23.1364 27.2641 23.1364 28.0001V36.0001C23.1364 36.7361 22.5384 37.3334 21.8016 37.3334ZM18.6871 34.6667H20.4668V29.3334H18.6871V34.6667Z" fill="#664141"/>
    <path d="M14.2373 34.6667H26.6953V37.3334H14.2373V34.6667Z" fill="#664141"/>
    </svg>
