<svg width="80" height="80" viewBox="0 0 80 80" fill="none" xmlns="http://www.w3.org/2000/svg">
    <path d="M70.7404 18.6154C70.7404 33.9866 78.7026 44.5421 78.7026 51.9488C78.7026 59.3554 74.4448 74.911 40.3715 74.911C6.29812 74.911 1.2959 53.9843 1.2959 45.8377C1.2959 7.68878 70.7404 -8.60678 70.7404 18.6154Z" fill="#FFAA7B" fill-opacity="0.1"/>
    <path d="M7.77074 13.3331C7.03519 13.3331 6.32186 13.0909 5.73074 12.6309C5.02852 12.0842 4.57963 11.2953 4.47074 10.4131C4.35963 9.5309 4.60185 8.65757 5.1463 7.95534C5.69297 7.25312 6.48186 6.80423 7.36408 6.69534C8.24186 6.58423 9.12186 6.82646 9.82408 7.37312C10.5263 7.91979 10.9752 8.70868 11.0841 9.5909C11.1952 10.4731 10.953 11.3465 10.4085 12.0487C9.86186 12.7487 9.07297 13.1953 8.19075 13.3065C8.05075 13.3242 7.91074 13.3331 7.77074 13.3331ZM7.77741 8.88868C7.73074 8.88868 7.6863 8.8909 7.63963 8.89757C7.03297 8.97312 6.59963 9.52868 6.67519 10.1398C6.75074 10.7465 7.30408 11.1865 7.91519 11.1042C8.52186 11.0265 8.95519 10.4709 8.87963 9.86201C8.80852 9.30201 8.33075 8.88868 7.77741 8.88868Z" fill="#FFA370"/>
    <path d="M54.4444 29.4444H21.1111C17.7356 29.4444 15 26.7088 15 23.3333C15 19.9577 17.7356 17.2222 21.1111 17.2222H54.4444C57.82 17.2222 60.5556 19.9577 60.5556 23.3333C60.5556 26.7088 57.82 29.4444 54.4444 29.4444Z" fill="white"/>
    <path d="M54.4444 41.6666H21.1111C17.7356 41.6666 15 38.931 15 35.5554C15 32.1799 17.7356 29.4443 21.1111 29.4443H54.4444C57.82 29.4443 60.5556 32.1799 60.5556 35.5554C60.5556 38.931 57.82 41.6666 54.4444 41.6666Z" fill="#FFA370"/>
    <path d="M54.4444 53.8887H21.1111C17.7356 53.8887 15 51.1532 15 47.7776C15 44.4021 17.7356 41.6665 21.1111 41.6665H54.4444C57.82 41.6665 60.5556 44.4021 60.5556 47.7776C60.5556 51.1532 57.82 53.8887 54.4444 53.8887Z" fill="white"/>
    <path d="M52.2221 64.9999C59.2791 64.9999 64.9999 59.2791 64.9999 52.2221C64.9999 45.1651 59.2791 39.4443 52.2221 39.4443C45.1651 39.4443 39.4443 45.1651 39.4443 52.2221C39.4443 59.2791 45.1651 64.9999 52.2221 64.9999Z" fill="#FFA370"/>
    <path d="M20 35.5554C20 32.1799 22.7356 29.4443 26.1111 29.4443H21.1111C17.7356 29.4443 15 32.1799 15 35.5554C15 38.931 17.7356 41.6666 21.1111 41.6666H26.1111C22.7356 41.6666 20 38.931 20 35.5554Z" fill="#FFA370"/>
    <path d="M44.4443 52.2221C44.4443 46.0221 48.8621 40.8554 54.7221 39.6932C53.9132 39.5332 53.0777 39.4443 52.2221 39.4443C45.1643 39.4443 39.4443 45.1643 39.4443 52.2221C39.4443 59.2799 45.1643 64.9999 52.2221 64.9999C53.0777 64.9999 53.9132 64.9132 54.7221 64.751C48.8621 63.5888 44.4443 58.4221 44.4443 52.2221Z" fill="#FFA370"/>
    <path d="M20 23.3333C20 19.9577 22.7356 17.2222 26.1111 17.2222H21.1111C17.7356 17.2222 15 19.9577 15 23.3333C15 26.7088 17.7356 29.4444 21.1111 29.4444H26.1111C22.7356 29.4444 20 26.7088 20 23.3333Z" fill="#664141" fill-opacity="0.1"/>
    <path d="M20 47.7776C20 44.4021 22.7356 41.6665 26.1111 41.6665H21.1111C17.7356 41.6665 15 44.4021 15 47.7776C15 51.1532 17.7356 53.8887 21.1111 53.8887H26.1111C22.7356 53.8887 20 51.1532 20 47.7776Z" fill="#664141" fill-opacity="0.1"/>
    <path d="M54.4441 31.1112H21.1108C16.8219 31.1112 13.333 27.6223 13.333 23.3334C13.333 19.0446 16.8219 15.5557 21.1108 15.5557H54.4441C58.733 15.5557 62.2219 19.0446 62.2219 23.3334C62.2219 27.6223 58.733 31.1112 54.4441 31.1112ZM21.1108 18.889C18.6597 18.889 16.6663 20.8823 16.6663 23.3334C16.6663 25.7846 18.6597 27.7779 21.1108 27.7779H54.4441C56.8952 27.7779 58.8886 25.7846 58.8886 23.3334C58.8886 20.8823 56.8952 18.889 54.4441 18.889H21.1108Z" fill="#664141"/>
    <path d="M24.4449 25.5558C25.6722 25.5558 26.6671 24.5609 26.6671 23.3336C26.6671 22.1063 25.6722 21.1113 24.4449 21.1113C23.2176 21.1113 22.2227 22.1063 22.2227 23.3336C22.2227 24.5609 23.2176 25.5558 24.4449 25.5558Z" fill="#664141"/>
    <path d="M33.3335 25.5558C34.5608 25.5558 35.5558 24.5609 35.5558 23.3336C35.5558 22.1063 34.5608 21.1113 33.3335 21.1113C32.1063 21.1113 31.1113 22.1063 31.1113 23.3336C31.1113 24.5609 32.1063 25.5558 33.3335 25.5558Z" fill="#664141"/>
    <path d="M35.2663 43.3334H21.1108C16.8219 43.3334 13.333 39.8445 13.333 35.5556C13.333 33.4912 14.1708 31.4867 15.633 30.0534C17.0397 28.6156 19.0463 27.7778 21.1108 27.7778H54.4441C57.9619 27.7778 61.0463 30.1423 61.9441 33.5289L58.7219 34.3845C58.2108 32.4556 56.453 31.1112 54.4441 31.1112H21.1108C19.9197 31.1112 18.8108 31.5734 17.9908 32.4089C17.1286 33.2556 16.6663 34.3645 16.6663 35.5556C16.6663 38.0067 18.6597 40.0001 21.1108 40.0001H35.2663V43.3334Z" fill="#664141"/>
    <path d="M24.4449 37.7779C25.6722 37.7779 26.6671 36.783 26.6671 35.5557C26.6671 34.3284 25.6722 33.3335 24.4449 33.3335C23.2176 33.3335 22.2227 34.3284 22.2227 35.5557C22.2227 36.783 23.2176 37.7779 24.4449 37.7779Z" fill="#664141"/>
    <path d="M33.3335 37.7779C34.5608 37.7779 35.5558 36.783 35.5558 35.5557C35.5558 34.3284 34.5608 33.3335 33.3335 33.3335C32.1063 33.3335 31.1113 34.3284 31.1113 35.5557C31.1113 36.783 32.1063 37.7779 33.3335 37.7779Z" fill="#664141"/>
    <path d="M31.6663 55.5556H21.1108C16.8219 55.5556 13.333 52.0667 13.333 47.7778C13.333 45.7133 14.1708 43.7089 15.633 42.2756C17.0397 40.8378 19.0463 40 21.1108 40H35.2663V43.3333H21.1108C19.9197 43.3333 18.8108 43.7956 17.9908 44.6311C17.1286 45.4778 16.6663 46.5867 16.6663 47.7778C16.6663 50.2289 18.6597 52.2222 21.1108 52.2222H31.6663V55.5556Z" fill="#664141"/>
    <path d="M24.4449 50.0001C25.6722 50.0001 26.6671 49.0052 26.6671 47.7779C26.6671 46.5506 25.6722 45.5557 24.4449 45.5557C23.2176 45.5557 22.2227 46.5506 22.2227 47.7779C22.2227 49.0052 23.2176 50.0001 24.4449 50.0001Z" fill="#664141"/>
    <path d="M52.2218 66.6667C44.2573 66.6667 37.7773 60.1867 37.7773 52.2223C37.7773 44.2578 44.2573 37.7778 52.2218 37.7778C60.1862 37.7778 66.6662 44.2578 66.6662 52.2223C66.6662 60.1867 60.1862 66.6667 52.2218 66.6667ZM52.2218 41.1112C46.0951 41.1112 41.1107 46.0956 41.1107 52.2223C41.1107 58.3489 46.0951 63.3334 52.2218 63.3334C58.3485 63.3334 63.3329 58.3489 63.3329 52.2223C63.3329 46.0956 58.3485 41.1112 52.2218 41.1112Z" fill="#664141"/>
    <path d="M50.0003 57.7775C49.558 57.7775 49.1336 57.602 48.8225 57.2887L44.9336 53.3998L47.2914 51.042L49.958 53.7064L56.0025 47.1953L58.4469 49.4642L51.2247 57.242C50.9158 57.5709 50.4869 57.7642 50.0336 57.7731C50.0203 57.7775 50.0092 57.7775 50.0003 57.7775Z" fill="#664141"/>
    </svg>
