<svg width="65" height="64" viewBox="0 0 65 64" fill="none" xmlns="http://www.w3.org/2000/svg">
    <path d="M7.41575 49.1077C7.41575 36.8108 1.03906 28.3664 1.03906 22.4411C1.03906 16.5157 4.44898 4.07129 31.7372 4.07129C59.0255 4.07129 63.0298 20.8126 63.0298 27.33C63.0316 57.8491 7.41575 70.8855 7.41575 49.1077Z" fill="#FFBF75"/>
    <path d="M11.9103 15.3867C10.604 15.3867 9.54102 14.3248 9.54102 13.02C9.54102 11.7152 10.604 10.6533 11.9103 10.6533C13.2165 10.6533 14.2795 11.7152 14.2795 13.02C14.2795 14.3248 13.2165 15.3867 11.9103 15.3867ZM11.9103 12.2311C11.4743 12.2311 11.1205 12.5845 11.1205 13.02C11.1205 13.4555 11.4743 13.8089 11.9103 13.8089C12.3462 13.8089 12.7 13.4555 12.7 13.02C12.7 12.5845 12.3462 12.2311 11.9103 12.2311Z" fill="white"/>
    <path d="M50.2764 19.1111C51.2588 19.1111 52.0561 19.9075 52.0561 20.8889V41.3333H12.0127V20.8889C12.0127 19.9075 12.81 19.1111 13.7924 19.1111H50.2764Z" fill="white"/>
    <path d="M12.0127 41.3333H52.0561V44.8888C52.0561 45.8666 51.2552 46.6666 50.2764 46.6666H13.7924C12.8136 46.6666 12.0127 45.8666 12.0127 44.8888V41.3333Z" fill="#FFA370"/>
    <path d="M35.5941 46.6667C35.5941 46.6667 35.5941 49.3334 38.2636 52.0001H25.8057C28.4752 49.3334 28.4396 46.6667 28.4396 46.6667H35.5941Z" fill="#FFA370"/>
    <path d="M16.017 44.8888V41.3333H12.0127V44.8888C12.0127 45.8666 12.8136 46.6666 13.7924 46.6666H17.7967C16.8179 46.6666 16.017 45.8666 16.017 44.8888Z" fill="#FFFDFB"/>
    <path d="M28.4396 46.6667C28.4396 46.6667 28.4752 49.3334 25.8057 52.0001H29.81C32.4796 49.3334 32.444 46.6667 32.444 46.6667H28.4396Z" fill="#FFFDFB"/>
    <path d="M17.7967 19.1111H13.7924C12.81 19.1111 12.0127 19.9075 12.0127 20.8889V41.3333H16.017V20.8889C16.017 19.9075 16.8143 19.1111 17.7967 19.1111Z" fill="#FFFDFB"/>
    <path d="M27.5855 23.664L23.5278 19.6107C23.0064 19.0898 23.0064 18.2454 23.5278 17.7245L27.5855 13.6711L29.4738 15.5574L26.3593 18.6685L29.4738 21.7796L27.5855 23.664Z" fill="#664141"/>
    <path d="M24.4707 17.3333H40.933V19.9999H24.4707V17.3333Z" fill="#664141"/>
    <path d="M36.484 32.553L34.5957 30.6668L37.7102 27.5557L34.5957 24.4446L36.484 22.5583L40.5417 26.6117C41.0632 27.1326 41.0632 27.977 40.5417 28.4979L36.484 32.553Z" fill="#664141"/>
    <path d="M23.1367 26.2222H39.599V28.8888H23.1367V26.2222Z" fill="#664141"/>
    <path d="M50.2762 48.0001H13.7922C12.0748 48.0001 10.6777 46.6045 10.6777 44.889V20.8889C10.6777 19.1734 12.0748 17.7778 13.7922 17.7778H18.2415V20.4445H13.7922C13.5466 20.4445 13.3473 20.6436 13.3473 20.8889V44.889C13.3473 45.1343 13.5466 45.3334 13.7922 45.3334H50.2762C50.5218 45.3334 50.7211 45.1343 50.7211 44.889V20.8889C50.7211 20.6436 50.5218 20.4445 50.2762 20.4445H45.827V17.7778H50.2762C51.9936 17.7778 53.3907 19.1734 53.3907 20.8889V44.889C53.3907 46.6045 51.9936 48.0001 50.2762 48.0001Z" fill="#664141"/>
    <path d="M12.0127 39.1111H52.0561V41.7778H12.0127V39.1111Z" fill="#664141"/>
    <path d="M37.819 53.3333H26.2509C25.7117 53.3333 25.224 53.008 25.0176 52.5102C24.8111 52.0124 24.9251 51.4382 25.3077 51.0578C27.1604 49.2071 27.559 46.5209 27.5626 46.4942L30.209 46.8409C30.1948 46.9458 29.9474 48.736 28.8849 50.6666H35.1548C34.103 48.7449 33.8414 46.9546 33.8271 46.8498L36.47 46.48C36.4736 46.5066 36.8633 49.072 38.5772 50.9049C38.926 51.1449 39.1538 51.5449 39.1538 52C39.1538 52.736 38.5558 53.3333 37.819 53.3333Z" fill="#664141"/>
    </svg>
