<svg width="64" height="64" viewBox="0 0 64 64" fill="none" xmlns="http://www.w3.org/2000/svg">
    <path d="M14.8925 7.40811C27.1894 7.40811 35.6339 1.03833 41.5592 1.03833C47.4846 1.03833 59.929 4.44455 59.929 31.7032C59.929 58.9619 43.1877 62.9619 36.6703 62.9619C6.15122 62.9637 -6.88523 7.40811 14.8925 7.40811Z" fill="#FFBF75"/>
    <path d="M42.2891 10.1216L43.5461 8.8645L46.0603 11.3787L44.8032 12.6357L42.2891 10.1216Z" fill="white"/>
    <path d="M49.5166 17.3501L50.7737 16.093L53.2878 18.6072L52.0308 19.8643L49.5166 17.3501Z" fill="white"/>
    <path d="M49.2012 11.3794L51.7153 8.86524L52.9724 10.1223L50.4583 12.6365L49.2012 11.3794Z" fill="white"/>
    <path d="M37.7778 44.8888H12V38.6666C12 35.7208 14.3876 33.3333 17.3333 33.3333H32.4444C35.3902 33.3333 37.7778 35.7208 37.7778 38.6666V44.8888Z" fill="white"/>
    <path d="M24.8883 27.1112C28.5702 27.1112 31.555 24.1264 31.555 20.4445C31.555 16.7626 28.5702 13.7778 24.8883 13.7778C21.2064 13.7778 18.2217 16.7626 18.2217 20.4445C18.2217 24.1264 21.2064 27.1112 24.8883 27.1112Z" fill="white"/>
    <path d="M31.537 20.0889C28.5148 20.5512 26.6659 17.3334 26.6659 17.3334C23.537 20.2489 19.5726 20.1778 18.2393 20.0534C18.4348 16.5512 21.3326 13.7778 24.8881 13.7778C28.4437 13.7778 31.3593 16.5689 31.537 20.0889Z" fill="#FFBF75"/>
    <path d="M41.7779 51.9999C47.4235 51.9999 52.0001 47.4232 52.0001 41.7776C52.0001 36.1321 47.4235 31.5554 41.7779 31.5554C36.1323 31.5554 31.5557 36.1321 31.5557 41.7776C31.5557 47.4232 36.1323 51.9999 41.7779 51.9999Z" fill="#FFA370"/>
    <path d="M35.5557 41.7776C35.5557 36.8176 39.0899 32.6843 43.7779 31.7545C43.1308 31.6265 42.4623 31.5554 41.7779 31.5554C36.1317 31.5554 31.5557 36.1314 31.5557 41.7776C31.5557 47.4239 36.1317 51.9999 41.7779 51.9999C42.4623 51.9999 43.1308 51.9305 43.7779 51.8008C39.0899 50.871 35.5557 46.7376 35.5557 41.7776Z" fill="#FFFDFB"/>
    <path d="M21.3333 33.3333H17.3333C14.3876 33.3333 12 35.7208 12 38.6666V44.8888H16V38.6666C16 35.7208 18.3876 33.3333 21.3333 33.3333Z" fill="#FFFDFB"/>
    <path d="M22.2217 20.4445C22.2217 17.4649 24.1897 14.9707 26.8883 14.1174C26.2537 13.9165 25.5906 13.7778 24.8883 13.7778C21.2066 13.7778 18.2217 16.7627 18.2217 20.4445C18.2217 24.1263 21.2066 27.1112 24.8883 27.1112C25.5906 27.1112 26.2537 26.9725 26.8883 26.7716C24.1897 25.9183 22.2217 23.4241 22.2217 20.4445Z" fill="#FFFDFB"/>
    <path d="M26.8846 14.1138C26.2517 13.9129 25.5886 13.7778 24.8881 13.7778C21.3326 13.7778 18.4348 16.5512 18.2393 20.0534C18.977 20.1227 20.5308 20.1547 22.2944 19.6925C22.5895 17.0472 24.4188 14.8943 26.8846 14.1138Z" fill="#FFA370"/>
    <path d="M30.9295 21.4685C28.8655 21.4685 27.3366 20.2347 26.437 19.2374C23.0823 21.6161 19.2868 21.4898 18.1152 21.3814L18.3641 18.7272C19.397 18.8249 22.9899 18.9405 25.7579 16.3592C26.0548 16.0818 26.4601 15.9556 26.8655 16.0161C27.2672 16.0765 27.6192 16.3165 27.8237 16.6703C27.8343 16.6881 29.2672 19.0721 31.3383 18.7716L31.7419 21.4063C31.461 21.4489 31.1908 21.4685 30.9295 21.4685Z" fill="#664141"/>
    <path d="M24.8887 28.4446C20.478 28.4446 16.8887 24.8552 16.8887 20.4446C16.8887 16.0339 20.478 12.4446 24.8887 12.4446C29.2993 12.4446 32.8887 16.0339 32.8887 20.4446C32.8887 24.8552 29.2993 28.4446 24.8887 28.4446ZM24.8887 15.1112C21.9482 15.1112 19.5553 17.5041 19.5553 20.4446C19.5553 23.385 21.9482 25.7779 24.8887 25.7779C27.8291 25.7779 30.222 23.385 30.222 20.4446C30.222 17.5041 27.8291 15.1112 24.8887 15.1112Z" fill="#664141"/>
    <path d="M41.7772 53.3333C35.4057 53.3333 30.2217 48.1493 30.2217 41.7777C30.2217 35.4062 35.4057 30.2222 41.7772 30.2222C48.1488 30.2222 53.3328 35.4062 53.3328 41.7777C53.3328 48.1493 48.1488 53.3333 41.7772 53.3333ZM41.7772 32.8888C36.8759 32.8888 32.8883 36.8764 32.8883 41.7777C32.8883 46.6791 36.8759 50.6666 41.7772 50.6666C46.6786 50.6666 50.6661 46.6791 50.6661 41.7777C50.6661 36.8764 46.6786 32.8888 41.7772 32.8888Z" fill="#664141"/>
    <path d="M39.9997 46.2221C39.646 46.2221 39.3064 46.0816 39.0575 45.831L35.502 42.2754L37.3882 40.3892L39.9357 42.9367L45.2193 36.8994L47.2264 38.6541L41.0042 45.7652C40.7606 46.0425 40.414 46.2079 40.0442 46.2203C40.03 46.2221 40.014 46.2221 39.9997 46.2221Z" fill="#664141"/>
    <path d="M26.666 46.2222H11.9993C11.2633 46.2222 10.666 45.6249 10.666 44.8889V38.6667C10.666 34.9902 13.6562 32 17.3327 32H28.4793V34.6667H17.3327C15.1265 34.6667 13.3327 36.4604 13.3327 38.6667V43.5556H26.666V46.2222Z" fill="#664141"/>
    </svg>
