<svg width="335" height="332" viewBox="0 0 335 332" fill="none" xmlns="http://www.w3.org/2000/svg">
    <g filter="url(#filter0_d)">
    <path d="M149.882 296.438C224.869 306.137 293.447 253.81 303.056 179.562C312.664 105.315 259.664 37.2619 184.677 27.5624C109.69 17.863 41.1112 70.1897 31.5027 144.438C21.8942 218.685 74.8943 286.738 149.882 296.438Z" fill="white"/>
    </g>
    <path d="M275.322 152.809L286.317 117.448L220.379 95.3372C214.329 111.369 208.291 127.405 202.264 143.444L191.9 148.515C202.831 168.836 213.768 189.156 224.711 209.475L288.985 176.819L275.322 152.809Z" fill="#906254"/>
    <path d="M220.38 95.3605L19.8478 102.423L21.7892 211.734L224.684 209.509L220.38 95.3605Z" fill="#A17162"/>
    <path d="M290.614 200.823C308.983 200.265 323.093 175.99 322.13 146.602C321.167 117.214 305.495 93.8424 287.127 94.4004C268.758 94.9583 254.648 119.234 255.611 148.622C256.574 178.01 272.246 201.381 290.614 200.823Z" fill="#FFAA7B"/>
    <path d="M293.588 200.732C311.53 200.187 325.312 176.477 324.371 147.773C323.431 119.069 308.124 96.2422 290.182 96.7872C272.24 97.3321 258.458 121.043 259.398 149.746C260.339 178.45 275.646 201.277 293.588 200.732Z" fill="#E5E5E5"/>
    <path d="M295.856 20.5647C295.824 19.5963 295.006 18.8355 294.028 18.8652C293.05 18.8949 292.284 19.7039 292.315 20.6722L296.088 135.803C296.12 136.771 296.938 137.532 297.916 137.503C298.894 137.473 299.66 136.664 299.629 135.696L295.856 20.5647Z" fill="#906254"/>
    <path d="M297.739 149.99C301.65 149.871 304.652 144.628 304.444 138.279C304.236 131.93 300.897 126.879 296.986 126.998C293.075 127.117 290.073 132.36 290.281 138.709C290.489 145.058 293.828 150.109 297.739 149.99Z" fill="#906254"/>
    <path d="M112.482 246.622C112.151 248.484 130.125 256.12 151.162 255.974C183.344 255.751 208.59 237.443 207.79 235.53C207.133 233.942 189.081 244.117 157.954 246.994C131.024 249.462 112.814 244.755 112.482 246.622Z" fill="#FFA370"/>
    <path d="M93.1931 99.1508L145.151 97.3794L111.998 210.642L57.9778 211.325L93.1931 99.1508Z" fill="white" fill-opacity="0.1"/>
    <path d="M157.201 96.3543L162.975 94.151L128.09 211.774L122.108 212.633L157.201 96.3543Z" fill="white" fill-opacity="0.1"/>
    <defs>
    <filter id="filter0_d" x="0.376953" y="0.404785" width="333.803" height="331.19" filterUnits="userSpaceOnUse" color-interpolation-filters="sRGB">
    <feFlood flood-opacity="0" result="BackgroundImageFix"/>
    <feColorMatrix in="SourceAlpha" type="matrix" values="0 0 0 0 0 0 0 0 0 0 0 0 0 0 0 0 0 0 127 0"/>
    <feOffset dy="4"/>
    <feGaussianBlur stdDeviation="15"/>
    <feColorMatrix type="matrix" values="0 0 0 0 0.658333 0 0 0 0 0.137153 0 0 0 0 0.137153 0 0 0 0.17 0"/>
    <feBlend mode="normal" in2="BackgroundImageFix" result="effect1_dropShadow"/>
    <feBlend mode="normal" in="SourceGraphic" in2="effect1_dropShadow" result="shape"/>
    </filter>
    </defs>
    </svg>
