<svg xmlns="http://www.w3.org/2000/svg" viewBox="0 0 1840 557" width="1840" height="557"><style>tspan { white-space:pre }.shp0 { fill: #2c2e35 } </style><path fill-rule="evenodd" class="shp0" d="M1830.11 40.96L1830.11 14.44L1819.03 40.96L1813.45 40.96L1802.37 14.44L1802.37 40.96L1795.43 40.96L1795.43 0.61L1803.69 0.61L1816.18 30.47L1828.78 0.61L1836.93 0.61L1836.93 40.96L1830.11 40.96ZM1791.5 6.97L1779.14 6.97L1779.14 40.96L1771.86 40.96L1771.86 6.97L1759.61 6.97L1759.61 0.61L1791.5 0.61L1791.5 6.97ZM194.29 89.35C194.29 138.29 159.47 169.93 105.58 169.93L39.58 169.93L39.58 283.93L0.57 283.93L0.57 8.77L105.58 8.77C159.47 8.77 194.29 40.4 194.29 89.35ZM39.58 134.4L104.41 134.4C135.54 134.4 154.12 117.56 154.12 89.35C154.12 60.89 135.54 43.91 104.41 43.91L39.58 43.91L39.58 134.4ZM394.64 184.35C394.64 243.85 351.94 287.03 293.12 287.03C234.52 287.03 191.99 243.85 191.99 184.35C191.99 124.85 234.52 81.67 293.12 81.67C351.94 81.67 394.64 124.85 394.64 184.35ZM356.79 184.35C356.79 143.44 330.61 114.86 293.12 114.86C255.63 114.86 229.45 143.44 229.45 184.35C229.45 225.26 255.63 253.83 293.12 253.83C330.61 253.83 356.79 225.26 356.79 184.35ZM843.79 175.43C843.79 180.38 843.38 187.36 843 190.76L842.82 192.42L688.82 192.42C691.78 230.03 715.33 254.22 749.25 254.22C778.24 254.22 798.07 240.75 803.66 217.26L804.09 215.45L838.77 223.69L838.3 225.53C828.48 264.04 795.19 287.03 749.25 287.03C692.9 287.03 652 243.85 652 184.35C652 123.89 691.67 81.67 748.47 81.67C803.7 81.67 843.79 121.1 843.79 175.43ZM691.07 161.16L804.93 161.16C800.98 131.35 779.52 112.93 748.47 112.93C719.33 112.93 698.02 130.91 691.07 161.16ZM980.52 84.76L980.52 117.57L964.04 117.56C926.15 117.56 903.52 151.22 903.52 207.61L903.52 283.93L866.84 283.93L866.84 84.77L903.52 84.77L903.52 118.6C916.06 97.55 939.05 84.76 965.23 84.76L980.52 84.76ZM1062.11 84.77L1112.13 84.77L1112.13 117.58L1062.11 117.58L1062.11 283.93L1025.42 283.93L1025.42 117.58L992.07 117.58L992.07 84.77L1025.42 84.77L1025.42 68.41C1025.42 26.6 1048.28 0.63 1085.06 0.63C1095.53 0.63 1104.58 1.7 1111.94 3.8L1113.37 4.21L1111.6 37.73L1109.2 36.8C1102.81 34.31 1096.12 33.05 1089.33 33.05C1072.79 33.05 1062.11 45.86 1062.11 65.7L1062.11 84.77ZM1311.04 184.35C1311.04 243.85 1268.35 287.03 1209.52 287.03C1150.92 287.03 1108.39 243.85 1108.39 184.35C1108.39 124.85 1150.92 81.67 1209.52 81.67C1268.35 81.67 1311.04 124.85 1311.04 184.35ZM1273.19 184.35C1273.19 143.44 1247.01 114.86 1209.52 114.86C1172.04 114.86 1145.86 143.44 1145.86 184.35C1145.86 225.26 1172.04 253.83 1209.52 253.83C1247.01 253.83 1273.19 225.26 1273.19 184.35ZM1492.96 84.77L1389.15 354.5L1351.43 354.5L1380.45 279.36L1303.32 84.77L1343.01 84.77L1399.12 231.11L1455.23 84.77L1492.96 84.77ZM1508.14 5.67L1544.83 5.67L1544.83 283.93L1508.14 283.93L1508.14 5.67ZM1759.02 175.43C1759.02 180.36 1758.61 187.34 1758.23 190.76L1758.04 192.42L1604.04 192.42C1607 230.03 1630.55 254.22 1664.48 254.22C1693.46 254.22 1713.3 240.75 1718.89 217.26L1719.32 215.45L1754 223.69L1753.53 225.53C1743.71 264.04 1710.41 287.03 1664.48 287.03C1608.13 287.03 1567.23 243.85 1567.23 184.35C1567.23 123.89 1606.9 81.67 1663.7 81.67C1718.93 81.67 1759.02 121.1 1759.02 175.43ZM1606.29 161.16L1720.16 161.16C1716.21 131.35 1694.75 112.93 1663.7 112.93C1634.56 112.93 1613.24 130.91 1606.29 161.16ZM662.13 84.76L557.24 287.07L535.48 245.11L618.62 84.76L662.13 84.76ZM584.51 84.76L479.62 287.07L457.87 245.11L541 84.76L584.51 84.76ZM507.3 84.76L441.06 212.59L419.28 170.61L463.79 84.76L507.3 84.76ZM1039.81 512.29L1039.81 524.67L1025.4 524.67L1025.4 404.65L1039.81 404.65L1039.81 451.43C1045.23 443.47 1056.42 437.87 1067.78 437.87C1094.23 437.87 1108.81 456.86 1108.81 481.95C1108.81 507.04 1094.23 526.02 1067.61 526.02C1055.07 526.02 1043.71 520.09 1039.81 512.29ZM1094.06 481.95C1094.06 463.13 1083.04 450.76 1066.26 450.76C1049.47 450.76 1038.62 463.13 1038.62 481.95C1038.62 500.77 1049.47 513.14 1066.26 513.14C1083.04 513.14 1094.06 500.77 1094.06 481.95ZM1194.59 439.23L1149.83 555.52L1135.08 555.52L1147.46 523.48L1114.06 439.23L1129.66 439.23L1154.75 504.67L1179.84 439.23L1194.59 439.23ZM1248.33 406L1323.09 406L1323.09 419.73L1263.76 419.73L1263.76 454.65L1311.9 454.65L1311.9 468.55L1263.76 468.55L1263.76 510.77L1324.95 510.77L1324.95 524.67L1248.33 524.67L1248.33 406ZM1393.78 524.67L1372.25 492.63L1350.72 524.67L1334.45 524.67L1364.12 480.59L1336.31 439.23L1352.42 439.23L1372.25 468.55L1391.92 439.23L1408.19 439.23L1380.39 480.59L1410.06 524.67L1393.78 524.67ZM1497.19 484.66L1429.72 484.66C1430.74 501.95 1441.59 513.31 1457.02 513.31C1470.07 513.31 1479.05 507.21 1481.6 496.53L1495.16 499.75C1490.92 516.36 1476.68 526.02 1457.02 526.02C1431.42 526.02 1415.31 506.19 1415.31 481.95C1415.31 457.71 1430.91 437.87 1456.68 437.87C1481.94 437.87 1497.53 456.01 1497.53 478.05C1497.53 480.08 1497.36 483.14 1497.19 484.66ZM1482.28 472.62C1480.92 459.57 1471.76 449.91 1456.68 449.91C1443.28 449.91 1433.45 458.38 1430.57 472.62L1482.28 472.62ZM1592.47 439.23L1592.47 520.6C1592.47 542.13 1576.2 556.88 1552.63 556.88C1532.8 556.88 1517.37 546.37 1514.83 530.94L1528.73 528.57C1529.58 538.06 1539.58 544.67 1552.63 544.67C1567.72 544.67 1578.23 535.52 1578.23 522.13L1578.23 510.26C1574.33 517.55 1563.14 522.46 1550.94 522.46C1524.66 522.46 1510.25 504.32 1510.25 480.25C1510.25 456.01 1524.66 437.87 1550.6 437.87C1561.96 437.87 1573.14 443.29 1578.23 450.76L1578.23 439.23L1592.47 439.23ZM1579.42 480.25C1579.42 462.28 1568.74 450.76 1552.29 450.76C1535.68 450.76 1525 462.28 1525 480.25C1525 498.05 1535.68 509.58 1552.29 509.58C1568.74 509.58 1579.42 498.05 1579.42 480.25ZM1691.98 484.66L1624.51 484.66C1625.53 501.95 1636.38 513.31 1651.8 513.31C1664.86 513.31 1673.84 507.21 1676.38 496.53L1689.95 499.75C1685.71 516.36 1671.47 526.02 1651.8 526.02C1626.21 526.02 1610.1 506.19 1610.1 481.95C1610.1 457.71 1625.7 437.87 1651.46 437.87C1676.72 437.87 1692.32 456.01 1692.32 478.05C1692.32 480.08 1692.15 483.14 1691.98 484.66ZM1677.06 472.62C1675.71 459.57 1666.55 449.91 1651.46 449.91C1638.07 449.91 1628.24 458.38 1625.36 472.62L1677.06 472.62ZM1748.94 451.26C1735.38 451.26 1724.36 464.32 1724.36 492.12L1724.36 524.67L1709.95 524.67L1709.95 439.23L1724.36 439.23L1724.36 456.52C1729.28 445.67 1740.47 437.87 1750.98 437.87C1754.54 437.87 1757.93 438.38 1760.81 439.4L1759.96 453.3C1756.74 451.94 1752.67 451.26 1748.94 451.26Z" /></svg>